<?xml version="1.0"?>
<svg xmlns="http://www.w3.org/2000/svg" version="1.2" baseProfile="tiny" width="800" height="606" viewBox="0 0 800 606" stroke-linecap="round" stroke-linejoin="round">
<g id="SIDO_BORDERS_2020">
<path d="M 465.85 391.97 466.44 393.9 464.64 397.35 462.31 396.38 462.17 394.12 459.82 392.64 462.08 389.98 463.97 388.62 464.4 392.11 465.85 391.97 Z M 478.35 393 477.37 389.52 475.15 388.31 473.06 389.83 464.92 389.33 464.34 388.79 463.5 388.12 463.21 387.76 463.09 387.84 463.07 387.87 463.07 387.88 463.08 387.82 465.54 386.06 462.5 383.92 460.11 381.22 465.54 381.13 468.73 380.44 469.78 378.4 468.56 376.33 470.29 374.92 474.04 374.7 476.21 373.5 481.09 373.23 482.71 372.31 484.72 368.2 488.12 368.05 495.22 364.38 497.52 359.3 499.23 358.42 502.47 359.8 504.73 358.18 505 355.83 506.91 356.8 511.85 356.07 513.93 358.3 513.64 360.94 516.42 362.21 513.75 362.58 511.25 364.92 510.64 371.53 507.44 378.15 504.85 378.87 502.86 381.47 495.58 382.08 497.05 385.51 496.48 387.6 491.1 387.11 489.02 385.53 485.75 387.99 485.18 390.85 478.35 393 Z" fill-rule="evenodd" class="0" id="부산광역시"/>
<path d="M 236.46 370.28 235.41 372.42 239.99 374.33 244.6 373.2 248.81 370.98 252.12 370.09 254.96 370.91 259.66 378.03 263.3 378.13 264.83 380.11 263.38 381.36 263.83 384.45 257.23 390.47 252.15 389.49 240.89 392.75 237.34 390.79 236.3 388.5 233.5 386.61 224.76 386.05 224.41 380.44 226.26 379.82 228.06 374.83 231.44 375.14 233.57 370.79 236.46 370.28 Z" class="1" id="광주광역시"/>
<path d="M 293.95 212.41 296.42 213.36 294.33 218.34 296.28 222.16 299.6 225.69 304.07 225.93 304.87 228.86 306.79 228.86 307.63 233.93 306.16 234.31 304.81 233.37 301.96 235.15 302.03 238.25 298.47 241.97 295.18 241.85 293.61 242.8 287.38 241.95 284.61 240.13 285.08 237.88 282.01 234.22 281.59 229.71 283.88 226.26 283.13 223.11 279.66 221.65 279.59 215.31 276.8 210.26 280.11 207.77 284.9 208.5 289.59 211.83 293.95 212.41 Z" class="2" id="세종특별자치시"/>
<path d="M 294.23 190.05 296.57 186.13 301.52 183.57 303.92 183.87 305.19 182.27 305.95 178.54 309.77 178.12 313.17 175.6 312.93 173.55 316.12 172.33 321.22 172.28 323.88 173.81 326.2 170.06 332.13 167.74 332.78 162.84 338.38 163.44 341.5 158.16 344.57 154.84 345.29 158.28 346.76 160.74 349.5 162.57 355.82 161.54 358.59 160.27 361.85 161.65 362.62 159.96 365.37 159 365.25 155.57 364.05 153.58 365.95 151.86 371.08 149.94 374.8 151.45 376.78 157.52 380.87 157.1 384.98 155.49 386.41 152.62 389.72 154.62 391.86 152.75 395.57 150.97 397.85 153.25 400.33 153.08 402.25 155.47 407.28 153.84 409.32 154.77 402.5 160.04 402.79 162.11 405.55 163.58 409.64 161.05 415.04 160.96 416.84 162.19 416.31 164.2 420.9 166.12 425.32 166.23 427.38 164.51 429.32 166.94 433.2 168.83 441.88 170.08 444.52 171.15 442.39 173.76 436.81 173.66 433.64 178.64 429.63 179.8 428.5 181.63 423.66 184.15 421.34 186.35 421.68 187.86 419.39 191.95 422.16 193.45 422.15 195.11 419 199.11 411.59 199 407.47 197.87 403.8 194.21 399.16 192.52 398.03 195.38 396.1 194.9 396.5 199 386.99 197.6 384.78 198.03 382.92 200.06 379.21 198.57 378.74 201.18 376.24 206.14 380.17 208.93 378.16 210.53 374.32 208.06 372.9 209.48 370.49 209.15 367.94 207.46 367.12 210.49 364.6 212.45 365.97 216.58 365.23 220.33 362.92 220.7 360.62 219.22 358.8 216.33 356.79 220.45 350.37 222.36 350.48 223.88 353.35 225.59 356.42 225.56 358.42 228.68 361.77 230.64 362.18 232.96 359.52 234.14 359.68 237.6 358.6 239.91 358.77 243.68 359.92 246.61 359.61 250.45 356.44 252.15 355.22 254.31 356.39 258.28 359.76 258.3 360.8 256.3 365.07 257.83 366.99 260.09 369.44 260.87 370.61 259.42 373.87 258.49 377.9 260.2 375.98 262.02 378.88 266.19 376.94 267.07 373.76 265.39 369.97 267.77 372.26 271.46 371.46 273.84 368.85 276.02 368.37 280.7 364.99 283 363.52 282.47 359.11 285.96 356.47 284.13 350.35 285.69 346.92 287.09 344.85 285.17 340.04 284.65 338.43 281.54 336.31 282.78 332.83 280.93 330.49 276.89 327.46 273.65 328.8 270.82 327.86 268.91 328.38 264.5 326.95 263.09 323.1 262.19 321.19 260.82 316.79 262.24 316.07 259.68 317.47 257.31 316.68 255.49 317.75 251 319.74 249.87 320.43 245.8 321.92 244.71 321.97 242.14 316.5 240.84 317.99 238.97 315.14 237.98 312.24 238.98 306.58 237.92 306.16 234.31 307.63 233.93 306.79 228.86 304.87 228.86 304.07 225.93 299.6 225.69 296.28 222.16 294.33 218.34 296.42 213.36 293.95 212.41 295.72 211.38 296.75 208.76 299.49 205.59 305.09 204.85 307.08 206.32 308.81 204.96 306.04 202.12 306.78 200.91 304.55 198.82 299.33 196.81 299.6 194.35 296.98 194.05 296.44 190.97 294.23 190.05 Z" class="3" id="충청북도"/>
<path d="M 213 489.1 213.6 490.15 217.88 490.85 212.51 494.67 208.76 495.17 208.43 491.43 209.28 489.86 213 489.1 Z M 224.45 486.77 227.8 488.61 226.02 490.84 226.13 495.28 224.9 495.98 222.15 492.93 224.18 489.98 222.97 488.25 224.45 486.77 Z M 251.17 485.25 254.24 489.33 253.2 491.64 249.47 491.7 245.71 489.33 248.85 485.16 251.17 485.25 Z M 214.93 482.86 219.2 483.89 220.88 486.59 217.11 489.59 214.2 488.91 213.4 487.32 214.93 482.86 Z M 244.83 474.21 244.13 472.98 240.69 471.87 244.17 469.15 248.81 470.34 249.66 471.99 245.36 475.69 244.83 474.21 Z M 265.81 466.68 267.4 469.89 263.41 469.22 265.81 466.68 Z M 228.87 464.74 232.47 466.45 232.98 469.92 234.82 473.23 237.37 474.34 232.92 476.97 231.39 475.9 228.21 475.94 226.86 473.8 223.88 471.84 222.76 466.54 223.82 465.22 228.87 464.74 Z M 256.27 465.35 254.75 467.82 252.18 469.64 247.51 467.5 249.56 463.81 252.87 465.45 256.27 465.35 Z M 244.15 460.49 246.82 463.75 246.55 465.39 243.79 466.98 241.14 466.19 235.61 466.43 237.74 462.08 244.15 460.49 Z M 315.24 457.51 318.37 456.84 321.55 459.2 321.81 460.91 316.63 463.27 316.92 461.23 315.24 457.51 Z M 286.47 454.09 288.42 456.23 286.5 460.53 285.33 461.34 281.12 460.71 278.35 461.44 273.46 459.82 273.17 457.04 277.56 456.55 282.21 454.56 286.47 454.09 Z M 313.89 448.76 315.22 449.67 313.37 452.46 316.65 452.68 317.27 455.2 312.19 455.74 312.73 452.31 310.6 450.99 313.89 448.76 Z M 347.31 450.21 349.46 455.01 343.47 453.21 341.04 450.3 342.39 448.39 346.01 447.89 347.31 450.21 Z M 180.16 444.29 183.03 444.31 186.42 446.42 187.03 448.76 189.48 448.74 193.87 452.12 194.45 453.34 192.65 459.8 189.32 463.01 186.44 463.81 183.68 465.85 181.07 465.44 174.76 469.2 169.6 469.33 168.01 466.96 165.02 466.65 162.22 462.48 165.19 458.13 169.93 455.5 172.03 453.36 178.37 449.54 179.99 446.83 180.16 444.29 Z M 158.78 439.42 161.5 440.53 164.65 443.81 162.96 445.37 163.64 447.28 158.58 450.19 155.92 449.98 161.78 444.73 160.62 444.3 158.78 439.42 Z M 154.21 438.68 156.73 439.25 155.98 441.19 158.54 442.26 159.47 444.4 155.81 445.63 155.25 443.09 153.58 441.69 154.21 438.68 Z M 170.04 434.95 173.07 436.95 172.88 438.41 167.57 440.51 165.81 439.33 166.4 436.82 170.04 434.95 Z M 89.05 431.91 91.85 433.13 90.93 435.37 88.77 436.15 86.61 439.8 84.59 437.78 86.01 434.37 89.05 431.91 Z M 348.21 429.24 348.25 433.92 350.16 435.13 350.66 439.24 349.08 444.16 345.14 443.35 343.8 441.41 341.11 440.2 342.01 436.62 345.59 433.54 345.81 428.09 348.21 429.24 Z M 149.07 428.73 151.35 429.43 153.54 432.59 150.01 434.67 145.54 435.06 143.04 433.64 143.13 430.3 149.07 428.73 Z M 168.41 431.38 167.28 428.42 161.5 429.75 160.13 427.63 161.55 424.55 166.14 423.74 167.27 425.42 171.31 425.88 172.15 428.75 171.6 431.45 168.41 431.38 Z M 151.65 419.77 152.19 424.76 149.28 425.05 146.15 427.44 145.82 429.04 141.94 429.2 139.86 427.13 141.14 422.95 145.49 423.07 151.65 419.77 Z M 165.14 411.51 169.68 413.23 167.68 417.2 162.36 418.88 159.13 415.7 161.46 414 164.34 415.02 165.14 411.51 Z M 190.27 416.37 189.22 415.22 184.81 415.04 182.84 414.4 181.35 416.13 179.32 414.09 182.7 413.35 183.28 408.44 185.36 407.13 188.23 410.59 187.94 413.76 191.69 413.53 193.27 415.33 190.27 416.37 Z M 159.32 405.92 162.86 408.87 162.55 411.93 161.38 413.51 156.7 415.06 154.31 413.51 150.42 413.16 153.3 409.78 156.4 408.07 158.39 408.19 159.32 405.92 Z M 343.82 405.11 343.96 405.99 346.82 406.04 348.94 407.82 348.91 411.01 343.73 408.81 340.15 408.07 340.07 406.29 342.97 403.84 343.82 405.11 Z M 170.39 402.6 167.44 401.57 167.28 395.64 170.69 396.81 171.98 400.93 170.39 402.6 Z M 158.5 390.24 157.02 389.21 162.4 385.85 165.1 383.2 165.5 389.72 162.95 392.96 158.5 390.24 Z M 335.68 407.89 335.68 407.9 336.44 409.19 332.95 411.31 330.08 410.4 327.56 412.03 332.61 417.45 336.37 416.45 339.49 414.02 347.65 413.76 347.1 420.35 344.67 423.31 345.76 424.84 343.25 428.2 340.14 429.29 336.76 426.86 336.77 426.86 334.29 426.81 332.96 429.93 330.11 430.88 332.38 435.61 331.41 438.75 327.49 436.85 323.51 436.1 323.64 429.5 326.24 427.95 326.33 424.84 323.57 419.55 320.2 418.87 320.69 415.74 319.04 412.47 316.5 412.42 316.75 415.31 306.15 417.76 307.99 420.26 306.06 420.89 305.01 423.33 306.55 424.95 303.61 426.97 305.58 430.34 312.47 435.34 315.5 436.91 317.23 439.05 318.23 443.11 316.07 444.98 312.87 444.28 311.5 445.08 308.18 443.72 306.19 447 310.25 447.81 307.1 452.87 304.39 453.38 295.68 456.79 292.14 455.57 292.76 453.33 289.85 451.11 283.99 450 278.59 451.25 275.91 450.21 275.14 446.99 279.11 443.2 281.49 443.02 281.57 439.57 283.43 437.75 287.62 436.53 288.91 431.75 291.47 429.83 293.17 429.9 293.94 432.53 293.07 433.95 296.18 435.12 299.44 430.6 298.54 425.84 295.99 426.07 294.97 427.94 291.12 427.87 289.17 424.94 285.62 427.36 285.24 429.43 282.11 432.45 275.13 432.27 274.46 433.87 269.93 435.55 267.61 438.7 261.99 440.25 260.91 449.21 259.84 452.48 260.01 454.82 257.85 456.93 254.39 458.79 250.46 458.39 249.59 460.3 243.75 459.31 239.57 457.24 240.22 455.75 239.02 452.14 239.86 448.36 239.42 444.59 237.12 444.1 236.72 450.24 235.92 454.55 232.19 459.81 229.65 460.15 226.58 462.47 224.76 462.32 222.37 463.24 220.89 465.36 220.69 469.1 218.33 474.23 213.87 473.19 212.37 475.22 209.32 475.97 208.81 473.47 210.42 471.79 208.8 468.46 205.59 468.45 204.64 466.82 209.3 463 208.38 461.43 204.79 461.35 202.59 459.29 204.37 457.03 202.57 456.07 202.63 450.24 199.64 447.46 195.35 449.98 194.21 446.63 189.19 445.49 186.8 443.89 183.23 443.06 183.81 440.07 181.08 438.08 180.54 435.14 180.9 431.47 184.2 424.95 187.57 426.09 189.09 429.45 193.01 431.67 195.23 428.08 194.38 423.98 201.85 422.47 200.95 420.62 196.61 422.36 193.48 422.76 190.93 420.94 192.99 419.21 197.03 414.26 196.79 409.01 195.1 404.29 192.69 404.87 192.86 407.32 188.69 407.72 187.72 404.74 184.88 402.31 186.08 400.02 188.43 402.16 191.95 399.99 190.64 398.2 195.36 395.85 194.45 393.19 191.12 394.15 190.34 390.73 187.34 388.85 187.02 392.53 183.83 391.69 180.5 397.13 178.05 396.64 178.01 392.69 172.49 392.16 169.95 390.59 169.95 387.65 173.34 386.13 175.48 387.19 179.18 386.25 181.44 382.47 183.35 383.68 186.38 383.45 190.21 388.42 190.33 390.08 195.97 390.19 197.41 391.64 196.8 395.54 199.35 395.22 198.98 393.22 201.33 392.01 203.6 387.52 198.82 386.73 191.62 378.42 186.08 375.19 185.31 374 186.31 370.9 189.59 367.09 192.16 367.18 194.02 364.85 194.07 362.45 196.13 357.87 196.66 354.91 198.39 351.88 201.7 351.23 205.29 352.17 206.66 353.6 204.96 356.01 209.71 360.22 208.99 362.51 211.01 364.75 215.46 364.38 216.63 362.34 219.31 361.96 223.33 363.26 225.79 359.83 229.41 359.98 229.99 358.33 232.93 357.03 232.75 355.08 235.41 352.4 234.78 348.92 236.63 347.11 244.93 346.9 248.09 347.72 248.13 347.7 251.16 349.2 251.72 351.95 255.41 355.09 259.94 354.41 259.38 351.44 266.35 347.16 266.64 350.76 268.29 351.57 265.88 355.58 270.31 358.32 270.27 361.13 267.28 363.09 274.12 365.58 278.69 364.3 281.04 361.97 285.96 363.59 286.85 361.66 290.86 364.12 294.11 363.95 296.66 365 301.55 363.03 305.79 364.69 309.15 359.84 310.66 358.59 314.39 358.3 317.3 358.91 326.14 364.52 328.15 369 329.74 369.67 330.95 373.79 331.33 378.42 333.95 380.86 336.96 382.3 338.96 384.44 339.07 386.82 344.04 391.54 347.14 392.97 348.98 396.22 348.51 399.56 346.18 402.18 347.19 405.81 344.88 405.84 343.06 403.49 340.82 405.61 339.72 406.06 339.18 407.44 336.49 406.16 335.68 407.89 Z M 236.46 370.28 233.57 370.79 231.44 375.14 228.06 374.83 226.26 379.82 224.41 380.44 224.76 386.05 233.5 386.61 236.3 388.5 237.34 390.79 240.89 392.75 252.15 389.49 257.23 390.47 263.83 384.45 263.38 381.36 264.83 380.11 263.3 378.13 259.66 378.03 254.96 370.91 252.12 370.09 248.81 370.98 244.6 373.2 239.99 374.33 235.41 372.42 236.46 370.28 Z" fill-rule="evenodd" class="4" id="전라남도"/>
<path d="M 251.71 561.96 252.96 562.94 251.92 565.88 253.76 567.01 252.04 575.73 249.7 576.46 248.05 579.67 245.35 582.05 244.22 584.69 239.59 585.36 229.42 588.87 223.77 589.13 222.89 590.39 218.33 592.88 209.8 592.16 204.46 594.14 202.16 592.1 200.2 592.82 197.31 591.78 193.45 593.4 187.7 592.4 182.35 597.32 178.12 592.84 172.45 590.09 170.11 586.46 170.17 581.9 172.43 579.37 175.82 577.37 176.96 575.75 179.94 574.53 183.1 570 184.66 569.83 188.08 567.3 193.01 566.02 194.86 564.82 197.27 565.27 206.81 561.34 210.94 561.3 212.28 560.52 212.33 560.54 216.81 560.84 218.17 559.5 222.27 559.67 225.3 558.48 225.86 558.93 232.77 556.96 236.25 557.2 238.71 556.5 240.3 557.56 243.24 557.18 244.98 559.93 249.45 560.37 251.71 561.96 Z" class="5" id="제주특별자치도"/>
<path d="M 431.05 323.33 428.8 324.25 428.45 328.12 421.85 328.26 417.51 330.86 413.63 331.27 416.88 328.87 416.75 327.46 412.03 323.42 412.22 320.5 418.09 321.92 420.49 320.68 420.25 318.64 415.78 316.14 414.92 314.85 419.04 309.42 424.5 309.8 425.86 308.75 425.86 308.7 425.68 307.14 422.25 305.32 414.93 304.64 416.65 299.85 419.49 296.36 422.56 295.42 425.16 295.66 425.04 300.06 428.27 300.64 428.88 298.35 431.63 295.21 432.87 292.14 439.09 289.99 440.69 287.73 444.4 287.63 449.31 286.66 452.7 288.04 454.88 291.42 453.94 296.35 455.88 297.79 456.38 303.18 450.74 307.53 451.72 309.7 447.87 311.54 449.24 315.16 447.95 319.1 445.01 319.5 440.96 321.15 440.31 317.4 436.63 317.21 430.84 320.06 431.05 323.33 Z" class="6" id="대구광역시"/>
<path d="M 316.79 262.24 314 263.96 311.4 267 307.47 265 304.13 258.55 302.51 258.94 302.75 261.62 300.85 266.61 298.21 266.07 297.24 264.07 294.95 263.89 293.68 262.14 293.6 259.27 291.03 258.05 291.14 252.41 293.27 250.48 293.61 242.8 295.18 241.85 298.47 241.97 302.03 238.25 301.96 235.15 304.81 233.37 306.16 234.31 306.58 237.92 312.24 238.98 315.14 237.98 317.99 238.97 316.5 240.84 321.97 242.14 321.92 244.71 320.43 245.8 319.74 249.87 317.75 251 316.68 255.49 317.47 257.31 316.07 259.68 316.79 262.24 Z" class="7" id="대전광역시"/>
<path d="M 234.18 174.17 235.73 172.25 227.89 166.14 226.8 163.14 224.85 161.41 224.19 157.25 225.11 154.45 223.79 151.65 225.19 146.74 227.74 147.42 233.52 146.21 227.35 143.17 226.33 142.15 220.07 143.88 216.88 146.33 219.55 147.6 222.54 150.13 224.48 153.58 223.62 155.13 219.66 152.6 218.5 154.4 215.87 154.1 214.13 156.53 212.37 155.68 212.04 153.63 214.17 151.69 213 148.08 219.63 143.89 227.93 141.59 229.56 139.3 235.36 133.41 235.47 132.4 237.11 131.3 238.08 128.05 234.15 124.76 234.5 121.67 236.17 119.17 236.18 119.02 236.77 117.34 242.93 118.84 243.61 120.12 242.63 125.53 245.49 126.2 248.41 124.97 251.72 130.32 251.9 130.56 254.63 128.89 255.94 130.39 258.54 129.83 262.17 127.51 266.62 128.25 267.05 130.17 270.2 130.95 272.83 128.17 278.34 126.19 280.31 123.29 277.95 122.38 280.5 118.36 282.66 118.21 281.82 114.48 274.09 117.1 273.67 114.94 275.53 111.8 274.8 107.67 272.95 107.4 273.1 102.5 271.46 101.72 268.24 102.72 264.23 101.14 260.64 106.09 260.79 108.31 258.06 109.04 256.79 106.02 252.87 107.43 251.47 113.43 246.4 115.19 240.78 111.75 239.8 114.33 232.29 113.2 232.16 113.05 226.44 108.58 224.14 108.2 221.53 111.6 215.7 113.59 213.46 111.28 210.93 106.24 211.83 104.68 209.83 99.71 210.83 95.8 209.47 94.39 209.96 91.38 215.75 94.4 217.78 94.57 222 92.39 225.36 92.42 226.33 87.07 225.09 86.01 228.62 82.75 226.42 80.52 225.74 77.18 226.29 73.21 229.76 71.1 231.62 72.13 239.41 68.39 241.73 68.34 244.98 64.65 248.09 59.46 246.85 57.6 252.03 53.1 254.29 54.08 258.84 52.97 256.96 50.71 258.75 49.41 258.84 46.37 260.21 43.78 264.06 42.19 273.01 37.3 274.61 38.37 274.7 41.68 276.98 42.65 280.52 42.02 280.27 44.25 281.82 45.65 283.55 50.69 287.46 51.94 293.72 48.14 294.08 51.47 292.98 52.92 294.07 55.66 296.83 55.51 297.85 57.85 302.84 56.5 304.23 55.24 308.18 57.03 311.05 56.29 311.5 61.97 312.93 66.4 318.04 68.5 322.07 68.31 322.82 71.97 327.05 72.51 329.95 74.81 330.51 78.58 328.98 82.12 326.99 81.91 324.97 83.77 320.85 85.92 321.72 89.13 320.06 91.51 322.11 93.5 322.24 95.28 318.39 97.85 322.03 99.16 324.41 99.07 323.18 102.73 323.42 105.53 321.79 107.74 323.83 109.01 326.49 108.63 328.86 106.63 331.67 107.62 334.07 109.59 339.73 112.73 340.6 113.79 345.6 113.18 355.94 117.54 355.28 119.03 351.37 119.88 346.25 124.1 348.47 124.56 350.24 127.38 350.58 130 348.08 136.16 346.19 137.92 346.01 140.22 347.09 145.01 344.8 151.94 344.57 154.84 341.5 158.16 338.38 163.44 332.78 162.84 332.13 167.74 326.2 170.06 323.88 173.81 321.22 172.28 316.12 172.33 312.93 173.55 313.17 175.6 309.77 178.12 305.95 178.54 305.19 182.27 303.92 183.87 301.52 183.57 296.57 186.13 294.23 190.05 292.3 187.9 286.86 186.04 284.8 183.67 274.86 181.42 272.65 184.58 269.69 184.77 265.37 186.2 260.94 185.79 255.88 187.46 252.58 189.19 251.85 186.54 247.92 185.7 245.96 184.25 241.46 178.78 239.36 175.09 235.05 175.09 234.18 174.17 Z M 235.74 172.19 237.29 167.2 237.35 164.14 241.28 163.09 238.02 160.17 234.68 159.91 232.69 163.31 227.95 166.07 235.74 172.19 Z" fill-rule="evenodd" class="8" id="경기도"/>
<path d="M 193.66 222.77 193.68 228.77 196.63 232.8 196.37 233.78 200.17 242.41 198.43 243.75 195.33 241.99 193.33 243.18 188.77 239.87 189.02 234.17 188.48 227.36 186.99 225.57 187.86 222.61 191.94 221.02 193.66 222.77 Z M 228.91 178.31 229.53 178.77 234.99 179.78 238.6 181.09 239.67 185.46 241.92 186.85 242.4 189.75 247.31 191.56 251.91 190.67 252.58 189.19 255.88 187.46 260.94 185.79 265.37 186.2 269.69 184.77 272.65 184.58 274.86 181.42 284.8 183.67 286.86 186.04 292.3 187.9 294.23 190.05 296.44 190.97 296.98 194.05 299.6 194.35 299.33 196.81 304.55 198.82 306.78 200.91 306.04 202.12 308.81 204.96 307.08 206.32 305.09 204.85 299.49 205.59 296.75 208.76 295.72 211.38 293.95 212.41 289.59 211.83 284.9 208.5 280.11 207.77 276.8 210.26 279.59 215.31 279.66 221.65 283.13 223.11 283.88 226.26 281.59 229.71 282.01 234.22 285.08 237.88 284.61 240.13 287.38 241.95 293.61 242.8 293.27 250.48 291.14 252.41 291.03 258.05 293.6 259.27 293.68 262.14 294.95 263.89 297.24 264.07 298.21 266.07 300.85 266.61 302.75 261.62 302.51 258.94 304.13 258.55 307.47 265 311.4 267 314 263.96 316.79 262.24 321.19 260.82 323.1 262.19 326.95 263.09 328.38 264.5 327.86 268.91 328.8 270.82 327.46 273.65 330.49 276.89 332.83 280.93 330.68 287.56 327.66 285.67 321.07 283.94 321.88 285.59 321.31 289.32 318.35 290.68 312.84 290.28 310.71 287.43 310.4 285.19 306.73 287.48 304 285.91 303.69 283.92 300.84 277.61 299.99 274.24 296.17 274.59 292.77 276.61 290.3 275.98 287.41 277.52 285.1 277.41 279.97 279.25 278.59 278.5 276.04 281.44 272.48 280.53 269.17 277.97 268.71 274.48 264.32 272.14 255.8 271.84 253.68 273.43 251.6 272.76 249.55 273.99 248.63 276.28 248.3 281.02 242.82 282.94 240.8 284.75 234.77 285.6 234.07 287.09 233.5 288.39 225.19 287.19 226.04 285 223.55 282.65 221.98 282.22 221.89 277.44 219.31 277.37 217.5 274.28 209.68 271.67 210.07 268.01 211.47 266.23 210.78 262.03 212.73 259.08 207.83 252.69 212.15 251.14 212.47 249.34 208.52 246.49 205.46 246.3 206.29 242.76 208.13 241.34 205.99 238.37 205.48 231.63 204.04 229.05 204.3 226.83 202.52 222.9 198 220.74 192.66 219.43 189.83 220.65 184.56 224.06 184.18 220.72 185.55 219.46 184.81 216.02 181.51 214.28 182.45 211.01 182.1 208.05 178.71 211.06 173.8 214 169.51 213.83 168.94 212.09 170.8 209.49 173.8 210.67 176.88 208.92 172.75 205.52 169.88 205.27 168.01 208.85 164.92 203.25 167.31 203.02 169.94 197.09 172.64 198.95 174.24 194.24 173.1 192.68 174.75 189.31 179.18 188.13 182.83 189.61 184.78 186.14 183.85 181.75 186.55 183.18 185.54 186.89 187.55 189 186.72 192.29 184.69 195.64 184.89 197.7 188.09 198.43 187.4 195.63 189 193.39 193.18 194.04 192.52 192.05 195.91 190.74 198.84 189.48 197.4 185.41 194.48 185.34 193.18 182.73 193.19 180.27 188.78 179.96 191.16 177.85 199.28 176.68 202.18 177.61 206.25 171.8 209.54 171.8 212.07 174.5 216.67 175.86 222.26 178.22 228.91 178.31 Z M 220.14 234.69 217.08 236.12 215.29 235.17 211.78 237.01 210.33 239.2 214.67 238.67 214.84 236.66 218.78 236.34 220.14 234.69 Z" fill-rule="evenodd" class="9" id="충청남도"/>
<path d="M 529.67 172.42 528.03 174.97 528.72 179.35 527.79 180.56 529.05 183.74 529.01 190.19 529.94 194.74 532.19 197.31 533.77 201.62 535.52 203.93 534.4 205.08 535.38 208.32 535.17 211.62 531.56 214.18 528.85 218.05 528.03 222.82 528.67 224.8 531.34 227.64 532.06 232.9 530.68 235.22 530.88 241.52 530.14 243.42 526.32 248.01 524.89 252.97 523.92 260.35 525.36 264.02 523.88 265.65 526.9 270.33 526.37 272.98 531.26 277.73 528.18 280.46 525.01 281.52 524.28 282.94 527.03 284.15 526.41 286.46 531.96 289.36 538.3 285.53 541.32 282.22 543.14 279.08 545.66 279.87 547.22 286.62 543.64 290.02 543.9 291.95 539.95 297.18 541 298.98 540.93 303.43 536.98 311.87 537.54 313.59 536.17 316.63 535.29 322.26 532.39 326.85 521.77 323.75 518.95 325.99 516.07 327.18 511.47 326.43 511.76 322.44 505.45 319.14 502.86 318.86 491.99 321.72 490.54 323.4 490.47 327.47 488.01 326.91 483.14 330.24 480.93 331.51 476.36 328.61 473.48 328 468.95 330.09 466.76 332.78 460.89 333.83 459.96 335.72 456.2 336.05 452.5 334.51 450.15 334.89 448.43 333.02 445.29 332.75 439.09 334.67 435.85 333.25 434.23 330.84 431.87 329.88 431.88 325.89 431.05 323.33 430.84 320.06 436.63 317.21 440.31 317.4 440.96 321.15 445.01 319.5 447.95 319.1 449.24 315.16 447.87 311.54 451.72 309.7 450.74 307.53 456.38 303.18 455.88 297.79 453.94 296.35 454.88 291.42 452.7 288.04 449.31 286.66 444.4 287.63 440.69 287.73 439.09 289.99 432.87 292.14 431.63 295.21 428.88 298.35 428.27 300.64 425.04 300.06 425.16 295.66 422.56 295.42 419.49 296.36 416.65 299.85 414.93 304.64 422.25 305.32 425.68 307.14 425.86 308.7 425.86 308.75 424.5 309.8 419.04 309.42 414.92 314.85 415.78 316.14 420.25 318.64 420.49 320.68 418.09 321.92 412.22 320.5 412.03 323.42 416.75 327.46 416.88 328.87 413.63 331.27 412.11 328.36 406.39 326.36 401.58 327.77 399.32 326.4 397.92 328.11 394.85 327.66 390.32 325.04 395.14 323.01 394.83 318.9 393.53 315.77 390.86 314.47 389.69 311.95 387.83 312.19 386.11 310.07 386.4 308.31 380.37 305.92 378.37 307.17 373.98 307.27 369.82 304.72 365.33 303.37 363.71 300.51 360.95 300.9 360.02 298.39 359.82 296.14 362.34 294.97 360.92 289.89 358.98 288.78 359.11 285.96 363.52 282.47 364.99 283 368.37 280.7 368.85 276.02 371.46 273.84 372.26 271.46 369.97 267.77 373.76 265.39 376.94 267.07 378.88 266.19 375.98 262.02 377.9 260.2 373.87 258.49 370.61 259.42 369.44 260.87 366.99 260.09 365.07 257.83 360.8 256.3 359.76 258.3 356.39 258.28 355.22 254.31 356.44 252.15 359.61 250.45 359.92 246.61 358.77 243.68 358.6 239.91 359.68 237.6 359.52 234.14 362.18 232.96 361.77 230.64 358.42 228.68 356.42 225.56 353.35 225.59 350.48 223.88 350.37 222.36 356.79 220.45 358.8 216.33 360.62 219.22 362.92 220.7 365.23 220.33 365.97 216.58 364.6 212.45 367.12 210.49 367.94 207.46 370.49 209.15 372.9 209.48 374.32 208.06 378.16 210.53 380.17 208.93 376.24 206.14 378.74 201.18 379.21 198.57 382.92 200.06 384.78 198.03 386.99 197.6 396.5 199 396.1 194.9 398.03 195.38 399.16 192.52 403.8 194.21 407.47 197.87 411.59 199 419 199.11 422.15 195.11 422.16 193.45 419.39 191.95 421.68 187.86 421.34 186.35 423.66 184.15 428.5 181.63 429.63 179.8 433.64 178.64 436.81 173.66 442.39 173.76 444.52 171.15 448.59 172.52 449.84 173.86 456.64 174.38 455.63 172.44 457.9 168.72 464.04 169.72 465.97 172.68 469.14 173.43 472.97 171.08 474.39 168.22 476.85 168.03 478.35 169.82 481.1 169.03 485.52 169.73 489.39 171.17 490.6 168.64 493.38 167.31 500.66 170.78 504.29 173.88 508.47 173.49 507.67 170.24 512.72 165.55 515.29 165.77 516.31 164.24 520.8 162.28 522.87 162.28 524.13 163.68 524.65 167.45 529.87 171.28 529.67 172.42 Z M 693.39 118.77 694.07 121.84 692.91 125.86 688.81 127.91 682.22 126.08 681.39 125.11 682.48 120.9 686.11 119.41 693.39 118.77 Z" fill-rule="evenodd" class="10" id="경상북도"/>
<path d="M 251.9 130.56 251.72 130.32 248.41 124.97 245.49 126.2 242.63 125.53 243.61 120.12 242.93 118.84 236.77 117.34 239.8 114.33 240.78 111.75 246.4 115.19 251.47 113.43 252.87 107.43 256.79 106.02 258.06 109.04 260.79 108.31 260.64 106.09 264.23 101.14 268.24 102.72 271.46 101.72 273.1 102.5 272.95 107.4 274.8 107.67 275.53 111.8 273.67 114.94 274.09 117.1 281.82 114.48 282.66 118.21 280.5 118.36 277.95 122.38 280.31 123.29 278.34 126.19 272.83 128.17 270.2 130.95 267.05 130.17 266.62 128.25 262.17 127.51 258.54 129.83 255.94 130.39 254.63 128.89 251.9 130.56 Z" class="11" id="서울특별시"/>
<path d="M 164.27 148.38 164.68 149.95 170.64 152.76 165.3 155.33 162.24 152.05 164.27 148.38 Z M 205.48 151.48 205.53 151.58 205.54 151.59 203.07 153.32 199.89 152.52 200.41 149.11 204.08 146.83 206.84 147.78 207.17 149.47 205.48 151.48 Z M 205.54 151.59 205.53 151.58 205.48 151.48 205.54 151.59 Z M 198.51 131.91 195.89 129.25 194.27 129.97 191.96 127.79 191.95 127.77 198.55 123.63 204.29 123.45 206.82 122.45 208.77 119.58 214.61 121.74 216.55 124.27 214.55 125.59 208.18 127.08 205.74 129.42 201.2 131.99 198.51 131.91 Z M 232.16 113.05 232.29 113.2 239.8 114.33 236.77 117.34 236.18 119.02 236.17 119.17 234.5 121.67 234.15 124.76 238.08 128.05 237.11 131.3 235.47 132.4 231.37 136.4 229.15 137.09 226.89 139.51 224.46 139.16 219.56 135.74 219.76 131.03 217.71 128.89 219.16 124.82 218.76 119.65 219.19 117.44 215.7 113.59 221.53 111.6 224.14 108.2 226.44 108.58 232.16 113.05 Z M 188.68 96.2 187.42 99.72 194.1 103.18 193.24 105.27 189.65 107.16 187.03 102.94 184.18 101.82 183.44 100.31 184.22 96.61 188.68 96.2 Z M 181.72 88.61 184.75 89.86 189.1 90.63 187.07 93.19 184.58 94.18 182.35 93.7 178.04 95.67 175.24 93.78 176.96 89.74 178.87 88.39 181.72 88.61 Z M 200.7 87.58 202.56 89.36 207.81 91.95 210.37 96.09 208.84 99.58 209.83 101.49 209.5 104.45 211.23 110.78 209.1 112.27 202.64 113.03 196.99 112.98 193.67 110.97 193.87 108.3 197.65 106.56 194.82 101.32 191.5 100.54 191.04 91.16 195.1 89.36 195.61 87.73 200.7 87.58 Z M 10.05 85.3 11.14 88.77 9.48 89.77 6.46 88.55 7.74 86.4 10.05 85.3 Z M 7.76 70.42 12.45 70.68 13.11 72.45 10.04 74.38 8.21 77.46 2.23 76.41 1 73.3 5.96 70.36 7.76 70.42 Z" fill-rule="evenodd" class="12" id="인천광역시"/>
<path d="M 532.39 326.85 531.78 329.81 533.23 330.92 534.02 333.95 532.79 334.65 533.34 337.61 531.96 341.02 531.28 344.88 527.37 345.99 525.68 344.85 522.47 349.21 523.75 350.6 522.78 353.77 519.59 359.51 516.42 362.21 513.64 360.94 513.93 358.3 511.85 356.07 506.91 356.8 505 355.83 506.95 353.72 504.54 350.21 501.27 350.96 498.61 349.46 494.91 345.74 494.59 344.01 486.41 340.65 482.33 340.42 482.66 338.89 480.4 336.49 484.92 334.25 485.37 330.99 483.14 330.24 488.01 326.91 490.47 327.47 490.54 323.4 491.99 321.72 502.86 318.86 505.45 319.14 511.76 322.44 511.47 326.43 516.07 327.18 518.95 325.99 521.77 323.75 532.39 326.85 Z" class="13" id="울산광역시"/>
<path d="M 452.59 65.66 453.16 67.49 456.44 70.55 456.75 71.98 460.44 76.26 464.59 79.34 464.14 81.03 469.31 85.78 469.83 87.34 481.59 96.9 484.8 100.87 488.94 104 487.75 108.06 488.81 109.96 495.12 114.33 495.2 117.88 496.39 121.24 500.44 125.99 503.35 128.01 504.61 132.58 510.78 136.69 510.47 138.36 512.25 140.56 512.67 143.01 515.92 146.09 519.14 147.85 518.95 149.36 521.24 151.18 520.4 153.96 521.12 158.92 522.87 162.28 520.8 162.28 516.31 164.24 515.29 165.77 512.72 165.55 507.67 170.24 508.47 173.49 504.29 173.88 500.66 170.78 493.38 167.31 490.6 168.64 489.39 171.17 485.52 169.73 481.1 169.03 478.35 169.82 476.85 168.03 474.39 168.22 472.97 171.08 469.14 173.43 465.97 172.68 464.04 169.72 457.9 168.72 455.63 172.44 456.64 174.38 449.84 173.86 448.59 172.52 444.52 171.15 441.88 170.08 433.2 168.83 429.32 166.94 427.38 164.51 425.32 166.23 420.9 166.12 416.31 164.2 416.84 162.19 415.04 160.96 409.64 161.05 405.55 163.58 402.79 162.11 402.5 160.04 409.32 154.77 407.28 153.84 402.25 155.47 400.33 153.08 397.85 153.25 395.57 150.97 391.86 152.75 389.72 154.62 386.41 152.62 384.98 155.49 380.87 157.1 376.78 157.52 374.8 151.45 371.08 149.94 365.95 151.86 364.05 153.58 365.25 155.57 365.37 159 362.62 159.96 361.85 161.65 358.59 160.27 355.82 161.54 349.5 162.57 346.76 160.74 345.29 158.28 344.57 154.84 344.8 151.94 347.09 145.01 346.01 140.22 346.19 137.92 348.08 136.16 350.58 130 350.24 127.38 348.47 124.56 346.25 124.1 351.37 119.88 355.28 119.03 355.94 117.54 345.6 113.18 340.6 113.79 339.73 112.73 334.07 109.59 331.67 107.62 328.86 106.63 326.49 108.63 323.83 109.01 321.79 107.74 323.42 105.53 323.18 102.73 324.41 99.07 322.03 99.16 318.39 97.85 322.24 95.28 322.11 93.5 320.06 91.51 321.72 89.13 320.85 85.92 324.97 83.77 326.99 81.91 328.98 82.12 330.51 78.58 329.95 74.81 327.05 72.51 322.82 71.97 322.07 68.31 318.04 68.5 312.93 66.4 311.5 61.97 311.05 56.29 308.18 57.03 304.23 55.24 302.84 56.5 297.85 57.85 296.83 55.51 294.07 55.66 292.98 52.92 294.08 51.47 293.72 48.14 287.46 51.94 283.55 50.69 281.82 45.65 280.27 44.25 280.52 42.02 276.98 42.65 274.7 41.68 274.61 38.37 273.01 37.3 276.61 35.31 286.47 32.92 288.98 31.67 298.71 33.24 302.4 32.6 304.54 31.16 309.63 32.3 311.46 33.38 314.99 33.52 317.32 35.29 326.19 31.25 329.62 31.21 330.76 32.51 338.69 32.45 343.36 31.01 347.58 31.15 352.75 34.4 358.9 33.39 366.32 34.55 370.78 37.42 373.37 37.69 374.69 33.69 378.1 34.48 381.51 33.77 385.46 31.22 386.79 31.7 390.21 30.02 391.96 28.18 395.55 27.03 399.76 22.64 403.92 20.14 407.18 11.87 406.86 3.36 412.22 1 413.42 2.96 416.96 6.11 418.79 11.94 421.19 15.91 424.12 18.73 422.7 20.06 425.14 23.67 429.17 27.7 429.17 30.05 432.92 34.59 434.39 39.88 437.53 43.31 439.1 47.12 439.75 51.75 442.72 55.47 447.01 59.37 447.1 60.75 452.59 65.66 Z" class="14" id="강원도"/>
<path d="M 199.68 349.02 200.75 348.95 205.54 341.46 210.38 339.65 217.88 338.97 221.48 334.01 215.74 333.53 208.41 334.76 203.68 332.12 203.84 328.68 209.43 324.75 211.22 322.5 215.05 322.25 218.18 319.85 220.59 316.9 215.61 313.1 218.44 310.14 222.33 308.63 224.35 308.77 230.23 310.84 227.66 305.83 225.91 301.25 220.1 300.48 220.23 294.77 217.15 294.18 217.17 299.15 214.74 298.99 210.9 295.94 209.85 294.16 210.3 291.34 223.05 290.75 227.45 290.21 229.87 289.09 232.72 290.06 234.68 289.33 234.07 287.09 234.77 285.6 240.8 284.75 242.82 282.94 248.3 281.02 248.63 276.28 249.55 273.99 251.6 272.76 253.68 273.43 255.8 271.84 264.32 272.14 268.71 274.48 269.17 277.97 272.48 280.53 276.04 281.44 278.59 278.5 279.97 279.25 285.1 277.41 287.41 277.52 290.3 275.98 292.77 276.61 296.17 274.59 299.99 274.24 300.84 277.61 303.69 283.92 304 285.91 306.73 287.48 310.4 285.19 310.71 287.43 312.84 290.28 318.35 290.68 321.31 289.32 321.88 285.59 321.07 283.94 327.66 285.67 330.68 287.56 332.83 280.93 336.31 282.78 338.43 281.54 340.04 284.65 344.85 285.17 346.92 287.09 350.35 285.69 356.47 284.13 359.11 285.96 358.98 288.78 360.92 289.89 362.34 294.97 359.82 296.14 360.02 298.39 357.25 298.71 356.57 301.5 343.99 307.18 341.77 310.75 336.28 313.61 335.48 314.77 335.34 320.37 334.07 321.04 332.93 324.77 330.82 327.77 332.51 330.44 330.2 331.44 329.85 334.24 327.22 337.2 330.73 339.45 334.3 345.01 332.55 347.64 335.8 350.56 335.28 352.9 332.62 354.58 329.74 358.24 331.19 360.85 329.15 363.47 326.14 364.52 317.3 358.91 314.39 358.3 310.66 358.59 309.15 359.84 305.79 364.69 301.55 363.03 296.66 365 294.11 363.95 290.86 364.12 286.85 361.66 285.96 363.59 281.04 361.97 278.69 364.3 274.12 365.58 267.28 363.09 270.27 361.13 270.31 358.32 265.88 355.58 268.29 351.57 266.64 350.76 266.35 347.16 259.38 351.44 259.94 354.41 255.41 355.09 251.72 351.95 251.16 349.2 248.13 347.7 248.09 347.72 244.93 346.9 236.63 347.11 234.78 348.92 235.41 352.4 232.75 355.08 232.93 357.03 229.99 358.33 229.41 359.98 225.79 359.83 223.33 363.26 219.31 361.96 216.63 362.34 215.46 364.38 211.01 364.75 208.99 362.51 209.71 360.22 204.96 356.01 206.66 353.6 205.29 352.17 201.7 351.23 199.68 349.02 Z" class="15" id="전라북도"/>
<path d="M 376.29 407.32 374.41 410.26 377.83 409.86 380.02 412.98 379.27 415.34 375.32 415.34 374.15 416.28 369.49 415.9 368.5 412.88 370.33 411.67 372.22 408.48 376.29 407.32 Z M 362.09 413.86 363.57 416.56 366.28 417.73 367.61 419.99 371.55 416.98 376.05 416.76 379.92 419.14 378.88 421.83 378.9 426.52 376.59 428.08 377.57 431.29 371.83 429.4 368.15 430.58 366.53 426.38 366.49 422.96 361.97 424.6 363.04 427.55 360.6 429.15 357.95 428.54 356.55 426.32 354.81 426.12 355.62 421.93 352.11 416.8 351.87 413.75 353.64 412.42 354.59 409.71 357.85 405.49 360.7 404.37 363.98 405.7 364.74 408.77 361.81 411.3 362.09 413.86 Z M 446.89 422.01 442.99 424.82 444.56 426.89 441.75 428.56 439.91 431.34 436.46 429.9 439.49 427.71 436.24 426.98 437.56 415.42 434.5 416.95 427.94 416.88 425.79 416.11 424.75 412.6 426.87 409.46 430.4 407.21 433.23 408.77 440.03 407.01 437.23 404.38 441.49 402.49 443.98 402.92 444.86 399.59 446.64 398.67 447.03 395.14 451.16 395.05 449.23 400.84 452.77 404.46 451.44 405.56 452.36 408.07 449.4 411.71 450.91 412.89 453.57 410.59 454.62 413.03 450.11 415.9 452.57 417.05 452.19 418.98 449.07 419.96 446.89 422.01 Z M 457.65 391.6 456.8 390 454.25 389.28 449.85 385.78 448.43 382.82 443.67 383.59 441.22 383.25 437.9 379.01 437.42 375.43 434.9 377.93 438.48 382.92 438.9 387.08 441.77 389.17 439.5 392.13 434.69 390.18 436.24 388.55 432.77 387.71 432.26 386.42 428.4 387.67 427.31 386.77 423.47 388.65 419.74 392.46 423.5 393.07 427.78 397.12 423.76 399.85 421.31 400.5 420.2 403.26 420.03 407.2 418.7 408.4 419.32 411.27 422.73 409.34 424.33 411.01 422.51 415.4 420.62 416.33 421.3 420.29 419.55 424.32 416.43 424.23 414.48 418.88 412.05 417.73 412.01 416.04 415.55 413.61 408.12 411.31 406.6 408.58 410.04 408.59 411.76 407.54 409.45 404.59 405.68 405.6 405.45 407.99 403.53 408.55 401.52 407.05 401.18 405.11 397.24 404.43 394.38 405.43 394.93 410.2 391.32 409.88 389.78 408.57 387.25 410.79 384.91 409.28 384.32 407.1 379.85 406.64 376.07 403.4 378.31 401.77 377 398.33 378.25 396.78 375.08 395.14 370.85 401.19 368.46 399.13 364.17 396.96 361.04 403.15 359.65 404.09 354.98 403.92 350.97 405.69 348.62 404.71 346.18 402.18 348.51 399.56 348.98 396.22 347.14 392.97 344.04 391.54 339.07 386.82 338.96 384.44 336.96 382.3 333.95 380.86 331.33 378.42 330.95 373.79 329.74 369.67 328.15 369 326.14 364.52 329.15 363.47 331.19 360.85 329.74 358.24 332.62 354.58 335.28 352.9 335.8 350.56 332.55 347.64 334.3 345.01 330.73 339.45 327.22 337.2 329.85 334.24 330.2 331.44 332.51 330.44 330.82 327.77 332.93 324.77 334.07 321.04 335.34 320.37 335.48 314.77 336.28 313.61 341.77 310.75 343.99 307.18 356.57 301.5 357.25 298.71 360.02 298.39 360.95 300.9 363.71 300.51 365.33 303.37 369.82 304.72 373.98 307.27 378.37 307.17 380.37 305.92 386.4 308.31 386.11 310.07 387.83 312.19 389.69 311.95 390.86 314.47 393.53 315.77 394.83 318.9 395.14 323.01 390.32 325.04 394.85 327.66 397.92 328.11 399.32 326.4 401.58 327.77 406.39 326.36 412.11 328.36 413.63 331.27 417.51 330.86 421.85 328.26 428.45 328.12 428.8 324.25 431.05 323.33 431.88 325.89 431.87 329.88 434.23 330.84 435.85 333.25 439.09 334.67 445.29 332.75 448.43 333.02 450.15 334.89 452.5 334.51 456.2 336.05 459.96 335.72 460.89 333.83 466.76 332.78 468.95 330.09 473.48 328 476.36 328.61 480.93 331.51 483.14 330.24 485.37 330.99 484.92 334.25 480.4 336.49 482.66 338.89 482.33 340.42 486.41 340.65 494.59 344.01 494.91 345.74 498.61 349.46 501.27 350.96 504.54 350.21 506.95 353.72 505 355.83 504.73 358.18 502.47 359.8 499.23 358.42 497.52 359.3 495.22 364.38 488.12 368.05 484.72 368.2 482.71 372.31 481.09 373.23 476.21 373.5 474.04 374.7 470.29 374.92 468.56 376.33 469.78 378.4 468.73 380.44 465.54 381.13 460.11 381.22 462.5 383.92 465.54 386.06 463.08 387.82 463.06 387.91 463.97 388.62 462.08 389.98 459.23 389.98 457.65 391.6 Z" fill-rule="evenodd" class="16" id="경상남도"/>
</g>
</svg>