<?xml version="1.0"?>
<svg xmlns="http://www.w3.org/2000/svg" version="1.2" baseProfile="tiny" width="800" height="441" viewBox="0 0 800 441" stroke-linecap="round" stroke-linejoin="round">
<g id="광주_2020">
<path d="M 760.93 291.85 760.24 294.85 749.11 303.16 751.74 306.77 740.04 311.63 734.55 312.91 729.06 315.59 723.02 323.9 728.26 343.44 728.52 347.06 725.77 349.25 708.77 353.64 681.06 358.9 673.73 363.25 668.66 367.94 664.33 373.27 663.68 381.5 656.68 389.64 650.12 393.21 639.25 394.18 633.01 392.46 623.02 391.28 609.06 390.52 608.75 386.41 604 380.88 598.94 377.81 595.57 373.69 593.27 366.76 592.56 361.84 587.4 356.4 583.9 354.04 581.46 354.32 582.07 350.37 585.56 342.31 578.51 333.15 571.16 325.57 566.8 314.14 566.52 310.54 567.92 308.64 565.4 303.4 577.38 300.62 581.32 299.03 588.41 292.18 591.62 286.65 591.76 284.26 602.97 280.68 593.93 267.9 586.32 261.61 583.33 256.21 574.03 245.61 569.61 242.12 560.96 232.49 555.52 227.72 566.91 218.69 574.9 198.04 588.43 201.13 600.04 204.4 605.34 209.06 615.5 205.87 622.57 205.87 621.54 210.96 625.41 212.74 634.24 212.34 637.03 218.94 641.5 221.46 649.06 222.06 657.18 226.14 658.07 228.85 654.07 239.85 649.77 242.44 649.61 245.06 657.24 250.78 663.01 251.71 664.56 250.55 671.22 251.21 678.91 254.62 683.7 258.41 690.58 259.14 696.37 256.19 705.65 255.21 714.68 257.01 716.98 258.29 724.16 270.4 726.09 276.75 729.94 279.67 734.66 285.35 736.26 288.58 741.73 287.23 760.93 291.85 Z" class="0" id="광주광역시 동구"/>
<path d="M 555.52 227.72 560.96 232.49 551.72 234.41 548.01 232.58 542.66 225.83 532.93 226.19 528.88 228.9 519.66 232.82 509.55 238.01 513.8 243.63 514.61 247.54 509.91 249.44 504.96 254.31 505.75 256.96 510.11 259.05 514 264.73 514.12 268.98 511.57 272.91 513.55 281.88 514.7 282.83 515.99 291.44 514.27 300.66 510.13 300.17 505.36 302.25 494.15 298.99 486.51 294.69 484.53 295.43 479.11 301.76 476.25 306.85 472.71 308.98 478.07 314.86 473.96 315.2 468.47 314.05 467.36 316.63 462.49 316.2 456.96 317.16 458.54 321.11 457.1 323.03 448.34 322.87 445.8 321.26 442.03 323 434.16 324.73 429.83 324.25 421.38 329.04 415.76 334.24 409.92 332.2 406.29 339.3 403.21 340.75 395.32 340.67 390.95 345.57 383.16 351 371.35 355.63 364.89 351.35 358.52 351.46 352.34 355.61 346.61 350.06 340.15 346.2 338.21 348.43 334.23 350.24 330.53 343.46 330.84 334.57 336.04 330.51 341.2 328.23 335.2 313.19 337.06 309.6 341.16 311.24 348.33 310.38 349.91 301.14 357.29 300.53 364.54 297.3 364.72 292.62 368.22 287.97 373.34 285.14 375.93 280.1 374.49 277.61 369.12 273.54 369.08 267.09 372.5 264.03 380.17 261.14 389.23 252.26 391.68 248.79 390.49 233.69 389.07 230.04 382.34 223.07 382.24 214.21 384.07 208.67 380.68 203.88 380.65 199.89 382.03 197.31 387.94 192.71 398.22 188.74 405.36 188.32 407.94 186.82 408.6 174.41 410.78 170.69 414.38 170.57 419.7 175.46 452.18 182.89 457.33 183.82 488.88 185.61 488.81 187.32 495.97 186.54 506.89 189.08 506.58 191.64 509.63 196.08 514.54 206.68 520.4 208.03 525.14 208.11 536.59 213 540.95 215.88 546.08 220.82 555.52 227.72 Z" class="1" id="광주광역시 서구"/>
<path d="M 560.96 232.49 569.61 242.12 574.03 245.61 583.33 256.21 586.32 261.61 593.93 267.9 602.97 280.68 591.76 284.26 591.62 286.65 588.41 292.18 581.32 299.03 577.38 300.62 565.4 303.4 567.92 308.64 566.52 310.54 566.8 314.14 571.16 325.57 578.51 333.15 585.56 342.31 582.07 350.37 581.46 354.32 575.7 354.97 568.79 358.72 563.04 363.04 552.67 374.41 549.97 375.8 540.16 377.23 535.35 376.13 530.03 377.23 523.44 383.07 519.16 381.3 509.51 375.38 492.18 384.63 490.33 387.12 480.48 390.71 467.13 388.58 460.79 385.61 458.17 380.98 446.49 382.21 445.06 386.91 441.79 391.83 431.32 395.18 426.44 403.21 425.89 406.07 421.38 409.73 409.15 408.61 406.78 409.04 404.95 412.87 391.99 416.86 386.43 416.12 375.11 421.13 372.87 424.04 368.66 435.3 367.13 436.47 359.37 435.03 352.89 435.65 344.35 440 339.19 438.81 336.44 437.04 335.36 431.23 331.43 424.82 327.21 422.25 323.6 423.21 318.08 418.65 311.87 420.57 306.42 423.16 289.93 434.03 286.11 433.14 279.48 435.54 274.77 436.41 263.76 433.76 259.81 428.72 260.92 423.39 262.53 420.6 260.07 414.95 255.08 411.8 250.23 412.6 243.5 415.84 241.11 421.04 237.38 424.73 235.5 422.94 235.45 419.48 229.76 409.95 231.88 406.54 237.89 403.32 245.64 402.63 252.65 403.61 259.08 403.73 264.05 402.13 268.28 399.49 272.38 397.96 284.73 396.61 291.87 394.47 299.44 389.52 307.13 378.44 315.62 369.87 320.38 361.85 325.14 359.56 333.57 354.19 334.23 350.24 338.21 348.43 340.15 346.2 346.61 350.06 352.34 355.61 358.52 351.46 364.89 351.35 371.35 355.63 383.16 351 390.95 345.57 395.32 340.67 403.21 340.75 406.29 339.3 409.92 332.2 415.76 334.24 421.38 329.04 429.83 324.25 434.16 324.73 442.03 323 445.8 321.26 448.34 322.87 457.1 323.03 458.54 321.11 456.96 317.16 462.49 316.2 467.36 316.63 468.47 314.05 473.96 315.2 478.07 314.86 472.71 308.98 476.25 306.85 479.11 301.76 484.53 295.43 486.51 294.69 494.15 298.99 505.36 302.25 510.13 300.17 514.27 300.66 515.99 291.44 514.7 282.83 513.55 281.88 511.57 272.91 514.12 268.98 514 264.73 510.11 259.05 505.75 256.96 504.96 254.31 509.91 249.44 514.61 247.54 513.8 243.63 509.55 238.01 519.66 232.82 528.88 228.9 532.93 226.19 542.66 225.83 548.01 232.58 551.72 234.41 560.96 232.49 Z" class="2" id="광주광역시 남구"/>
<path d="M 760.93 291.85 741.73 287.23 736.26 288.58 734.66 285.35 729.94 279.67 726.09 276.75 724.16 270.4 716.98 258.29 714.68 257.01 705.65 255.21 696.37 256.19 690.58 259.14 683.7 258.41 678.91 254.62 671.22 251.21 664.56 250.55 663.01 251.71 657.24 250.78 649.61 245.06 649.77 242.44 654.07 239.85 658.07 228.85 657.18 226.14 649.06 222.06 641.5 221.46 637.03 218.94 634.24 212.34 625.41 212.74 621.54 210.96 622.57 205.87 615.5 205.87 605.34 209.06 600.04 204.4 588.43 201.13 574.9 198.04 566.91 218.69 555.52 227.72 546.08 220.82 540.95 215.88 536.59 213 525.14 208.11 520.4 208.03 514.54 206.68 509.63 196.08 506.58 191.64 506.89 189.08 495.97 186.54 488.81 187.32 488.88 185.61 457.33 183.82 452.18 182.89 419.7 175.46 414.38 170.57 410.78 170.69 416.41 163.46 423.57 162.72 428.52 168.28 436.46 167.79 438.73 163.59 441.51 162.28 447.38 163.14 453.05 160.69 456.63 155.35 454.4 138.8 452.48 135.87 446.15 133.33 443.1 133.24 439.12 130.91 438.8 128.66 443.56 126.22 445.89 122.21 445.48 113.39 444.11 108.09 441.75 104.42 441.22 96.27 448.34 88.94 441.05 83.66 441.08 78.71 426.58 78.65 423.49 70.34 409.61 74.5 402.99 64.27 403.62 61.83 407.68 61.74 412.74 57.64 414.15 53.27 422.57 46.89 428.86 46.39 430.56 49.54 437.96 44.12 447.13 43.3 454.53 40.53 458.12 37.31 458.84 31.85 463.02 28.44 475.88 27.1 482.29 22.22 488.46 19.05 497.2 16.18 495.24 20.51 495.61 22.76 498.73 24.48 511.45 27.38 518.82 25.09 521.25 20.59 525.58 17.91 540.73 11.32 547.64 3.72 551.94 1.98 563.89 1.51 571.28 2.04 572.63 4.19 584.9 12.22 587.9 13.09 600.33 14.89 602.51 14.29 606.48 17.69 611.82 26.21 611.32 31.08 609.4 37.24 614.2 42.55 617.2 43 624.2 46.51 630.79 51.12 632.45 58 635.12 59.73 641 60.04 650.03 73.11 643.93 80.9 643.81 84.76 646.72 90.36 654.68 99.72 659.11 106.46 668.1 114.66 673.85 117.83 678.99 117.99 680.56 122.86 676.82 124.54 672.57 129.48 668.25 135.73 665.67 136.78 664.38 139.7 666.33 145.15 677.46 156.72 680.77 158.31 684.52 164.95 692.02 167.71 693.52 159.87 692.92 156.9 696.84 154.4 706.32 155.78 709.6 158.31 715.43 158.88 719.62 154.52 717.81 152.46 721.86 149.12 724.82 148.62 728.49 152.33 733.09 153.86 737.38 153.68 745.73 148.28 751.82 148.73 766.69 156.31 776.82 165.29 786.26 177.31 791.07 180.69 797.18 182.08 799 185.63 796.03 194.3 787.44 198.37 781.15 196.81 775.91 196.6 773.03 201.86 773.7 204.73 776.69 206.86 775.3 212.12 772.99 214.99 768.26 218.25 769.75 225.86 767.08 243.73 770.72 252.05 770.25 265.66 772.26 271.38 776.91 277.67 774.32 285.07 768.53 285.76 761.59 290.47 760.93 291.85 Z" class="3" id="광주광역시 북구"/>
<path d="M 402.99 64.27 409.61 74.5 423.49 70.34 426.58 78.65 441.08 78.71 441.05 83.66 448.34 88.94 441.22 96.27 441.75 104.42 444.11 108.09 445.48 113.39 445.89 122.21 443.56 126.22 438.8 128.66 439.12 130.91 443.1 133.24 446.15 133.33 452.48 135.87 454.4 138.8 456.63 155.35 453.05 160.69 447.38 163.14 441.51 162.28 438.73 163.59 436.46 167.79 428.52 168.28 423.57 162.72 416.41 163.46 410.78 170.69 408.6 174.41 407.94 186.82 405.36 188.32 398.22 188.74 387.94 192.71 382.03 197.31 380.65 199.89 380.68 203.88 384.07 208.67 382.24 214.21 382.34 223.07 389.07 230.04 390.49 233.69 391.68 248.79 389.23 252.26 380.17 261.14 372.5 264.03 369.08 267.09 369.12 273.54 374.49 277.61 375.93 280.1 373.34 285.14 368.22 287.97 364.72 292.62 364.54 297.3 357.29 300.53 349.91 301.14 348.33 310.38 341.16 311.24 337.06 309.6 335.2 313.19 341.2 328.23 336.04 330.51 330.84 334.57 330.53 343.46 334.23 350.24 333.57 354.19 325.14 359.56 320.38 361.85 315.62 369.87 307.13 378.44 299.44 389.52 291.87 394.47 284.73 396.61 272.38 397.96 268.28 399.49 266.65 396.44 259.03 388.33 254.43 381.38 256.3 377.32 256.22 372.98 250.81 365.54 248.24 355.42 240.67 354.05 233.79 354.48 231.44 353.21 226.57 344.04 222.78 337.97 211.75 327.93 198.96 320.67 194.44 319.08 192.01 316.81 186.68 309.47 182.62 311.13 181.74 314.63 183.4 316.79 182.42 320.1 176.74 320.79 160.03 318.93 157.79 318.36 152.55 314.43 150.13 313.77 144.31 315.51 135.56 316.27 128.8 308.96 120.82 310.42 117.45 317.25 112.16 320.42 108.86 320.64 95.98 312.74 86.94 311.1 81.88 312.35 85.76 318.44 84.46 320.33 75 320.64 67.31 326.14 52.7 326.74 48.58 325.64 51.73 319.77 52.04 312.67 44.01 307.02 39.94 305.18 32.62 307.88 26.63 308.4 22.62 305.07 22.11 298.81 17.37 296.98 15.13 293.32 15.27 284.34 18.24 280.35 19.38 271.99 19.17 268.59 21.23 265.65 21.96 258.67 20.46 257.51 17.6 249.99 18.64 243.55 12.74 242.69 6.47 243.38 1 238.06 9.73 236.75 13.49 234.33 14.27 229.4 19.15 224.41 15.35 221.93 15.28 219.07 21.41 213.12 19.37 206.95 20.03 200.77 26.59 195.65 35.31 195.72 41.83 191.8 55.45 188.84 58.4 181.97 55.08 177.89 50.34 177.55 46.71 173.51 38.23 166.41 40.56 162.67 35.39 156.29 28.37 154.08 23.05 148.42 18.4 140.9 24.83 137.56 30.81 141.44 41.59 141.22 49.74 140.57 52.41 137.9 58.28 137.23 63.3 143.73 68.98 144.01 70.51 138.27 69.51 136.26 69.51 122.18 70.28 119.04 75.03 116.55 80.49 106.9 84.97 101.67 87.11 96.29 90.14 92.93 91.95 93.89 97.13 93.38 99.44 97.38 110.31 104.42 122.78 109.1 140 99.15 149.16 99.63 154.89 98.84 160.13 91.22 161.2 85.28 157.94 80.01 159.42 68.51 166.62 64.38 167.31 60.05 170.64 52.69 174.45 47.91 178.9 46.24 181.7 39.14 180.99 32.57 186.98 25.32 192.1 20.31 195.83 15.44 199.15 15.49 205.94 17.29 219.73 12.35 221.97 6.96 228.83 4.89 233.82 5.74 239.84 1.71 244.89 1 251.43 5.62 252.11 12.28 246 24.81 242.93 28.58 237.43 32.83 234.17 38.14 231.27 46.69 234.25 52.46 238.05 53.79 244.93 53.28 248.85 53.98 259.16 57.26 261.88 56.9 275.74 60.66 282.4 67.05 289.76 72.58 298.89 74.35 302.73 75.83 307.57 74.93 319.1 83.28 338.18 80.03 340.28 86.46 346.93 81.63 362 72.87 370.57 70 378.89 70.66 381.66 68.05 380.26 60.13 382.48 57.62 392.01 60.68 397.56 63.9 402.99 64.27 Z" class="4" id="광주광역시 광산구"/>
</g>
</svg>