<?xml version="1.0"?>
<svg xmlns="http://www.w3.org/2000/svg" version="1.2" baseProfile="tiny" width="800" height="800" viewBox="0 0 800 800" stroke-linecap="round" stroke-linejoin="round">
<g id="대구_2020">
<path d="M 505.5 276.06 509.4 278.34 513.38 289.38 509.54 297.72 503.35 301.78 500.84 305.6 501.01 315.15 481.09 313.95 477.11 312.22 461.06 311.53 451.44 312.37 435.08 305.1 434.54 300.16 433.75 294.76 440.59 289.91 445.12 285.1 444.7 280.29 439.58 282.08 437.28 279.72 439.09 274.08 441.9 272.88 441.97 268.26 445.87 267.96 462.09 271.18 492.34 278.2 499.02 277.97 505.5 276.06 Z" class="0" id="대구광역시 중구"/>
<path d="M 729.41 309.66 726.52 305.34 712.52 303.67 701.83 303.63 691.02 308.87 686.86 309.93 678.83 309.57 675.47 307.99 651.06 306.87 644.46 304.51 640.66 301.05 640.4 292.19 635.82 283.59 633.38 280.53 627.19 278.28 624.99 280.13 616.01 281.02 609.27 279.69 603.26 276.64 600.5 272.48 594.68 274.03 591.6 273.51 584.31 269.52 571.79 273.18 560.76 279.71 553.22 281.84 550.45 283.72 542.88 292.16 513.38 289.38 509.4 278.34 505.5 276.06 498.12 272.22 504.79 267.44 512.91 256.36 514.57 255.7 517.9 249.09 527.97 242.05 539.26 247.82 546.45 240.71 539.31 226.8 537.47 217.62 539.57 212.9 547.28 204.15 548.31 194.67 546.75 175.82 540.44 168.27 539.83 165.15 534.02 157.79 536.93 147.45 536.59 138.92 530.23 137.33 530.49 125.44 532.13 120.86 536.55 117.12 536.81 114.06 533.88 109.14 528.7 106.18 527.96 103.74 530.12 99.74 525.45 94.11 520.46 89.82 520.67 87.03 523.54 83.05 521.66 78.3 518.81 76.76 511.76 69.94 510 66.5 503.18 61.06 497.03 57.62 491.41 56.21 504.68 39.74 515.43 30.59 518.73 19.93 524.79 20.77 530.78 20.03 535.65 17.19 544.38 18.62 552.58 14.95 560.41 14.49 564.12 12.01 571.91 12.09 584.16 18.26 588.21 16.78 590.36 14.07 609.81 12.79 614.76 8.84 620.21 6.65 635.66 6.69 640.78 3.63 653.28 4.27 670.99 1 673.33 6.83 681.55 10.83 688.18 12.86 710.51 15.93 720.23 18.79 730.89 25.38 733.73 28.15 738.77 36.42 741.63 37.31 745.41 41.4 747.44 46.21 741.08 53.18 739.88 61.01 742.35 64.14 751.04 69.22 753.62 76.29 758.03 79.61 767.85 83.08 769.55 85.35 767.97 92.46 765.75 97.68 763.29 110.52 755.33 115.8 753.49 118.32 757.09 120.55 762.21 130.68 761.83 134.2 765.42 141.67 764.89 143.58 756.96 154.3 759.04 155.49 753.98 162.89 754.4 166.67 752.87 172.56 757.65 177.31 762.97 187.79 768.35 191.06 781.22 194.7 787.24 198.07 790.44 202.59 796.02 213.99 792.36 215.56 789.7 220.36 792.17 236.42 796.83 245.11 799 251.61 798.34 259.42 794.14 267.47 791.52 270.15 792.95 273.8 798.85 277.17 792.99 285.29 796.01 293.39 786.86 298.26 778.06 310.22 767.54 313.61 754.68 322.18 747.76 321.9 729.41 309.66 Z" class="1" id="대구광역시 동구"/>
<path d="M 445.87 267.96 441.97 268.26 441.9 272.88 439.09 274.08 437.28 279.72 439.58 282.08 444.7 280.29 445.12 285.1 440.59 289.91 433.75 294.76 434.54 300.16 420.11 303.84 404.01 308.69 383.74 316.33 377.83 312.89 374.98 313.45 368.57 311.08 367.91 307.72 354.88 307.66 354.09 302.15 343.83 302.03 341.68 298.98 344.02 296.35 338.43 291.36 332.75 290.93 327.35 286.88 331.28 280.58 329.72 273.25 326.68 266.73 321.92 260.28 324.46 257.18 338.4 253.73 341.43 250.02 345.48 253.99 356.17 255.22 360.52 253.69 364.67 247.09 365.59 243.85 369.7 239.94 380.44 237.06 391.15 232.72 393.78 236.2 390.94 238.98 395.96 244.47 398.19 245.49 437.94 251.47 449.47 256.32 445.87 267.96 Z" class="2" id="대구광역시 서구"/>
<path d="M 501.01 315.15 502.02 317.68 500.89 326.32 500.57 334.96 499.23 344.15 497.27 346.84 495.96 353.23 496.97 359.62 499.74 369.32 494.48 369.91 492.85 378.04 486.15 391.53 484.5 393.3 473.72 396.61 469.87 400.17 468.25 404.06 461.07 407.18 454.01 408.1 449.07 398.68 444.61 398.69 437.55 390.43 427.92 384.31 428.33 379.2 423.7 373.55 421.14 376.36 413 374.72 407.4 363.68 403.24 358.03 398.17 355.08 402.08 348.81 410.81 337.51 416.86 332.67 433.43 322.34 435.08 305.1 451.44 312.37 461.06 311.53 477.11 312.22 481.09 313.95 501.01 315.15 Z" class="3" id="대구광역시 남구"/>
<path d="M 505.5 276.06 499.02 277.97 492.34 278.2 462.09 271.18 445.87 267.96 449.47 256.32 437.94 251.47 398.19 245.49 395.96 244.47 390.94 238.98 393.78 236.2 391.15 232.72 380.44 237.06 369.7 239.94 365.59 243.85 364.67 247.09 360.52 253.69 356.17 255.22 345.48 253.99 341.43 250.02 327.35 243.61 315.96 240.47 307.3 240.28 303.64 241.07 299.49 243.96 301.47 233.77 301.02 223.14 303.55 215.42 309.8 207.95 324.31 202.01 333.58 195.03 334.99 189.78 339.94 184.42 347.47 181.28 349.11 172.35 355.82 159.52 358.48 152.33 357.81 145.8 355.05 138.62 356.34 137.53 355.61 131.49 353.47 128.84 354.78 122.72 357.88 113.57 355.28 108.71 349.3 105.67 347.15 95.89 344.11 88.02 342.78 80.87 345.31 70.77 355.6 72.3 363.98 77.23 373.48 80.72 375.26 82.28 380.14 92.98 380.33 98.07 385.83 104.85 393.94 108.9 399.05 93.2 399.86 87.55 404.05 85.58 410.17 86.01 416.1 85.21 417.97 81.35 431.93 74.74 443.08 74.51 452.15 76.75 465.66 72.94 471.28 69.81 471.05 64.91 477.28 62.59 490.42 59.96 491.41 56.21 497.03 57.62 503.18 61.06 510 66.5 511.76 69.94 518.81 76.76 521.66 78.3 523.54 83.05 520.67 87.03 520.46 89.82 525.45 94.11 530.12 99.74 527.96 103.74 528.7 106.18 533.88 109.14 536.81 114.06 536.55 117.12 532.13 120.86 530.49 125.44 530.23 137.33 536.59 138.92 536.93 147.45 534.02 157.79 539.83 165.15 540.44 168.27 546.75 175.82 548.31 194.67 547.28 204.15 539.57 212.9 537.47 217.62 539.31 226.8 546.45 240.71 539.26 247.82 527.97 242.05 517.9 249.09 514.57 255.7 512.91 256.36 504.79 267.44 498.12 272.22 505.5 276.06 Z" class="4" id="대구광역시 북구"/>
<path d="M 729.41 309.66 724.34 309.43 722.16 311.17 723.86 314.1 729.07 317.28 729.47 322.95 732.07 331.53 730.79 339.3 727.04 343.78 726.44 347.18 728.27 351.98 722.39 354.47 716.93 352.26 708.38 358.36 701.54 364.57 696.38 370.36 697.22 380.04 703.2 384.36 706.6 388.01 707.06 392.16 710.41 403.91 713.68 408.78 699.51 413.76 694.73 417.21 691.3 422.24 687.1 423.46 680.79 428.06 680.16 431.01 674.64 433.12 670.89 431.28 668.98 428.39 662.54 430.52 659.64 436.23 654.79 437.12 645.49 441.34 638 435.68 630.69 431.53 619.44 429.78 618.15 428.25 606.59 425.25 595.2 424.88 588.99 423.56 585.9 420.92 584.72 416.61 571.9 417.78 564.51 417.67 558.27 415.25 546.46 415.4 541.57 417.16 536.9 412.73 529.78 410.69 525.95 410.85 516.74 415.14 501.99 412.94 489.51 409.85 480.07 410.45 479.23 409.01 468.25 404.06 469.87 400.17 473.72 396.61 484.5 393.3 486.15 391.53 492.85 378.04 494.48 369.91 499.74 369.32 496.97 359.62 495.96 353.23 497.27 346.84 499.23 344.15 500.57 334.96 500.89 326.32 502.02 317.68 501.01 315.15 500.84 305.6 503.35 301.78 509.54 297.72 513.38 289.38 542.88 292.16 550.45 283.72 553.22 281.84 560.76 279.71 571.79 273.18 584.31 269.52 591.6 273.51 594.68 274.03 600.5 272.48 603.26 276.64 609.27 279.69 616.01 281.02 624.99 280.13 627.19 278.28 633.38 280.53 635.82 283.59 640.4 292.19 640.66 301.05 644.46 304.51 651.06 306.87 675.47 307.99 678.83 309.57 686.86 309.93 691.02 308.87 701.83 303.63 712.52 303.67 726.52 305.34 729.41 309.66 Z" class="5" id="대구광역시 수성구"/>
<path d="M 256.44 391.85 257.12 380.94 255.93 371.46 253.25 363.41 239.76 358.72 236.63 356.64 229.13 347.18 229.49 344.98 233.66 330.72 235.76 316.15 237.57 309.06 243.67 304.92 244.91 301.33 250.26 293.23 254.55 289.1 257.07 290.18 264.27 289.44 277.2 296.2 286.83 297.26 292.19 298.59 296.94 294.12 306.03 293.05 308.48 286.59 314.01 289.43 320.86 290.15 327.35 286.88 332.75 290.93 338.43 291.36 344.02 296.35 341.68 298.98 343.83 302.03 354.09 302.15 354.88 307.66 367.91 307.72 368.57 311.08 374.98 313.45 377.83 312.89 383.74 316.33 404.01 308.69 420.11 303.84 434.54 300.16 435.08 305.1 433.43 322.34 416.86 332.67 410.81 337.51 402.08 348.81 398.17 355.08 403.24 358.03 407.4 363.68 413 374.72 421.14 376.36 423.7 373.55 428.33 379.2 427.92 384.31 437.55 390.43 444.61 398.69 449.07 398.68 454.01 408.1 461.07 407.18 456.57 416.5 458.4 420.28 456.07 424.17 447.65 425.94 443.04 429.57 436.04 429.85 425.15 427.19 420.48 431.82 422.99 437.41 425.06 448.72 424.92 455.46 426.93 461.28 417.11 471.66 414.14 473.03 406.09 472.74 401.7 474.67 396.17 474.83 394.02 465.9 391.46 462.44 385.34 460.41 381.21 454.88 379.65 450.88 376.81 448.62 368.34 444.98 364.06 447.57 354.72 448.13 346.19 445.21 343.85 436.46 334.53 434.08 326.39 427.43 322.49 423.28 318.81 415.04 318.36 410.83 306.45 410.95 306.5 406.84 316.14 402.85 314.69 400.48 307.97 397.69 302.04 393.07 290.15 387.11 270.69 383.09 258.65 390.32 256.44 391.85 Z" class="6" id="대구광역시 달서구"/>
<path d="M 461.07 407.18 468.25 404.06 479.23 409.01 480.07 410.45 489.51 409.85 501.99 412.94 516.74 415.14 525.95 410.85 529.78 410.69 536.9 412.73 541.57 417.16 546.46 415.4 558.27 415.25 564.51 417.67 571.9 417.78 584.72 416.61 585.9 420.92 588.99 423.56 595.2 424.88 606.59 425.25 618.15 428.25 619.44 429.78 630.69 431.53 638 435.68 645.49 441.34 643.35 449.65 643.66 453.36 646.41 459.14 650.21 464.51 652.33 464.89 654.6 473.11 652.48 478.17 653.19 483.43 657.4 484.41 662.63 491.68 665.11 501.45 669.85 505.35 670.77 508.34 668.52 512.38 668.05 519.69 665.48 522.41 664.84 525.94 667.21 531.89 658.7 538.63 658.3 542.68 663.88 548.16 663.98 552.13 661.97 556.75 646.73 567.1 646.93 575.13 639.81 576.15 631.06 575.6 624.59 576.94 622.96 580.12 613.94 579.39 608.53 576.99 595.07 582.14 592.13 587.19 588.92 589.89 576.88 594.54 574.82 601 569.53 603.3 559.31 605.65 545.05 603.7 532.53 610.39 531.56 612.45 523.34 611.38 523.36 608.14 518.82 605.19 511.93 597.76 511.99 589.32 517.28 585.02 517.79 582.57 515.64 577.64 512.2 573.85 509.47 573.09 504.17 568.47 504.5 565.86 509.52 561.14 513.16 559.23 511.59 553.74 511.88 545.06 509.04 541.89 499.43 540.95 490.06 545.38 483.83 545.67 473.62 544.7 473.36 547.68 469.56 553.31 464.58 555.55 455.9 549.63 450.58 542.25 446.88 541.6 429.77 549.58 422.54 547.61 419.87 544.95 413.84 547.04 412.8 550.98 408.85 559.04 399.87 563.31 392 565.59 380.86 572.67 375.94 579.07 354.96 584.85 344.43 592.11 349.6 598.62 350.72 602.18 356.08 610.58 353.61 615.54 352.14 623.52 358.63 628.59 351.08 640.58 352.01 649.4 344.47 649.74 325.46 657 318.92 664.82 308.5 666.19 304.79 669.8 307.57 675.28 307.91 684.23 305.72 687.6 305.57 697.8 304.05 703.82 303.36 714.05 306.21 715.79 310.75 721.02 309.34 727.96 302.23 734.68 294.33 736.22 281.7 735.69 273.77 739.5 267.14 741.75 257.02 743.48 253.75 743.04 252.21 735.85 248.21 732.79 243.72 733.41 240.15 736.57 233.01 740.41 224.39 740.16 212.87 732.68 207.34 734.54 205.34 738.85 198.96 739.86 185.65 737.17 184.48 740.24 175.43 745.94 174.13 752.15 167.54 753.02 159.43 763.29 155.68 769.59 153.35 768.94 145.55 763.23 140.03 762.7 135.74 768.15 126.03 772.8 120.67 779.48 108.94 783.32 102.16 777.82 76.13 787.62 71.5 791.96 66 792.12 61.08 799 52.17 798.46 42.27 795.28 39.17 791.81 43.58 787.42 53.31 785.15 72.72 776.81 82.32 766.45 88.34 757.66 97.79 747.98 99.16 742.11 95.42 722.99 91.29 716.65 79.45 707.16 63.13 697.33 41.82 681.96 21.98 664.51 11.98 651.61 9.58 647.32 4.41 634.61 1 621.88 1.48 609.11 8.39 602.64 15.27 599.98 27.17 602.43 40.99 606.99 50.42 610.96 61.71 613.98 78.93 615.03 89.63 616.49 119.11 625.03 132.58 623.95 138.63 622.25 144.93 618.43 157.95 607.39 161.53 603.15 163.16 596.4 163.3 588.18 161.29 575.43 157.31 567.06 141.88 556.48 139.15 553.92 119.93 542.99 93.76 530.87 88.19 528.67 78.31 522.73 71.47 512.55 63.57 504.12 63.16 499.87 75.16 480.58 80.01 474.15 89.32 465.59 93.04 459.13 96.68 448.42 107.6 429.15 111.16 423.66 115.89 423.38 116.26 419.99 119.58 416.61 126.07 416.63 126.09 410.25 135.89 409.83 135.92 403.89 175.09 404.01 175.06 410.35 215.83 410.71 232.51 410.58 238.84 408.21 240 402.86 247.05 398.06 254.14 390.92 256.4 391.87 258.65 390.32 270.69 383.09 290.15 387.11 302.04 393.07 307.97 397.69 314.69 400.48 316.14 402.85 306.5 406.84 306.45 410.95 318.36 410.83 318.81 415.04 322.49 423.28 326.39 427.43 334.53 434.08 343.85 436.46 346.19 445.21 354.72 448.13 364.06 447.57 368.34 444.98 376.81 448.62 379.65 450.88 381.21 454.88 385.34 460.41 391.46 462.44 394.02 465.9 396.17 474.83 401.7 474.67 406.09 472.74 414.14 473.03 417.11 471.66 426.93 461.28 424.92 455.46 425.06 448.72 422.99 437.41 420.48 431.82 425.15 427.19 436.04 429.85 443.04 429.57 447.65 425.94 456.07 424.17 458.4 420.28 456.57 416.5 461.07 407.18 Z M 299.49 243.96 303.64 241.07 307.3 240.28 315.96 240.47 327.35 243.61 341.43 250.02 338.4 253.73 324.46 257.18 321.92 260.28 326.68 266.73 329.72 273.25 331.28 280.58 327.35 286.88 320.86 290.15 314.01 289.43 308.48 286.59 306.03 293.05 296.94 294.12 292.19 298.59 286.83 297.26 277.2 296.2 264.27 289.44 257.07 290.18 254.55 289.1 250.26 293.23 244.91 301.33 243.67 304.92 237.57 309.06 235.76 316.15 233.66 330.72 229.49 344.98 225.06 344.71 212.89 341.06 192.72 331.22 182.44 328.76 165.81 327.96 156.52 325.57 132.7 323.63 126.48 321.29 116.69 321.03 74.16 320.63 69.15 322.17 63.24 319.19 63.17 303.47 64.6 294.21 66.82 289.66 72.52 282.86 75.03 276.71 77.17 268.32 87.56 247.05 91.59 241.51 93.67 234.48 93.36 227.45 109.24 225.89 112.74 221.11 115.15 214.55 122.66 205.21 127.46 200.61 130.43 192.63 130.59 185.82 141.05 182.9 143.5 178.47 143.85 172.68 148.99 174.05 149.92 170.94 155.67 167.53 169.1 165.63 173.5 163.93 175.41 159.23 177.88 158.57 189.51 159.53 193.38 159.04 198.13 155.97 200.81 143.24 208 146.4 211.93 146.56 219.29 151.88 231.38 152.77 240.09 156.17 244.17 160.21 244.61 164.87 243.69 172.34 238.03 182.27 238.48 192.24 237.03 199.18 229.18 206.18 225.09 207.45 222.71 210.57 226.49 214.79 227.3 226.88 238.08 236.07 241.93 238.1 248.18 233.49 259.88 238.33 262.67 234.2 268.53 231.49 274.52 234.45 279.47 243.85 283 248.29 288.08 246.95 290.34 249.84 290.74 253.7 294.47 252.49 299.03 248.44 299.49 243.96 Z" fill-rule="evenodd" class="7" id="대구광역시 달성군"/>
</g>
</svg>