<?xml version="1.0"?>
<svg xmlns="http://www.w3.org/2000/svg" version="1.2" baseProfile="tiny" width="800" height="810" viewBox="0 0 800 810" stroke-linecap="round" stroke-linejoin="round">
<g id="대전_2020">
<path d="M 448.87 745.4 451.95 741.08 458.57 736.36 454.85 728.4 457.6 721.93 458.44 709.14 457.28 701.52 453.27 699.44 453.4 695.21 458.23 691.97 464.26 692.45 471.31 696.65 478.16 695.09 479.04 691.31 482.14 689.23 488.38 682.39 487.3 676.62 488.05 672.61 501.33 667.18 499.46 652.71 494.81 651.97 491.67 649.4 483.16 638.8 482.9 631.54 477.39 628.4 468.12 628.64 460.85 627.12 464.4 621.87 466.47 614.03 466.62 609.16 484.3 596.3 489.02 592.04 492.17 585.25 482.13 574.33 477.68 573.19 474.09 564.77 482.13 557.86 474.75 553.47 461.53 539.98 462.82 531.59 475.18 534.51 486.54 530.22 495.92 523.45 499.83 521.62 509.46 520.16 518.12 529.94 527.95 527.9 540.19 527.12 534.36 509.26 523.96 501.95 515.89 491.85 515.36 487.15 509.67 483.61 502.28 482.66 494.52 478.84 490.01 467.4 486.42 460.7 475.11 445.49 466.08 434.58 456.88 427.43 452.82 421.26 440.83 411.76 433.7 409.67 430.14 406.87 426.76 399.27 439.17 397.2 438.93 393.04 441.84 388.07 452.9 387.64 455.39 386.72 461.39 377.38 462.15 370.96 466 366.51 481.18 356.48 489.51 358.33 491.95 362.6 491.14 365.92 493.02 370.81 497.67 374.69 497.42 377.8 507.08 381.73 511.73 373.55 531.19 372.43 532.44 376.08 541.8 377.37 553.81 381.8 557.74 379.82 556.81 370.73 560.37 362.97 560.31 356.28 553.41 353.24 543.37 335.35 540.67 335.25 534.11 320.68 529.47 314.83 524.67 310.9 522.43 304.73 527.81 298.45 532.89 284.84 530 281.71 530.07 271.01 532.95 256.29 538.84 250.11 538.71 248.53 559.38 236.12 571.56 224.06 577.21 217.46 582.39 206.81 586.32 206.12 598.87 185.17 598.51 181.08 601.8 176.08 615.4 158.29 623.08 154.96 627.56 156.06 620.66 169.43 621.17 173.75 629.9 190.64 635.83 198.61 639.07 206.72 640.28 217.24 648.46 229.24 650.82 234.32 658.28 235.46 671.07 234.41 674.95 230.11 683.85 199.12 688.01 199.08 695.47 205.32 698.54 204.47 706.06 197.51 710.09 197.44 721.76 207.4 735.56 207.12 747.86 203.85 754.65 207.25 753.52 216.4 756.2 225.6 763.04 233.9 765.78 234.02 774.58 238.24 778.66 242.39 782.48 253.27 787.17 256.1 792.45 257.53 796.71 256.74 799 260.91 787.28 268.64 781.05 268.5 774.87 265 769.54 264.64 758.04 266.31 756.77 263.99 746.69 263.53 733.33 272.63 712.3 288.67 711.45 305.83 712.87 323.24 714.62 332.64 713.1 337.87 708.27 343.22 709.29 349.66 706.98 357.26 702.95 363.68 705.73 367.6 703.95 372.75 696.24 382.87 679.11 390.85 673.12 392.36 667.11 396.89 667.44 400.99 656.64 407.07 650.28 409.07 648.24 414.93 650.85 418.86 649.21 427.27 652.01 441.09 654.4 445.89 650.9 452.64 646.79 458.24 636.6 460.5 641.32 469.34 639.01 474.48 634.16 481.28 639.45 489.49 642.26 490.97 644.25 496.7 641.33 499.27 639.72 507.15 637.13 509.77 630.5 508.71 625.47 512.95 624.42 519.85 628.21 523.9 640.82 547.7 643.83 554.94 643.11 558.75 638.65 564.08 623.15 577.58 620.35 588.39 617.07 594.76 611.29 609.89 611.97 615.07 614.97 617.54 618.66 617.26 621.33 619.86 621.62 626.84 615.27 634.88 619.87 648.71 622.06 651.29 627.28 652.87 629.56 661.32 627.94 669.24 621.29 671.43 619.8 674.9 621.29 680.63 617.46 683.05 614.46 682.23 609.38 684.55 604.91 688.6 600.27 688.46 590.41 690.35 590.73 697.49 587.79 699.69 571.29 706.05 565.08 707.25 563.5 709.01 564.85 722.49 568.87 725.15 567.62 728.85 558.45 729.43 545.61 733.03 542.95 741.11 532.68 745.47 529.83 749.16 535.67 756.78 534.37 763.18 521.22 768.96 514.37 774.33 503.32 779.31 496.71 779.22 495.83 774.61 485.59 769.72 477.41 769.57 470.82 755.8 466.8 752.68 459.4 750.83 452.24 750.27 448.87 745.4 Z" class="0" id="대전광역시 동구"/>
<path d="M 448.87 745.4 443.65 745.69 441.48 747.6 412.32 733.09 419.06 723.11 419.02 721.22 411.1 711.41 403.58 708.79 397.43 697.18 394.24 689.2 392.56 682.17 383.31 684.1 365.9 680.9 359.66 678.93 359.44 670.94 363.95 668.79 367.38 665.24 368.69 656.51 361.06 649.02 358.27 638.6 357.66 632.16 362.98 625.86 367.58 610.63 364.42 605.77 350.45 594.23 334.9 583.81 321.72 582.04 323.15 575.87 319.26 563.43 317.13 561.58 309.01 549.57 315.93 543.81 315.77 538.72 322.28 531.6 323.83 528.2 336.64 529.09 342.69 522.75 345.74 517.91 346.62 511.47 345.62 507.28 341.55 498.5 348.79 492.8 352.58 488.69 358.99 478.71 355.1 464.18 355.43 460.34 364.56 439.24 370.97 435.33 373.61 431.05 385.66 422.66 396.49 413.41 399.44 412.87 401.7 403.69 398.61 393.42 401.89 384.71 417.26 389.46 421.8 394.35 425.25 401.79 430.14 406.87 433.7 409.67 440.83 411.76 452.82 421.26 456.88 427.43 466.08 434.58 475.11 445.49 486.42 460.7 490.01 467.4 494.52 478.84 502.28 482.66 509.67 483.61 515.36 487.15 515.89 491.85 523.96 501.95 534.36 509.26 540.19 527.12 527.95 527.9 518.12 529.94 509.46 520.16 499.83 521.62 495.92 523.45 486.54 530.22 475.18 534.51 462.82 531.59 461.53 539.98 474.75 553.47 482.13 557.86 474.09 564.77 477.68 573.19 482.13 574.33 492.17 585.25 489.02 592.04 484.3 596.3 466.62 609.16 466.47 614.03 464.4 621.87 460.85 627.12 468.12 628.64 477.39 628.4 482.9 631.54 483.16 638.8 491.67 649.4 494.81 651.97 499.46 652.71 501.33 667.18 488.05 672.61 487.3 676.62 488.38 682.39 482.14 689.23 479.04 691.31 478.16 695.09 471.31 696.65 464.26 692.45 458.23 691.97 453.4 695.21 453.27 699.44 457.28 701.52 458.44 709.14 457.6 721.93 454.85 728.4 458.57 736.36 451.95 741.08 448.87 745.4 Z" class="1" id="대전광역시 중구"/>
<path d="M 374.29 329.39 380.29 334.88 384.76 341.48 385.76 346.07 394.83 354.8 402.56 373.25 401.89 384.71 398.61 393.42 401.7 403.69 399.44 412.87 396.49 413.41 385.66 422.66 373.61 431.05 370.97 435.33 364.56 439.24 355.43 460.34 355.1 464.18 358.99 478.71 352.58 488.69 348.79 492.8 341.55 498.5 345.62 507.28 346.62 511.47 345.74 517.91 342.69 522.75 336.64 529.09 323.83 528.2 322.28 531.6 315.77 538.72 315.93 543.81 309.01 549.57 317.13 561.58 319.26 563.43 323.15 575.87 321.72 582.04 318.59 587.86 306.97 590.81 297.41 589.85 297.52 592.86 291.69 602.64 290.47 607.43 292.14 618.05 292.05 622.58 288.93 626.54 290.01 628.84 300.55 634.58 301.18 642.91 303.05 654.77 298.02 667.59 294.9 678.8 298.63 683.64 290.86 701.01 297.58 705.73 301.58 714.92 300.66 717.78 290.96 719.56 288.52 730.45 276.75 733.5 272.03 735.78 263.3 745.47 256.48 755.43 258.06 761 259.09 770.3 248.81 777.4 244.45 782.72 239.95 794.25 227.53 808.31 223.76 809 217.81 806.57 218.46 796.61 217.55 776.14 222.23 766.66 222.53 764.23 208.74 755.54 198.04 757.89 195.14 755.24 195.19 749.52 191.65 744.2 190.71 737.59 191.94 732.95 186.96 726.66 183.08 725.36 178.79 716.24 175.63 711.44 169.65 707.57 153.29 699.29 147.84 690.44 144.13 696.74 146.42 706.71 143.5 710.2 139.79 711.52 130.17 711.1 122.46 707.26 118.2 699.64 119.47 694.17 117.37 690.02 101.56 678.25 90.94 675 93.89 671.61 93.07 666.72 86.78 652.95 89.55 649.83 85.16 633.15 92.1 623.84 91.76 618.23 97.61 613.34 109.58 608.1 116.28 604.02 116.44 602.26 126.13 594.03 138.92 586.76 154.09 581.68 157.88 581.95 162.58 580.02 160.93 568.87 168.66 555.77 171.62 555.7 173.76 548.67 181.07 547.21 187.63 541.73 188.13 531.78 193.1 519.2 200.06 512.2 211.95 507.99 219.81 506.53 220.12 491.91 222.03 488.11 232.55 476.88 236.53 477.4 237.86 467.59 233.25 465.79 230.4 453.36 228.5 441.26 228.54 434.35 234.22 434.38 234.23 429.1 271.4 429.22 274.1 428.87 276.12 422 270.25 406.15 263.41 389.08 262.16 384.45 266.18 375.02 274.41 372.85 285.04 365.6 286.97 360.42 297.08 349.67 305.37 347.29 310.35 343.3 315.95 335.47 327.45 328.97 338.45 327.69 341.11 328.95 366.18 329.91 374.29 329.39 Z" class="2" id="대전광역시 서구"/>
<path d="M 397.24 113.59 384.13 126.11 378.2 126.93 372.06 130.86 365.51 140.79 365.14 149.69 369.54 157.56 376.27 160.97 381.87 167.83 398.85 181.99 411.17 188.92 425.73 195.66 436.64 208.55 442.23 217.38 443.58 224.05 434.92 239.87 431.4 242.08 426.75 248.8 424.12 263.07 421.83 266.96 420.42 280.68 421.82 288.56 421.92 302.75 417.16 310.88 411.2 314.85 398.43 318.46 386.8 323.22 374.59 325.05 374.29 329.39 366.18 329.91 341.11 328.95 338.45 327.69 327.45 328.97 315.95 335.47 310.35 343.3 305.37 347.29 297.08 349.67 286.97 360.42 285.04 365.6 274.41 372.85 266.18 375.02 262.16 384.45 263.41 389.08 270.25 406.15 276.12 422 274.1 428.87 271.4 429.22 234.23 429.1 234.22 434.38 228.54 434.35 228.5 441.26 230.4 453.36 233.25 465.79 237.86 467.59 236.53 477.4 232.55 476.88 222.03 488.11 220.12 491.91 219.81 506.53 211.95 507.99 200.06 512.2 193.1 519.2 188.13 531.78 187.63 541.73 181.07 547.21 173.76 548.67 171.62 555.7 168.66 555.77 160.93 568.87 162.58 580.02 157.88 581.95 154.09 581.68 138.92 586.76 126.13 594.03 116.44 602.26 111.85 598.01 100.96 600.8 91.35 600.52 85.11 598.06 76.68 593.17 60.02 584.71 48.67 576.48 41.01 573.89 31.89 572.18 20.29 560.89 18.81 556.09 10.94 547.52 1 534.19 8.7 528.41 12.49 522.66 19.88 519.13 21.4 520.84 28.67 522.33 34.64 522.23 33.19 518.45 36.72 506.44 31 502.23 29.96 485.85 30.99 466.22 35.29 461.51 37.01 455.88 36.79 450.48 34.43 441.73 42.8 441.72 50.61 438.46 50.78 435.7 55.03 428.99 51.32 421.49 49.29 419.9 49.63 414.23 57.07 406.69 66.71 401.71 83.76 396.96 79.58 391.09 80.62 386.29 77.13 381.86 70.18 375.78 63.3 364.85 63.26 354.86 66.51 351.61 75.94 347.73 80.09 344.81 79.47 336.23 84.37 329.59 88.66 320.42 86.79 310.65 83.09 307.56 81.06 290.22 82.92 285.52 83.89 278.15 82.56 265.03 82.9 259.71 87.56 248.61 91.87 225.83 91.43 219.14 114.27 215.22 125.05 206 122.34 199.75 127.87 197.24 135.31 198.08 141.88 197.55 145.92 193.5 164.91 193.47 173 197.97 179.72 204.05 185.8 201.66 193.06 196.72 204.04 200.08 211.31 196.95 219.22 191.28 220.43 188.84 232.78 184.14 241.53 177.47 239.83 165.34 247.1 153.83 251.45 143.21 263.81 134.11 273.17 134.4 279.25 128.28 286.44 113.96 283.19 107.84 281.07 94.98 286.28 90.61 288.8 86.79 289.43 78.45 295.29 74.97 299.52 67.39 299.86 64.72 296.24 62.73 291.46 56.12 292.06 51.02 290.62 48.44 285.15 46.09 284.72 42.08 290.54 27.73 294.98 26.3 310.7 31.58 312.68 28.18 317.54 26.66 326.19 20.6 334.8 12.75 341.8 2.76 350.77 1 358.61 5.06 382.04 22.68 399.61 38.57 402.54 50.03 402.53 61.29 397.12 72.16 394.6 84.78 395.48 96.71 391.1 98.82 391.76 106.29 397.24 113.59 Z" class="3" id="대전광역시 유성구"/>
<path d="M 627.56 156.06 623.08 154.96 615.4 158.29 601.8 176.08 598.51 181.08 598.87 185.17 586.32 206.12 582.39 206.81 577.21 217.46 571.56 224.06 559.38 236.12 538.71 248.53 538.84 250.11 532.95 256.29 530.07 271.01 530 281.71 532.89 284.84 527.81 298.45 522.43 304.73 524.67 310.9 529.47 314.83 534.11 320.68 540.67 335.25 543.37 335.35 553.41 353.24 560.31 356.28 560.37 362.97 556.81 370.73 557.74 379.82 553.81 381.8 541.8 377.37 532.44 376.08 531.19 372.43 511.73 373.55 507.08 381.73 497.42 377.8 497.67 374.69 493.02 370.81 491.14 365.92 491.95 362.6 489.51 358.33 481.18 356.48 466 366.51 462.15 370.96 461.39 377.38 455.39 386.72 452.9 387.64 441.84 388.07 438.93 393.04 439.17 397.2 426.76 399.27 430.14 406.87 425.25 401.79 421.8 394.35 417.26 389.46 401.89 384.71 402.56 373.25 394.83 354.8 385.76 346.07 384.76 341.48 380.29 334.88 374.29 329.39 374.59 325.05 386.8 323.22 398.43 318.46 411.2 314.85 417.16 310.88 421.92 302.75 421.82 288.56 420.42 280.68 421.83 266.96 424.12 263.07 426.75 248.8 431.4 242.08 434.92 239.87 443.58 224.05 442.23 217.38 436.64 208.55 425.73 195.66 411.17 188.92 398.85 181.99 381.87 167.83 376.27 160.97 369.54 157.56 365.14 149.69 365.51 140.79 372.06 130.86 378.2 126.93 384.13 126.11 397.24 113.59 410.93 116.74 433.46 116.73 454.91 113.24 461.91 111.48 483.35 112.56 487.37 114.29 500.06 125.73 512.16 131.03 522.79 130.88 531.53 128.28 540.82 123.12 551.47 113.28 553.84 102.74 554.53 92 562.25 77.55 570.78 69 576.57 65.23 586 61.89 597.03 59.73 606.15 61.16 607.44 66.45 604.25 78 599.97 87.17 594.34 93.96 589.97 102.18 589.71 107.54 594.61 113.67 601.25 119.08 607.45 121.52 613.47 121.89 625.49 120.45 648.37 113.17 653.97 114.94 658.26 124.32 655.72 130.62 639.57 142.44 630.28 151.41 627.56 156.06 Z" class="4" id="대전광역시 대덕구"/>
</g>
</svg>