<?xml version="1.0"?>
<svg xmlns="http://www.w3.org/2000/svg" version="1.2" baseProfile="tiny" width="800" height="609" viewBox="0 0 800 609" stroke-linecap="round" stroke-linejoin="round">
<g id="부산_2020">
<path d="M 518.1 301 518.29 300.95 521.05 306.87 521.67 308.46 521.68 310.54 523.25 314.17 526.4 319.71 528.01 320.99 530.88 324.98 533.56 330.03 533.59 331.55 535.51 332.42 537.45 333.51 539.52 335.81 540.83 337.57 547 344.32 547.29 345.94 546.28 347.08 545.4 347.45 541.36 348.37 540.5 347.85 535.35 349.11 535.51 349.6 539.69 350.52 538.97 350.8 531.03 349.84 530.25 347.69 528.19 347.5 526.84 347.7 524.5 348.81 521.91 350.8 520.89 351.82 518.25 355.21 517.6 356.92 517.43 358.08 517.77 359.73 518.26 359.96 520.88 359.98 521.66 361.35 521.4 368.34 520.49 369.43 518.2 369.94 512.83 374.44 511.72 375.26 504.33 370.35 499.68 366.56 498.33 365.03 500.1 363.23 500.2 361.94 499 357.86 497.98 354.88 496.96 351.5 493.59 347.17 490.96 342.28 489.05 339.42 488.39 337.51 487.65 336.26 485.88 336.48 483.17 333.31 482.71 331.33 485.02 330.14 487.78 327.22 490.93 322.26 490.73 320.07 490.33 319.7 490.85 311.99 495.38 309.65 500.97 309.07 501.97 309.05 503.78 309.41 505.87 310.64 506.01 313.07 509.28 315.48 511.96 315.99 513.32 313.66 516.38 307.9 517.58 304.64 517.44 304.5 517.44 300.65 518.1 301 Z" class="0" id="부산광역시 수영구"/>
<path d="M 378.59 298.86 378.14 305.12 375.94 309.21 372.44 310.55 371.67 312.08 368.84 314.7 363.09 319.39 363.78 323.45 366.53 329.81 364.24 335.24 364.3 337.5 363.32 338.91 363.13 341.3 369.47 345.16 370.27 344.93 371.56 347.37 372.09 350.07 371.36 356.81 371.57 358.2 369.35 359.64 368.34 360.48 370.13 363.02 371.21 363.36 371.46 364.07 369.78 366.44 365.46 372.73 363.08 370.73 360.34 369.9 358.79 369.69 356.31 370.11 353.36 369.63 347.47 367.96 345.29 367.54 341.62 368.4 346.78 370.6 353.87 374.3 352.64 377 351.46 378.27 351.71 381.04 352.08 387.09 351.5 390.68 349.38 391.59 347.49 393.09 347.11 393.73 342.78 393.2 334.45 392.03 331.96 391.75 328.21 392.32 321.2 398.11 320.3 399.04 320.1 400.55 318.64 402.4 318.04 402.83 313.53 403.13 311.87 402.91 306.93 400.45 299.22 397.48 293.86 395.71 289.28 398.4 288.37 399.89 287.58 401.94 285.74 400.22 284.84 395.46 284.66 392.2 285.44 389.24 286.34 387.1 288.11 383.91 289.26 382.23 290.74 378.58 291.7 375.48 291.7 373.68 287.88 373.96 288.49 368.9 288.4 363.83 288.47 360.68 288.77 355.24 289.35 349.87 289.53 347.2 291.69 337.68 292.67 332.97 293.27 304.51 293.75 303.23 297.74 298.22 303.56 294.35 313.62 290.2 320.72 285.27 326.91 280.29 329.37 278.18 331.03 279.41 331.41 280.16 330.68 283.32 329.59 286.39 334.36 289.44 338.35 287.24 340.39 288.29 347.9 292.36 348.12 294.82 353.49 294.62 356.82 295.76 358.03 297.11 359.15 297.9 362.28 297.55 364.32 296.73 372.88 296.84 378.31 298.62 378.59 298.86 Z" class="1" id="부산광역시 사상구"/>
<path d="M 655.26 306.97 654.1 305.56 653.09 302.34 652.57 294.06 653.83 288.27 653.07 284.99 652.42 284.61 648.95 283.18 646.26 282.82 643.38 281.19 641.28 280.86 636.89 281.97 635.24 282.5 634.38 283.43 634.11 285.77 634.22 286.7 633.75 287.92 632.76 289.24 627.76 294.56 625.32 296.14 623.11 296.19 620.39 295.86 618.01 295.06 618.19 293.61 619.25 291.33 620.22 289.65 621.35 287.06 619.61 284.44 618.29 283.81 612.08 283.28 607.42 279.51 601.69 277.05 600.05 277.69 598.03 278.89 590.97 275.59 590.16 273.01 583.91 270.87 583.32 265.53 584.33 262.75 586.64 261.52 591.01 257.94 591.73 254.07 591.85 252.37 592.89 249.3 596.39 244.06 596.93 242.68 597.12 239.28 594.69 236.51 593.81 236.28 589.75 233.83 585.62 229.91 585.29 229.37 585.11 227.85 580.81 227.99 576.96 227.32 576.47 225.87 576.65 223.46 577.14 222.21 578.56 220.98 579.23 217.38 578.4 214.93 577.9 214.57 575.86 214.08 573.85 213.89 569.49 213.06 566.97 212.28 567.2 210.37 564.64 207.3 561.02 205.06 557.63 204.29 554.43 202.19 551.73 200.12 552.1 197.58 552.59 195.25 553.64 192.23 553.12 190.89 550.99 190.85 546.04 192.72 544.37 190.73 543.01 190.66 539.4 191.1 538.7 191.06 533.82 189.06 528.57 189.19 527.7 188.85 526.57 186.37 525.77 180.95 526.65 177.53 527.57 175.94 529.29 173.91 531.7 171.42 532.2 170.18 533.58 164.35 531.75 162.24 530.93 160.25 533.29 157.28 536.34 150.5 536.77 148.33 540.39 145.46 540.93 142.22 539.33 136.47 538.77 135.12 528.72 130.41 523.39 129.79 519.47 129.95 517.26 128.51 516.26 127.56 507.8 125.8 509.08 123.79 510.77 122.66 512.11 120.91 513.48 117.59 513.38 114.1 513.03 113.26 512.72 110.97 512.89 107.85 513.14 106.93 515.33 102.69 517.04 101.86 518.94 101.33 521.56 99.68 522.69 98.45 524.06 95.33 524.42 93.39 525.13 91.99 526.54 89.78 527.83 88.89 530.72 87.51 532.57 86.15 533.31 84.82 533.47 83.18 532.79 80.32 531.85 79.01 530.54 77.69 530.64 76.3 533.89 71.26 536.5 68.62 535.27 65.95 535.59 64.95 538.75 61.06 539.61 60.21 541.16 59.43 544.88 58.53 546.23 56.54 546.37 54.24 544.31 49.41 540.45 45.35 534.36 39.93 533.29 39.17 529.62 39.13 527.87 38.22 522.03 32.78 522 30.56 524.25 31.95 526.46 33.03 528.92 32.84 530.05 32.35 535.87 32.49 539.38 34.01 540.99 35.09 544.66 35.64 547.05 35.55 551.95 34.92 552.2 35.53 563.92 38.29 565.91 37.64 567.16 37.63 569.17 38.1 571.33 38.86 573.7 40.14 585.39 44.79 585.31 45.65 587.9 48.63 590.42 50.03 596.46 53.08 599.01 53.01 601.54 54.63 604.95 56.15 607.59 56.62 610.62 56.07 612.88 54.51 616.85 51.07 620 47.6 621.75 46.03 625.12 44.31 626.63 44.08 628.29 44.26 633.04 42.07 633.51 40.98 633.65 38.97 638.19 35.7 641 34.31 640.56 29.39 639.62 27.05 640.6 24.55 641.39 21.79 641.62 20.3 640.46 18.62 636.35 14.39 634.81 13.98 633.37 11.27 634.48 9.26 636.52 7.58 637.53 6.52 641.9 1 644.56 2.86 646.64 3.66 648.24 5.06 649.26 6.65 650.35 7.94 654.57 10.73 659.1 12.8 660.74 13.41 664.6 13.75 667.2 15.32 670.2 15.9 673.07 15.4 675.15 14.62 679.47 13.73 687.42 12.67 689.71 12.79 692.07 13.56 695.11 13.98 696.14 11.81 696.63 9.94 697.49 9.09 702.23 8 704.82 9.4 711.96 10.29 714.88 9.7 716.43 8.93 717.96 7.37 717.89 5.72 717.11 4.38 717.62 3.47 720.95 4.25 725.26 7.07 727.7 8.1 729.17 8.14 734.3 6.81 736.37 6.02 739.59 3.8 739.97 6.57 740.68 8.83 743.12 12.66 752.16 22.22 753.73 23.14 756.31 25.97 757.05 27.12 757.38 29.24 758.53 32.17 760.13 34.84 762.32 35.65 764.27 36.04 764.45 37.98 763.83 41.09 762.85 42.75 762.37 45.27 761.73 49.49 762.64 50.52 765.08 52.84 766.85 54.14 768.25 57.6 766.7 64.47 766.06 65.43 764.07 67.7 762.19 69.14 760.47 71.44 763.52 73.04 769.1 74.61 769.65 74.54 775.41 74.55 778.53 78.17 785.12 78.73 790.97 79.33 794.14 81.71 793.73 82.88 794.58 84.92 796.62 88 797.73 88.71 799 96.1 798.74 97.22 796.84 99.86 795.86 99.63 796.83 98.78 798.01 97.24 798.23 96.23 797.14 88.55 796.78 88.12 795.65 88.64 795.99 95.13 794.18 101.31 793.24 102.66 789.3 105.45 781.56 105.96 777.89 105.89 775.08 105.22 771.24 103.15 773.16 102.95 773.07 98.06 768.19 96.12 768.33 93.81 766.68 93.3 763.52 93.18 761.89 93.39 756.84 94.73 751.75 97.97 747.78 98.66 747.08 99.46 743.54 100.61 740.06 102.85 738.46 104.26 734.36 109.75 733.91 113.29 732.14 119.38 731.11 121.01 729.77 122.72 728.38 124.02 728.3 124.8 729.44 127.36 730.92 131.38 731.01 132.2 732.35 135.59 732.92 135.82 732.54 144.79 731.03 146.66 729.82 147.51 727.93 148.26 727.33 149.74 729.76 155.1 730.26 155.8 728.29 158.52 727.29 158.69 726.05 159.52 724.91 161.58 724.81 164.86 725.07 169.36 724.93 169.75 722.87 172.59 721.22 174.69 719.76 175.26 718.67 175.3 716.69 174.1 713.29 174.28 712.73 174.19 711.86 177.15 711.45 177.11 711.3 175.38 711.89 173.27 710.19 173.42 707.55 175.77 707.13 176.87 707.12 177.82 707.62 178.68 708.86 179.68 709.04 180.15 708.47 182.13 707.69 184.16 706.48 185.52 701.79 184.7 698.1 184.95 697.84 184.54 695.75 184.51 694.96 184.93 693.43 187.17 692.65 189.9 693.76 192.98 694.59 194.04 696.41 195 700.83 195.57 701.43 195.43 706.87 192.16 709.54 194.46 710.51 194.65 711.5 194.3 713.73 192.01 716.22 192.18 718.03 192.6 718.08 191.97 718.79 191.36 719.83 191.37 720.54 192.69 719.53 194.88 719.94 195.5 721.49 196.06 721.11 196.71 719.9 197.16 719.42 198.1 719.88 199.59 721.44 206.35 721.01 208.65 721.01 211.01 721.73 211.7 720.6 212.56 720.14 213.59 718.49 214.84 717.29 215.43 715.89 215.34 714.36 214.29 708.75 214.86 708.4 215.37 709.21 217.36 710.02 218.13 710.98 218.38 712.86 218.42 715.76 219.56 716.52 220.05 712.01 223.78 709.73 224.8 709.08 224.03 707.24 223.64 706.42 223.82 706.25 225.45 706.46 226.08 707.88 228.42 709.06 229.34 709.62 230.88 709.24 233.93 708.28 235.43 706.16 237.14 703.65 237.19 702.14 246.74 700.85 249.05 695.19 253.29 695.02 251.94 688.35 250.07 686.21 248.84 686.15 248.45 688.03 247.56 687.71 244.79 686.15 244.32 683.08 244.45 682.75 254.29 677.38 258.74 675.45 261.01 675.38 261.95 677.77 267.02 679.79 269.08 680.39 269.47 682.98 270.25 687.23 274.27 687.47 282.95 686.59 284.95 686.12 285.44 683.35 286.67 682.98 285.87 681.22 285.02 680.45 285.22 679.83 286.32 677.13 295.5 678.46 297.34 678.68 300.3 678.41 301.3 677.32 302.45 672.87 304.25 671.05 304.16 669.7 302.55 669.34 300.91 667.93 299.14 666.23 299.13 664.29 300.11 657.84 306.12 656.87 306.24 655.26 306.97 Z" class="2" id="부산광역시 기장군"/>
<path d="M 412.5 416.87 412.82 418.71 413.37 419.21 414.87 419.78 414.21 420.74 412.05 420.79 407.57 417.96 407.02 417.73 406.24 419.49 411.84 423 409.92 425.19 406.51 423.81 404.96 422.83 406.11 421.58 403.86 421.66 403.3 422.75 403.44 424.16 404.26 425.67 406.47 426.2 406.22 428.11 403.71 432.18 403.08 432.8 401.54 433.45 400.6 433.49 398.16 432.95 390.02 433.62 386.45 434.48 384.65 431.1 383.79 429.19 379.26 425.24 378.77 423.32 380.49 416.99 385.88 412.1 387.44 412.93 388.21 413.02 388.92 409.79 388.73 406.72 388.01 405.15 390.8 404.09 395.19 403.83 395.96 404.23 396.52 405.35 397.12 405.16 398.08 405.76 400.75 408.09 401.36 409.11 403.92 410.39 408.91 411.9 407.84 414.05 408.23 415.27 412.5 416.87 Z" class="3" id="부산광역시 중구"/>
<path d="M 369.12 501.5 370.59 502.57 371.07 503.95 370.99 504.86 370.45 505.47 369.45 505.86 368.04 504.74 368.46 502 369.12 501.5 Z M 365.46 372.73 366.27 373.41 370.94 374.87 374.07 374.29 379.29 373.73 381.43 374.03 385.33 375.41 385.94 381.76 385.89 391.29 385.58 393.67 384.53 395.99 385 397.68 383.37 400.34 383.87 401.7 385.76 403.38 388.01 405.15 388.73 406.72 388.92 409.79 388.21 413.02 387.44 412.93 385.88 412.1 380.49 416.99 378.77 423.32 379.26 425.24 383.79 429.19 384.65 431.1 386.45 434.48 384.76 437.69 385.92 447.55 386.72 450.28 385.37 455.88 383.82 463.08 382.61 463.84 381.28 463.79 379.67 462.91 379.05 461.91 377.47 462.05 376.08 462.43 374.17 463.67 373.15 464.66 372.5 465.76 372.5 466.6 374.36 469.97 375.8 471.53 376.42 471.4 376.66 470.58 378.19 471.85 378.91 472.92 379.07 477.62 378.83 478.8 379.75 483.12 380.37 483.66 380.45 484.44 379.28 486.15 371.76 491.35 371.15 496.48 369.53 498.01 363.11 499.5 364.68 498.37 360.55 486.53 363.91 482.75 361.78 478.57 361.28 478.43 355.6 470.82 354.06 459.96 356.73 459.68 359.18 459.7 360.64 461.26 362.37 462.08 363.98 462.41 364.82 455.32 365.09 451.76 366.74 445.52 367.41 443.64 368.7 441.37 368.46 437.36 364.32 432.41 362.89 430.13 360 429.03 358.17 428.82 358.3 426.39 358.69 425.37 359.78 423.79 362.21 420.99 362.96 419.7 358.7 416.01 355.48 413.75 354.37 413.42 352.72 411.48 353.25 408.72 350.44 407.04 351.03 405.21 351.5 402.61 350.64 401.49 346.02 400.7 345.69 398.85 347.11 393.73 347.49 393.09 349.38 391.59 351.5 390.68 352.08 387.09 351.71 381.04 351.46 378.27 352.64 377 353.87 374.3 346.78 370.6 341.62 368.4 345.29 367.54 347.47 367.96 353.36 369.63 356.31 370.11 358.79 369.69 360.34 369.9 363.08 370.73 365.46 372.73 Z" fill-rule="evenodd" class="4" id="부산광역시 서구"/>
<path d="M 442.79 366.91 445.08 373.47 444.4 375.17 444.41 376.85 445.12 383.28 444.85 383.3 444.26 385.26 443.15 387.95 430.28 401.47 425.48 398.37 424.78 397.8 429.13 394.26 429.25 390.69 428.06 389.93 425.28 390.12 425.33 391.17 421.38 393.29 419.33 397.51 421.59 399.67 429.18 404.44 427.75 405.99 421.43 402.04 417.31 403.61 417.02 403.92 420.88 406.35 422.36 407.5 422.47 409.68 419.68 413.52 416.5 416.29 415.35 416.78 412.5 416.87 408.23 415.27 407.84 414.05 408.91 411.9 403.92 410.39 401.36 409.11 400.75 408.09 398.08 405.76 397.12 405.16 396.52 405.35 395.96 404.23 395.19 403.83 390.8 404.09 388.01 405.15 385.76 403.38 383.87 401.7 383.37 400.34 385 397.68 384.53 395.99 385.58 393.67 385.89 391.29 385.94 381.76 385.33 375.41 388.9 373.9 389.3 373.58 396.41 373.26 398.03 372.68 403.17 369.4 404.12 369.42 404.7 368.55 405.35 366.64 405.62 365.19 405.14 363.77 405.36 362.61 407.85 360.08 408.31 359.89 413.44 360.02 416.01 360.64 422.41 363.94 423.88 365.6 425.06 365.92 428.03 366.29 429.17 366.28 432.05 365.93 434.82 367.09 442.79 366.91 Z" class="5" id="부산광역시 동구"/>
<path d="M 492.29 459.64 491.57 459.42 502.88 458.61 502.9 458.88 492.29 459.64 Z M 440.09 423.57 434.8 427.52 438.78 429.52 438.2 431.21 441.72 430.89 448.59 434.17 452.16 437.05 460.32 446.2 462.15 447.42 463.32 447.04 464.67 450.33 464.66 450.65 462.27 452.32 462.57 452.85 464.53 454.66 469.59 452.29 469.99 452.87 464.51 455.44 467.78 460.17 468.19 460.52 470.67 464.82 474.04 465.43 477.3 461.64 483.08 457.89 484.17 457.26 485.83 456.79 488.99 456.86 489.29 458.52 487.81 462.2 487.26 462.91 481.53 466.77 476.09 468.44 475.68 468.44 474.23 466.37 465.78 470.22 465.79 471.5 467.27 472.78 472.17 472.85 472.46 475.55 474.51 479.92 475.95 482 477.31 483.26 479.86 484.65 482.31 485.83 487.46 487.11 488.7 487.21 488.62 490.12 484.89 494.55 483.99 495.73 483.62 497.11 485.02 498.39 484.89 498.74 483.02 500.24 481.73 500.99 476.86 502.83 474.88 503.06 469.61 501.29 468.66 500.47 467.69 498.3 467.65 496.78 468.01 496.14 466.69 492.63 464.5 489.32 461.71 486.74 459.72 486.06 458.65 486.01 456.56 486.57 455.05 488.33 453.91 489.1 452.02 489.35 450.8 486.87 450.07 486.32 445.6 485.08 443.69 485.18 442.77 484.4 442.75 483.56 443.18 479.53 443.59 478.01 444.04 477.82 444.43 476.72 444.23 475.68 442.85 474.38 441.44 473.57 438.66 472.92 438.33 473.15 431.56 473.22 427.08 470.47 426.73 470.34 417.33 464.32 415.19 462.57 414.26 461.5 412.24 459.68 408.28 456.56 406.5 456.9 404.09 455.12 398.28 450.25 395.57 442.93 393.62 439.57 393.43 438.82 393.58 437.39 394.15 436.93 396.42 436.44 396.84 436.73 401.69 438.98 400.72 436.23 402.84 435.73 404.14 437.67 404.83 435.77 406.58 434.67 407.65 434.21 412.76 432.59 414.64 432.34 416.44 432.97 417 433.88 418.43 434.64 419.68 435.02 420.17 433.98 418.45 433.42 418.06 431.17 419.13 426.97 419.37 426.91 421.64 432.13 423.28 431.72 423.63 430.47 422.98 428.66 429.04 426.82 433.14 425.85 435.06 426.56 437 424.79 440.32 421.56 441.39 422.25 441.26 422.71 440.09 423.57 Z" fill-rule="evenodd" class="6" id="부산광역시 영도구"/>
<path d="M 412.64 281.17 418.72 288.44 417.37 291.91 417.77 294.43 423.21 302.66 425.9 303.4 429.07 304.01 434.23 303.8 438.33 304.74 438.39 310.22 444.46 314.97 447.63 315.01 451.24 316.11 453.84 312.99 453.77 310.54 458.35 312.59 458.51 313.47 459.27 315.04 461.56 316.72 462.65 316.78 468.29 321.88 468.54 322.45 468.02 326.5 467.39 328.25 466.37 328.19 464.53 329.62 462.82 332.98 465.18 337.55 466.12 338.64 469.82 342.15 468.64 346.13 465.32 350.63 463.65 353.42 458.31 353.39 453.12 355.57 451.93 356.93 446.11 357.54 440.92 356 440.53 356.14 440.76 357.66 440.87 363.63 441.29 364.82 442.79 366.91 434.82 367.09 432.05 365.93 429.17 366.28 428.03 366.29 425.06 365.92 423.88 365.6 422.41 363.94 416.01 360.64 413.44 360.02 408.31 359.89 407.85 360.08 405.36 362.61 405.14 363.77 405.62 365.19 405.35 366.64 404.7 368.55 404.12 369.42 403.17 369.4 398.03 372.68 396.41 373.26 389.3 373.58 388.9 373.9 385.33 375.41 381.43 374.03 379.29 373.73 374.07 374.29 370.94 374.87 366.27 373.41 365.46 372.73 369.78 366.44 371.46 364.07 371.21 363.36 370.13 363.02 368.34 360.48 369.35 359.64 371.57 358.2 371.36 356.81 372.09 350.07 371.56 347.37 370.27 344.93 369.47 345.16 363.13 341.3 363.32 338.91 364.3 337.5 364.24 335.24 366.53 329.81 363.78 323.45 363.09 319.39 368.84 314.7 371.67 312.08 372.44 310.55 375.94 309.21 378.14 305.12 378.59 298.86 380.83 296.94 385.23 292.55 385.66 290.7 385.2 289.11 390 288.67 392.46 285.78 394.27 285.48 395.93 284.24 401.12 281.6 406.31 280.22 406.96 281.23 412.64 281.17 Z" class="7" id="부산광역시 부산진구"/>
<path d="M 510.28 265.34 510.25 269.6 511.02 274.07 511.17 274.46 513.9 276.22 515.5 278.06 518.12 278.09 518.84 278.65 516.91 283.76 516.31 288.08 516.29 289.74 516.57 291.89 516.91 292.97 516.62 296.34 516.91 298.09 518.1 301 517.44 300.65 517.44 304.5 515.74 303.46 513.35 298.94 513.5 298.19 511.63 296.68 507.24 294.58 501.1 294.14 498.93 293.89 496.02 293.14 494.13 293.15 491.39 292.45 486.5 290.62 481.81 290.62 478.08 290.06 476.52 289.7 470.99 287.07 469.85 285.92 469.44 284.88 467.6 282.43 466.44 281.3 462.4 281.21 457.09 283.14 453.36 286.6 453.64 287.36 442.52 289.62 442.83 291.94 439.37 292.65 437.3 292.68 435.76 291.92 431.54 290.5 429.83 291.51 425.26 291.75 418.72 288.44 412.64 281.17 412.78 277.79 416.63 274.72 421.33 270.58 421.95 269.7 422.51 268.11 423.28 264.11 423.3 260.99 424.26 260.14 429.93 254.17 430.84 252.6 431.34 250.4 433.19 246.84 434.45 243.72 438.7 242.15 440.28 243.31 448.39 243.73 456.22 243.2 459.36 242.71 460.83 241.64 462.9 242.23 465.6 244.48 467.79 245.85 472.78 247.53 476.35 248.03 475.5 250.45 474.46 252.29 471.41 254.9 474.44 255.02 477.92 254.21 483.52 255.86 486.07 257.53 487.81 257.44 490.79 259.1 498.7 263.11 498.58 263.6 502.72 265.14 507.22 265.42 510.28 265.34 Z" class="8" id="부산광역시 동래구"/>
<path d="M 505.88 449.07 503.56 451.14 503.31 450.94 514.37 441.08 514.66 441.29 505.88 449.07 Z M 512.83 374.44 515.92 375.21 512.53 375.66 510.8 376.59 508.32 379.58 508.68 379.78 514.15 376.27 521.45 380.65 521.22 381.99 519.73 384.16 514.74 389.37 514.95 389.42 525.46 378.04 526.23 379.02 526.12 379.52 528.28 380.73 527.29 382.63 527.3 383.68 528.42 387.7 530.95 393.13 532.79 395.5 534.14 397.03 537.49 400.47 537.95 401.27 536.43 406.78 535.27 408.1 536.68 410.65 536.49 412.15 535.34 414.37 535.53 414.93 534.93 416.15 534.62 417.7 532.97 419.15 531.42 423.21 530.06 425.17 530.1 425.72 531.73 426.9 530.94 428.92 530.31 429.27 527.47 428.78 525.36 428.69 523.62 429.19 522.6 428.9 522.03 428.27 520.35 427.52 519.85 427.8 518.08 427.83 517.41 426.82 515.87 425.78 514.91 423.81 513.34 424.25 510.65 426.42 512.81 428.55 514.98 430.35 516.56 430.98 516.55 431.31 512.74 436.56 509.11 440.61 515.83 431.3 510.82 427.12 509.73 427.16 498.53 436.25 502.68 440.02 494.61 441.14 488.68 437.63 488.08 437.15 485.99 417.21 486.07 415.57 484.76 414.41 484.12 414.45 480.94 415.23 480.91 422.76 458.23 422.75 444.99 415.18 446.99 416.01 450.13 411.9 448.63 410.81 448.5 409.72 450.16 407.42 452.56 405.55 454.73 404.44 456.46 403.33 455.7 401.29 454.17 400.35 452.32 402.37 450.17 401.06 455.35 395.33 450.81 393.92 448.89 396.06 443.96 394.29 445.17 389.02 444.89 386.66 444.26 385.26 444.85 383.3 445.12 383.28 444.41 376.85 444.4 375.17 445.08 373.47 442.79 366.91 441.29 364.82 440.87 363.63 440.76 357.66 440.53 356.14 440.92 356 446.11 357.54 451.93 356.93 453.12 355.57 458.31 353.39 463.65 353.42 465.32 350.63 468.64 346.13 469.82 342.15 470.84 341.63 474.12 341.23 475.27 340.29 477.18 339.18 479.05 338.37 482.34 339.38 484.63 339.44 485.71 339.08 488.39 337.51 489.05 339.42 490.96 342.28 493.59 347.17 496.96 351.5 497.98 354.88 499 357.86 500.2 361.94 500.1 363.23 498.33 365.03 499.68 366.56 504.33 370.35 511.72 375.26 512.83 374.44 Z M 494.35 440.6 494.78 440.84 497.39 440.46 499.29 438.7 499.97 437.82 498.35 436.47 493.42 434.92 494.35 440.6 Z" fill-rule="evenodd" class="9" id="부산광역시 남구"/>
<path d="M 417.62 170.68 416.19 172.75 413.68 175.85 412.59 176.87 410.9 178.87 410.35 182 410.56 183.41 410.04 185.84 409.19 186.75 406.56 187.59 403.39 188.2 402.12 189.47 401.52 191 403.11 191.81 404.84 192.93 409.51 194.62 414.74 195.79 416.56 195.92 418.02 196.88 419.17 198.69 418.63 199.61 417.79 199.87 415.19 202.77 414.44 204.27 414.79 210.44 415.58 211.37 418.6 212.22 420.56 213.55 421.47 216.28 421.09 217.55 421.88 219.39 421.27 221.21 420.44 222.16 418.25 223.12 417.28 224.34 416.28 228.65 412.52 231.92 412.92 234.99 413.87 235.54 414.36 235.31 417.12 235.82 418.14 237.14 419.74 238.01 424.51 238.83 431.51 238.87 436.77 236.27 438.7 242.15 434.45 243.72 433.19 246.84 431.34 250.4 430.84 252.6 429.93 254.17 424.26 260.14 423.3 260.99 423.28 264.11 422.51 268.11 421.95 269.7 421.33 270.58 416.63 274.72 412.78 277.79 412.64 281.17 406.96 281.23 406.31 280.22 401.12 281.6 395.93 284.24 394.27 285.48 392.46 285.78 390 288.67 385.2 289.11 385.66 290.7 385.23 292.55 380.83 296.94 378.59 298.86 378.31 298.62 372.88 296.84 364.32 296.73 362.28 297.55 359.15 297.9 358.03 297.11 356.82 295.76 353.49 294.62 348.12 294.82 347.9 292.36 340.39 288.29 338.35 287.24 334.36 289.44 329.59 286.39 330.68 283.32 331.41 280.16 331.03 279.41 329.37 278.18 334.47 273.82 337.4 270.37 338.44 268.36 339.45 265.5 340.63 261.58 340.82 260.62 342.91 246.98 343.72 241.33 343.95 238.59 344.86 231.7 342.7 227.02 345.71 224.07 348.42 218.74 350.09 214.83 351.83 211.42 357.18 201.44 364.64 186.77 367.51 180.46 369.36 176.12 367.39 171.35 372.76 168.83 379.24 167.88 387.81 166.95 391.1 166.73 392.79 166.74 398.93 167.65 401.96 168.99 404.67 168.98 407.89 169.81 413.34 170.25 416.23 169.84 417.62 170.68 Z" class="10" id="부산광역시 북구"/>
<path d="M 517.44 304.5 517.58 304.64 516.38 307.9 513.32 313.66 511.96 315.99 509.28 315.48 506.01 313.07 505.87 310.64 503.78 309.41 501.97 309.05 500.97 309.07 495.38 309.65 490.85 311.99 490.33 319.7 490.73 320.07 490.93 322.26 487.78 327.22 485.02 330.14 482.71 331.33 483.17 333.31 485.88 336.48 487.65 336.26 488.39 337.51 485.71 339.08 484.63 339.44 482.34 339.38 479.05 338.37 477.18 339.18 475.27 340.29 474.12 341.23 470.84 341.63 469.82 342.15 466.12 338.64 465.18 337.55 462.82 332.98 464.53 329.62 466.37 328.19 467.39 328.25 468.02 326.5 468.54 322.45 468.29 321.88 462.65 316.78 461.56 316.72 459.27 315.04 458.51 313.47 458.35 312.59 453.77 310.54 453.84 312.99 451.24 316.11 447.63 315.01 444.46 314.97 438.39 310.22 438.33 304.74 434.23 303.8 429.07 304.01 425.9 303.4 423.21 302.66 417.77 294.43 417.37 291.91 418.72 288.44 425.26 291.75 429.83 291.51 431.54 290.5 435.76 291.92 437.3 292.68 439.37 292.65 442.83 291.94 442.52 289.62 453.64 287.36 453.36 286.6 457.09 283.14 462.4 281.21 466.44 281.3 467.6 282.43 469.44 284.88 469.85 285.92 470.99 287.07 476.52 289.7 478.08 290.06 481.81 290.62 486.5 290.62 491.39 292.45 494.13 293.15 496.02 293.14 498.93 293.89 501.1 294.14 507.24 294.58 511.63 296.68 513.5 298.19 513.35 298.94 515.74 303.46 517.44 304.5 Z" class="11" id="부산광역시 연제구"/>
<path d="M 655.26 306.97 652.93 307.45 649.07 309.45 647.78 309.47 645.36 310.05 644.16 310.71 642.55 312.04 640.51 314.6 639.37 316.92 640.06 317.81 640.06 318.91 639.53 323.31 638.82 325.78 637.95 329.49 638.2 330.44 638.06 332.18 637.49 333.71 636.28 335.35 634.73 336.19 634.8 337.25 634.56 339.11 634 339.25 631.38 339.25 630.84 338.86 624.81 339.97 623.2 340.57 620.66 343.19 619.76 344.89 618.46 345.74 615.9 347.06 614.26 347.25 610.57 347.06 609.08 346.77 606.87 345.48 604.44 344.53 600.89 342.97 598.52 340.92 596.19 340.71 589.92 340.96 585.03 341.67 581.19 342.63 579.01 343.37 576.12 344.98 574.69 347.96 574.14 350.09 573.5 351.52 568.93 352.2 568.51 351.09 569.28 347.9 570.4 345.27 571.38 344.26 574.09 342.7 573.67 342.38 572.56 343.02 567.78 344.24 566.29 344.92 565.57 345.66 565.21 347.51 565.38 348.13 564.8 348.86 563.55 349.2 558.42 347.74 557.09 347.13 556.43 346.47 554.99 343.85 557.22 342.12 557.23 341.57 552.56 337.51 551.88 337.49 545.23 335.86 540.83 337.57 539.52 335.81 537.45 333.51 535.51 332.42 533.59 331.55 533.56 330.03 530.88 324.98 528.01 320.99 526.4 319.71 523.25 314.17 521.68 310.54 521.67 308.46 521.05 306.87 518.29 300.95 518.1 301 516.91 298.09 516.62 296.34 516.91 292.97 516.57 291.89 516.29 289.74 516.31 288.08 516.91 283.76 518.84 278.65 518.12 278.09 515.5 278.06 513.9 276.22 511.17 274.46 511.02 274.07 510.25 269.6 510.28 265.34 511.92 262.76 513.18 261.85 520.93 259.15 521.9 259.71 523.47 259 523.48 256.96 522.36 253.71 521.39 251.32 520.39 249.29 519.99 247.36 521.02 244.9 525.73 242 528.32 241.09 529.84 240.73 533.11 240.7 535.05 240.24 539.14 235.68 540.22 234.08 539.71 232.61 539.56 231.24 540.97 228.12 544.92 226.1 546.51 225.96 547.83 226.61 548.23 225.2 550.05 223.51 551.52 222.46 553.74 220.5 555.06 218.86 559.7 210.96 559.79 207.79 561.02 205.06 564.64 207.3 567.2 210.37 566.97 212.28 569.49 213.06 573.85 213.89 575.86 214.08 577.9 214.57 578.4 214.93 579.23 217.38 578.56 220.98 577.14 222.21 576.65 223.46 576.47 225.87 576.96 227.32 580.81 227.99 585.11 227.85 585.29 229.37 585.62 229.91 589.75 233.83 593.81 236.28 594.69 236.51 597.12 239.28 596.93 242.68 596.39 244.06 592.89 249.3 591.85 252.37 591.73 254.07 591.01 257.94 586.64 261.52 584.33 262.75 583.32 265.53 583.91 270.87 590.16 273.01 590.97 275.59 598.03 278.89 600.05 277.69 601.69 277.05 607.42 279.51 612.08 283.28 618.29 283.81 619.61 284.44 621.35 287.06 620.22 289.65 619.25 291.33 618.19 293.61 618.01 295.06 620.39 295.86 623.11 296.19 625.32 296.14 627.76 294.56 632.76 289.24 633.75 287.92 634.22 286.7 634.11 285.77 634.38 283.43 635.24 282.5 636.89 281.97 641.28 280.86 643.38 281.19 646.26 282.82 648.95 283.18 652.42 284.61 653.07 284.99 653.83 288.27 652.57 294.06 653.09 302.34 654.1 305.56 655.26 306.97 Z" class="12" id="부산광역시 해운대구"/>
<path d="M 333.19 604.14 333.89 604.31 335.25 604 335.64 603.46 336.93 602.73 338.45 602.77 338.48 604.15 335.61 606.32 330.91 608 329.71 607.46 329.8 606.6 331.98 603.5 333.19 604.14 Z M 309.36 529.86 310.8 531.91 310.83 532.74 308.77 538.37 308.09 538.69 307.29 538 305 535.54 304.86 535.22 305.67 532.69 307.52 530.66 308.39 530.06 309.36 529.86 Z M 278.77 484.27 279.16 485.73 279.79 492.94 279.72 493.68 278.74 493.94 278 493.61 277.28 491.57 277.96 490.41 277.95 488.78 276.38 487.89 270.74 485.59 267.36 484.49 267.09 484.95 269.12 487.01 270.83 487.62 272.84 489.08 274.76 491.6 275.08 493.04 274.08 495.09 273.48 495.6 272.2 495.69 270.84 493.7 270.05 492.96 268.66 492.47 262.27 492.05 259.52 492.56 257.38 493.61 255.72 495.12 255.81 495.84 257.48 496.72 260.71 496.43 264.22 495.47 267.23 493.87 272.3 496.71 278.63 497.19 279.26 497.37 280.89 498.64 283.42 502.43 283.57 503.09 283.4 506.05 282.82 506.67 279.34 506.7 276.78 505.16 274.67 504.69 271.14 504.25 268.33 504.23 262.9 504.39 260.23 504.55 256.27 504.52 250.57 503.97 244.91 503.3 239.84 499.57 236.03 495.79 235.58 494.87 236.2 494.05 238.41 492.82 240.41 491.89 242.31 491.94 245.16 493.74 245.39 494.37 243.83 496.31 243.84 498.19 245.05 499.53 246.38 500.08 251.85 501.16 253.03 501.29 252.34 499.7 247.03 492.53 245.39 492.48 244.6 491.73 244.27 490.72 244.75 488.96 246.05 487.04 249.47 482.66 252.51 479.97 253.76 479.02 255.67 477.01 259.85 471.8 261.4 469.07 263.37 466.91 265.2 465.73 265.68 465.79 267.81 468.53 277.99 482.87 278.77 484.27 Z M 287.37 501.79 286.8 501.13 284.79 497.75 284.18 494.93 278.79 474.27 278.41 473.19 277.47 469.15 275.72 462.38 274.39 456.72 274.13 455.04 274.35 452.21 275 450.29 275.96 448.6 277.35 446.54 279 443.12 279.83 440.94 280.68 438.03 281.34 434.29 282.69 422.65 283 420.94 283.04 419.5 282.56 418.6 274.4 417.39 271.9 417.57 269.81 424.26 269.58 425.18 269.51 427.44 269.97 429.69 265.94 442.13 264.62 445.72 263.43 448.24 262.56 449.47 261.51 450.14 258.16 454.73 248.21 466.38 247.85 466.65 245.4 467.13 243.38 466.82 242.61 465.06 242.1 462.21 241.93 460.02 242.35 458.89 243.97 456.61 246.85 450.66 246.88 449.6 246.46 446.07 246.3 445.64 246.85 439.3 248.5 430.5 249.39 428.11 250.73 426.33 251.76 423.68 251.98 422.39 253.28 418.83 253.85 418.16 255.43 417.82 256.89 416.95 257.37 416.29 257.52 415.3 251.88 413.41 251.3 410.52 256.17 407.25 256.32 406.29 256.88 405.23 261.1 400.64 261.88 399.9 265.85 396.77 267.41 395.78 270.37 394.57 271.34 392.49 273.08 389.24 275.51 385.24 278.19 381.9 281.61 378.24 283.6 376.23 287.54 373.98 287.88 373.96 291.7 373.68 291.7 375.48 290.74 378.58 289.26 382.23 288.11 383.91 286.34 387.1 285.44 389.24 284.66 392.2 284.84 395.46 285.74 400.22 287.58 401.94 288.37 399.89 289.28 398.4 293.86 395.71 299.22 397.48 306.93 400.45 311.87 402.91 313.53 403.13 318.04 402.83 318.64 402.4 320.1 400.55 320.3 399.04 321.2 398.11 328.21 392.32 331.96 391.75 334.45 392.03 342.78 393.2 347.11 393.73 345.69 398.85 346.02 400.7 350.64 401.49 351.5 402.61 351.03 405.21 350.44 407.04 353.25 408.72 352.72 411.48 354.37 413.42 355.48 413.75 358.7 416.01 362.96 419.7 362.21 420.99 359.78 423.79 358.69 425.37 358.3 426.39 358.17 428.82 360 429.03 362.89 430.13 364.32 432.41 368.46 437.36 368.7 441.37 367.41 443.64 366.74 445.52 365.09 451.76 364.82 455.32 363.98 462.41 362.37 462.08 360.64 461.26 359.18 459.7 356.73 459.68 354.06 459.96 353.45 455.68 355.21 451.11 353.1 448.82 352.07 448.48 350.62 448.6 347.48 452.37 347.48 455.3 349.99 455.86 349.32 457.92 344.95 456.97 343.52 453.13 337.24 451.83 336.6 457.45 340.04 463.94 340.62 477.18 340.62 482.21 344.07 491.04 345.29 492.91 346.48 495.49 348.54 500.73 349.56 504.41 356.7 503.18 357.79 503.55 349.45 504.99 347.56 505.54 348.06 506.7 345.37 510.25 342.77 510.26 336.4 509.05 336.08 508.82 335.71 506.56 336.35 506.02 336.62 505 336.19 502.99 330.64 490.73 330.31 490.22 324.71 487.54 315.15 491.44 314.08 492.09 311.4 492.15 310.08 491.65 307.28 491.84 306.71 495.41 308.58 497.1 312.92 497.93 317.28 497.67 318.35 497.78 321.79 499.49 322.01 499.9 320.35 502.9 317.74 505.34 317.48 504.58 307.62 503.13 305.1 504.12 303.77 504.95 302.31 506.61 301.92 508.07 302.83 509.54 310.68 513.37 312.46 513.61 313.74 514.41 314.8 515.55 314.98 516.47 314.49 517.18 312.2 516.49 310.23 514.76 308.48 515.03 306.98 515.93 299.88 521.49 298.83 522.63 298.8 524.48 299.31 525.23 299.4 526.62 298.76 527.29 296.6 527.91 295.48 526.54 295.02 525.35 294.79 523.89 294.99 521.93 297.15 520.22 298.22 518.14 299.78 512.37 299.82 511.58 299.24 510.63 298.11 510.03 296.06 509.71 292.44 507.88 288.46 505.51 287.54 504.44 286.83 502.32 287.37 501.79 Z" fill-rule="evenodd" class="13" id="부산광역시 사하구"/>
<path d="M 561.02 205.06 559.79 207.79 559.7 210.96 555.06 218.86 553.74 220.5 551.52 222.46 550.05 223.51 548.23 225.2 547.83 226.61 546.51 225.96 544.92 226.1 540.97 228.12 539.56 231.24 539.71 232.61 540.22 234.08 539.14 235.68 535.05 240.24 533.11 240.7 529.84 240.73 528.32 241.09 525.73 242 521.02 244.9 519.99 247.36 520.39 249.29 521.39 251.32 522.36 253.71 523.48 256.96 523.47 259 521.9 259.71 520.93 259.15 513.18 261.85 511.92 262.76 510.28 265.34 507.22 265.42 502.72 265.14 498.58 263.6 498.7 263.11 490.79 259.1 487.81 257.44 486.07 257.53 483.52 255.86 477.92 254.21 474.44 255.02 471.41 254.9 474.46 252.29 475.5 250.45 476.35 248.03 472.78 247.53 467.79 245.85 465.6 244.48 462.9 242.23 460.83 241.64 459.36 242.71 456.22 243.2 448.39 243.73 440.28 243.31 438.7 242.15 436.77 236.27 431.51 238.87 424.51 238.83 419.74 238.01 418.14 237.14 417.12 235.82 414.36 235.31 413.87 235.54 412.92 234.99 412.52 231.92 416.28 228.65 417.28 224.34 418.25 223.12 420.44 222.16 421.27 221.21 421.88 219.39 421.09 217.55 421.47 216.28 420.56 213.55 418.6 212.22 415.58 211.37 414.79 210.44 414.44 204.27 415.19 202.77 417.79 199.87 418.63 199.61 419.17 198.69 418.02 196.88 416.56 195.92 414.74 195.79 409.51 194.62 404.84 192.93 403.11 191.81 401.52 191 402.12 189.47 403.39 188.2 406.56 187.59 409.19 186.75 410.04 185.84 410.56 183.41 410.35 182 410.9 178.87 412.59 176.87 413.68 175.85 416.19 172.75 417.62 170.68 418 170.22 418.32 166.93 419.85 164.48 422.46 161.65 425.31 160.67 427 159.09 427.03 157.89 424.92 155.46 424.52 153.46 426.32 149.18 433.36 140.47 434.53 139.99 438.85 140.02 451.1 140.93 456.18 146.1 457.15 146.22 457.75 145.48 466.54 137.93 471.84 134.12 472.87 133.23 472.95 132.48 474.18 130.94 474.98 130.28 477.95 128.71 481.2 127.51 486.22 127.54 487.96 127.35 490.33 127.44 493.82 126.63 503.35 122.92 504.33 123.03 507.8 125.8 516.26 127.56 517.26 128.51 519.47 129.95 523.39 129.79 528.72 130.41 538.77 135.12 539.33 136.47 540.93 142.22 540.39 145.46 536.77 148.33 536.34 150.5 533.29 157.28 530.93 160.25 531.75 162.24 533.58 164.35 532.2 170.18 531.7 171.42 529.29 173.91 527.57 175.94 526.65 177.53 525.77 180.95 526.57 186.37 527.7 188.85 528.57 189.19 533.82 189.06 538.7 191.06 539.4 191.1 543.01 190.66 544.37 190.73 546.04 192.72 550.99 190.85 553.12 190.89 553.64 192.23 552.59 195.25 552.1 197.58 551.73 200.12 554.43 202.19 557.63 204.29 561.02 205.06 Z" class="14" id="부산광역시 금정구"/>
<path d="M 6.42 552.72 9.64 552.68 13.52 553.65 14.08 554.03 16.4 556.63 17.34 559.63 17.15 560.13 13.62 560.73 11.53 560.62 10.83 560.02 10.7 557.86 9.64 556.28 8.73 555.7 6.52 556.13 4.86 556.66 4.18 557.95 3.08 558.54 1.28 558.25 1 557.88 1 555.93 1.83 553.92 2.78 553.02 5.29 552.09 6.42 552.72 Z M 216.39 484.72 222.57 483.91 225.31 484.51 226.96 485.3 228.52 484.45 229.33 485.36 228.79 487.09 226.3 492.07 224.68 492.84 212.24 489.25 209.35 487.4 207.74 485.41 207.57 483.88 209.51 483.12 215.81 481.9 215.37 484.31 216.39 484.72 Z M 187.92 484.87 187.98 483.13 190.13 481.88 194.56 483.3 199.91 486.75 208.73 489.03 212.55 491.44 218.14 493.43 220.25 494 224.86 494.95 228.87 495.05 227.9 496.97 226.78 498.26 225.31 499.44 224.44 499.53 223.18 497.46 219.22 495.35 217.57 494.65 213.29 493.74 206.57 492.93 200.14 492.04 193.97 490.76 187.48 489.18 184.39 488.03 180.18 485.72 179.48 484.86 179.05 482.64 179.37 481.45 180.06 480.76 181.75 479.89 183.49 480.5 184.52 482.28 185.45 483.4 187.92 484.87 Z M 37.33 474.88 36.39 472.88 36.91 472.12 38.48 471.18 38.64 471.6 38.1 473.43 38.13 474.42 37.33 474.88 Z M 167.85 481.88 162.38 481.69 160.95 481.54 156.61 480.68 155.15 480.3 147.98 477.09 143.72 475.57 140.44 474.77 137.56 474.46 137.7 473.01 138.08 472.14 139.41 471.22 141.66 470.59 151.41 469.33 153.56 469.24 158 470.53 161.8 471.03 165.78 471.42 170.09 472.25 178.47 474.59 178.94 478.19 177.99 479.11 175.36 480.36 171.89 481.4 170.3 481.7 167.85 481.88 Z M 120.58 486.74 122.68 483.53 120.55 481.82 118.49 481.16 116.57 480.89 115.26 480.89 111.89 479.23 106.5 476.34 106.05 475.35 106.7 466.75 107.52 465.35 109.28 465.34 110.87 465.94 113.17 469.4 113.31 471.34 114.65 473.14 121.27 474.43 125.06 474.77 129.03 473.74 133.24 473.69 138.42 480.37 138.69 481.25 137.5 481.81 136.37 481.83 127.07 483.47 125.41 483.86 122.74 484.94 120.58 486.74 Z M 208.14 469.18 208.67 468.04 214.89 464.16 217.34 463 220.55 462.16 221.31 462.71 217.91 463.65 216.57 464.21 211.11 467.12 208.14 469.18 Z M 232.4 461.15 233.19 463.07 232.39 464.75 231.69 465.43 231.01 465.34 230.48 463.85 227.54 463.57 223.71 463.94 219.86 464.84 216.81 465.93 214.6 466.98 211.6 468.61 208.19 470.7 207.79 471.4 204.35 471.07 216.46 465.16 219.26 464.2 225.96 462.7 229.21 462.43 230.55 462.64 232.15 462.6 231.85 461.68 230.02 461.45 227.37 461.47 225.77 461.68 223.69 462.18 222.64 461.93 222.63 460.86 227.54 460.7 231.2 460.78 232.4 461.15 Z M 119.74 488.02 120.09 490.16 120.86 492.66 125.82 498.74 126.22 500.37 125.95 505.82 126.01 508.08 126.79 510.54 126.57 512.27 127.7 513.89 126.5 517.67 123.99 522.53 124.32 523.5 124.3 525.39 123.9 525.92 120.7 527.61 119.86 527.62 118.23 528.32 117.08 529.2 115.82 530.69 115.76 532.38 116.45 532.84 116.45 535.04 115.87 536.39 113.81 540.26 111.84 541.76 110.84 543.49 110.71 544.44 111.07 545.48 110.52 546.89 108.53 549.88 107 550.23 105.51 550.82 104.47 551.67 103.68 552.98 102.95 557.66 102.97 559.32 103.52 560.13 106.16 561.78 107.84 562.65 109.82 562.96 111.52 564.05 112.49 565.19 112.79 566.07 112.92 567.93 110.32 571.61 109.66 573.7 108.49 575.01 107.35 575.83 108.04 577.05 110.98 579.61 107.45 580.16 103.37 583.52 95.86 591.03 95.72 592.11 94.35 592.68 93.09 592.61 92.64 592.19 92.42 591.11 93.66 588.79 95.71 586.53 96.69 584.02 95.78 582.8 93.45 582.27 92.18 582.23 89.06 582.92 88.33 583.33 86.17 584.02 84.57 583.98 84.15 583.31 84.52 580.3 85.58 579.4 85.59 577.72 85.06 574.59 83.65 573.79 82.25 573.92 80.33 572.25 79.16 570.86 78.97 569.47 79.89 569.03 80.84 569.78 86.2 569.08 86.81 568.46 87.23 566.17 86.84 565.29 85.16 564.74 81.84 562.54 82.16 561.93 84.35 561.39 89.7 560.41 90.59 560.74 92.13 559.22 92.57 557.27 92.34 555.76 91.58 554.96 87.23 551.39 86.66 551.02 78.68 548.67 72.32 547.11 68.31 544.51 61.35 544.51 59.05 540.56 59.26 540.2 62.09 539.21 63.02 539.05 64.05 539.38 67.63 541.29 70.26 541.18 71.83 540.77 73.97 539.11 74.74 535.61 74.79 534.45 73.74 532.94 72.08 532.09 66.37 532.12 63.71 529.7 63.22 529.03 62.91 527.39 63.44 525.9 64.01 525.69 65.96 526.31 68.03 526.49 69.09 525.46 69.96 523.72 70.68 521.12 70.81 518.94 70.34 516.87 69.14 515.16 68.05 514.01 65.34 512.03 60.48 505.75 59.19 505.24 57.37 504.87 55.35 504.72 54.06 505.49 51.8 505.39 48.97 503.76 47.92 501.76 48.47 500.78 48.74 499.39 48.02 497.65 47.27 497.65 47.21 496.66 48.55 495.67 50.24 495.62 52.51 494.69 56.84 494.27 56.56 493.95 53.03 494.26 48.08 495.24 46.94 495.94 46.62 497 38.84 496.98 38.59 495.53 38.74 484.76 43.05 480.05 59.49 477.23 81.14 473.64 99.96 470.5 99.95 461.19 69.13 461.23 69.12 453.25 79.49 453.23 83.95 451.09 83.93 449.02 88.39 449.02 91.16 448.48 91.16 446.04 94.51 442.93 99.42 446.79 102.97 447.09 103.58 447.36 104.06 448.23 104.35 454.8 104.35 461.22 104.18 476.45 103.26 483.45 101.19 484.93 100.46 486.72 100.24 489.89 100.38 490.48 101.89 493.21 103.45 494.26 106.99 495.96 108.89 496.52 114.72 495.53 118.69 493.26 119.94 492.43 120.11 491.19 119.38 488.58 119.74 488.02 Z M 82.44 433.08 82.63 432.29 86.6 425.53 87.04 425.19 88.84 424.66 91.41 424.47 98.77 424.2 100.07 424.51 102.22 425.44 103.52 425.45 104.61 424.96 113.71 419.26 115.88 414.56 116.01 412.3 115.57 408.67 115.3 408.14 113.65 406.58 111.53 405.64 110.33 405.81 108.97 405.64 107.58 404.29 105.27 400.22 105.84 398.52 107.6 397.25 108.41 394.22 107.89 392.67 105.75 391.09 103.97 389.43 103.24 387.48 103.1 385.6 100.82 383.87 99.35 384.31 97.52 385.5 97.21 386.05 96.13 386.41 92.56 386.44 91.56 385.86 91.37 384.48 88.97 382.83 87.91 382.26 79.92 380.53 75.41 380.08 74.81 379.89 71.93 377.11 66.71 372.77 63.43 370.34 62.93 369.77 63.45 368.35 63.39 367.42 62.69 365.83 62 365.3 58.87 366.14 55.28 366.19 55.78 363.56 55.08 360.06 54.75 359.26 49.91 353.52 46.28 349.97 44.21 345.52 42.77 343.64 44.04 341.61 47.83 340.93 48.62 341.72 49.94 342.25 53.01 342.3 54.7 341.58 55.56 340.23 57.99 339.28 60.8 338.8 62.69 340.11 64.99 341.02 70.43 339.96 75.71 339.21 83.04 342.17 84.84 343.36 86.08 345.12 90.35 345.87 92.78 345.97 93.97 344.74 96.46 343.86 102.27 343 105.3 340.72 107.05 340.52 112.08 341.24 113.43 341.88 115.53 342.42 116.43 341.71 117.38 339.58 117.13 336.43 117.79 335.31 119.36 333.52 120.49 332.52 124.73 331.35 135.26 329.31 139.05 327.63 140.35 327.37 151.64 328.05 156.41 330.87 157.72 331.97 158.33 333.12 158.6 335.58 157.94 337.1 154.3 341.45 152.76 341.55 151.26 340.17 150.55 339.81 149.01 340.29 148.39 342.13 157.96 353.54 163.88 353.15 165.33 352.33 162.43 348.9 162.02 341.56 163.73 340.34 168.35 339.93 169.1 340.22 171.5 340.24 172.27 339.6 172.32 337.47 170.23 336.7 165.08 331.62 165.4 328.11 164.1 323.96 162.49 323.47 158.98 321.31 160.64 318.56 171.14 322.46 171.96 321.94 170.84 320.12 170.44 317.76 170.33 311.57 170.67 309.45 171.27 308.55 172.73 307.42 172.36 305.73 168.7 301.84 166.72 300.02 165.02 298.75 164.19 297.4 163.9 294.7 164.49 292.45 164.65 291.23 164.3 290.44 159.27 282.18 156.03 278.04 157.15 276.63 160.16 274.44 164.19 270.73 165.52 268.99 168.77 265.57 170.65 265.54 172.46 265.06 175.47 262.75 176.26 260.87 177.08 260.19 179.23 259.06 181.54 259.18 183.68 258.47 187.94 259.41 195.1 260.84 206.7 257.73 212.15 255.57 207.21 250.68 213.88 246.23 214.89 246.44 212.7 248.24 212.93 249.68 213.89 249.9 214.35 247.37 214.97 246.5 218.27 247.07 218.84 247.98 224.4 255.28 228.99 256.07 229.53 256.07 236.1 253.59 239.11 252.51 242.98 250.74 247.24 247.85 251.09 245.58 253.98 242.72 255.12 241.95 258.57 240.07 260.67 239.48 264.78 238.48 267.31 240.07 270.9 242.84 271.48 243.04 283.53 243.03 298.36 240.77 300.63 240.49 307.22 240.1 311.6 239.22 324.08 236.37 332.27 233.53 339.05 230.04 341.61 228.09 342.7 227.02 344.86 231.7 343.95 238.59 343.72 241.33 342.91 246.98 340.82 260.62 340.63 261.58 339.45 265.5 338.44 268.36 337.4 270.37 334.47 273.82 329.37 278.18 326.91 280.29 320.72 285.27 313.62 290.2 303.56 294.35 297.74 298.22 293.75 303.23 293.27 304.51 292.67 332.97 291.69 337.68 289.53 347.2 289.35 349.87 288.77 355.24 288.47 360.68 288.4 363.83 288.49 368.9 287.88 373.96 287.54 373.98 283.6 376.23 281.61 378.24 278.19 381.9 275.51 385.24 273.08 389.24 271.34 392.49 270.37 394.57 267.41 395.78 265.85 396.77 261.88 399.9 261.1 400.64 256.88 405.23 256.32 406.29 256.17 407.25 251.3 410.52 251.88 413.41 248.74 412.86 248.11 413.17 247.55 415.33 248.36 415.6 248.56 416.64 248.14 418.18 247.69 418.86 245.3 420.94 244.35 427.31 245.71 431.51 245.57 432.68 244.39 438.86 242.61 439.28 239.17 439.22 236.21 439.36 235.65 439.94 231.63 441.91 230.43 442.21 230.02 441.6 224.78 443.29 222.93 444.2 219.33 446.38 217.93 448.23 217.95 455.14 218.1 458.16 216.33 459.25 204.43 459.28 192.83 459.27 192.75 459.22 192.81 448.51 192.96 447.77 195.95 439.6 196.57 438.66 198.24 439.26 198.86 439.06 198.66 430.7 200.63 421.64 201.33 416.73 200.56 413.97 200.57 412.15 200.83 411.08 202.22 408.78 202.99 407.91 205.36 406.33 206.84 404.63 208.11 401.43 204.26 400.3 196.3 398.13 195.07 399.3 192 404.61 190.49 408.72 189.48 410.73 187.46 412.89 184.82 414.85 184.26 416.53 181.84 442.58 181.27 444.79 179.15 447.25 176.53 451.29 175.15 454.27 175.34 456.69 176.64 458 176.13 458.69 169.76 458.17 161.13 457.22 155.85 456.47 154.39 455.65 153.89 454.95 155.55 452.28 156.55 451.7 157.76 451.66 157.76 452.71 159.04 453.43 159.04 450.64 157.57 446.37 156.65 445.65 156.67 450.13 152.88 452.91 140.46 453.01 133.19 453.02 129.07 452.95 111.3 452.98 111.28 454.77 109.55 454.62 107.27 452.52 105.91 449.46 105.9 447.49 104.1 445.22 99.51 445.29 88.24 436.21 88.18 434.6 84.28 431.45 82.67 432.51 82.44 433.08 Z" fill-rule="evenodd" class="15" id="부산광역시 강서구"/>
</g>
</svg>