<?xml version="1.0"?>
<svg xmlns="http://www.w3.org/2000/svg" version="1.2" baseProfile="tiny" width="800" height="522" viewBox="0 0 800 522" stroke-linecap="round" stroke-linejoin="round">
<g id="서울_2020">
<path d="M 467.29 301.05 466.75 305.13 467.97 309 469.12 310.09 478.81 311.71 483.59 313.41 483.42 320.37 478.57 323.79 466.51 336.41 464.76 338.2 456.24 344.86 445.24 352.12 432.41 360.26 422.58 372.74 412.77 372.76 409.47 372.72 400.65 370.96 393.09 368.03 387.04 366.39 383.4 364.62 377.48 360.2 368.07 356.38 354.55 351.81 354.53 333.67 344.44 320.78 345.41 318.54 347.92 317.06 349.52 317.83 357.21 316.02 361.17 313.71 363.61 310.71 365.7 309.94 370.69 303.67 368.88 302.47 369.87 298.45 376.57 294.54 379.4 292.17 378.43 286.82 382.46 283.63 391.37 279.06 391.66 281.66 393.75 282.45 398.54 281.57 405.18 283.97 405.41 279.91 412.39 283.43 419.56 284.04 422.32 282.8 426.72 287.09 428.69 286.95 435.54 289.73 441.04 295.14 443.2 294.73 445.69 291.08 448.07 290.25 455.17 290.54 458.4 289.47 461 294.24 459.72 297.16 464.01 301.58 467.29 301.05 Z" class="0" id="서울특별시 용산구"/>
<path d="M 588.24 270.86 590.82 271.91 572.26 304.68 557.4 331.19 555.29 330.56 549.49 326.8 537.99 319.92 527.2 316.9 490.55 316.91 483.42 320.37 483.59 313.41 478.81 311.71 469.12 310.09 467.97 309 466.75 305.13 467.29 301.05 465.7 299.35 468.6 293.88 472.27 292.74 481.25 284.12 483.23 278.7 484.63 276.72 493.87 274.87 494.77 269.4 499.61 265.82 501.21 261.34 495.14 260.87 494.77 248.08 498.23 250.1 507.93 252.08 511.51 251.55 515.37 249.06 519.16 247.61 522.89 247.4 526.5 246.01 531.33 246.57 541.62 250.98 562.25 266.37 583.32 269.39 588.24 270.86 Z" class="1" id="서울특별시 성동구"/>
<path d="M 669.97 276.97 667.66 282.25 662.95 288.88 662.8 295.72 658.54 302.9 656.72 306.25 624.34 331.89 621.49 334.02 613.51 337.99 602.72 341.45 596.96 342.28 591.93 341.61 578.88 338.34 575 337.44 557.4 331.19 572.26 304.68 590.82 271.91 588.24 270.86 590.33 265.22 592.55 260.8 594.76 258.13 599.33 248.15 614.49 250.12 618.36 250.1 618.78 251.37 622.78 252.29 629.01 250.62 631.75 250.37 639.85 246.49 642.61 244.54 644.09 247.14 646.89 247.37 648.99 249.07 646.6 255.53 643.06 268.78 645.05 272.16 650.32 277.61 653.12 277.54 655.26 275.35 659.1 273.55 664.38 272.69 665.64 273.09 669.97 276.97 Z" class="2" id="서울특별시 광진구"/>
<path d="M 599.33 248.15 594.76 258.13 592.55 260.8 590.33 265.22 588.24 270.86 583.32 269.39 562.25 266.37 541.62 250.98 531.33 246.57 526.5 246.01 522.89 247.4 519.16 247.61 515.37 249.06 511.51 251.55 507.93 252.08 498.23 250.1 494.77 248.08 494.72 248.07 494.29 236.42 496.71 234.19 506.5 227.52 517.96 215.57 519.45 213.3 519.25 211.33 524.1 211.14 528.5 202.93 532.2 200.29 540.44 201.87 546.19 193.33 549.54 194.22 554.14 192.84 564.73 190.52 568.8 184.71 574.89 183.98 579.59 179.54 582.49 178.71 585.71 179.97 586.61 185.64 589.16 191.96 587.46 195.25 584.99 197.29 582.59 203.41 584.73 208.76 584.77 211.9 586.78 217.39 587.85 223.05 596.01 233.91 596.8 239.93 598.4 247.14 599.33 248.15 Z" class="3" id="서울특별시 동대문구"/>
<path d="M 494.29 236.42 494.72 248.07 486.43 249.78 483.22 251.57 462.88 252.42 453.32 252.57 446.25 253.93 431.36 255.27 424.66 255.09 407.47 253.05 403.72 252.9 391.2 255.06 386.62 259.69 372.7 245.9 364.15 238.08 361.67 234.91 368.51 232.9 369.74 223.07 369.02 221.11 368.86 215.35 369.64 208.66 372 203.92 370.54 198.72 366.86 196.56 361.21 195.39 359.3 189.78 362.17 185.34 359.76 182.17 355.84 178.55 355.46 174.24 354.44 172.27 356.28 168.08 356.15 164.86 352.66 150.13 352.86 148.09 355.63 144.11 370.82 138.29 387.36 135.93 398.7 132.75 403.16 134.04 401.85 137.65 402.39 139.14 408.98 138.64 412.08 140.56 411.35 144.29 415.52 148.12 418.96 154.16 418.03 157.81 420.65 164.02 424.55 167.85 422.95 172.15 423.18 176.44 424.88 182.89 424.72 186.82 416.95 190.22 409.18 192.61 407.57 194.04 405.74 198.5 410.3 201.38 419.33 205.11 423.02 205.46 429.33 210.88 437.93 210.34 447.2 208.86 448.78 209.16 453.28 211.93 454.62 215.39 462.66 222.09 466.63 231.77 470.2 232.15 478.28 228.25 481.12 229.01 484.05 233.38 485.97 237.38 491.78 234.81 494.29 236.42 Z" class="4" id="서울특별시 종로구"/>
<path d="M 494.77 248.08 495.14 260.87 501.21 261.34 499.61 265.82 494.77 269.4 493.87 274.87 484.63 276.72 483.23 278.7 481.25 284.12 472.27 292.74 468.6 293.88 465.7 299.35 467.29 301.05 464.01 301.58 459.72 297.16 461 294.24 458.4 289.47 455.17 290.54 448.07 290.25 445.69 291.08 443.2 294.73 441.04 295.14 435.54 289.73 428.69 286.95 426.72 287.09 422.32 282.8 419.56 284.04 412.39 283.43 405.41 279.91 405.18 283.97 398.54 281.57 393.75 282.45 391.66 281.66 391.37 279.06 382.46 283.63 378.43 286.82 378.06 283.65 380.41 276.8 379.7 274.38 377.05 272.64 380.14 272.29 386.88 268.36 391.89 267.02 386.62 259.69 391.2 255.06 403.72 252.9 407.47 253.05 424.66 255.09 431.36 255.27 446.25 253.93 453.32 252.57 462.88 252.42 483.22 251.57 486.43 249.78 494.72 248.07 494.77 248.08 Z" class="5" id="서울특별시 중구"/>
<path d="M 642.61 244.54 639.85 246.49 631.75 250.37 629.01 250.62 622.78 252.29 618.78 251.37 618.36 250.1 614.49 250.12 599.33 248.15 598.4 247.14 596.8 239.93 596.01 233.91 587.85 223.05 586.78 217.39 584.77 211.9 584.73 208.76 582.59 203.41 584.99 197.29 587.46 195.25 589.16 191.96 586.61 185.64 585.71 179.97 586.95 168.72 583.8 165.07 585.94 163.39 594.74 161.6 605.94 157.93 614.35 155.8 624.48 158.34 630.33 158.25 638.66 155.6 642.58 157.49 650.3 156.3 651.52 155.65 662.49 155.03 669.58 157.24 671.81 158.36 673.83 162.57 672.72 163.95 674.06 171.14 672.77 177.62 675.44 184.06 675.35 185.72 667.82 194.25 668.52 196.3 673.12 203.09 672.71 205.91 665.9 208.12 660.29 218.47 659.89 221.28 658.02 226.2 647.48 231.51 646.69 234.73 643.1 240.14 642.61 244.54 Z" class="6" id="서울특별시 중랑구"/>
<path d="M 545.04 148.2 553.98 156.78 566.82 166.22 570.81 167.28 575.69 165.94 583.8 165.07 586.95 168.72 585.71 179.97 582.49 178.71 579.59 179.54 574.89 183.98 568.8 184.71 564.73 190.52 554.14 192.84 549.54 194.22 546.19 193.33 540.44 201.87 532.2 200.29 528.5 202.93 524.1 211.14 519.25 211.33 519.45 213.3 517.96 215.57 506.5 227.52 496.71 234.19 494.29 236.42 491.78 234.81 485.97 237.38 484.05 233.38 481.12 229.01 478.28 228.25 470.2 232.15 466.63 231.77 462.66 222.09 454.62 215.39 453.28 211.93 448.78 209.16 447.2 208.86 437.93 210.34 429.33 210.88 423.02 205.46 419.33 205.11 410.3 201.38 405.74 198.5 407.57 194.04 409.18 192.61 416.95 190.22 424.72 186.82 424.88 182.89 423.18 176.44 422.95 172.15 424.55 167.85 420.65 164.02 418.03 157.81 418.96 154.16 415.52 148.12 411.35 144.29 412.08 140.56 408.98 138.64 402.39 139.14 401.85 137.65 403.16 134.04 406.28 131.62 416.8 126.25 420.01 125.19 423.26 126.23 430.04 129.66 441.36 136.81 448.76 144.52 460.05 148.71 465.2 148.67 463.87 155.39 466.52 159.07 477.83 166.42 483.6 166.62 489.06 170.48 491.9 170.98 492.56 172.78 501.11 170.28 507.72 170.93 508.19 177.2 521.08 170.26 526.16 164.76 533.92 158.99 537.34 153.76 539.56 151.39 545.04 148.2 Z" class="7" id="서울특별시 성북구"/>
<path d="M 531.36 136.19 533.79 138.45 540.96 142.77 545.04 148.2 539.56 151.39 537.34 153.76 533.92 158.99 526.16 164.76 521.08 170.26 508.19 177.2 507.72 170.93 501.11 170.28 492.56 172.78 491.9 170.98 489.06 170.48 483.6 166.62 477.83 166.42 466.52 159.07 463.87 155.39 465.2 148.67 460.05 148.71 448.76 144.52 441.36 136.81 430.04 129.66 423.26 126.23 420.01 125.19 423.17 117.05 420.12 115.07 418.19 111.18 421.4 106.64 419.51 99.88 414 93.96 411.34 87.62 417.45 86.84 423.48 82.08 425.88 78.92 426.88 73.21 427.77 71.69 431.07 71.48 436.32 69.51 438.95 66.66 439.37 61.35 438.67 51.63 436.65 44.17 435.27 42.63 438.85 41.3 444.37 36.87 458.91 32.24 466.68 33.43 466.21 35.75 467.06 40.78 468.01 42.72 471.93 43.49 476.78 49.86 481.09 53.51 484.35 59.56 485.89 60.12 485.25 63.12 480.21 66.72 479.38 73.14 481.87 75.91 478.55 77.01 476.84 81.9 473.9 95.02 475.22 98.23 478.94 100.5 483.18 101.71 490.51 101.06 497.24 104.21 498.48 106.02 511.09 114.07 512.78 115.52 516.09 122.44 521.84 125.35 523.75 130.26 529.8 135.76 531.36 136.19 Z" class="8" id="서울특별시 강북구"/>
<path d="M 548.96 30.83 550.03 33.66 549.61 36.3 546.47 43.18 543.12 52.41 542.02 58.73 543.57 65.75 547.76 72.47 548.65 72.48 548.94 78.91 552.03 84.8 553.18 89.03 552.66 95.21 553.07 98.08 555.91 102.49 556.74 105.63 555.36 111.63 555.32 115.69 554.56 117.95 550.98 114.76 548.12 109.02 546.45 109.01 541.29 115.52 536.04 124.87 533.94 130.65 529.62 134.48 531.36 136.19 529.8 135.76 523.75 130.26 521.84 125.35 516.09 122.44 512.78 115.52 511.09 114.07 498.48 106.02 497.24 104.21 490.51 101.06 483.18 101.71 478.94 100.5 475.22 98.23 473.9 95.02 476.84 81.9 478.55 77.01 481.87 75.91 479.38 73.14 480.21 66.72 485.25 63.12 485.89 60.12 484.35 59.56 481.09 53.51 476.78 49.86 471.93 43.49 468.01 42.72 467.06 40.78 466.21 35.75 466.68 33.43 466.25 31.56 465.54 21.62 468.68 16.36 470.41 9.57 473.28 8.78 476.63 6.06 479.56 1 487.97 1.83 492.4 4.31 498.44 4.58 502.97 1.99 506.02 5.13 506.86 10.88 509.34 16.98 511.99 19.34 518.11 18.1 524.18 15.93 528.57 12.74 532.32 12.87 536.18 18.3 542.92 15.1 545.06 24.36 545.19 26.71 547.29 30.17 548.96 30.83 Z" class="9" id="서울특별시 도봉구"/>
<path d="M 651.52 155.65 650.3 156.3 642.58 157.49 638.66 155.6 630.33 158.25 624.48 158.34 614.35 155.8 605.94 157.93 594.74 161.6 585.94 163.39 583.8 165.07 575.69 165.94 570.81 167.28 566.82 166.22 553.98 156.78 545.04 148.2 540.96 142.77 533.79 138.45 531.36 136.19 529.62 134.48 533.94 130.65 536.04 124.87 541.29 115.52 546.45 109.01 548.12 109.02 550.98 114.76 554.56 117.95 555.32 115.69 555.36 111.63 556.74 105.63 555.91 102.49 553.07 98.08 552.66 95.21 553.18 89.03 552.03 84.8 548.94 78.91 548.65 72.48 547.76 72.47 543.57 65.75 542.02 58.73 543.12 52.41 546.47 43.18 549.61 36.3 550.03 33.66 548.96 30.83 548.98 28.44 554.37 25.35 561.54 23.45 563.96 22.21 568.83 17.5 569.82 13.93 571.07 13.46 580.92 15.22 582.07 15.81 588.76 15.6 593.05 12.89 599.32 11.43 604.87 11.14 610.12 15.47 612.64 22.1 615.22 23.02 623 23.65 627.64 22.91 633.28 24.62 634.1 31.17 630.02 35.4 627.41 38.96 625.56 43.46 626.02 45.68 628.58 48.14 632.81 59.81 630.58 68.29 632.16 72.65 629.74 73.77 624.14 81.33 626.33 88.66 629.31 93.49 628.07 97.96 626.55 99.69 626.98 101.85 630.56 109.49 636.26 110.65 638.84 110.51 646.26 108.28 653.46 107.95 655.59 108.74 658.64 112.76 662.71 114.23 664.73 124.91 664.2 132.24 663.11 134.41 657.87 138.61 652.3 142.37 649.18 150.12 648.68 153.2 651.52 155.65 Z" class="10" id="서울특별시 노원구"/>
<path d="M 370.82 138.29 355.63 144.11 352.86 148.09 352.66 150.13 356.15 164.86 356.28 168.08 354.44 172.27 355.46 174.24 351.26 178.03 342.96 182.46 335.63 188.6 335.39 190.94 338.36 193.25 337.37 196.98 333.25 199.26 331 198.56 321.94 201.56 317.05 204.92 312.34 210.57 312.31 215.63 302.94 221.95 299.17 227.04 295.57 226.15 289.78 226.74 288.7 222.15 283.88 218.87 281.6 222.02 270.89 232.09 262.99 239.12 263.35 240.26 253.94 233.88 238.18 223.77 232.97 219.68 225.15 212.06 230.59 206.82 235.16 206.09 231.66 211.46 232.34 214.47 235.74 216.11 243.06 216.5 253.39 216.3 258.7 213.92 258.56 210.36 261.69 201.55 261.9 195.71 259.35 190.61 259.67 188.55 263.4 187.36 262.72 183.6 260.86 178.4 259.96 173.15 263.48 163.28 265.79 158.57 269.36 158.12 270.09 155.01 272.4 153.04 273.57 146.64 275.81 144.4 276.17 139.02 273.29 135.63 271.21 131.14 272.92 130.8 280.09 127.14 280.77 126.02 280.66 116.33 282.81 109.98 271.74 103.52 275.81 104.08 282.17 107.98 285.56 109.14 305.4 106.56 311.07 102.8 319.56 98.54 327.5 96.84 330.28 94.72 332.75 90.04 335.05 87.23 339.69 84.41 350.02 81.62 350.73 85.55 357.39 89.7 362.47 89.64 368.32 93.73 370.75 103.62 372.44 114.14 373.68 115.31 378.69 126.18 380.19 131.09 373.5 137.74 370.82 138.29 Z" class="11" id="서울특별시 은평구"/>
<path d="M 386.62 259.69 391.89 267.02 386.88 268.36 380.14 272.29 377.05 272.64 372.19 276.05 362.9 275.95 338.3 277.37 329.7 280.13 310.11 272.98 310.25 269.5 313.33 264.43 309.01 261.05 306.56 259.97 294.55 257.22 278.06 249.83 263.35 240.26 262.99 239.12 270.89 232.09 281.6 222.02 283.88 218.87 288.7 222.15 289.78 226.74 295.57 226.15 299.17 227.04 302.94 221.95 312.31 215.63 312.34 210.57 317.05 204.92 321.94 201.56 331 198.56 333.25 199.26 337.37 196.98 338.36 193.25 335.39 190.94 335.63 188.6 342.96 182.46 351.26 178.03 355.46 174.24 355.84 178.55 359.76 182.17 362.17 185.34 359.3 189.78 361.21 195.39 366.86 196.56 370.54 198.72 372 203.92 369.64 208.66 368.86 215.35 369.02 221.11 369.74 223.07 368.51 232.9 361.67 234.91 364.15 238.08 372.7 245.9 386.62 259.69 Z" class="12" id="서울특별시 서대문구"/>
<path d="M 263.35 240.26 278.06 249.83 294.55 257.22 306.56 259.97 309.01 261.05 313.33 264.43 310.25 269.5 310.11 272.98 329.7 280.13 338.3 277.37 362.9 275.95 372.19 276.05 377.05 272.64 379.7 274.38 380.41 276.8 378.06 283.65 378.43 286.82 379.4 292.17 376.57 294.54 369.87 298.45 368.88 302.47 370.69 303.67 365.7 309.94 363.61 310.71 361.17 313.71 357.21 316.02 349.52 317.83 347.92 317.06 345.41 318.54 344.44 320.78 337.64 316.04 326.8 310.16 317.26 306.33 312.16 310.69 306.66 309.39 302.94 307.75 302.14 306.21 268.6 306.23 263.56 301.06 262.85 299.33 257.36 293.66 251.24 291.69 236.72 285.49 234.25 283.97 222.11 277.9 201.93 267.8 195.07 264.97 190.37 262.22 177.74 254.17 170.92 248.3 170.92 244.47 178 243.07 189.59 238.62 194.17 237.44 209.62 235.92 214.09 236.1 216.71 233.12 215.63 228.08 215.67 223.44 216.54 220.73 221.89 214.51 225.15 212.06 232.97 219.68 238.18 223.77 253.94 233.88 263.35 240.26 Z" class="13" id="서울특별시 마포구"/>
<path d="M 210.84 413.13 220.07 411.44 223.81 412.76 232.97 418.89 235.97 422.52 240.08 424.53 251.5 426.53 257.45 424.99 278.04 421.91 275.88 425.12 277.3 426.9 281.51 426.96 281.91 429.37 281.05 433.84 279.88 435.54 275.02 437.32 281.61 448.48 285.26 451.11 284.12 454.6 286 457.7 286.14 465.51 287.52 466.48 292.08 466.46 301.71 467.95 303.42 471.95 306.65 475.16 308.32 474.99 313.49 478.65 313.56 480.18 313.33 481.82 305.16 487.81 303.06 489.79 302.8 491.95 298.87 496.76 294.03 499.49 284.54 501.38 280.75 505.02 280.63 507.33 277.3 511.37 273.22 512.02 266 510.79 262.93 506.53 257.75 502.2 258.59 498.96 256.5 494.51 251.33 488.91 251.06 483.84 247.9 475.4 243.78 476.23 239.88 476.25 239.67 473.87 238.17 471.57 233.28 468.59 231.44 462.4 233.16 459.74 238.16 459.71 234.81 455.97 231 456.79 226.68 453.38 229.95 450.74 224.15 443.79 217.43 435.14 213.57 428.89 208.6 418.73 205.58 413.84 207.67 411.44 210.84 413.13 Z" class="14" id="서울특별시 금천구"/>
<path d="M 211.16 364.78 209.39 368.4 211.13 372.58 208.98 378.43 205.72 377.35 203.38 374.24 200.53 375.94 191.94 375.94 189.8 375.59 187.23 371.35 181.4 368.86 179.69 366.45 171.72 365.85 169.54 364.92 158.79 367.06 154.14 371.11 153.35 374.43 144.12 376.72 138.08 379.46 135.96 379.85 129.77 376.41 127.01 373.18 127.78 370.29 122.32 368.49 115.72 369.35 114.21 367.87 113.4 356.81 115.52 350.8 117.48 346.93 117.25 340.67 118.45 338.88 122.31 335.95 122.84 334.29 122.43 329.86 120.25 328.56 117.37 328.3 115.8 326.86 110.45 318.37 110.81 307.64 117.12 305.68 118.34 303.29 117.93 300.03 121.31 294.26 125.02 294.22 126.08 297.11 125.3 301.83 126.88 305.58 131.76 305.41 132.95 309.2 135.69 314.82 134.27 315.7 145.9 334.71 161.84 332.02 190.65 328.41 189.71 317.33 190.3 307.88 189.79 305.65 187.12 300.38 191.09 287.67 192.66 287.98 203.52 294.25 206.38 295.27 210.53 295.7 217.33 295.39 222.49 293.3 224.66 295.51 230.2 302.59 233.08 309.07 237.53 315.99 240.55 319.94 241.28 324.75 239.8 327.32 234.87 327.66 223.15 332.33 218.85 336.86 218.58 338.14 220.15 345.94 217.82 348.72 219.58 351.16 216.57 357.62 213.99 361.36 211.88 361.54 209.77 363.68 211.16 364.78 Z" class="15" id="서울특별시 양천구"/>
<path d="M 170.92 248.3 177.74 254.17 190.37 262.22 195.07 264.97 201.93 267.8 222.11 277.9 217.47 284.08 217.56 286.62 222.49 293.3 217.33 295.39 210.53 295.7 206.38 295.27 203.52 294.25 192.66 287.98 191.09 287.67 187.12 300.38 189.79 305.65 190.3 307.88 189.71 317.33 190.65 328.41 161.84 332.02 145.9 334.71 134.27 315.7 135.69 314.82 132.95 309.2 131.76 305.41 126.88 305.58 125.3 301.83 126.08 297.11 125.02 294.22 121.31 294.26 117.93 300.03 118.34 303.29 117.12 305.68 110.81 307.64 99.73 307.88 92.14 307.53 83.72 302.7 81.59 302.07 72.14 303.75 67.22 307.73 66.32 309.68 67.62 313.19 62.9 314.54 57.98 316.89 57.09 313.97 56.79 308.94 57.81 306.17 50.61 301.45 43.71 297.52 36.48 297.4 26.46 296.21 24.24 293.29 21.48 291.82 16.3 292.24 14.23 293 6.54 286.14 6.36 283.89 1 279.48 6.21 277.23 12.71 276.11 17.47 272.15 21.94 267.3 26.32 269.31 24.82 263.73 21.56 259.71 20.46 256.09 24.72 258.64 31.34 255.62 35.05 244.84 40.47 242.44 44.88 241.1 47.03 238.29 51.46 231.15 53.73 232.31 56.58 229.6 56.1 224.02 70.4 217.07 70.83 214.72 69.16 209.68 64.95 205.48 63.75 203.56 63.04 198.81 64.65 194.47 68.5 189.65 73.53 184.9 90.3 196.48 95.23 199.04 102.04 203.4 106.87 208.99 121.37 218.14 129.52 221.72 149.52 234.05 170.92 248.3 Z" class="16" id="서울특별시 강서구"/>
<path d="M 211.16 364.78 209.77 363.68 211.88 361.54 213.99 361.36 216.57 357.62 219.58 351.16 226.43 355.13 226.43 356.29 230.03 359 233.13 359.61 239.74 362.49 244.26 367.22 247.89 375.66 245.66 378.62 250.91 401.65 252.53 406.19 255.84 410.14 259.68 412.1 265.48 413.83 259.5 421.13 257.45 424.99 251.5 426.53 240.08 424.53 235.97 422.52 232.97 418.89 223.81 412.76 220.07 411.44 210.84 413.13 214.91 408.39 213.25 406.15 208.02 407.63 202.58 405.06 200.94 400.44 201.2 396.04 197.59 395.35 194.89 399.45 191.69 402 188.43 402.71 185.71 404.35 179.2 411.76 176.47 412.48 169.15 419.9 164.79 420.38 158.25 419.75 156.24 422.77 155.14 435.17 152.92 434.78 150.22 432.96 141.6 432.18 134.69 434.01 131.66 428.62 129.18 427.85 125.12 429.29 118.72 430.61 112.82 430.76 105.96 430.32 103.74 433.04 104.16 434.66 102.26 436.36 96.52 433.57 97.16 431.26 101.44 426.92 103.44 426.87 105.56 423.63 109.23 411.58 113.61 408.6 108.26 403.28 102.74 401.37 96.41 398.2 93.43 392.09 95.86 388.53 98.7 389.71 106.08 386.73 109.75 381.11 111.63 374.38 111.24 373.16 115.72 369.35 122.32 368.49 127.78 370.29 127.01 373.18 129.77 376.41 135.96 379.85 138.08 379.46 144.12 376.72 153.35 374.43 154.14 371.11 158.79 367.06 169.54 364.92 171.72 365.85 179.69 366.45 181.4 368.86 187.23 371.35 189.8 375.59 191.94 375.94 200.53 375.94 203.38 374.24 205.72 377.35 208.98 378.43 211.13 372.58 209.39 368.4 211.16 364.78 Z" class="17" id="서울특별시 구로구"/>
<path d="M 344.44 320.78 354.53 333.67 354.55 351.81 353.93 351.63 334.43 354.54 321.16 355.52 310.63 355.58 310.26 360.85 306.08 365.64 299.22 382.59 297.94 388.39 296.4 389.8 287.72 391.69 283.98 392.05 281.52 393.59 279.36 397 265.48 413.83 259.68 412.1 255.84 410.14 252.53 406.19 250.91 401.65 245.66 378.62 247.89 375.66 244.26 367.22 239.74 362.49 233.13 359.61 230.03 359 226.43 356.29 226.43 355.13 219.58 351.16 217.82 348.72 220.15 345.94 218.58 338.14 218.85 336.86 223.15 332.33 234.87 327.66 239.8 327.32 241.28 324.75 240.55 319.94 237.53 315.99 233.08 309.07 230.2 302.59 224.66 295.51 222.49 293.3 217.56 286.62 217.47 284.08 222.11 277.9 234.25 283.97 236.72 285.49 251.24 291.69 257.36 293.66 262.85 299.33 263.56 301.06 268.6 306.23 302.14 306.21 302.94 307.75 306.66 309.39 312.16 310.69 317.26 306.33 326.8 310.16 337.64 316.04 344.44 320.78 Z" class="18" id="서울특별시 영등포구"/>
<path d="M 415.23 429.98 408.84 429.77 401.09 430.61 393.92 432.18 393.47 430.04 390.81 429.91 385.91 425.35 382.99 424.3 381.36 421.47 375.88 416.58 377.53 413.23 377.37 409.76 376.15 401.85 376.47 398.81 374.39 397.15 368.35 400.95 362.73 402.49 353.94 399 348.97 396.43 342.77 399.72 335.27 398.91 330.46 400.65 321.22 398.81 312.63 394.61 310.45 396.2 305.49 403.64 299.47 403.08 293.45 404.44 289.82 405.78 282.13 410.94 271.01 413.91 265.48 413.83 279.36 397 281.52 393.59 283.98 392.05 287.72 391.69 296.4 389.8 297.94 388.39 299.22 382.59 306.08 365.64 310.26 360.85 310.63 355.58 321.16 355.52 334.43 354.54 353.93 351.63 354.55 351.81 368.07 356.38 377.48 360.2 383.4 364.62 387.04 366.39 393.09 368.03 400.65 370.96 409.47 372.72 412.77 372.76 412.21 376.78 416.77 381.83 422.27 385.49 417.58 390.96 417.06 402.59 416.05 413.06 415.23 429.98 Z" class="19" id="서울특별시 동작구"/>
<path d="M 415.23 429.98 416.14 435.35 418.13 439.43 420.95 442.72 425.93 446.99 427.91 453.88 426.39 461.23 428.47 465.01 425.85 466.09 415.88 467.88 401.66 472.17 396.26 477.27 394 481.63 388.46 483.67 382.03 487.7 381.35 489.71 382.2 494.74 381.1 498.15 379.46 499.12 371.93 501.32 366.91 502.03 353.4 502.99 351.25 502.27 345.4 505.21 336.11 507.83 332.97 506.49 331.39 504.64 330.44 501.16 331.61 499.28 329.29 496.33 325.1 493.44 317.67 489.23 317.29 485.67 313.56 480.18 313.49 478.65 308.32 474.99 306.65 475.16 303.42 471.95 301.71 467.95 292.08 466.46 287.52 466.48 286.14 465.51 286 457.7 284.12 454.6 285.26 451.11 281.61 448.48 275.02 437.32 279.88 435.54 281.05 433.84 281.91 429.37 281.51 426.96 277.3 426.9 275.88 425.12 278.04 421.91 257.45 424.99 259.5 421.13 265.48 413.83 271.01 413.91 282.13 410.94 289.82 405.78 293.45 404.44 299.47 403.08 305.49 403.64 310.45 396.2 312.63 394.61 321.22 398.81 330.46 400.65 335.27 398.91 342.77 399.72 348.97 396.43 353.94 399 362.73 402.49 368.35 400.95 374.39 397.15 376.47 398.81 376.15 401.85 377.37 409.76 377.53 413.23 375.88 416.58 381.36 421.47 382.99 424.3 385.91 425.35 390.81 429.91 393.47 430.04 393.92 432.18 401.09 430.61 408.84 429.77 415.23 429.98 Z" class="20" id="서울특별시 관악구"/>
<path d="M 726.94 353.11 722.01 351.63 714.23 348.38 705.53 344.34 677.72 332.06 681.8 322.17 685.64 311.51 672.44 305.2 665.8 303.24 658.54 302.9 662.8 295.72 662.95 288.88 667.66 282.25 669.97 276.97 670.77 275.17 674.05 271.78 684.71 264.13 695.5 259.04 706.29 255.62 712.77 254.72 734.3 254.7 745.81 247.82 749.47 246.08 760.26 238.88 768.25 234.6 774.94 234.52 784.2 232.13 788.11 230.35 787.22 234.42 784.79 235.89 785.3 242.37 789.37 247.79 792.04 253.78 792.51 258.23 797.34 268.9 796.11 283.65 799 292.35 798.87 296.75 792.26 296.41 785.42 298.84 781.91 298.25 765.24 300.1 761.41 299.41 748.81 313.78 747.81 314 743.11 321.01 743.45 324.95 742.34 329.7 735.31 337.5 732.1 342.98 728.26 343.37 726.39 348.24 726.94 353.11 Z" class="21" id="서울특별시 강동구"/>
<path d="M 631.81 468.39 628.6 469.35 623.67 475.28 619.59 481.06 618.65 483.2 618.33 489.39 617.6 490.36 610.02 493.14 606.77 497.08 603.09 497.65 595.15 495.58 587.77 495.34 586.79 496.75 587.91 500.83 590.86 503.87 585.42 512.83 582.95 517.56 575.48 520.33 566.8 518.76 564.19 519.52 552.13 521 544.73 518.21 540.52 517.39 540.24 514.84 538.75 513.02 528.54 503.91 526.56 503.02 520.69 502.9 518.01 501.56 517.25 497.86 520.08 495.69 523.08 489.78 522.15 481.69 518.4 476.4 519.34 472.45 520.98 470.65 520.24 468.29 516.77 461.18 514.53 459.25 516.16 453.55 509.66 450.78 507.24 451.3 504.96 457.64 500.41 465.13 498.67 466.16 491.17 468.71 479.86 471.21 477.83 471.31 470.34 468.82 466.77 465.77 458.68 453.74 459.51 450.37 457.16 446.79 455.37 447.92 445.24 447.7 443.06 448.83 445.13 454.48 443.99 457.94 439.26 458.8 433.61 461.25 428.47 465.01 426.39 461.23 427.91 453.88 425.93 446.99 420.95 442.72 418.13 439.43 416.14 435.35 415.23 429.98 416.05 413.06 417.06 402.59 417.58 390.96 422.27 385.49 416.77 381.83 412.21 376.78 412.77 372.76 422.58 372.74 432.41 360.26 445.24 352.12 456.24 344.86 464.76 338.2 466.51 336.41 475.31 342.15 479.2 337.84 484.15 343.62 487.4 354.49 490.83 364.05 515.18 415.03 529.52 413.37 536.18 428.1 547.25 438.99 543.36 442.64 547.54 443.65 547.35 447.04 554.98 445.12 562.91 444.04 570.8 444.19 575.12 443.35 581 440.41 583.03 440.33 588.82 438.63 596.87 432.49 598.88 433.18 610.88 431.52 610.66 436.72 612.34 439.96 615.36 440.82 622.66 447.88 625.74 452.13 625.49 457.11 627.73 459.07 631.15 459.64 632.06 465.64 631.81 468.39 Z" class="22" id="서울특별시 서초구"/>
<path d="M 557.4 331.19 575 337.44 578.88 338.34 579.04 343.96 583.09 378.6 583.34 380 597.02 381.27 609.22 385.34 633.04 392.28 647.36 399 655.97 406.11 663.15 416.13 665.68 420.12 678.51 437.17 687.1 449.07 682.62 451.72 674.26 457.31 673.33 458.68 673.15 464.1 670.44 463.98 667.54 462.43 663.47 458.38 653.26 456.89 649.2 457.36 649.45 459.55 648.19 461.65 639.6 467.85 637.56 468.43 631.81 468.39 632.06 465.64 631.15 459.64 627.73 459.07 625.49 457.11 625.74 452.13 622.66 447.88 615.36 440.82 612.34 439.96 610.66 436.72 610.88 431.52 598.88 433.18 596.87 432.49 588.82 438.63 583.03 440.33 581 440.41 575.12 443.35 570.8 444.19 562.91 444.04 554.98 445.12 547.35 447.04 547.54 443.65 543.36 442.64 547.25 438.99 536.18 428.1 529.52 413.37 515.18 415.03 490.83 364.05 487.4 354.49 484.15 343.62 479.2 337.84 475.31 342.15 466.51 336.41 478.57 323.79 483.42 320.37 490.55 316.91 527.2 316.9 537.99 319.92 549.49 326.8 555.29 330.56 557.4 331.19 Z" class="23" id="서울특별시 강남구"/>
<path d="M 726.94 353.11 726.04 355.45 721.12 355.4 719.47 356.42 719.67 362.04 717.68 366.43 717.25 368.96 720.11 372.44 719.35 374.84 727.79 378.83 737.28 376.88 740.33 379.56 748.59 381.68 751.05 379.16 758.03 384.84 755.13 393.41 755.43 395.95 750.9 403.95 750.42 406.03 737.12 413.36 733.79 415.66 731.46 420.33 730.86 428.67 725.56 428.46 723.95 434.94 708.24 434.32 703.6 433.61 703.1 437.11 703.49 445.5 699.82 446.72 691.82 445.07 689 443.16 688.99 446.57 687.1 449.07 678.51 437.17 665.68 420.12 663.15 416.13 655.97 406.11 647.36 399 633.04 392.28 609.22 385.34 597.02 381.27 583.34 380 583.09 378.6 579.04 343.96 578.88 338.34 591.93 341.61 596.96 342.28 602.72 341.45 613.51 337.99 621.49 334.02 624.34 331.89 656.72 306.25 658.54 302.9 665.8 303.24 672.44 305.2 685.64 311.51 681.8 322.17 677.72 332.06 705.53 344.34 714.23 348.38 722.01 351.63 726.94 353.11 Z" class="24" id="서울특별시 송파구"/>
</g>
</svg>