<?xml version="1.0"?>
<svg xmlns="http://www.w3.org/2000/svg" version="1.2" baseProfile="tiny" width="800" height="924" viewBox="0 0 800 924" stroke-linecap="round" stroke-linejoin="round">
<g id="세종_2020">
<path d="M 125.87 9.44 130.17 15.43 140.49 15.7 161.17 12.61 168.85 17.41 173.44 18.17 178.55 15.83 192.46 16.37 206.61 21.47 213.46 22.59 215.1 24.99 215.44 31.42 218.21 37.46 222.39 37.98 232.79 44.21 246.88 46.59 249.98 50.93 258.91 52.68 271.28 51.99 271.3 63.44 275.47 67.07 285.36 73.21 290.21 74.26 295.56 70.8 301.24 71.5 307.3 75.3 309.11 83.88 321.99 92.62 328.35 102.1 333.54 107.89 340.06 110.21 349.06 104.73 357.18 110.53 365.98 115.14 373.09 117.17 388.57 118.29 401.29 114 404.37 111.58 411.82 109.66 418.29 114.58 420.76 119.16 434.04 123.35 446.19 122.62 455.19 125.91 457.01 128.57 464.43 132.71 495.22 137.29 498.9 139.13 508.1 146.99 507.83 157.44 500.95 187.74 493.14 192.88 485.88 202.9 475.12 210.29 466.69 209.54 456.04 210.99 454.71 212.18 447.55 232.55 442.62 237.29 434.78 250.96 438.04 258.99 428.85 263.49 421.78 260.2 417.95 266.01 427.46 282.81 454.69 274.52 459.99 274.22 464.14 277.21 463.56 283.29 460.87 287.99 460.49 293.27 464.08 307.64 469.5 309.48 476.17 309.89 474.8 319.1 476.48 324.73 483.45 325.62 486.77 329.75 491.69 342.1 492.24 345.97 489.12 356.45 500.55 365.92 504.67 372.48 503.87 381.85 500.55 387.69 499.58 395.25 500.25 402.5 496.55 406.89 486.22 412.91 486.09 417.82 498.01 425.2 502.86 426.16 523.83 426.51 540.1 424.13 547.05 423.95 548.8 430.39 561.56 444.41 576.32 450.05 587.43 459.8 589.65 462.84 585.71 468.17 590.96 482.99 594.41 484.37 606.78 479.3 619.47 478.44 624.74 480.24 630.39 484.76 636.36 484.71 645.22 486.24 657.13 484.57 662.86 478.44 670.08 479.01 686.47 472.63 704.05 468.79 703.78 479.83 706.43 482.83 702.26 488.33 691.14 491.77 694.53 497.65 699.63 497.03 705.85 503.43 709.98 511.89 707.99 519.73 716.92 522.35 721.13 525.2 723.07 531.94 722.21 541.17 724.51 543.94 746.93 547.33 762.4 546.77 769.09 542.34 773.68 543.88 782.67 554.95 784.39 571.63 788.39 576.15 792.21 583.44 792.79 593.35 790.12 595.08 785.96 593.05 772.75 593.46 762.59 599.96 761.87 602.13 780.21 612.56 782.49 626.46 794.04 632.66 794.1 639.21 789.93 650.95 790.77 659.72 799 666.48 798.32 670.63 795.08 673.65 768.02 678.89 757.6 683.48 731.69 663.98 723.02 659.49 713.1 661.44 705.36 672.49 695.84 681.18 686.27 687.89 680.89 689.56 678.71 693.32 661.31 687.48 656.41 689.07 649.97 704.94 650.44 709.39 656.49 711.98 658.08 714.84 657.43 720.48 662.71 727.8 666.71 729.99 666.35 732.95 661.66 741.34 655.18 745.19 654.49 754.41 651.7 758.64 645.93 763.47 648.28 777.7 651.88 784.48 643.92 800.33 637.2 807.1 626.85 806.77 613.18 816.84 608.37 828.6 600.33 841.33 602.21 854.75 592.53 862.13 578.87 867.33 577.53 870.03 568.78 876.31 560.75 879.77 548.6 876.04 540.57 881.51 533.85 884.17 526.41 877.43 517.47 872.45 496.47 872.49 492 876.96 484.74 877.55 476.5 876.63 470.39 879.4 473.38 886.32 461.47 896.52 449.43 898.89 436.13 899.77 429.82 898.65 422.48 902.56 418.06 902.73 396.95 894.91 389.31 893.63 380.63 895.18 373.28 898.3 369.81 903.46 372.59 912.86 371.33 916.38 365.96 919.49 347.87 923 344.27 916.71 329.69 900.77 326.02 893 317.26 890.2 306.89 889.46 294.67 885.93 294.06 880.19 285.8 877.79 280.59 882.23 276.96 879.2 275.47 866.92 270.09 864.58 253.17 846.86 241.8 843.88 240.4 841.66 224.74 840.15 206.04 832.49 201.65 829.61 207.79 825.76 209.28 810.72 208.44 803.59 200.15 794.88 206.87 790.99 213.71 783.93 218 774.91 216.29 765.81 213.9 758.87 207.72 753.73 200.83 757.07 191.53 748.73 182.15 731.56 177.82 718.01 188.2 704.3 190.18 703.15 189.65 689.48 171.71 680.94 157.74 678.79 152.03 680.02 148.38 682.48 139.46 681.2 129.21 667.35 129.85 662.38 136.13 658.57 141.42 653.34 136.9 644.88 120.05 634.66 120.82 627.02 131.33 616.43 147.26 606.91 154.89 599.7 141.31 581.51 136.92 579.02 128.59 565.82 127.6 558.24 132.32 552.29 130.78 545.25 132.03 541.2 144.63 532.12 151.58 531.59 155.56 534.42 168.03 531.03 181.61 530.39 180.58 526.89 173.14 521.36 165.51 512.64 174.96 499.57 177.95 492.32 187.14 477.42 197.57 478.17 202.93 476.84 213.4 470.01 215.18 455.31 224 447.89 226.51 440.36 220.63 432.44 205.78 427.37 196.24 431.52 184.8 432.3 174.36 415.33 180.27 395.32 176.5 393.38 168.15 396.58 168.95 399.86 160.99 403.12 154.15 397.13 153.02 390.88 143.73 386.99 138.18 389.22 127.75 391.05 123.17 383.9 109.01 371.03 97.7 365.22 86.23 360.73 79.13 359.33 77.74 344.17 80.56 335.52 77.65 331.58 65.43 326.54 64.9 322.55 71.68 316.51 75.87 310.87 89.62 310.75 93.28 309.29 90.43 304.83 83.57 301.45 81.08 293.66 81.42 288.86 83.72 286.21 86.07 279.01 82.11 266.07 73.17 254.97 72.61 250.78 76.93 229.22 79.65 228.28 93.49 220.02 93.24 216.6 89.18 205.27 77.39 197.03 80.93 183.6 88.08 175.89 87.81 172.35 99.13 163.99 101.6 163.32 103.51 156.93 101.94 149.51 98.28 138.95 94.14 130.58 95.96 123.89 92.87 116.82 87.16 110.17 83.77 110.97 82.38 121.29 81.23 122.35 69.92 124.03 61.33 123.75 46.29 127.33 40.42 124.55 43.69 119.48 37.43 103.86 33.51 101.28 24.62 82.1 19.64 77.16 13.02 78.95 7.29 77.26 1.63 73.84 1 71.41 6.05 67.49 28.81 56.13 55.92 41.91 60.38 38.35 58.57 32.28 62.15 25.97 69.36 16.13 76.55 17.16 80.16 19.26 84.91 18.91 90.88 3.72 104.97 1 116.09 2.9 123.51 5.46 125.87 9.44 Z"/>
</g>
</svg>