<?xml version="1.0"?>
<svg xmlns="http://www.w3.org/2000/svg" version="1.2" baseProfile="tiny" width="800" height="644" viewBox="0 0 800 644" stroke-linecap="round" stroke-linejoin="round">
<g id="울산_2020">
<path d="M 610.55 285.18 609.01 284.73 607.69 284.45 607.27 284.47 603.56 285 602.05 285.26 601.48 285.48 600.65 285.51 598.33 285.48 596.53 285.08 595.23 284.96 583.52 283.28 582.44 283.64 577.04 284.41 574.73 284.62 573.86 284.65 569.72 284.27 559.87 283.29 556.9 282.9 556.18 282.74 549.12 280.76 546.62 280.11 544.31 279.29 543.58 279.28 542.23 279.4 541.1 279.68 540.04 280.25 537.93 281.76 537.66 282.55 537.66 284.67 537.76 286.23 537.97 287.59 538.03 288.91 537.3 289.7 535.52 290.8 534.64 291.1 532.04 291.61 527.72 292.19 526.03 292.21 525.16 292.07 524.1 291.73 520.15 290.37 519.03 289.81 516.89 288 516.05 287.13 515.64 286.26 515 285.37 513.66 284.35 512.31 283.69 500.99 278.85 499.71 278.48 497.84 278.17 492.66 277.36 492.07 277.3 491.22 277.39 489.91 277.94 488.64 278.38 487.76 278.44 485.58 278.43 484.82 278.19 482.26 277.07 481.15 276.47 480.7 276.14 479.27 274.94 478.45 274.17 477.16 272.79 476.68 271.98 472.72 267.45 471.65 266.49 470.66 265.87 469.96 265.63 468.92 265.49 467 265.4 466.24 265.32 462.99 256.51 462.98 256.02 464.48 245.24 465.67 244.55 467.63 244.7 467.6 243.99 466.83 239.25 466.07 238.11 464.78 237.54 462.92 237.75 460.65 235.19 459.69 232.27 459.93 231.18 460.22 230.43 460.75 229.68 458.54 222.2 457.05 221.77 456.08 220.4 456.1 219.13 456.29 218.84 457.52 219.08 460.01 220.06 461.39 219.47 462.75 219.87 463.28 220.15 465.82 222.36 467.16 223.28 476 226.24 478.65 225.68 478.74 225.45 479.97 224.25 480.97 223.87 485 223.47 485.76 223.6 502.11 227.69 504.93 228.66 505.05 229.12 504.2 234.83 507.76 238.23 509.51 238.77 511.29 238.88 514.76 238.84 519.09 238.65 523.9 241.69 523.25 240.98 520.03 232.04 520.9 229.5 521.49 229.01 522.15 228.26 522.61 227.31 522.81 226.65 522.21 225.22 521.97 224.81 520.8 223.24 519.61 222.42 519.03 221.65 518.53 220.25 518.31 217.5 517.28 214 518.94 214.9 523.26 215.59 524.85 215.15 525.31 214.77 525.52 214.23 526.66 213.24 528.84 212.41 529.39 212.31 531.94 212.29 534.14 212.36 537.75 212.53 538.56 212.6 538.85 212.75 540.93 214.87 540.78 216.69 542.08 218.66 542.28 218.86 544.56 220.75 548.22 220.83 548.88 220.67 549.66 220.34 550.5 219.82 551.22 219.09 551.91 218.09 552.81 217.29 556.61 214.71 560.8 212.33 561.6 212.42 562.18 212.68 563.3 212.94 564.4 212.98 566.53 212.18 566.85 212.01 567.52 211.38 568.58 210.26 568.93 209.17 568.87 207.39 568.94 206.92 569.68 205.98 570.83 205.47 571.51 205.28 582.93 204.52 583.58 204.6 584.06 205.1 584.38 206.5 584.28 206.77 583.04 208.57 582.69 209.43 582.87 209.98 583.19 210.29 584.78 211.47 586.35 212.45 587.84 213.04 588.28 213.12 589.24 213.05 590.38 212.75 591.01 212.44 592.38 211.51 594.66 210.46 596.32 209.88 599.31 209.35 600.99 209.19 604.73 209.34 606.67 209.48 611.06 210.72 611.46 216.16 611.47 218.24 611.31 221.26 610.67 221.26 610.65 226.44 611.22 231.06 611.54 232.7 611.82 233.76 612.37 235.3 615.22 239.67 617.31 247.02 616.97 250.29 616.76 254.04 616.82 254.73 617.38 256.61 618.5 258.65 619.54 263.51 619.41 264.68 618.79 267.37 617.19 268.35 616.06 268.81 615.32 269.02 613.89 269.56 612.92 270.3 612.47 271.11 612.85 271.89 614.26 275.77 614.54 277.55 615.16 283.19 613.56 284.74 610.69 284.26 610.55 285.18 Z" class="0" id="울산광역시 중구"/>
<path d="M 610.55 285.18 614.99 287.3 622.74 289.75 626.62 290.95 628.2 291.46 634.95 293.69 636.98 295.33 640.2 296.26 641.03 297.63 642.05 298.99 643.18 300.11 644.49 301.09 644.98 301.35 646.82 302.08 647.46 302.22 649 302.41 650.04 302.33 653.29 300.91 656.4 303.09 656.68 303.39 658.27 318.86 656.87 318.83 655.01 318.17 653.95 318.53 649.88 326.65 655.61 328.57 654.35 333.2 654.04 336.43 671.49 338.28 671.54 338.35 671.81 345.39 671.97 349.02 673.44 353.84 674.5 358.06 674.08 361.81 673.03 363.01 672.45 363.4 671 363.53 670.35 363.47 669.21 363.11 662.7 360.66 655.03 362.22 650.08 363.36 648.14 363.45 645.92 363.16 641.21 360.06 640.32 358.83 638.08 356.83 635.97 356.19 634.94 358.09 637.8 363.14 641.93 368.16 642.04 368.21 648 368.53 652.57 366.53 654.81 364.87 655.6 364.73 660.72 364.98 661 365.05 667.87 373.88 673.14 381.52 675.3 383.58 677.36 385.44 679.67 387.57 679.52 389.15 679.5 389.99 679.42 397.76 679.85 398.34 680.06 398.38 680.05 399.97 679.74 400 678.93 399.23 678.94 391.64 678.97 387.32 676.55 385.05 675.73 385.54 671.32 389.36 671.63 394.13 671.41 394.93 670.89 395.33 669.14 396.33 668.62 396.88 668.58 400.14 668.76 401.19 668.83 403.7 663.61 410.59 663.07 410.96 662.34 410.93 661.37 410.43 659.74 409.48 659.33 409.42 654.59 412.32 653.14 413.34 652.79 414.06 652.7 416.06 655.23 418.62 657.98 420.06 655.84 422.98 653.73 425.71 652.72 426.21 651.74 425.85 647.55 433.86 643.81 438.88 621.77 431.18 620.88 430.86 620.6 430.59 618.44 428.2 617.54 425.98 617.59 425.76 618.58 425.09 618.17 422.43 617.72 421.59 614.35 416.08 612.16 414.54 610.6 414.35 609.14 413.74 606.33 411.92 599.84 406.77 597.18 403.04 597.24 402.74 597.31 400.07 597.23 399.37 596.2 397.1 595.97 396.67 593.78 393.87 593.38 393.56 591.73 392.47 585.22 388.29 583.11 388.22 582.15 388.22 580.34 387.67 579.59 386.79 580.03 386.34 576.28 382.3 575 382.32 571.6 384.55 570.17 385.57 567.77 385.59 565.21 385.16 564.82 383.89 563.66 380.7 563.05 379.23 555.42 379.19 549.68 376.82 547.27 373.73 546.75 372.82 545.69 370.73 545.41 369.82 544.83 369.44 542.72 368.72 541.84 370.02 541.29 371.18 541.17 371.7 539.94 372.28 537.46 373.37 536.71 373.39 534.19 372.78 528.29 366.8 528.1 365.87 527.88 363.88 527.1 362.62 524.5 360.76 523.57 360.88 522.63 360.31 520.62 356.13 517.79 350.71 516.21 351.12 514.96 350.13 514.25 346.75 513.97 344.87 513.69 340.88 513.74 340.63 511.29 338.98 510.57 338.73 506.37 337.69 503.93 337.55 502.56 336.93 501.02 334.32 501.28 333.85 502.34 333.62 503.15 333.06 501.45 331.39 499.21 329.95 496.76 329.29 495.35 329.49 491.84 326.56 489.93 323.9 489.48 322.33 490.08 321.26 492.05 318.92 491.15 317.6 488.03 316.56 479.71 315.21 475.12 314.96 474.42 315.03 472.22 315.6 466.3 315.75 464.13 313.76 464.57 312.67 463.54 309.27 460.88 308.54 459.35 308.28 459.49 308.85 460.1 310.14 458.93 311.38 458.1 311.91 450.7 311.24 449.12 311.07 448.3 310.91 447.36 309.9 446.55 308.74 444.75 306.46 441.68 307.42 441.12 307.64 433.98 306.72 430.11 306.33 431.98 303 433.78 300.36 436.25 300.52 438.93 300.06 442.1 296.53 447.34 293.84 450.84 291.32 455.33 286.68 455.54 286.41 457.08 283.53 457.22 283.17 457.17 282.28 457.04 281.4 458.2 279.66 459 278.71 461.44 276.94 462.7 277.54 464.79 278.75 466.13 279.58 468.5 281.15 470.78 281.24 469.19 280.21 470.77 276.75 473.11 273.55 477.16 272.79 478.45 274.17 479.27 274.94 480.7 276.14 481.15 276.47 482.26 277.07 484.82 278.19 485.58 278.43 487.76 278.44 488.64 278.38 489.91 277.94 491.22 277.39 492.07 277.3 492.66 277.36 497.84 278.17 499.71 278.48 500.99 278.85 512.31 283.69 513.66 284.35 515 285.37 515.64 286.26 516.05 287.13 516.89 288 519.03 289.81 520.15 290.37 524.1 291.73 525.16 292.07 526.03 292.21 527.72 292.19 532.04 291.61 534.64 291.1 535.52 290.8 537.3 289.7 538.03 288.91 537.97 287.59 537.76 286.23 537.66 284.67 537.66 282.55 537.93 281.76 540.04 280.25 541.1 279.68 542.23 279.4 543.58 279.28 544.31 279.29 546.62 280.11 549.12 280.76 556.18 282.74 556.9 282.9 559.87 283.29 569.72 284.27 573.86 284.65 574.73 284.62 577.04 284.41 582.44 283.64 583.52 283.28 595.23 284.96 596.53 285.08 598.33 285.48 600.65 285.51 601.48 285.48 602.05 285.26 603.56 285 607.27 284.47 607.69 284.45 609.01 284.73 610.55 285.18 Z" class="1" id="울산광역시 남구"/>
<path d="M 694.44 419.07 694.17 418.84 701.47 416.43 704.94 415.29 705.06 415.52 694.44 419.07 Z M 674.44 320.53 675.57 321.2 676.58 321.88 677.83 322.92 678.63 323.72 681.31 327.69 681.95 328.32 682.88 328.94 683.98 329.37 685.31 329.6 687.37 329.51 688.26 329.54 688.98 329.67 699.87 332.24 700.55 332.7 702.8 334.61 703.34 335.13 703.12 336.16 703.3 336.51 705.08 337.88 705.36 338.03 707.99 338.89 708.99 338.01 709.25 337.4 710.11 334.01 709.71 330.19 710.95 329.36 711.32 328.84 711.54 327.47 711.21 325.93 708.82 324.14 708.12 324.12 706 322.9 704.74 321.66 698.33 319.61 697.57 319.3 696.4 317.28 698.85 313.63 700.66 311.16 701.53 310.98 702.4 310.14 703.48 308.74 705.17 304.26 705.07 302.88 704.77 302 703.95 301.39 703.17 299.06 703.48 297.47 707.32 292.21 708.09 291.26 707.38 289.92 705.83 286.34 706.01 284.21 706.72 282.33 707.52 281.26 707.91 280.98 709.74 280.26 710.66 280.2 712.76 279.33 713.58 278.83 715.92 276.37 716.22 275.92 716.91 273.8 715.98 269.73 718.27 268.05 720.84 266.8 725.01 263.86 725.59 262.99 726.45 262.01 726.92 261.7 741.25 257.19 742.21 256.47 745.12 256.25 748.09 256.59 753.39 256.35 756.03 254.89 759.92 254.19 762.89 254.66 763.24 255.22 764.1 255.5 766.92 255.65 771.71 252.99 771.71 252.87 774.3 251.07 778.53 249.32 780 249.02 781.2 251.77 782.01 252.76 781.93 253.1 782.02 253.82 782.41 254.6 782.73 254.92 783.96 257.47 784.39 258.12 785.36 259.2 785.91 259.65 787.48 260.4 788.12 260.43 788.4 261.11 788.22 261.52 787.86 261.67 787.54 262.07 787.06 263.55 788.41 264.24 789 265.52 789.01 266.05 788.57 265.92 788.29 265.04 787.86 264.44 786.91 264.01 786.59 264.47 786.55 265.15 786.63 265.88 786.91 266.37 787.31 266.67 787.19 266.98 787.94 268.47 788 269 788.44 269.77 788.94 270.21 788.31 270.23 788.24 271.07 788.55 270.94 788.33 272.06 788.37 272.81 788.12 273.13 788.44 273.41 788.37 274.29 788.62 274.87 789.04 275.14 789.17 276.03 788.84 275.91 788.81 275.35 788.43 275.34 788.26 275.62 788.16 276.89 788.41 277.38 788.69 277.6 788.94 278.64 788.73 279.07 788.2 279.29 787.33 280.37 786.24 280.33 785.64 280.51 785.08 280.82 784.55 281.3 783.96 282.24 783.67 283.18 783.59 284.21 784.11 284.89 783.78 284.93 784.1 285.63 783.95 286.09 784.03 287.3 784.34 287.54 784.2 288.07 783.9 288.05 783.84 287.28 783.99 287 783.63 286.82 783.52 287.7 782.51 287.94 782.42 288.11 781.29 288.84 780.69 290.22 780.36 291.92 780.67 292.34 779.78 293.43 779.22 293.53 779.23 294.57 779.7 294.9 780.84 295.39 781.17 295.64 781.59 296.5 781.32 297.28 780.48 298.55 779.96 299.59 778.63 301.92 777.53 304.89 777.4 305.9 777.48 306.56 778.32 309.36 778.46 310.19 778.41 310.73 778.53 311.81 779.42 314.97 780.5 317.98 780.98 319.43 781.75 321.44 782.24 322.56 781.99 323.03 781.75 323.02 780.75 322.1 778.07 320.06 777.13 319.59 771.24 317.67 770.07 317.38 757.1 318.61 757.14 325.59 757.21 332.49 757.78 332.75 758.69 332.89 758.98 330.59 759.44 328.83 768.75 328.67 769.99 325.77 769.59 324.97 771.44 322.65 772.51 322.82 775.2 324.71 775.19 326.55 771.64 333.65 770.88 335.69 768.21 346.06 768.53 347.28 769.18 347.82 771.56 350.36 763.95 349.55 761.54 347.06 758.76 346.83 750.88 346.66 748.12 346.65 747.53 347.11 746.94 351.42 746.23 356.18 749 358.03 754.77 353.97 756.9 353.51 762.6 353.45 764.59 355.35 764.79 355.61 764.92 357.04 764.88 360.47 764.82 361.02 764.01 362.4 763.49 362.94 762.95 363.16 761.71 363.21 760.56 363.01 758.81 363.16 758.41 363.42 758.2 364.02 754.04 364.91 753.6 365.07 751.63 365.51 750.89 365.62 750.67 365.02 750.22 364.51 749.53 364.22 748.68 364.63 747.97 365.28 746.47 366.83 745.24 368.39 744.74 369.46 744.61 370.02 744.65 371.54 744.89 372.63 745.51 374.02 746.39 375.55 747.33 376.52 748.08 377.03 748.88 377.39 749.82 377.5 757.64 375.34 758.44 374.73 758.76 374.24 758.78 373.7 758.52 373.52 758.68 372.8 759.11 372.42 759.83 372.01 760.97 371.67 761.68 371.72 762.72 372.23 766.02 375.05 767.02 377.16 767.12 377.6 766.55 378.65 766.04 378.99 765.31 378.04 764.56 377.8 763.09 377.95 762.16 378.14 761.26 378.52 759.66 379.68 759.32 380 758.86 380.75 758.69 381.27 758.63 383.54 758.86 384.27 758.8 385.38 756.44 388.7 754.68 389.68 754.2 389.82 753.62 390.23 746.65 396.3 746.12 396.5 745.83 395.26 744.17 391.44 742.6 390.11 741.18 389.43 739.84 389.03 738.77 388.99 735.17 389.1 733.85 389.89 733.3 390.41 734.52 394.17 734.87 394.99 734.62 395.32 732.83 395.76 730.95 396.01 728.71 395.68 727.63 395.17 727.27 394.88 728.74 395.09 728.89 394.59 728.74 394.16 728.24 393.82 726.39 393.26 724.38 393.6 724.06 393.77 719.29 397.27 718.83 397.84 718.58 398.6 718.56 400.46 718.64 400.63 720.16 402.18 720.39 402.66 720.67 403.64 720.33 404.11 716.18 407.96 713.7 410.12 713.23 410.47 712.12 411.01 710.7 411.27 709.39 411.21 704.42 410.07 705.95 408.12 702.35 403.28 701.34 401.73 701.31 385.34 701.78 385.34 703.41 383.12 708.09 375.76 699.65 365.15 696.16 364.47 689.71 363.25 687.58 362.83 690.47 352.61 689.78 345.64 689.65 345.12 688.6 343.09 683.48 334.12 676.65 323.45 675.13 321.2 674.44 320.53 Z" fill-rule="evenodd" class="2" id="울산광역시 동구"/>
<path d="M 780 249.02 778.53 249.32 774.3 251.07 771.71 252.87 771.71 252.99 766.92 255.65 764.1 255.5 763.24 255.22 762.89 254.66 759.92 254.19 756.03 254.89 753.39 256.35 748.09 256.59 745.12 256.25 742.21 256.47 741.25 257.19 726.92 261.7 726.45 262.01 725.59 262.99 725.01 263.86 720.84 266.8 718.27 268.05 715.98 269.73 716.91 273.8 716.22 275.92 715.92 276.37 713.58 278.83 712.76 279.33 710.66 280.2 709.74 280.26 707.91 280.98 707.52 281.26 706.72 282.33 706.01 284.21 705.83 286.34 707.38 289.92 708.09 291.26 707.32 292.21 703.48 297.47 703.17 299.06 703.95 301.39 704.77 302 705.07 302.88 705.17 304.26 703.48 308.74 702.4 310.14 701.53 310.98 700.66 311.16 698.85 313.63 696.4 317.28 697.57 319.3 698.33 319.61 704.74 321.66 706 322.9 708.12 324.12 708.82 324.14 711.21 325.93 711.54 327.47 711.32 328.84 710.95 329.36 709.71 330.19 710.11 334.01 709.25 337.4 708.99 338.01 707.99 338.89 705.36 338.03 705.08 337.88 703.3 336.51 703.12 336.16 703.34 335.13 702.8 334.61 700.55 332.7 699.87 332.24 688.98 329.67 688.26 329.54 687.37 329.51 685.31 329.6 683.98 329.37 682.88 328.94 681.95 328.32 681.31 327.69 678.63 323.72 677.83 322.92 676.58 321.88 675.57 321.2 674.44 320.53 673.19 319.63 668.81 315.49 666.82 313.31 665.73 312.02 660.36 306.5 656.68 303.39 656.4 303.09 653.29 300.91 650.04 302.33 649 302.41 647.46 302.22 646.82 302.08 644.98 301.35 644.49 301.09 643.18 300.11 642.05 298.99 641.03 297.63 640.2 296.26 636.98 295.33 634.95 293.69 628.2 291.46 626.62 290.95 622.74 289.75 614.99 287.3 610.55 285.18 610.69 284.26 613.56 284.74 615.16 283.19 614.54 277.55 614.26 275.77 612.85 271.89 612.47 271.11 612.92 270.3 613.89 269.56 615.32 269.02 616.06 268.81 617.19 268.35 618.79 267.37 619.41 264.68 619.54 263.51 618.5 258.65 617.38 256.61 616.82 254.73 616.76 254.04 616.97 250.29 617.31 247.02 615.22 239.67 612.37 235.3 611.82 233.76 611.54 232.7 611.22 231.06 610.65 226.44 610.67 221.26 611.31 221.26 611.47 218.24 611.46 216.16 611.06 210.72 606.67 209.48 604.73 209.34 600.99 209.19 599.31 209.35 596.32 209.88 594.66 210.46 592.38 211.51 591.01 212.44 590.38 212.75 589.24 213.05 588.28 213.12 587.84 213.04 586.35 212.45 584.78 211.47 583.19 210.29 582.87 209.98 582.69 209.43 583.04 208.57 584.28 206.77 584.38 206.5 584.06 205.1 583.58 204.6 582.93 204.52 571.51 205.28 570.83 205.47 569.68 205.98 568.94 206.92 568.87 207.39 568.93 209.17 568.58 210.26 567.52 211.38 566.85 212.01 566.53 212.18 564.4 212.98 563.3 212.94 562.18 212.68 561.6 212.42 560.8 212.33 556.61 214.71 552.81 217.29 551.91 218.09 551.22 219.09 550.5 219.82 549.66 220.34 548.88 220.67 548.22 220.83 544.56 220.75 542.28 218.86 542.08 218.66 540.78 216.69 540.93 214.87 538.85 212.75 538.56 212.6 537.75 212.53 534.14 212.36 531.94 212.29 529.39 212.31 528.84 212.41 526.66 213.24 525.52 214.23 525.31 214.77 524.85 215.15 523.26 215.59 518.94 214.9 517.28 214 516.76 211.74 517.74 206.78 520.28 200.87 526.42 192.59 529.19 189.54 530.32 188.95 531.56 187.45 531.94 185.89 533.02 180 532.38 178.76 530.53 176.67 529.42 175.73 527.27 174.66 526.11 174.27 525.36 174.12 524.16 173.44 523.89 172.91 523.2 170.49 523.03 169.74 523.99 160.98 524.29 160.35 525.75 159.2 526.83 158.53 527.84 157.35 528.69 155.96 529.72 152.25 529.76 151.31 529.42 149.75 529.07 149.23 528.65 148.85 528.07 148.1 527.83 147.57 527.16 145.3 526.56 141.76 526.82 139.44 527.47 135.39 526.95 132.69 526.66 131.69 526.68 130.7 527.87 127.92 530.09 126 535.48 125.3 537.59 121.81 539.33 111.45 539.64 110.86 539.99 110.59 549.66 105.71 550.75 105.17 553.15 105.61 559.39 107.06 560.91 107.5 562.05 108.04 563.65 109.38 568.69 109.05 577.72 107.9 579.12 105.36 579 101.86 579.04 101.67 580.96 98.9 581.81 97.81 582.91 97.03 585.36 95.46 586.26 93.11 587.43 90.82 587.98 90.22 590.53 91.24 592.32 91.13 597.51 90.43 600.39 88.69 602.2 87.46 607.83 82.94 608.58 82.2 609.69 80.98 610.94 78.75 611.57 78.23 612.35 77.76 615.86 76.12 619.13 74.97 622.28 74.69 623.28 74.64 624 74.85 631.75 75.59 634.87 75.88 636.35 75.39 636.49 78.87 637.93 80.62 640.64 81.3 646.85 85.16 648.51 86.46 650.42 89.59 650.22 91.09 653.21 90.34 663.33 88.23 665.09 87.93 667.28 88.26 671.5 89.4 672.44 89.29 674.67 90.08 675.83 90.53 676.3 90.96 681.44 92.29 684.2 92.99 686.89 93.05 689.02 93.16 691.75 93.38 694.35 93.79 695.63 94.37 696.32 95.44 696.99 97 697.72 98.32 699.46 100.93 699.97 101.22 700.49 101.31 704.34 101.53 705.52 101.46 707.18 100.23 711.05 99.76 712.18 99.83 716.4 101.16 717.66 101.66 725.92 105.64 736.08 110.6 740.37 113.17 741.25 113.13 743.09 112.74 745.8 111.57 747.49 111.44 748 113.96 747.95 115.17 748.83 116.45 750.13 117.85 751.17 118.24 753.43 116.84 753.49 116.3 754.07 115.34 754.9 114.82 757.95 113.71 761.96 114.63 766.04 115.84 766.86 116.17 767.76 116.65 769.22 117.85 771.5 119.52 772.73 120.23 773.14 120.38 774.12 120.54 774.96 120.47 773.49 124.14 773.07 124.99 772.71 125.49 769.86 127.68 763.77 129.09 763.04 129.33 762.28 130 761.71 130.89 761.44 132.34 761.34 133.32 761.33 134.71 761.43 136.46 761.87 140.11 762.15 141.82 760.64 150.36 760.83 151.44 761.63 154.44 764.76 161.71 765.68 163.36 766.14 164 767.8 165.8 769.64 167.47 771.11 168.72 772.37 169.58 773.05 169.83 774.09 170.39 774.9 171.53 775.56 171.76 776.85 172.64 777.63 172.97 778.24 173.11 779.3 173.22 780.17 174.07 782.12 176.45 782.17 176.72 781.76 176.96 781.39 176.8 781.27 176.28 779.21 173.85 776.46 173.81 776.32 173.89 774.66 176.17 775.42 179.05 776.5 179.73 779.14 180.54 782.08 180.46 785.28 180.15 787.4 180.33 788.02 180.65 789.22 181.58 789.33 182.53 789.24 183.37 789.07 183.68 788.37 184.48 786.85 188.07 786.91 188.72 788.06 190.48 788.56 190.83 789.03 190.82 789.18 191.25 788.92 191.52 789.29 191.95 789.98 192.56 791.04 192.5 791.19 192.42 792.06 190.07 792.05 189.93 791.2 189.54 791.29 189.36 791.99 189.69 793.31 190.44 794.09 191.2 794.24 191.76 794.21 192.7 794.61 192.73 795.67 192.05 795.95 192.34 795.29 193.8 795 193.94 795 194.65 795.65 194.6 795.92 195.26 796.4 195.59 797.03 195.62 797.17 195.88 797.33 196.81 796.82 197.02 796.53 197.38 796.34 198.21 796.57 198.73 797 198.65 796.78 199.25 797.19 199.73 797.67 199.7 798 199.84 797.78 200.5 797.35 201 797.81 201.53 798.16 203.08 798.38 203.49 798.57 204.37 797.54 207.48 797.55 208.71 796.63 211.75 796.1 213.19 796.87 214.65 797.9 221.19 799 224.77 798.98 225.13 797.83 226.8 797.45 227.15 796.55 227.66 792.81 228.76 791.65 228.6 790.01 227.7 786.94 230.96 785.48 233.33 784.61 234.65 784.14 234.49 782.57 234.22 781.57 234.47 780.92 235.1 780.27 236.14 779.98 236.78 779.63 238.06 779.84 238.75 780.29 239.32 779.78 244.91 780 245.6 779.79 248.22 780 249.02 Z" class="3" id="울산광역시 북구"/>
<path d="M 657.75 483.67 657.21 483.5 657.47 482.46 657.67 479.9 658.93 463.14 659.02 462.13 663.29 453.93 663.58 453.44 664.01 453.61 659.44 462.21 659 468.18 659.01 468.84 658.89 471.45 657.95 483.34 657.75 483.67 Z M 526.95 132.69 527.47 135.39 526.82 139.44 526.56 141.76 527.16 145.3 527.83 147.57 528.07 148.1 528.65 148.85 529.07 149.23 529.42 149.75 529.76 151.31 529.72 152.25 528.69 155.96 527.84 157.35 526.83 158.53 525.75 159.2 524.29 160.35 523.99 160.98 523.03 169.74 523.2 170.49 523.89 172.91 524.16 173.44 525.36 174.12 526.11 174.27 527.27 174.66 529.42 175.73 530.53 176.67 532.38 178.76 533.02 180 531.94 185.89 531.56 187.45 530.32 188.95 529.19 189.54 526.42 192.59 520.28 200.87 517.74 206.78 516.76 211.74 517.28 214 518.31 217.5 518.53 220.25 519.03 221.65 519.61 222.42 520.8 223.24 521.97 224.81 522.21 225.22 522.81 226.65 522.61 227.31 522.15 228.26 521.49 229.01 520.9 229.5 520.03 232.04 523.25 240.98 523.9 241.69 519.09 238.65 514.76 238.84 511.29 238.88 509.51 238.77 507.76 238.23 504.2 234.83 505.05 229.12 504.93 228.66 502.11 227.69 485.76 223.6 485 223.47 480.97 223.87 479.97 224.25 478.74 225.45 478.65 225.68 476 226.24 467.16 223.28 465.82 222.36 463.28 220.15 462.75 219.87 461.39 219.47 460.01 220.06 457.52 219.08 456.29 218.84 456.1 219.13 456.08 220.4 457.05 221.77 458.54 222.2 460.75 229.68 460.22 230.43 459.93 231.18 459.69 232.27 460.65 235.19 462.92 237.75 464.78 237.54 466.07 238.11 466.83 239.25 467.6 243.99 467.63 244.7 465.67 244.55 464.48 245.24 462.98 256.02 462.99 256.51 466.24 265.32 467 265.4 468.92 265.49 469.96 265.63 470.66 265.87 471.65 266.49 472.72 267.45 476.68 271.98 477.16 272.79 473.11 273.55 470.77 276.75 469.19 280.21 470.78 281.24 468.5 281.15 466.13 279.58 464.79 278.75 462.7 277.54 461.44 276.94 459 278.71 458.2 279.66 457.04 281.4 457.17 282.28 457.22 283.17 457.08 283.53 455.54 286.41 455.33 286.68 450.84 291.32 447.34 293.84 442.1 296.53 438.93 300.06 436.25 300.52 433.78 300.36 431.98 303 430.11 306.33 433.98 306.72 441.12 307.64 441.68 307.42 444.75 306.46 446.55 308.74 447.36 309.9 448.3 310.91 449.12 311.07 450.7 311.24 458.1 311.91 458.93 311.38 460.1 310.14 459.49 308.85 459.35 308.28 460.88 308.54 463.54 309.27 464.57 312.67 464.13 313.76 466.3 315.75 472.22 315.6 474.42 315.03 475.12 314.96 479.71 315.21 488.03 316.56 491.15 317.6 492.05 318.92 490.08 321.26 489.48 322.33 489.93 323.9 491.84 326.56 495.35 329.49 496.76 329.29 499.21 329.95 501.45 331.39 503.15 333.06 502.34 333.62 501.28 333.85 501.02 334.32 502.56 336.93 503.93 337.55 506.37 337.69 510.57 338.73 511.29 338.98 513.74 340.63 513.69 340.88 513.97 344.87 514.25 346.75 514.96 350.13 516.21 351.12 517.79 350.71 520.62 356.13 522.63 360.31 523.57 360.88 524.5 360.76 527.1 362.62 527.88 363.88 528.1 365.87 528.29 366.8 534.19 372.78 536.71 373.39 537.46 373.37 539.94 372.28 541.17 371.7 541.29 371.18 541.84 370.02 542.72 368.72 544.83 369.44 545.41 369.82 545.69 370.73 546.75 372.82 547.27 373.73 549.68 376.82 555.42 379.19 563.05 379.23 563.66 380.7 564.82 383.89 565.21 385.16 567.77 385.59 570.17 385.57 571.6 384.55 575 382.32 576.28 382.3 580.03 386.34 579.59 386.79 580.34 387.67 582.15 388.22 583.11 388.22 584.8 390.72 586.77 392.11 590.59 393.15 593.53 395.79 595.65 398.55 596.16 402.49 596.16 404.8 592.2 405.35 592.39 407.2 592.54 407.87 593.44 408.78 594.69 409.32 599.1 413.16 603.23 417.66 609.34 422.59 610.72 428.21 611.01 429.6 609.83 429.79 609.54 430.32 613.42 448.59 617.14 449.88 617.6 449.66 620.95 447.33 629.41 449.11 629.94 451.69 627.84 457.35 620.05 460.33 619.82 460.55 622.04 464.72 637.88 459.66 638.11 459.48 639.06 457.77 640.58 454.87 643.08 450.2 644.48 447.7 645.05 447.37 650.77 449.56 651.99 450.58 649.55 453.5 646.02 455.86 640.26 466.68 648.26 469.54 648.27 472.6 651.82 476.08 641.78 476.6 636.03 480.93 632.55 484.35 627.85 483.82 619.68 482.91 618.26 482.83 618.1 483.3 619 483.48 625.13 484.46 636.29 486.3 636.62 486.58 636.61 489.48 636.09 502.08 623.71 505.1 623.69 509.73 629.69 509.45 631.16 508.83 633.97 508.99 634.28 509.42 634.3 511.76 633.98 516.09 633.19 517.25 629.62 521.57 628.86 521.71 624.68 521.75 620 522.65 620.25 529.94 620.76 532.11 622.5 535.41 622.46 536.48 622.35 536.62 620.56 538.01 620.09 538.19 614.86 539.38 613.2 539.12 612.24 539.44 611.35 540.44 610.81 541.15 609.39 541.9 608.12 542.98 607.96 543.41 608.7 545.85 609.2 547.74 609.84 550.58 608.54 551.89 608.01 552.51 606.92 554.15 606.24 555.81 605.81 557.14 605.5 558.45 604.84 562.04 605.29 562.43 605.79 562.43 606.12 562.14 606.55 562.52 606.41 563.27 605.95 563.48 605.75 564.01 605.47 566.25 605.52 566.77 605.73 567.1 606.83 567.73 608.02 568.31 616.79 571.28 618.8 571.63 619.22 571.62 620.55 571.89 622.21 572.32 622.58 576.07 621.16 578.32 620.89 578.97 620.95 579.7 621.28 580.42 621.63 580.76 622.17 581.01 623.72 581.21 626.14 581.81 630.39 583.76 630.76 584.07 631.96 586.02 632.3 586.97 633.86 592.22 633.86 592.27 631.13 595.84 630.23 596.76 628.25 598.45 627.19 598.96 626.13 599.2 619.15 600.13 618.15 600.02 613.67 599.65 607.64 603.98 605.69 604.56 605.15 604.47 604.97 604.18 605.5 603.18 605.29 601.71 605.16 601.18 599.43 597.41 598.31 596.83 597.5 596.69 595.1 596.61 594.05 596.67 593.09 596.8 591.96 597.07 590.88 597.4 589.86 597.82 589.15 598.25 587.92 599.23 587.3 600 587.06 600.43 586.47 602.28 586.54 602.83 586.76 603.13 585.07 611.1 583.04 611.63 579.87 612.19 578.06 612.36 577.85 611.68 577.42 611.34 576.68 611.17 574.32 611.23 573.38 611.3 569.39 613.06 568.62 613.63 568.39 613.92 566.32 617.82 565.61 620.58 565.62 622.83 564.87 624.07 564.84 624.39 565.06 624.77 565.43 624.8 566.06 625.66 565.7 626.21 563.91 627.05 562.39 626.77 562.43 626.4 562.21 626.14 561.48 625.67 560.33 625.49 559.66 625.52 559.13 625.8 557.65 629.17 557.98 629.93 557.54 631.06 553.53 638.95 551.46 640.66 546.56 642.54 545.95 642.76 544.63 643 544.15 642.97 543.91 642.64 543.95 642.32 544.99 642.18 545.69 642.28 546.59 641.94 547.4 641.4 547.88 640.81 548.02 640.4 545.67 638.56 543.99 638.59 542.78 638.74 541 639.35 540.62 639.57 540.54 640.04 539.42 639.59 537.2 636.22 536.56 634.95 536.26 633.99 536.71 632.71 533.24 630.1 526.83 629.44 519.61 628.83 516.19 624.87 509.89 624.86 509.29 624.94 503.18 623.22 501.99 622.65 499.84 621.46 501.72 618.94 503.79 617.37 505.97 614.89 506.66 613.84 508.36 606.32 507.11 603.01 506.83 602.52 505.66 601.54 504.89 601.11 503.83 600.14 502.22 598.56 501.22 597.44 501.91 592.82 502.45 590.05 502.82 589.55 503.52 588.24 504.2 584.83 504 582.71 501.86 582.29 499.46 581.39 497.71 578.47 496.46 575.26 496.09 572.94 495.28 571.69 492.46 568.59 490.74 567.58 480.84 557.12 478.17 552.93 477.92 552.24 477.39 550.45 476.97 547.42 473.44 549.84 471.18 550.71 465.57 552.17 464.77 552.3 463.95 552.13 461.28 551 459.74 550.13 459.49 549.77 456.56 547.91 452.91 547.06 452.36 548.05 453.21 549.52 453.29 551.33 453.08 551.69 451.61 553.03 449.92 553.88 447.41 554.44 446.71 554.52 438.9 553.55 436.06 552.01 430.88 553.21 429.93 554.14 429.39 556.18 428.26 558.56 424.94 558.1 423.48 557.77 422.36 557.26 419.85 557.13 411.14 558.29 406.41 559.26 404.13 560.11 400.99 560.66 397.7 560.03 394.86 558.3 390.63 557.94 388.83 557.27 383.87 555 379.25 551.95 378.06 550.53 376.94 548.8 376.52 548.31 375.18 547.26 372.91 546.38 373.97 543.31 374.05 541.79 374.3 540.92 375.57 538.57 377.13 537.55 381.59 534.76 383.64 533.44 383.8 531.34 385.44 527.54 388.11 527.08 393.35 523.25 401.55 515.34 401.86 514.19 401.56 511.57 400.41 507.97 394.93 505.56 393.49 503.84 392.08 500.14 391.82 498.53 389.54 495.78 387.58 494.67 383.69 494.2 380.12 493.84 376.32 492.63 374.47 491.76 371.27 487.56 372.52 481.21 371.35 478.07 372.19 476.98 374.43 474.73 374.12 473.9 371.85 471.1 370.58 469.61 370.28 469.51 367.8 466.22 366.74 464.51 366.13 463.71 360.28 465.98 357.24 468.02 356.17 468.89 355.68 469.86 354.74 470.15 352.55 470.39 352.11 470.41 350.25 470.28 345.82 470.85 344.66 471.37 342.02 472.39 336.02 474.43 334.58 473.36 333.41 472.21 327.08 472.24 324.24 472.56 323.53 472.8 322.63 473.86 318.15 474.82 315.46 474.66 314.73 472.25 311.94 470.83 306.89 469.15 304.33 467.72 298.39 463.73 295.74 461.64 294.64 460.57 293.47 458.89 286.6 455.21 283.68 455.25 282.2 454.35 279.09 452.76 274.74 449.57 273.33 448.11 271.75 444.57 270.9 442.32 266.99 440.09 264.43 438.28 259.89 435.46 259.25 432.52 255.49 429.51 251.97 426.84 244.5 423.99 242.59 420.67 243.46 418.99 244.38 417.44 243.7 413.21 239.77 410.21 239.3 409.55 237.7 406.93 237 405.05 237.31 404.42 234.69 402.64 228.74 400.19 224.87 398.01 224.57 397.75 222.76 395.47 222.11 391.3 222.16 390.88 222.48 390.48 223.79 389.31 224.29 388.51 224.46 386.53 223.06 384.39 222.19 383.92 221.37 383.21 220.28 381.87 219.44 378.94 219.37 378.17 219.54 374.82 220.18 372.72 217.82 370.57 215.79 369.25 213.51 368.61 212.88 368.67 211.39 369.26 210.04 370.32 208.55 370.55 206.49 369.81 205.87 369.45 204.67 368.53 204.12 367.85 201.05 367.9 200.15 368.7 197.37 367.99 195.99 367.79 194.96 367.85 193.87 367.47 191.94 366.14 188.82 363.68 187.38 361.87 176.55 360.01 172.51 358.83 163.53 355.73 159.93 354.3 158.53 353.64 155.61 351.85 153.25 350.62 151.74 349.88 147.23 349.28 142.38 346.53 132.7 341.44 131.54 337.25 130.32 333.96 130.15 332.75 131.99 330.33 132.37 328.44 131.86 325.38 133.79 323.21 135.35 322.94 139.07 320.99 139.31 317.56 137.49 312.78 134.18 313.89 125.59 317 124.65 317.19 121.69 317.2 117.52 317.74 116 318.59 111.08 320.28 101.5 323.07 100.07 323.31 96.18 322.4 91.81 320.99 86.65 323.13 80.47 325.82 68.54 327.42 66.44 327.44 65.18 327.3 62.2 326.04 62.09 324.58 62.2 323.52 62.56 321.97 62.97 321.08 63.26 319.46 63.03 319.04 59.87 317.76 59.52 317.73 54.5 317.65 50.59 318.08 43.98 319.37 40.14 319.84 38.83 319.34 38.82 317.18 38.96 315.62 40.33 314.16 41.25 313.05 41.46 312.67 41.34 311.09 40.99 309.34 40.99 307.83 41.82 306.3 43.12 305.17 44.39 303.95 45.7 302.5 45.91 300.14 44.92 297.36 40.81 291.52 37.89 288.42 36.07 288.18 35.12 288.22 32.94 285.64 31.95 284.11 30.36 281.37 27.25 282.82 24.11 284.7 22.27 286.08 16.74 289.83 15.87 288.76 14.73 286.17 13.28 284.47 10.44 281.44 6.83 277.86 3.79 274.16 2.9 272.44 1 267.3 2.08 267.4 8.17 264.72 10.36 263.33 11.86 262.21 14.56 262.24 17.93 261.56 23.32 260.35 26.58 259.06 30.32 257.53 36.57 255.91 38.02 256.47 40.82 255.03 52.57 243.34 53.7 241.62 54.87 240.32 60.41 235.13 67.41 231.07 68.69 230.64 70.99 231.27 75.54 230.19 78.15 229.26 78.63 228.54 78.03 227.26 78.2 224.5 79.01 223.06 80.76 221.49 82.54 220.26 83.24 219.44 84.39 217.21 84.81 209.18 87.41 203.22 86.9 200.6 84.86 199.15 84.21 198.3 84.63 196.52 85.76 188.13 84.81 181.34 83.9 180.07 80.5 178.44 78.98 177.85 74.56 176.73 69.06 178.27 61.34 177.3 60.39 176.89 58.05 173.15 56.87 172.26 52.02 170.31 53.84 167.97 57.08 165.4 62.05 162.09 64.19 160.93 68 159.59 71.41 158.15 74.72 156.54 76.74 155.12 77.7 153.35 80.05 148.04 81.02 146.52 81.4 146.33 87.65 144.68 90.62 144.2 93.56 146.47 93.72 146.68 94.44 147.04 96.8 148.07 104.98 151.28 106.42 151.05 107.37 150.57 107.8 149.38 107.97 148.72 108.99 146.67 113.36 142.78 117.68 136.81 119.26 133.26 119.5 132.52 119.76 131.13 120.52 128.18 121.22 126.44 122.95 122.38 123.43 121.36 126.02 121.9 129.39 123.04 131.76 123.72 136.21 124.63 140.87 125.02 149.96 127.64 159.66 129.62 161.66 130.46 164.34 132.37 169.76 137.8 175.27 134.87 178.34 133.11 179.16 130.02 178.79 127.32 178.07 125.51 176.58 123.63 173.69 122.39 170.78 120.71 169.4 119.24 164.31 113.08 157.68 108.34 157.38 107.96 156.7 104.57 156.38 102.8 158.29 99.97 159.24 91.38 156.19 87.67 157.71 84.68 159.17 83.77 162.7 80.92 165.69 77.91 164.5 77.55 161.93 75.87 160.79 73.69 160.47 71.34 160.59 69.83 163.84 66.62 165.15 65.12 167.17 62.69 167.44 62.27 167.21 61.09 167.82 60.01 172.47 52.74 177.71 47.94 181.92 45.12 184.74 44.84 186.24 44.4 188.84 42.92 193.01 39.74 193.53 37.16 193.6 36.99 199.1 36.51 205.03 34.35 211.99 31.61 212.15 31.5 214.49 30.94 217.41 30.92 220.08 30.99 221.62 30.88 227.21 29.8 229.92 27.75 234.69 27.6 237.01 29.61 237.6 30.53 241.04 29.99 246.21 28.69 248.46 27.93 248.61 27.38 250.86 21.19 251.68 19.36 252.95 18.61 253.55 18.47 260.03 20.67 264.55 21.72 266.38 21.35 268.78 20.5 267.21 19.26 267.7 17.99 268.44 16.27 270.64 13.68 273.2 11.8 270 7.83 271.4 6.07 276.11 2.32 277.3 1.92 281.32 1.15 283.9 1 285.66 1.41 288.1 3.34 290.24 3.82 295.28 5.72 297.98 7.43 301.28 9.98 301.37 10.22 303.18 12.77 306.84 17.35 324.24 17.61 328.15 17.49 332.94 15.99 333.94 15.33 336.14 13.47 340.24 6.54 340.64 5.11 340.56 3.25 340.76 2.83 341.46 3.03 344.43 4.36 347.56 6.01 348.76 6.88 349.19 7.94 352.44 10.18 356.16 10.8 358.31 11.18 359.26 11.52 366.43 15.26 367.21 15.76 367.42 16.09 367.89 17.83 368.5 17.59 371.99 15.76 372.36 15.45 372.62 14.63 372.5 13.15 372.76 12.27 373.01 11.81 373.77 10.76 379.5 7.19 379.86 7.06 381.66 6.64 382.51 6.66 384.97 7.07 385.47 7.21 386.46 8.74 386.04 10.82 387.28 11.54 389.5 13.17 392.4 15.39 393.4 16.09 400.14 20 401.71 19.17 403.52 18.55 404.15 18.82 406.06 20.43 406.39 21.91 407.28 22.83 410.42 25.85 413.81 27.35 414.44 26.92 415.37 26.44 416.83 26.28 420.95 27.13 422.38 27.66 424.49 29.39 425.52 31.37 425.56 32.22 425.13 32.83 425.54 34.49 426.01 35.04 427.26 35.17 432.64 34.75 434.81 34.76 437.91 35.06 439.18 36.23 442.11 37.09 446.67 38.4 448.54 37.93 453.41 38.12 456.75 38.52 462.95 40.17 466.62 44.33 471.08 51.98 472.15 54.96 472.24 55.67 471.58 64.08 471.06 65.06 468.53 66.83 467.09 67.68 465.85 68.63 465.92 70.03 467.38 72.93 469.71 75.17 469.31 78.53 467.59 86.15 466.6 88.05 466.13 88.51 464.53 89.65 459.55 95.65 459.97 99.38 460.77 105.28 464.4 107.76 465.09 110.25 467.85 114.3 468.76 114.69 476.9 116.38 480.9 118.2 483.71 120.35 489.44 118.04 492.22 117.2 494.26 117.58 496.25 118.94 496.78 119.38 502.15 121.23 503.08 120.31 505.07 119.39 509.13 121.34 514.97 124.42 516.81 125.64 516.94 126.07 517 127.43 518.58 129.44 519.06 129.96 519.68 130.33 524.48 131.73 526.95 132.69 Z" fill-rule="evenodd" class="4" id="울산광역시 울주군"/>
</g>
</svg>