<?xml version="1.0"?>
<svg xmlns="http://www.w3.org/2000/svg" version="1.2" baseProfile="tiny" width="800" height="388" viewBox="0 0 800 388" stroke-linecap="round" stroke-linejoin="round">
<g id="인천_2020">
<path d="M 742.86 179.38 743.12 179.32 750.92 183.51 751.71 183.95 752.55 184.56 754.24 185.83 755.42 186.19 755.39 186.68 755.31 186.66 753.92 186.23 752.19 185.34 749.8 184.14 748.32 183.6 747.6 184.43 747.59 185.24 747.96 185.71 747.47 186.64 747.25 186.55 746.98 187.24 747.38 187.41 747.45 187.55 747.51 188.62 746.61 188.9 744.83 188.74 744.49 188.87 743.81 189.35 743.01 188.89 742.48 188.64 741.59 188.09 741.38 187.91 740.91 187.37 739.69 186.26 738.53 185.36 738.31 185.22 736.72 184.54 735.7 184.81 734.37 183.78 735.19 183.35 735.41 182.93 735.34 182.9 732.5 183.8 732.26 183.33 731.82 182.38 731.87 182.34 733.48 181.73 734.14 181.5 736.25 180.82 737.78 180.5 737.96 180.6 738.78 181.43 739.11 181.71 740.15 182.53 740.62 182.77 742.3 183.76 742.31 183.84 741.95 184.19 742.02 184.23 742.36 183.91 742.36 183.72 741.29 182.99 740.07 182.17 739.56 181.7 738.39 180.42 738.27 180.19 741.5 179.27 742.86 179.38 Z" class="0" id="인천광역시 동구"/>
<path d="M 759.1 219.47 758.89 219.45 758.74 219.57 758.82 219.81 758.91 219.89 762.9 220.54 763.02 220.57 763.42 220.84 763.62 221.06 763.92 221.66 764.02 222.14 763.99 222.61 763.83 223.17 763.66 223.46 762.87 224.25 761.94 225.45 761.81 225.75 760.22 227.35 759.91 227.56 759.57 227.64 759.42 227.74 758.19 228.99 758.11 229.38 757.99 229.61 756.15 231.47 755.72 231.76 755.36 231.91 755.11 231.95 754.7 231.94 754.43 231.87 754.17 231.75 752.78 231.36 751.83 232.53 751.08 232.62 750.07 233.09 750.18 233.21 751.19 233.83 751.25 233.99 748.23 234.99 748.14 235.01 747 234.63 744.3 234.63 744.1 234.65 743.17 234.88 743.04 235.44 739.98 235.5 736.56 235.53 736.48 235.06 733.68 235.07 733.58 233.71 733.55 233.49 733.13 233.49 733.16 234.89 731.81 234.92 731.26 236.73 731.95 236.76 731.98 237.11 730.32 237.16 730.34 236.8 731.03 236.78 731.64 234.92 729.23 234.96 726.39 234.97 725.46 236.54 726.07 236.82 726.03 237.16 721.15 237.16 721.16 236.45 724.95 236.4 726.86 233.53 722 233.55 721.98 230.77 722.26 230.76 728.49 230.74 733.93 230.72 742.48 230.71 741.82 230.77 737.81 230.78 737.82 231.3 735.84 231.33 735.85 233.33 735.87 233.38 741.66 233.37 743.6 233.35 743.97 233.34 744.5 233.26 744.88 233.16 745.42 232.93 745.79 232.7 746.08 232.47 747.05 231.48 746.92 231.28 746.07 230.76 744.57 230.76 744.3 230.8 744.24 230.7 746.09 230.69 747.17 231.35 748.12 230.38 748.11 230.33 740.76 225.83 739.11 224.83 739.04 224.89 737.73 224.09 737.74 223.99 736.07 222.96 734.17 221.8 733.77 221.33 731.85 218.97 731.83 216.88 731.19 216.48 731.18 215.16 731.82 214.73 731.81 212.11 731.78 208.36 731.75 208.34 728.84 208.36 727.66 208.42 726.66 208.27 724.46 207.2 724.45 204.59 725.35 204.58 725.35 206.32 728.6 207.48 728.6 207.1 728.8 206.72 729.71 205.39 730 205.05 731.16 204.48 740.21 204.45 740.22 204.47 740.88 207.68 741.68 207.35 741.87 206.55 741.35 206.48 741.09 206.09 741.06 205.94 741.12 205.59 741.28 205.25 741.38 204.94 741.03 203.37 740.9 203.16 740.54 203.07 740.41 202.63 740.77 202.55 740.88 202.59 741.29 202.89 741.85 203.14 742.31 203.18 744.08 202.79 744.51 202.64 745.15 202.21 745.25 202.08 745.43 201.62 745.83 201.51 746.14 201.52 747.87 201.45 748.53 201.36 748.92 201.5 750.24 201.36 750.64 201.58 751.87 202.16 754.43 202.9 755.92 203.19 756.43 202.81 757.63 203.1 758.04 203.02 758.34 203.07 758.5 203.17 758.98 203.24 759.47 203.25 759.95 202.56 760.8 202.11 763.35 202.04 763.94 202 763.4 200.69 763.09 200.16 763.5 200.12 764.79 200.13 765.13 200.11 765.56 199.98 765.65 199.9 765.7 200 766.59 200.05 766.62 200.14 766.57 200.62 766.59 200.82 767.19 201.75 767.2 201.93 766.69 204.33 766.58 204.69 766.24 205.19 764.27 207.15 761.8 208.93 760.16 210.22 759.99 210.44 759.38 212.06 759.02 212.56 758.52 212.88 757.75 213.17 757.24 213.4 756.77 213.69 756.5 213.92 755.48 214.82 753.54 216.52 752.86 217.11 752.65 217.12 753.76 217.76 754.47 218.11 754.97 218.29 755.41 218.41 756.11 218.54 758.34 218.91 758.58 218.96 759.1 219.47 Z M 747.43 231.26 747.28 231.42 749.38 232.71 749.74 232.92 750.06 232.81 750.6 232.56 751.18 232.22 751.01 232.1 748.26 230.42 747.43 231.26 Z" fill-rule="evenodd" class="1" id="인천광역시 연수구"/>
<path d="M 696.63 229.03 696.42 229.5 696.51 229.77 696.4 229.92 696.08 230.06 695.91 230.07 695.29 229.98 695.13 229.9 695.09 229.43 695.27 229.02 695.52 228.99 695.83 229.04 696.4 229.04 696.99 228.63 696.63 229.03 Z M 670.48 228.1 670.68 228.35 670.54 228.66 670.34 228.82 670.1 228.87 669.83 228.77 669.58 228.52 669.46 228.16 669.68 228.11 670.32 228.06 670.48 228.1 Z M 670.97 225.2 670.45 225.03 669.9 224.81 669.77 224.58 669.86 224.17 670.3 223.69 670.69 223.49 671.27 223.32 672 223.29 672.18 223.46 671.92 224.78 671.34 225.14 670.97 225.2 Z M 669.08 212.42 669.54 212.28 669.91 212.26 670.22 212.35 670.31 212.64 670.02 212.94 669.71 213 669.09 212.89 668.47 212.68 667.95 212.38 668.17 212.17 668.44 212.14 668.86 212.36 669.08 212.42 Z M 651.52 215.84 651.42 215.83 651.14 215.63 650.97 215.44 650.89 214.89 651.04 213.33 651.15 213.13 652.5 212.16 652.91 212.12 653.98 212.29 653.67 213.12 652.86 213.68 652.11 215.07 652.14 215.18 651.62 215.79 651.52 215.84 Z M 660.27 210.88 660.34 211.44 660.29 211.75 661.11 212.92 661.72 213.14 662.9 213.67 663.31 214.06 663.25 214.21 663.34 214.85 663.61 215.08 664.5 215.7 665.24 216.46 665.69 216.98 666.06 217.52 666.7 217.96 668.69 219.06 670.11 219.52 670.39 219.75 670.4 220.85 670.3 220.99 669.35 221.24 668.47 221 668.28 220.88 667.91 220.85 667.83 220.98 667.93 221.27 668.27 221.64 669.04 221.93 669.59 222.06 669.89 222.1 669.94 222.24 669.8 222.77 669.66 223.01 669.53 223.07 668.63 223.33 667.78 223.38 667.6 223.51 667.46 223.75 667.37 224.51 667.4 224.68 667.7 224.81 668.07 224.54 668.22 224.22 668.38 224.32 668.25 224.55 667.49 225.47 666.72 225.73 665.65 225.76 664.68 225.92 663.96 226.35 662.44 226.89 661.91 227.03 661.21 227.13 660.78 227.04 660 226.6 658.58 225.24 657.62 224.26 657.62 224.21 658.15 223.69 658.54 223.48 658.54 222.75 658.1 221.57 658.05 221.32 658.21 220.82 658.52 220.62 658.51 220.42 658.25 219.29 658.15 219.04 657.04 217.58 656.94 217.48 656.5 217.27 654.81 217.21 654.61 217.27 654.51 217.51 654.31 217.54 653.98 217.5 653.85 217.43 653.62 216.96 653.87 216.46 654.51 215.92 654.61 215.88 655.16 215.89 655.25 215.84 655.56 214.82 655.65 213.52 656.04 213.27 656.39 212.96 656.63 212.64 657.11 211.76 657.17 211.31 657.02 211.06 656.8 211.1 656.67 211.02 656.67 210.8 656.94 210.44 657.98 209.73 658.12 209.69 658.4 209.78 659.04 210.13 660.27 210.88 Z M 661.46 206.47 661.22 206.61 660.96 206.88 660.97 207.73 661.12 208.07 660 208.29 659.83 208.26 659.61 208.05 659.49 207.46 659.73 206.98 661.46 206.47 Z M 661.46 206.47 661.68 206.35 662.04 206.27 661.46 206.47 Z M 640.31 192.6 640.27 192.79 639.99 193.19 639.55 193.49 639.53 193.68 640.15 194.25 640.62 194.28 640.23 194.57 639.92 194.57 639.72 194.47 639.02 193.81 638.9 193.54 639.06 193.3 640.12 192.58 640.26 192.54 640.31 192.6 Z M 734.37 183.78 735.7 184.81 736.72 184.54 738.31 185.22 738.53 185.36 739.69 186.26 740.91 187.37 741.38 187.91 741.59 188.09 742.48 188.64 743.01 188.89 743.81 189.35 744.08 189.47 744.04 189.77 743.66 190.53 742.93 190.88 742.08 191.95 741.14 193.44 740.18 194.69 739.15 195 738.95 195.21 739.07 195.65 738.78 196.52 739.56 200.69 740.05 203.34 739.63 203.35 736.54 203.35 732.53 203.36 732.44 203.43 732.14 203.45 731.95 203.28 732.39 202.59 732.49 202.57 733.09 201.61 733.41 200.62 733.27 200.39 731.6 199.7 731.09 199.29 731.86 198.09 734.31 199.1 735.05 197.96 732.11 196.77 732.23 196.51 733.22 194.95 733.29 194.89 732.21 194.46 732.09 194.64 729.68 198.42 729.28 199.07 728.61 200.28 726.13 200.29 725.73 199.09 725.72 197.86 725.73 196.25 727.08 196.24 727.11 195.91 727.05 195.69 726.59 194.98 725.81 194.25 726.12 194.05 726.92 194.41 727.41 194.48 727.68 194.45 728.86 193.91 729.4 193.56 729.26 192.59 728.99 192.27 728.28 192.44 727.64 192.79 727.56 192.9 727.17 193.25 726.41 193.52 725.47 193.05 725.51 193.03 726.3 193.43 726.66 193.09 726.63 190.97 726.66 190.82 728.09 190.51 728.37 190.36 729.97 190.65 729.87 191.04 729.18 192.05 729.45 192.35 732.67 191.51 737.08 193.22 737.42 192.7 735.37 191.9 735.65 191.46 737.69 192.25 738 191.75 733.43 189.98 733.81 189.35 737.02 190.6 737.38 189.98 733.93 188.64 732.76 186.11 731.75 186.36 730.8 186.64 730.77 186.69 731.85 189.03 731.16 189.73 730.44 190.07 729.59 190.32 728.28 190.08 726.56 188.82 726.42 188.66 726.4 188.45 726.68 187.6 726.79 187.31 727.5 185.91 728.48 184.43 730.54 182.77 731.18 182.59 731.49 183.21 731.81 184 729.91 184.58 730.12 185.03 732.65 184.3 732.94 184.13 733.8 183.89 734.37 183.78 Z M 725.09 179.09 723.69 178.99 723.34 178.88 723.06 178.6 723.04 178.47 723.9 178.26 724.32 178.26 724.47 178.32 725.3 178.95 725.09 179.09 Z M 662.04 206.27 662.34 206.17 662.36 205.93 662.15 204.92 661.9 204.25 661.71 203.84 661.02 202.62 660.31 201.74 659.88 201.29 659.59 201.04 659.06 200.65 658.52 200.34 658.26 200.25 657.52 200.2 657.14 200.44 657.05 200.54 656.98 200.81 657.08 201.04 656.79 201.39 655.68 202.12 655.54 202.11 655.15 201.94 655.03 201.72 655.01 201.51 655.12 201.36 655.89 200.5 656.33 200.33 656.64 200.11 656.6 199.83 656.45 199.57 655.95 199 655.52 198.62 654.98 198.25 654.42 197.91 653.76 197.61 653.33 197.46 652.87 197.62 651.49 198.51 649.65 199.51 649.08 199.54 647.96 199.83 648.52 201.01 648.08 201.29 647.45 200.23 647.36 199.71 647.09 199.44 646.61 199.09 646.14 199.04 645.81 199.25 645.41 199.33 644.91 199.31 643.35 199.18 643 199.14 642.08 198.93 641.99 198.71 642.09 198.63 643.23 198.07 643.47 197.99 644.08 198.19 644.36 198.18 644.58 197.95 644.75 197.68 644.78 197.13 644.73 196.93 644.34 196.64 644.06 196.66 643.92 195.69 644.05 195.27 644.06 194.84 643.87 194.17 643.66 193.79 643.46 193.56 643.23 193.39 642.96 193.27 642.34 193.13 642.4 193.45 642.57 193.62 642.34 193.74 641.74 193.57 640.81 193.16 640.31 192.6 640.26 192.54 639.39 191.58 639.15 191.2 638.81 189.69 638.85 189.51 639.08 188.9 640.16 187.61 640.34 187.47 640.7 187.3 642.01 187 642.62 186.99 643.49 187.28 643.91 187.73 645.05 188.02 645.37 188.04 645.87 187.82 648.48 186.35 650.22 185.36 655.27 182.51 660.3 179.67 661.16 179.17 661.67 178.92 662.15 178.81 665.74 178.51 668.11 178.29 668.93 178.23 669.9 178.3 671.46 178.18 674.3 177.84 674.37 177.92 675.57 178.04 679.93 178.2 680.81 178.22 681.19 178.21 682.14 178.08 682.83 177.88 687.87 175.7 689.29 175.08 689.59 174.9 689.71 174.63 690.42 172.93 690.23 172.92 689.84 172.79 689.84 172.71 690.02 171.57 690.46 168.25 690.55 168 691.09 166.78 691.44 166.49 691.74 166.48 691.96 166.58 692.22 166.44 692.56 165.94 692.76 166.21 692.72 166.55 693.27 166.54 694.63 166.03 696.07 165.37 697.22 165.31 697.86 165.45 697.9 165.51 698.04 166.33 698.12 166.39 699.08 166.52 699.92 166.65 701 167.81 701.03 167.92 700.77 168.66 700.85 168.7 702.46 169.14 702.64 168.82 702.91 168.75 703.36 168.81 705.24 169.4 707.04 170.14 706.84 170.59 706.91 170.64 708.87 171.35 711.45 171.17 714.43 172.15 715.04 172.37 715.42 172.55 715.82 172.97 716.99 174.9 717.91 175.5 718.54 175.56 718.85 175.68 719.67 176.32 719.83 176.47 721.1 180.17 721.76 180.68 721.88 180.94 721.81 181.68 721.4 181.56 720.42 181.78 720.2 181.86 719.57 182.2 717.44 183.45 716.94 183.85 716.52 184.43 716.15 184.82 715.78 185.09 715.25 185.31 714.77 185.43 713.33 185.74 713.21 185.73 710.47 186.32 710.05 186.4 708.95 186.53 708.09 186.57 706.62 186.56 705.8 186.58 705 186.66 704.51 186.75 703.61 186.97 702.85 187.23 702.07 187.56 699.56 188.66 699 188.88 698.3 189.1 695.73 189.8 694.12 190.24 693.67 190.46 693.28 190.73 691.86 191.87 689.53 193.76 689.28 193.98 688.93 194.37 688.39 195.21 687.36 196.74 686.36 198.04 686.02 198.03 685.34 198.38 682.51 199.97 678.35 202.32 676.88 203.16 676.57 203.37 675.84 203.79 673.46 205.15 670.94 206.55 670.41 206.71 670.14 206.72 669.31 206.6 668.36 206.43 665.15 205.97 664.24 206.13 663.28 206.46 662.9 206.52 662.62 206.48 662.3 206.22 662.04 206.27 Z M 692.24 162.78 692.44 162.92 692.85 162.78 693.09 162.95 693.15 164.09 693.1 164.21 692.86 164.19 692.06 163.11 692.14 162.8 692.24 162.78 Z M 719.86 164.02 719.16 164.15 719.18 167.01 719.67 167.48 720.11 167.77 720.44 167.78 720.7 167.94 721.09 168.28 721.89 169.13 721.75 169.21 720.7 168.83 719.73 168.15 719.65 167.93 719.33 167.7 719.19 167.66 719.21 169.38 719.19 170.04 714.86 170.07 712.92 170.06 712.87 170.04 711.76 168.77 710.78 167.68 710.55 167.45 710.36 167.52 708.07 169.31 708.06 169.49 707.91 169.61 707.69 169.47 707.62 169.14 708.35 168.59 709.86 167.5 712.7 165.34 713.81 164.41 714.55 163.85 715.72 163.15 716.19 162.92 719.56 161.86 719.68 161.93 719.9 162.25 720.07 162.57 720.09 163.01 719.92 163.88 719.86 164.02 Z" fill-rule="evenodd" class="2" id="인천광역시 중구"/>
<path d="M 789.52 188.09 791.69 188.01 792.02 188.21 792.56 188.12 793.34 188.07 793.23 188.45 793.22 188.72 793.48 188.96 793.79 189.34 793.93 190.25 793.75 190.59 793.46 191.63 793.29 193.47 794.15 194.21 793.99 194.79 793.64 195.64 793.35 195.64 791.71 195.84 790.94 196.27 790.59 196.58 790.46 196.94 790.72 197.17 790.75 197.33 790.11 198.88 790.78 200.96 790.79 201.34 790.76 201.58 790.52 202.1 790.66 203.01 790.6 203.21 790.05 204.24 789.44 204.48 788.34 204.77 787.52 204.68 787.5 204.48 786.81 204.67 786.21 204.86 784.22 205.99 784.88 207.63 784.86 207.75 784.06 208.23 784.01 208.3 783.66 210.22 783.59 210.34 782.49 211.57 781.24 211.9 781.07 212 780.63 212.42 780.72 212.79 780.91 213.35 779.75 214.61 779.07 215.33 778.96 215.41 778.44 215.43 778.13 215.57 777.03 216.55 776.61 216.98 774.41 219.25 772.6 220.64 772.53 220.68 771.02 221.17 770.22 221.07 767.59 220.63 764.55 220.11 762.86 219.7 760.35 219.28 759.36 219.13 759.1 219.47 758.58 218.96 758.34 218.91 756.11 218.54 755.41 218.41 754.97 218.29 754.47 218.11 753.76 217.76 752.65 217.12 752.86 217.11 753.54 216.52 755.48 214.82 756.5 213.92 756.77 213.69 757.24 213.4 757.75 213.17 758.52 212.88 759.02 212.56 759.38 212.06 759.99 210.44 760.16 210.22 761.8 208.93 764.27 207.15 766.24 205.19 766.58 204.69 766.69 204.33 767.2 201.93 767.19 201.75 766.59 200.82 766.57 200.62 766.62 200.14 766.59 200.05 765.7 200 765.65 199.9 765.84 198.51 765.46 198.49 765.06 198.42 763.48 197.99 762.87 197.68 762.28 197.24 762.58 197.07 762.17 196.64 762.07 195.96 762.11 195.53 762.68 195.56 762.91 194.39 762.96 193.96 762.76 193.84 762.76 193.29 762.82 192.86 763.12 192.38 763.37 192.1 763.75 191.91 762.17 190.66 761.71 190.27 761.15 190.24 759.94 190.12 760.11 189.09 759.05 188.9 759.56 188.14 759.73 187.89 760.55 188.42 762.42 188.81 763.51 189.3 763.88 189.4 765.87 189.58 765.95 189.58 767.19 188.96 767.68 188.97 767.7 188.51 767.82 188.08 768.14 187.05 768.24 186.57 768.74 185.1 769.09 186.02 769.87 186.35 770.49 186.4 771.03 186.69 771.24 186.85 772.06 187.7 772.42 188.13 772.5 188.33 772.79 188.68 773.37 188.75 773.69 188.76 774.27 188.69 774.48 188.61 775.72 187.9 776.07 187.63 776.22 187.71 777.09 188.08 778.35 188.33 778.69 188.42 779.36 188.65 780.06 188.96 780.28 189.37 780.44 189.84 780.63 190.01 781.13 190.05 781.22 190.11 781.23 190.43 781.6 190.65 782.24 190.32 782.66 190.26 783 190.28 783.51 190.49 783.9 190.61 784.35 190.53 784.59 190.37 785.31 189.6 785.61 189.06 786.19 188.94 787.54 188.78 788.9 188.83 789.25 188.49 789.5 188.19 789.52 188.09 Z" class="3" id="인천광역시 남동구"/>
<path d="M 786.8 168.98 786.9 169.71 786.91 170.58 786.74 171.2 786.89 171.67 786.79 171.96 786.47 172.09 785.59 171.98 785.55 171.78 785.33 171.71 784.34 171.61 783.78 171.78 783.82 172.06 783.76 172.17 783.05 172.53 781.63 172.22 781.42 172.31 779.97 174.55 780.22 175.43 780.43 176.32 780.74 177.09 780.75 177.25 780.56 178.01 780.19 179.09 780.04 179.79 780.14 180.66 780.26 181.38 780.3 181.99 780.26 182.55 780.49 182.69 781.57 183.04 782.08 183.13 782.74 183.2 783.03 183.1 783.83 183.38 784.44 183.63 785.06 184.02 784.99 184.35 784.85 184.74 786.38 186.2 786.83 186.41 787.49 186.52 788.57 186.83 789.28 187.39 789.47 187.7 789.52 188.09 789.5 188.19 789.25 188.49 788.9 188.83 787.54 188.78 786.19 188.94 785.61 189.06 785.31 189.6 784.59 190.37 784.35 190.53 783.9 190.61 783.51 190.49 783 190.28 782.66 190.26 782.24 190.32 781.6 190.65 781.23 190.43 781.22 190.11 781.13 190.05 780.63 190.01 780.44 189.84 780.28 189.37 780.06 188.96 779.36 188.65 778.69 188.42 778.35 188.33 777.09 188.08 776.22 187.71 776.07 187.63 775.72 187.9 774.48 188.61 774.27 188.69 773.69 188.76 773.37 188.75 772.79 188.68 772.5 188.33 772.42 188.13 772.06 187.7 771.24 186.85 771.03 186.69 770.49 186.4 769.87 186.35 769.09 186.02 768.74 185.1 768.24 186.57 768.14 187.05 767.82 188.08 767.7 188.51 767.68 188.97 767.19 188.96 765.95 189.58 765.87 189.58 763.88 189.4 763.51 189.3 762.42 188.81 760.55 188.42 759.73 187.89 759 187.43 761.37 185.4 761.43 184.87 761.27 184.56 761.13 184.13 761.14 183.92 761.96 183.21 762.55 183.05 762.9 183.1 763.04 183.24 764.59 183.26 764.62 183.1 764.53 182.75 763.85 181.28 763.48 181.19 763.17 181.04 762.83 180.78 762.69 180.55 762.82 180.38 761.84 180.52 762.12 179.47 761.32 178.83 760.72 178.29 760.78 178.06 761.06 177.83 761.27 177.77 761.55 177.57 761.9 177.16 761.67 176.62 761.47 176.39 760.6 175.87 760.3 174.62 759.95 174.45 759.96 173.65 759.83 173.2 758.66 172.47 758.65 171.56 759.71 169.84 760.12 169.55 760.82 169.17 761.32 169.17 766.59 169.13 776.89 169.05 777.57 169.05 782.62 169.02 786.8 168.98 Z" class="4" id="인천광역시 부평구"/>
<path d="M 786.8 168.98 782.62 169.02 777.57 169.05 776.89 169.05 766.59 169.13 761.32 169.17 760.82 169.17 760.21 168.21 760.18 167.95 760.21 167.6 760.18 167.35 759.98 166.58 759.34 166.5 758.54 166.39 758.37 166.01 758.55 165.64 758.86 165.22 758.78 164.93 759.1 164.77 760.4 164.65 761.23 164.69 761.54 164.66 761.71 164.58 762.04 164.24 761.91 163.83 761.85 163.37 762.09 162.76 762.88 162.49 763.94 162.4 764.64 162.95 766.62 162.5 767.08 162.48 767.42 162.15 767.86 160.81 768.02 160.4 768.51 159.71 768.99 158.96 769.15 158.57 768.76 158.12 767.55 157.31 766.89 157.03 766.06 157.15 765.57 157.21 765.06 156.77 764.65 156.38 764.6 156.23 765.62 155.64 765.95 154.35 765.93 154.12 765.25 154.08 764.84 153.95 764.21 153.06 764.18 152.6 764.5 152.26 764.76 151.93 765 151.54 764.45 151.03 763.98 150.87 763.77 150.91 763.38 150.87 759.61 150.03 758.56 149.57 758.03 148.9 757.84 148.56 757.96 148.05 758.23 147.8 758.23 147.36 758.16 147.23 759.25 147.04 759.72 147.09 760.03 147.19 760.25 147.32 760.68 147.48 761.05 147.56 762.32 147.71 762.91 148.01 763.92 148.06 764.87 148.23 768.36 148.98 769.7 149.43 770.13 149.17 770.77 148.68 771 148.47 771.29 147.88 771.42 147.52 771.25 147.11 771.13 146.71 771.28 146.14 771.44 145.82 772.66 144.84 772.9 144.67 773.6 144.29 774.02 144.23 774.08 144.23 774.07 144.23 774.72 144.22 775.69 144.11 777.08 144.54 777.57 144.67 778.02 144.73 778.19 144.56 778.16 144.24 778.2 143.83 778.29 143.76 779.02 143.57 779.16 143.84 779.98 144.16 781.13 144.68 782.03 146.09 782.69 146.79 782.9 147.57 782.88 148.15 783.94 148.64 785.13 148.45 785.25 148.24 785.06 148.05 785.1 147.51 785.24 147.28 785.95 146.62 786.25 146.73 787.6 146.74 787.93 146.71 788.09 146.43 789.16 145.93 789.49 145.56 790.66 146.36 791.23 146.66 791.43 146.73 792.89 146.88 793.4 146.88 794.03 146.99 794.74 147.17 795.5 147.62 796.53 146.54 796.57 146.53 799 147.99 798.45 148.5 798.25 148.12 798.02 148.28 797.17 149.65 796.76 150.19 795.91 150.44 794.88 150.9 794.78 151.06 794.48 152.15 794.39 152.66 794.16 152.97 792.9 153.54 792.32 153.2 792.37 153 792.31 152.87 792.08 153.06 792.08 153.2 792.2 153.6 792.29 153.75 792.92 154.52 793.2 155.59 793.24 155.81 793.03 155.75 792.57 155.19 792.36 155.2 791.51 156.13 790.6 156.89 790 156.92 789.35 157.1 788.35 157.53 788.37 157.63 788.96 157.97 789.07 158.38 788.14 160.37 788.01 160.51 787.25 163.01 786.99 163.51 786.8 165.4 786.78 165.77 786.77 167.61 786.77 168.7 786.8 168.98 Z" class="5" id="인천광역시 계양구"/>
<path d="M 723.26 159.92 723.84 159.96 724.07 160.09 724.22 160.32 724.28 160.57 724.26 160.75 724.03 160.82 723.77 160.8 722.67 160.19 722.55 160.04 723.15 159.91 723.26 159.92 Z M 712.15 148.95 712.48 149.03 713.02 149.6 713.25 149.78 714.21 150.28 715.58 150.7 717.19 151.01 717.72 151.22 717.83 151.35 717.83 151.54 717.4 152.1 716.96 152.24 713.21 151.2 713.1 151.15 711.93 150.24 711.83 149.86 711.97 148.97 712.15 148.95 Z M 774.06 144.23 774.08 144.23 774.07 144.23 774.06 144.23 Z M 774.06 144.23 774.02 144.23 773.6 144.29 772.9 144.67 772.66 144.84 771.44 145.82 771.28 146.14 771.13 146.71 771.25 147.11 771.42 147.52 771.29 147.88 771 148.47 770.77 148.68 770.13 149.17 769.7 149.43 768.36 148.98 764.87 148.23 763.92 148.06 762.91 148.01 762.32 147.71 761.05 147.56 760.68 147.48 760.25 147.32 760.03 147.19 759.72 147.09 759.25 147.04 758.16 147.23 758.23 147.36 758.23 147.8 757.96 148.05 757.84 148.56 758.03 148.9 758.56 149.57 759.61 150.03 763.38 150.87 763.77 150.91 763.98 150.87 764.45 151.03 765 151.54 764.76 151.93 764.5 152.26 764.18 152.6 764.21 153.06 764.84 153.95 765.25 154.08 765.93 154.12 765.95 154.35 765.62 155.64 764.6 156.23 764.65 156.38 765.06 156.77 765.57 157.21 766.06 157.15 766.89 157.03 767.55 157.31 768.76 158.12 769.15 158.57 768.99 158.96 768.51 159.71 768.02 160.4 767.86 160.81 767.42 162.15 767.08 162.48 766.62 162.5 764.64 162.95 763.94 162.4 762.88 162.49 762.09 162.76 761.85 163.37 761.91 163.83 762.04 164.24 761.71 164.58 761.54 164.66 761.23 164.69 760.4 164.65 759.1 164.77 758.78 164.93 758.86 165.22 758.55 165.64 758.37 166.01 758.54 166.39 759.34 166.5 759.98 166.58 760.18 167.35 760.21 167.6 760.18 167.95 760.21 168.21 760.82 169.17 760.12 169.55 759.71 169.84 758.65 171.56 758.66 172.47 759.83 173.2 759.96 173.65 759.95 174.45 760.3 174.62 760.6 175.87 761.47 176.39 761.67 176.62 761.9 177.16 761.55 177.57 761.27 177.77 761.06 177.83 760.78 178.06 760.72 178.29 761.32 178.83 762.12 179.47 761.84 180.52 762.82 180.38 762.69 180.55 762.83 180.78 763.17 181.04 763.48 181.19 763.85 181.28 764.53 182.75 764.62 183.1 764.59 183.26 763.04 183.24 762.9 183.1 762.55 183.05 761.96 183.21 761.14 183.92 761.13 184.13 761.27 184.56 761.43 184.87 761.37 185.4 759 187.43 759.73 187.89 759.56 188.14 759.3 187.78 758.71 187.48 757.91 187.35 757.85 187.4 755.39 186.68 755.42 186.19 754.24 185.83 752.55 184.56 751.71 183.95 750.92 183.51 743.12 179.32 742.86 179.38 743.09 179.21 743.05 178.7 742.64 178.4 742.65 176.23 739.47 176.22 739.47 177.61 737.95 178.77 736.55 179.14 729.89 179.28 729.82 178.44 729.83 175.9 729.93 173.52 729.6 173.32 729.24 172.76 728.97 171.8 729.24 171.63 729.21 167.95 732.26 167.94 732.21 167.65 731.57 167.62 729.23 167.63 729.2 167.61 729.19 165.62 727.97 165.63 727.77 164.48 727.77 163.6 730.04 163.59 730.07 163.27 727.74 163.28 727 160.04 727.56 159.37 728.57 159.05 729.66 158.68 730.62 158.29 730.89 157.9 730.66 157.86 728.63 156.4 728.92 155.99 728.63 155.32 726.22 155.33 725.4 155.54 724.67 155.01 724.07 154.42 723.34 153.43 724.12 152.28 722.02 149.49 719.03 145.52 724.65 144.12 725.2 143.95 725.14 143.82 727.55 142.62 728.73 142.11 729.55 141.63 730.22 141.17 730.81 140.65 731.69 139.61 733.47 138.97 733.9 139.19 734.06 139.66 734.25 139.91 734.41 139.97 735.47 139.98 735.87 139.92 736.51 140.19 736.73 140.36 737.6 139.96 738.38 138.93 738.94 137.4 739.53 136.42 739.75 136.19 739.96 135.75 740.05 135.42 739.93 135.13 739.98 134.83 740.35 134.38 740.55 134.24 740.93 134.11 741.56 133.83 741.59 133.79 741.88 132.14 741.82 131.52 742.52 131.3 743.65 131.01 744.54 130.86 744.92 130.9 745.16 131.13 745.44 131.24 745.61 130.71 746.65 129.36 747.05 128.44 747.14 127.96 747.05 127.66 747.96 127.32 748.54 127.42 749.21 127.41 750.3 127.64 750.75 127.89 751.15 127.85 751.5 128.06 751.84 128.14 752.15 128.04 752.7 128.15 754.69 128.91 755.32 129.57 755.36 129.88 755.52 130.36 755.99 130.47 756.75 130.51 757.14 130.47 757.71 130.88 757.78 131.22 758.32 132.06 758.49 132.22 758.82 132.06 760.7 133.23 761.67 133.45 762.74 133.84 763.84 134.75 764.74 135.57 764.84 135.76 765.1 136.06 766.25 136.85 766.5 137 766.76 136.87 767.03 137.66 767 138.46 766.88 138.66 766.64 138.88 766.23 139.57 766.24 139.91 766.3 140.18 766.48 140.36 767.3 139.96 767.55 139.77 767.84 139.47 768.27 139.39 768.88 139.44 769.9 139.86 770.54 140.65 770.56 140.95 770.72 141.45 771.07 141.72 771.42 141.89 772.82 142.8 773.64 143.72 774.06 144.23 Z" fill-rule="evenodd" class="6" id="인천광역시 서구"/>
<path d="M 755.39 186.68 757.85 187.4 757.91 187.35 758.71 187.48 759.3 187.78 759.56 188.14 759.05 188.9 760.11 189.09 759.94 190.12 761.15 190.24 761.71 190.27 762.17 190.66 763.75 191.91 763.37 192.1 763.12 192.38 762.82 192.86 762.76 193.29 762.76 193.84 762.96 193.96 762.91 194.39 762.68 195.56 762.11 195.53 762.07 195.96 762.17 196.64 762.58 197.07 762.28 197.24 762.87 197.68 763.48 197.99 765.06 198.42 765.46 198.49 765.84 198.51 765.65 199.9 765.56 199.98 765.13 200.11 764.79 200.13 763.5 200.12 763.09 200.16 763.4 200.69 763.94 202 763.35 202.04 760.8 202.11 759.95 202.56 759.47 203.25 758.98 203.24 758.5 203.17 758.34 203.07 758.04 203.02 757.63 203.1 756.43 202.81 755.92 203.19 754.43 202.9 751.87 202.16 750.64 201.58 750.24 201.36 748.92 201.5 748.53 201.36 747.87 201.45 746.14 201.52 745.83 201.51 745.43 201.62 745.25 202.08 745.15 202.21 744.51 202.64 744.08 202.79 742.31 203.18 741.85 203.14 741.29 202.89 740.88 202.59 740.77 202.55 740.41 202.63 740.54 203.07 740.05 203.34 739.56 200.69 738.78 196.52 739.07 195.65 738.95 195.21 739.15 195 740.18 194.69 741.14 193.44 742.08 191.95 742.93 190.88 743.66 190.53 744.04 189.77 744.08 189.47 743.81 189.35 744.49 188.87 744.83 188.74 746.61 188.9 747.51 188.62 747.45 187.55 747.38 187.41 746.98 187.24 747.25 186.55 747.47 186.64 747.96 185.71 747.59 185.24 747.6 184.43 748.32 183.6 749.8 184.14 752.19 185.34 753.92 186.23 755.31 186.66 755.39 186.68 Z" class="7" id="인천광역시 미추홀구"/>
<path d="M 499.8 138.71 499.98 139 498.76 138.92 498.71 138.86 498.62 138.43 498.81 138.11 499.44 137.38 500.17 136.99 500.55 137.06 500.86 137.29 501.27 137.76 501.21 138.01 501.03 138.16 500.17 138.28 499.85 138.46 499.8 138.71 Z M 607.51 122.58 607.31 122.51 607.14 121.8 607.16 121.75 607.66 121.51 607.99 121.81 607.79 122.26 607.51 122.58 Z M 595.39 121.67 596.36 122.28 598.56 122.12 600.14 121.76 600.63 121.72 601.6 121.74 602.6 122.35 602.85 122.65 602.83 123.01 602.47 123.04 602.08 123.23 601.82 123.5 601.68 124.28 601.51 125 601.31 125.52 601.25 125.56 600.81 125.54 600.64 127.1 600.67 127.47 601.17 129.04 601.4 129.41 601.89 129.76 602.35 129.94 604.09 130.54 604.64 131.01 604.95 131.83 604.97 131.99 604.8 132.09 604.54 132.06 604.51 131.84 604.55 131.6 604.36 131.45 602.66 130.59 601.54 130.41 600.74 130.23 599.64 129.91 598.94 129.65 597.86 129.08 596.21 128.06 594.64 126.98 594.36 126.74 593.72 125.98 591.87 123.5 591.43 122.83 590.84 122.42 590.53 122.31 590.42 121.95 590.4 121.65 590.6 121.54 591.13 121.77 591.45 122.17 592.31 122.57 592.98 122.14 593.47 121.76 593.59 121.42 593.43 121.18 593.47 121.06 593.71 120.98 594.07 120.94 594.4 120.98 595.2 121.35 595.39 121.67 Z M 594.56 118.8 594.84 118.83 595.65 118.8 594.39 119.49 592.83 119.48 591.65 119.7 590.64 119.71 590.32 118.17 590.21 117.36 590.26 117.33 591.08 117.25 592.24 117.84 592.87 118.21 593.89 118.64 594.56 118.8 Z M 580.32 110.31 580.51 111.32 580.57 111.47 581.1 112.41 581.43 112.85 582.64 114.2 583.87 115.88 585.27 116.83 585.71 116.9 585.39 117.95 584.69 118.47 584.19 118.88 583.83 119.38 583.72 119.59 583.93 120.47 582.1 120.03 580.06 119.6 579.73 119.68 579.44 120.03 578.88 120.31 578.39 120.24 578.12 120.09 578.34 119.86 578.84 119.78 579.35 119.35 579.39 119.01 579.17 118.55 578.68 117.94 578.45 117.72 577.73 117.26 576.61 116.57 575.51 116.03 574.5 115.57 574.17 115.47 572.68 115.73 570.67 116.09 570.51 116.17 570.46 116.36 570.55 116.9 570.28 116.83 569.83 116.61 567.77 115.55 567.58 115.31 567.36 114.87 566.98 114.8 566.12 114.73 566.01 114.7 565.62 113.29 565.62 113.21 565.97 113.06 566.18 113.09 566.14 113.44 566.28 113.57 566.69 113.7 567.15 113.67 567.7 113.49 568.08 113.1 569.63 112.72 570.51 113.02 571.4 113.37 572.2 113.31 572.83 113.23 576.14 111.6 577.29 110.68 577.98 110.62 578.34 110.4 579.16 109.72 579.52 109.35 579.37 109.15 579.48 109.03 579.9 108.97 580.07 109.02 580.56 109.04 580.63 109.16 580.55 109.45 580.38 109.79 580.32 110.31 Z M 645.7 108.07 645.41 108.13 644.69 108.05 644.07 107.74 643.8 107.21 643.98 106.93 644.91 106.88 645.73 107.36 645.87 107.51 645.9 107.85 645.7 108.07 Z M 559.67 109.92 559.93 109.94 560.16 109.78 560.56 109.79 561.23 110.02 561.37 110.13 561.65 111.1 561.74 111.5 561.46 111.58 559.77 111.79 558.01 111.14 556.86 110.69 556.38 110.64 556.06 110.76 556.04 110.94 555.36 111.35 555.2 111.13 554.9 110.54 553.65 109.66 553.65 109.38 553.86 108.43 553.97 108.3 554.62 107.75 555.3 107.58 555.78 108.1 556.25 108.16 556.81 108.16 557.35 108.75 558.17 109.47 558.66 109.7 559.67 109.92 Z M 629.24 99.92 629.44 99.96 629.55 99.79 629.85 99.82 630.01 100.05 629.85 100.41 629.75 100.52 628.77 100.61 628.33 100.6 627.86 100.56 627.64 100.37 627.6 100.2 627.72 99.94 628.01 99.7 628.26 99.61 628.61 99.61 628.76 99.73 629.24 99.92 Z M 586.41 98.26 585.92 98.28 585.84 98.24 585.81 96.57 585.93 96.43 586.16 96.5 586.26 96.67 586.48 96.83 586.65 97.27 586.8 97.98 586.76 98.1 586.41 98.26 Z M 599.62 98.01 599.99 97.98 599.97 98.19 599.6 98.45 597.81 98.67 596.42 98.81 593.88 98.91 593.38 98.64 592.68 98.33 592.37 98.23 592.09 98.19 591.79 98.24 590.25 98.04 589.98 97.97 589.08 97.62 588.79 97.35 588.77 97.09 589.74 96.7 590.51 96.63 590.76 96.54 591.05 96.02 592.15 94.23 593.46 92.99 593.33 92.9 593.38 92.72 593.88 92.61 594.82 92.9 595.19 93.32 595.38 93.83 595.21 94.17 596 96.8 598.39 97.63 599.62 98.01 Z M 607.03 94.56 607.55 95.3 607.36 95.56 606.4 95.74 606.17 95.74 604.48 95.17 604.04 95.57 603.87 95.66 603.4 95.61 603.19 95.38 603.37 94.34 603.16 93.16 603.19 92.98 603.43 92.47 604.39 92.11 604.8 91.59 605.54 90.91 606 90.79 606.25 91.37 606.43 92.39 607.03 94.56 Z M 611.89 87.81 611.57 88.07 611.26 87.99 611.28 87.72 611.44 87.5 612.5 86.75 612.74 86.7 613.66 86.83 613.83 87.09 613.58 87.28 613.25 87.3 612.19 87.47 612.07 87.68 611.89 87.81 Z M 629.44 87.85 629.21 88.26 628.24 88.93 627.65 89.4 627.34 89.69 626.24 91.24 626.36 91.28 626.39 91.66 625.56 93.66 625.36 93.81 624.92 96.26 624.83 97.51 624.9 98.48 625.25 99.51 625.36 99.71 625.7 100.17 625.99 100.49 626.78 101.22 626.99 101.4 628.21 101.95 628.94 101.92 629.61 102.58 629.85 102.86 631.36 104.22 632.63 104.99 632.93 105.16 634.27 105.69 636.23 106.1 638.24 106.24 639.38 106.67 640.79 106.74 641.53 106.35 641.67 106.33 642.85 106.74 643.31 106.94 643.13 107.13 643.01 107.41 643.05 107.89 643.61 108.42 644.3 108.6 645.09 108.88 645.96 109.28 646.34 109.6 646.54 109.82 647.41 111.01 647.47 111.21 647.42 111.73 647.31 111.88 646.85 113.22 646.64 114.06 646.56 114.66 646.59 114.9 646.14 116.11 645.93 116.49 645.35 117.24 644.56 117.94 644.14 118.12 643.98 118.14 643.54 118.06 642.44 118.41 641.05 119.12 640.52 119.71 640.35 119.97 639.26 120.95 638.14 121.42 637.77 121.17 636.15 122.62 636.08 122.63 634.25 122.81 634.41 123.71 634.84 124.78 634.81 125.08 634.04 125.48 632.63 125.08 632.63 124.19 630.94 122.62 629.13 121.88 628.62 121.5 627.98 120.61 627.61 119.54 628.26 118.88 628.76 118.46 629.1 115.65 627.93 114.87 627.39 114.42 625.97 112.3 625.5 111.35 624.23 110.38 623.96 110.22 622.42 109.56 619.97 108.77 616.69 107.57 614.51 106.48 613.82 105.88 613.66 105.59 613.75 105.31 613.75 104.81 613.42 104.52 612.74 104.02 612.2 103.7 610.1 102.52 608.11 101.44 607.51 101.04 607.41 100.87 608.43 100.26 609.48 100.35 609.83 100.56 609.96 100.92 610.2 101.07 611.01 101.33 611.49 101.42 612.05 101.48 613.75 100.12 614.07 99.66 614.15 99.48 614.23 98.93 614.08 98.83 614.1 98.21 614.3 97.38 614.53 96.68 614.81 95.67 614.7 95.44 614.57 95.31 614.17 94.29 614.5 92.64 614.76 90.39 614.58 89.36 614.62 89.2 615.88 88.45 617.37 88.16 618.63 88.14 619.74 88.05 620.52 87.84 620.87 87.71 622.51 87.03 624 86.16 624.94 85.67 625.18 85.62 626.12 85.64 626.43 85.74 627.23 85.88 627.39 85.94 629.41 87.23 629.47 87.68 629.44 87.85 Z M 606.32 62.68 608.22 63.39 610.15 64.14 612.46 65.34 613.05 65.6 614.37 66.13 615.03 66.3 616.37 66.83 616.47 67.33 616.68 67.62 617.78 67.45 618.54 67.25 618.79 67.1 619.58 67.19 623.45 67.52 624.15 67.36 626.43 66.69 626.88 66.35 627.18 65.81 627.1 65.54 627.18 65.33 627.4 65.25 627.72 65.38 628.67 66.13 628.88 66.47 629 66.9 629.27 67.37 629.49 67.63 630.34 68.38 630.8 69.38 630.03 69.98 629.64 70.48 629.7 71.35 629.83 71.66 630.05 72.03 629.95 72.22 628.2 73 627.74 73.38 625.87 75.51 624.96 76.98 624.07 77.86 622.51 78.36 620.68 79.08 619.13 79.82 618.71 80.05 615.81 81.15 615.57 81.5 615.47 81.72 615.26 81.81 615.02 81.73 613.73 80.65 612.65 80.1 611.51 79.7 610.82 79.62 608.42 79.55 606.69 80.01 604.86 80.55 604.15 81.2 603.85 81.32 603.45 81.21 600.42 80.78 599.88 80.85 599.66 80.94 599.47 81.3 598.03 81.86 597.59 81.47 597.37 81.55 596.9 82.11 596.84 82.21 596.98 82.61 597.14 82.75 596.93 83.41 596.79 83.66 596.51 83.95 594.13 86.08 594.04 86.11 593.65 86.02 591.81 85.22 591.23 84.9 590.11 84.19 589.77 83.79 589.81 83.68 589.74 83.43 587.46 81.63 587.3 81.52 584.83 79.82 584.29 79.85 583.88 79.75 583.71 79.29 583.66 78.51 584 78.1 585.2 77.83 585.97 77.7 587.13 76.95 588.04 76.23 588.11 76.14 588.38 75.42 588.89 74.33 589.27 74.08 589.82 73.57 590.18 73.03 590.35 72.47 590.43 71.34 589.74 71.13 589.43 71.1 589.06 70.8 588.93 70.1 588.96 69.83 589.57 69.34 590.04 69.04 590.82 68.19 590.71 67.73 590.4 67.28 590.55 66.42 592.11 65.45 592.98 64.98 594.28 63.98 594.92 63.31 596.08 62.31 596.88 61.94 597.01 61.97 597.51 62.19 597.87 62.52 598.93 62.85 599.17 62.9 602.83 62.91 603.96 62.58 604.41 62.38 604.83 62.1 605.35 61.8 605.64 61.76 606.32 62.68 Z M 669.31 59.27 670.24 60.1 670.76 60 671.25 60.24 671.38 60.33 671.48 60.95 671.46 61.22 672.59 62.43 673.73 63.69 673.65 63.84 674.63 64.57 675.48 65.16 676.79 65.96 677.07 66.11 678.58 66.8 679.93 67.52 680.5 67.99 681.31 68.57 683.57 69.99 687.2 71.99 688.73 72.48 690.41 72.98 690.58 73.17 691.21 73.05 691.35 73.06 692.89 73.75 693.62 74.17 694.21 74.7 694.41 75.05 694.7 75.68 694.73 76.21 694.65 76.42 694.66 76.98 694.89 77.53 695.17 77.83 695.42 77.99 695.91 78.41 696.24 78.78 696.38 79 695.75 80.03 695.43 80.21 695.53 81.1 695.82 81.85 695.91 82 696.93 83.35 698.08 84.84 698.78 85.63 699.23 86.05 700.11 86.75 700.57 86.97 700.86 86.78 701.08 86.98 701.34 87.38 701.36 87.49 701.21 88.02 700.65 89.57 700.77 89.73 700.85 90.1 700.77 90.26 700.43 90.57 698.85 92.15 698.54 92.56 698.24 92.88 698.09 92.89 697.85 93.52 697.6 93.87 697.07 94.72 696.85 95.15 696.72 95.61 696.27 98.56 696.29 99.06 696.49 99.64 696.78 100.32 697.02 100.78 697.83 101.87 698.42 102.1 698.91 102.27 699.08 102.36 700.63 103.48 700.83 103.68 700.95 104.07 700.64 104.15 700.42 104.3 700.11 104.61 699.79 105.04 699.58 105.38 699.32 106.06 699.05 107.17 698.87 108.31 699 108.61 698.65 109.37 698.95 110.51 699.01 110.9 699 111.13 698.86 111.35 698.39 111.59 698.01 112.18 697.9 112.49 697.88 112.91 697.88 113.98 698.49 115.23 699.35 116.07 700.11 116.6 701.37 117.07 701.66 117.13 702.29 116.94 702.6 116.98 703.29 117.3 703.47 117.51 703.58 118.06 703.59 119.03 703.53 119.07 702.23 119.38 701.16 119.59 700.82 119.87 700.16 120.56 700.05 120.73 699.82 121.68 699.95 121.93 700.66 122.51 700.91 122.74 701.48 123.81 701.48 124.01 700.86 124.44 700.18 124.45 700.64 124.6 701.26 124.96 701.48 125.55 702.06 126.89 702.48 127.61 702.65 127.57 703.32 128.31 704.04 130.28 704.2 131.25 704.19 132.18 704.59 133.16 705.16 133.06 705.26 132.97 705.25 132.55 705.45 132.26 705.6 132.14 705.9 132.13 706.34 132.31 706.51 132.47 706.95 132.98 707.18 133.34 707.68 134.2 707.72 134.61 707.33 134.78 706.94 134.82 706.15 134.81 705.97 134.75 704.66 135.01 704.21 136.2 703.38 136.3 700.1 137.08 699.12 137.37 699.02 137.95 699.11 138.06 698.03 139.27 697.15 141.15 697.2 142.41 697.58 142.15 698.25 141.88 698.46 141.83 699.93 141.86 700.13 141.9 700.38 142.04 700.42 142.39 700.22 142.45 698.43 143.49 698.2 143.78 698.25 144.17 699.1 144.9 699.76 144.99 700.04 144.95 700.75 144.95 701.22 145.44 701.26 146.14 701.13 146.38 700.14 146.84 698.13 148.48 697.99 148.57 697.55 148.61 696.49 148.27 695.64 147.95 695.48 147.82 695.55 147.42 695.49 147.25 695 146.76 694.02 146.4 693.71 146.13 693.32 145.41 693.05 145.18 692.9 144.95 692.85 144.77 692.92 144.63 693.23 144.53 694.4 144.23 694.57 144.27 694.92 144.21 696.45 143.72 696.65 143.62 697.1 142.62 697.13 142.51 696.53 141.55 696.29 141.53 696.05 141.88 696.01 142.04 695.63 142.52 695.56 142.56 693.33 142.62 692.72 142.52 692.6 142.43 691.95 142.14 691.22 141.9 689.54 141.53 687.94 141.24 687.5 141.09 687 140.87 686.01 140.33 685.68 140.06 685.68 139.88 685.43 139.74 684.25 139.34 683.54 139.89 683.39 140.13 683.88 141.21 683.91 141.38 683.8 141.64 683.6 141.73 681.88 142.21 679.18 142.9 678.38 143.07 678.65 143.29 678.02 145.07 677.64 145.17 677.41 144.82 677.44 144.63 677.29 144.41 677.06 144.22 675.74 143.68 675.35 143.61 672.36 143.26 672.06 143.27 670.77 143.5 670.71 143.54 669.5 143.95 669.19 143.97 660.43 143.63 659.33 143.47 656.97 143.48 656.59 143.44 656.14 143.31 653.58 141.89 652.72 140.95 652.6 140.87 651.34 140.5 650.87 140.23 650.32 139.82 649.97 139.48 649.85 139.07 649.33 138.19 648.67 138.09 647.25 137.74 647.13 137.5 646.69 137.09 645.97 136.84 645.52 136.88 644.87 137.06 644.51 136.89 644.36 136.72 644.21 136.34 644.3 136.21 644.61 136.12 645.27 136.17 645.83 136.06 646.52 135.78 646.89 135.54 646.98 135.27 646.93 134.22 646.27 133.11 646.09 132.18 645.97 131.2 646 131.02 645.9 130.55 645.71 130.04 645.19 129.37 644.82 129.21 644.07 129.02 643.38 129.02 642.76 128.72 642.59 128.51 643.02 128.14 644.09 127.71 644.34 127.73 644.58 127.85 645.64 127.98 646.18 128 646.65 127.97 647.05 127.87 647.67 127.67 648.93 127.32 649.22 127.31 649.67 127.22 650.04 127.1 650.25 126.98 650.36 126.81 650.68 126.61 651.59 126.35 651.7 126.21 652.1 126.29 652.41 126.41 652.34 126.63 653.24 126.82 653.77 126.76 654.31 126.64 655.07 126.24 656.2 125.61 656.57 125.31 656.82 125 656.82 124.83 657.11 124.48 657.81 123.94 657.29 123.51 657.31 123.41 657.61 123.08 657.79 122.94 659.05 122.78 659.18 122.39 659.17 122.21 658.88 121.53 658.75 121.13 658.59 120.37 658.76 119.71 658.73 119.52 657.96 117.85 657.17 116.77 657.14 116.52 657.32 116.02 657.05 114.82 656.99 114.65 656.47 113.6 656.31 113.4 654.74 112.2 653.13 111 651.98 110.1 651.63 109.72 650.78 108.43 650.76 108.12 651.3 108.06 651.64 107.92 651.73 107.8 652.16 106.92 652.23 106.7 652.04 106.42 651.84 106.22 650.9 105.38 650.61 105.16 650.27 104.95 649.85 104.77 649.81 104.84 647.77 104.59 645.81 104.59 645.54 104.51 645.18 103.92 644.51 103.7 643.9 103.51 643.21 103.37 641.78 103.2 641.4 103.24 640.7 103.38 640.46 103.45 639.04 102.53 638.79 102.26 638.8 102.08 638.68 101.5 637.74 99.69 637.37 99.12 637.29 98.72 637.78 98.34 637.84 98.34 638.01 97.72 638.19 96.3 638.06 95.87 637.87 95.71 637.46 92.32 637.52 91.02 637.59 90.12 637.9 89.93 638.35 89.79 639.11 89.75 638.57 89.55 638.24 89.21 638.02 88.41 638.41 85.63 638.78 83.71 638.89 82.02 638.73 80.47 638.31 79.18 638.25 78.49 638.21 76.5 638.33 75.79 637.8 73.61 637.86 73.09 636.8 72.17 636.7 72.01 636.75 71.86 637.24 71.14 639.28 70.58 640.76 69.85 641.72 69.34 643.55 68.13 643.77 67.91 644.13 67.73 644.86 67.5 645.62 67.31 647.03 66.99 647.34 67.03 648.37 66.76 648.98 66.53 649.7 66.11 650.38 65.68 650.72 65.18 651 64.4 651.63 62.74 652.02 62.01 652.35 60.95 652.47 60.43 652.4 60.13 652.18 59.97 652.4 59.77 654.77 59.6 654.98 59.63 655.52 60.01 656.99 60.19 658.02 60.01 658.32 59.9 659.47 59.9 660.02 60.19 660.22 60.27 660.75 60.09 661.08 59.91 662.97 58.56 664.17 57.57 664.35 57.11 664.91 56.74 666.04 57.14 666.98 57.25 668.06 57.41 668.25 57.46 668.72 57.91 668.85 58.49 669.31 59.27 Z" fill-rule="evenodd" class="8" id="인천광역시 강화군"/>
<path d="M 430.99 387 430.88 386.91 430.74 386.37 430.89 386.01 431.04 385.79 431.2 385.74 431.87 386.09 431.96 386.17 431.9 386.34 431.16 386.93 430.99 387 Z M 442.4 374.4 442.23 374.27 441.99 373.2 441.98 372.78 442.32 372.31 442.8 372.02 443.27 372.23 443.46 372.54 443.5 372.95 443.42 373.3 442.57 374.28 442.4 374.4 Z M 445.92 372.75 445.46 372.53 445.39 372.21 445.54 372.04 446.05 371.7 446.18 371.8 446.13 372.59 445.92 372.75 Z M 517.39 347.6 517.3 347.46 517.43 346.65 517.59 346.59 518.83 345.96 518.87 346.05 518.7 346.28 518.63 346.52 518.36 346.91 518.22 347.31 517.39 347.6 Z M 504.1 345.54 504.11 345.58 504.72 345.57 505.72 346.28 506.84 346.67 506.98 346.78 507.04 347.16 506.97 347.69 506.51 347.85 505.63 348.98 505.56 349.15 505.77 349.55 506.08 349.94 506.59 350.32 507.04 350.53 507.58 350.45 508.33 350.31 508.61 350.09 508.74 349.85 509.92 349.57 510.45 349.61 510.44 349.75 509.9 349.68 509.39 349.81 508.92 350.12 508.14 350.76 508.4 351.02 509.16 351.3 510.35 351.62 510.93 351.73 511.52 351.63 512.1 351.4 512.28 351.23 512.67 350.54 513.77 350.55 514.29 350.53 515.02 350.36 515.53 350.02 515.68 349.84 515.69 349.62 516.16 349.23 516.5 349.01 516.69 349.01 516.78 349.2 514.86 351.13 513.84 351.46 513.19 351.6 512.57 351.84 511.17 352.53 510.85 352.77 510.66 352.99 510.66 353.2 510.43 353.47 509.48 353.85 509.36 353.88 508.21 353.98 507.86 353.99 507.29 353.86 506.82 353.67 506.27 353.36 506.15 353.11 506.08 352.57 506.15 352.04 506.36 351.84 506.56 351.55 506.51 351.34 506.11 351.11 504.42 350.38 503.4 349.73 503.21 349.46 502.64 348.91 501.22 347.96 501.23 347.33 501.69 346.49 501.66 345.98 501.96 345.6 503.95 345.44 504.1 345.54 Z M 519.17 345.72 519.04 345.54 519.11 345.25 519.41 344.74 519.56 344.72 519.77 344.82 519.88 345.08 519.44 345.53 519.17 345.72 Z M 497.47 338.98 496.68 338.84 496.6 338.75 496.76 338.15 496.84 338.02 497 338.01 497.15 338.3 497.68 338.67 497.63 338.87 497.47 338.98 Z M 507.12 336.17 507.23 336.27 507.7 336.2 508.42 337.07 509.11 338.5 509.12 338.63 508.92 338.89 508.25 339.24 507.9 339.28 506.67 339.14 506.24 338.55 506.24 338.38 506.14 337.32 506.26 336.79 506.41 336.5 506.73 336.27 507.12 336.17 Z M 488.54 336.82 488.3 336.88 487.75 336.51 487.38 336.15 487.47 335.76 488.24 335.25 488.7 335.22 488.91 335.34 488.96 335.48 489.04 335.96 488.65 336.72 488.54 336.82 Z M 506.47 335.72 506.19 335.91 506.02 335.88 505.86 335.66 505.82 335.19 505.84 334.95 505.99 334.72 506.29 334.49 506.95 334.45 506.99 334.86 506.89 335.24 506.77 335.47 506.47 335.72 Z M 514.9 336.07 514.55 336.53 513.81 337.07 513.51 337.17 513.26 337.03 513.19 336.81 513.22 336.52 513.33 336.34 513.53 336.23 513.68 336.29 514.05 335.97 514.09 334.39 514.17 334.22 515.22 333.56 515.34 332.71 515.44 331.71 516.41 331.53 516.7 331.71 516.84 331.88 516.75 332.36 516.49 332.54 515.95 333.68 516.39 335.02 515.47 335.28 515.12 335.45 514.94 335.59 514.83 335.88 514.9 336.07 Z M 513.85 331.95 513.61 331.82 513.48 331.39 513.56 331.17 513.77 331.23 514.56 331.75 514.43 331.87 513.85 331.95 Z M 504.88 331.01 504.54 330.95 504.39 330.5 504.74 330.19 504.9 330.18 505.47 330.43 505.01 330.95 504.88 331.01 Z M 509.16 329.86 509.09 330.12 508.92 330.29 508.72 330.32 507.96 330.07 507.5 330.17 507.35 330.43 507.29 330.87 507.5 330.93 507.7 331.29 507.57 331.37 506.85 331.34 506.54 331.24 506.29 331.08 506.17 330.92 506.06 330.61 506.09 330.45 507.17 330 507.64 329.86 508.08 329.75 508.7 329.66 509.04 329.73 509.16 329.86 Z M 509.31 328.54 508.58 328.34 508.47 328.06 508.45 327.72 508.58 327.68 508.92 327.69 509.4 327.91 509.54 328.17 509.53 328.45 509.31 328.54 Z M 493.99 327.8 494.35 327.74 494.69 327.58 495.13 327.55 495.65 327.71 496.87 328.27 497.06 328.79 497.28 329.54 497.07 329.58 496.84 329.5 496.13 329.66 496.01 329.84 495.99 330.52 495.96 330.71 494.56 330.26 493.13 329.2 492.84 328.74 492.53 328.6 492.01 328.68 491.53 328.9 491.83 329.16 491.88 329.6 491.39 330.62 491.97 331.85 492.23 332.68 492.04 332.98 491.42 333 491.14 332.91 491.05 332.8 491.06 332.62 490.87 332.59 490.51 332.76 490.42 332.9 490.99 333.87 491.29 334.15 491.58 334.89 491.62 335.17 491.58 335.58 491.4 335.77 490.84 335.86 490.69 335.82 489.34 335.14 489.16 334.68 488.95 334.24 488.91 334.08 489.03 334.02 489.71 334.07 489.76 334.04 489.84 333.02 489.43 332.41 489.58 332.23 489.62 332.07 489.53 331.95 489.26 331.84 489.05 331.89 488.95 332 488.84 332.57 488.66 332.66 488.36 332.63 487.85 332.44 487.51 331.48 487.44 330.84 487.46 330.68 487.6 330.5 487.88 330.52 488.66 330.49 489.51 330.13 489.6 330.07 489.88 328.73 489.34 328.09 489.27 327.95 489.48 327.67 489.92 327.56 490.44 327.32 490.52 327.19 490.47 326.65 490.33 326.45 490.57 326.24 490.82 326.19 491.08 326.32 491.45 326.59 491.69 326.67 493.3 326.81 493.81 327.67 493.99 327.8 Z M 540.4 321.55 540.77 322.96 541.96 323.82 542 323.96 541.49 325.11 540.1 326.97 539.79 327.11 539.34 327.02 538.53 327.62 537.5 328.74 536.69 329.6 536.29 329.8 535.72 329.9 534 329.98 533.69 329.92 532.47 329.1 531.88 328.06 531.78 327.83 531.94 327.54 532.66 326.76 532.98 326.45 533.43 326.23 533.43 325.82 533.38 325.15 533.28 325 533 324.8 532.52 324.67 531.75 325.22 531.36 325.65 531.18 325.68 531.06 325.57 531.04 325.25 531.15 324.85 531.28 324.64 531.63 324.41 531.76 324.41 533.01 323.09 533.43 322.47 533.28 322.32 533.39 321.64 533.52 321.2 533.73 321.21 533.99 321.35 534.1 321.5 534.06 321.74 534.28 321.86 534.94 322 535.65 321.9 537.14 321.44 537.6 321.13 537.72 320.86 538.13 320.82 538.24 320.85 539.14 320.94 540.25 321.17 540.4 321.55 Z M 618.68 314.47 618.33 314.44 617.86 314.18 617.76 313.95 617.84 313.66 618.46 313.6 618.91 313.14 619.07 313.15 619.35 313.28 619.43 313.41 619.37 313.65 618.68 314.47 Z M 517.51 311.57 517.76 311.98 518.06 312.57 518.01 312.78 517.41 314.64 517 315.21 516.78 315.21 516.53 315.09 515.73 314.43 515.54 313.69 515.68 312.43 515.82 312.18 516.52 311.75 516.74 311.68 516.92 310.84 517.14 311.02 517.51 311.57 Z M 618.72 309.47 619.68 309.65 619.76 309.58 620.19 309.7 620.83 309.98 620.99 310.14 621.31 310.77 621.43 311.63 621.45 312.07 621.29 312.42 621.06 312.42 620.44 312.25 620.56 311.82 620.45 311.49 619.99 310.63 619.82 310.42 619.56 310.39 618.77 310.18 618.24 309.51 618.26 309.3 618.39 309.29 618.72 309.47 Z M 517.94 311.19 517.9 311.15 517.45 309.85 517.29 309.3 517.34 308.75 517.52 308.68 517.76 309.34 518.28 310.46 518.25 310.68 518.08 311.02 517.94 311.19 Z M 610.05 307.98 610.39 308.14 610.39 308.34 609.97 308.83 609.85 308.81 608.56 307.17 608.27 306.54 608.12 306 608.14 305.9 608.35 305.79 609.8 305.4 610.18 305.32 610.35 305.35 610.52 305.65 610.5 305.73 609.72 306.91 609.68 307.29 609.7 307.64 609.96 307.94 610.05 307.98 Z M 627.03 303.9 627.36 304.04 627.36 304.32 627.03 304.89 626.9 305.07 626.74 305.13 626.47 305.1 625.19 304.69 625.25 304.46 625.4 304.4 626.84 303.92 627.03 303.9 Z M 510.09 304.1 509.3 304.63 509 304.66 508.87 304.43 509.1 304.13 509.52 304.2 509.76 304.07 509.86 303.88 510.06 303.79 510.16 303.97 510.09 304.1 Z M 513.07 303.69 513.57 305.48 513.6 305.8 513.38 306 513.03 306.18 512.8 306.2 512.59 306.09 512.04 305.18 512.08 304.77 511.96 304.27 511.79 304.1 511.39 304.03 511.15 304.06 511.06 303.95 511.88 303.35 512.56 303.16 512.85 303.17 513.06 303.29 513.07 303.69 Z M 618.05 297.35 618.27 297.32 620.37 297.72 620.68 297.91 621.03 298.01 621.26 298.01 621.63 297.91 622.14 297.63 622.59 297.44 622.89 297.54 623.5 297.9 623.53 298.52 623.79 298.98 625.81 300.4 626.89 300.91 627.24 301.04 627.07 301.72 626.42 302.3 626.01 302.21 625.39 301.89 624.68 301.6 624.27 301.52 623.93 301.6 623.58 301.96 622.99 302.31 622.69 302.4 622.35 302.34 621.58 302.04 621.25 301.47 621.2 301.23 621.08 301.01 620.77 300.75 619.77 300.27 618.76 299.92 617.12 299.17 616.09 298.49 615.77 298.39 615.34 298.13 615.19 297.86 615.22 297.42 615.46 296.83 616.29 296.32 616.54 296.33 616.69 296.42 616.97 296.96 617.63 297.28 618.05 297.35 Z M 655.2 296.63 654.67 296.26 654.39 295.94 654.61 295.79 655.4 295.95 655.49 296.02 655.53 296.34 655.44 296.5 655.2 296.63 Z M 603.08 294.4 604.54 294.2 604.63 294.22 605.88 295.25 606.11 295.56 606.04 296.02 606.31 296.25 606.59 296.37 607.02 296.43 607.48 296.36 607.98 296.15 608.12 297.11 608.2 297.97 608.18 298.55 608.21 298.69 608.76 300.05 609.12 300.24 609.88 300.46 610.91 300.6 611.49 300.58 612.44 301.11 611.87 302.33 611.72 302.63 611.43 302.8 610.99 302.82 608.89 302.05 608.62 301.81 608.55 301.6 608.58 301.42 608.86 301.03 608.9 300.91 608.8 300.7 608.6 300.47 608.24 300.16 607.32 299.47 606.98 299.27 606.46 299.01 605.49 298.62 604.99 298.49 604.7 298.49 603.67 298.58 603.43 298.27 603.24 298.11 602.64 297.78 602.17 297.64 600.87 297.68 600.61 297.81 600.43 298.15 599.81 298.14 598.13 296.91 597.98 296.76 598.04 296.21 598.15 296 598.97 295.29 599.78 295.03 599.87 295.04 600.25 295.6 600.42 295.75 600.59 295.78 601.21 295.74 601.74 295.6 601.94 295.38 602 294.99 601.53 294.26 601.62 294.16 602.34 293.95 602.46 293.99 602.69 294.32 603.08 294.4 Z M 590.44 294 590.74 293.99 591.19 293.8 591.9 293.16 592.01 293.03 592.12 292.52 591.91 292.14 592.33 291.92 593.46 292.07 593.98 292.25 596.08 292.2 596.28 292.22 597.1 292.4 599.63 293.11 599.95 293.22 600.08 293.39 600.04 293.54 599.43 293.56 598.36 293.53 598.22 293.55 596.95 293.99 596.83 294.05 596.46 294.44 596.36 294.81 596.35 295.03 595.62 295.14 594.69 294.94 594.49 294.79 594.51 294.6 594.37 294.49 594.11 294.48 593.06 295 592.67 295.22 592.05 295.25 591.96 295 591.51 294.63 590.87 294.42 590.65 294.4 590.22 294.75 589.81 294.97 589.47 295.03 589.1 294.86 587.7 293.72 587.34 292.97 587.41 292.16 587.75 291.49 588.07 291.27 589.08 291.74 588.67 292.51 588.39 292.98 588.44 293.1 589.51 293.79 589.73 293.9 590.44 294 Z M 547.38 293.95 547.39 294.15 547.08 294.37 547.12 294.66 547.4 294.87 547.91 295.02 548.36 295.03 549.17 294.94 549.44 294.87 549.63 294.69 549.93 294.24 549.82 294.03 549.81 293.76 549.98 293.52 550.48 293.52 550.7 293.71 550.83 293.97 550.95 294.43 550.89 294.57 550 295.44 549.45 295.68 549.26 295.67 548.57 295.81 548.36 296.32 548.27 296.87 548.34 297.41 548.73 297.84 549.06 297.96 549.72 297.96 550.18 298.04 550.24 298.21 550.18 298.33 548.61 299.78 547.58 299.53 547.05 299.37 546.1 299.28 544.99 299.28 544.79 299.37 543.1 299.1 541.92 297.88 540.8 297.06 540.67 296.9 540 295.89 539.95 295.5 540.02 295.1 540.13 294.9 540.7 294.39 541.52 294.07 542.3 293.45 541.75 292.88 543.01 291.74 543.79 291.5 543.87 291.52 544.43 291.85 545.68 292.43 546.78 293.17 547.32 293.81 547.38 293.95 Z M 587.16 290.84 586.76 290.79 586.33 290.67 586.26 290.56 586.36 290.25 586.58 289.98 587.53 290.63 587.55 290.69 587.16 290.84 Z M 560.22 288.49 558.91 288.87 558.81 288.8 558.81 286.75 559.26 286.2 559.5 286.13 559.88 286.13 559.96 286.37 560.38 287.03 560.64 287.07 561.04 287.57 560.95 287.76 560.68 288.11 560.22 288.49 Z M 648.49 284.85 648.98 284.99 649.44 285 649.66 285.14 649.55 285.43 649.21 285.58 648.21 285.4 648.09 285.33 648.02 284.94 648.15 284.82 648.49 284.85 Z M 505.79 288.23 505.91 288.22 506.37 288 506.39 287.76 506.31 287.68 506.32 287.41 506.47 287.29 507.5 287.07 507.66 287.24 507.99 288.02 507.86 288.54 507.21 289.27 507.04 289.36 506.73 289.34 505.99 289.17 505.9 288.97 505.58 289.03 504.42 289.45 503.76 289.86 503.38 290.2 503.3 290.4 503.31 290.77 503.82 291.91 503.03 292.6 502.88 293 503.01 293.3 503.26 294.06 502.82 294.06 502.36 293.64 502.31 293.27 502.67 293.11 502.72 292.94 502.61 292.76 502.33 292.54 501.75 292.29 501.27 292.17 500.99 292.15 500.33 292.21 498.18 293.04 497.74 293.31 497.45 293.57 497.26 293.63 494.86 293.76 494.68 293.72 494.31 293.51 494.28 293.35 494.47 292.9 494.54 292.84 496.12 292.08 497.63 291.55 499.04 291.41 499.16 291.27 498.72 290.21 498.5 289.3 498.63 289.08 499.16 289.02 499.3 289.05 499.68 289.26 499.79 289.44 501.27 289.67 501.68 289.72 503.32 289.49 503.58 289.43 503.79 289.29 503.87 288.99 503.83 288.83 502.85 287.28 502.3 286.69 502.28 286.42 503.26 285.88 504.12 285.78 504.2 285.82 504.2 286.44 504.12 286.67 503.91 286.88 503.75 287.32 503.9 287.65 504.13 287.85 504.55 288.03 504.99 288.15 505.46 288.22 505.79 288.23 Z M 646.29 285.2 646.04 285.11 645.79 284.86 645.79 284.66 645.9 284.49 646.23 283.79 646.52 284.03 647.03 284.79 646.97 284.98 646.79 285.13 646.29 285.2 Z M 641.39 284.62 641.23 284.52 641.06 284.21 640.86 283.06 641.04 282.75 641.18 282.82 641.27 283.05 641.88 283.27 642.43 283.57 642.64 283.77 642.61 284.03 642.51 284.1 641.39 284.62 Z M 579.26 280.61 579.34 280.76 578.95 280.66 578.59 280.52 577.97 280.08 577.82 279.83 578.73 279.92 578.87 280.37 579.26 280.61 Z M 679.73 278.97 679.72 278.84 680.08 278.58 680.78 278.25 680.98 278.19 681.14 278.35 680.51 278.48 679.99 278.76 679.73 278.97 Z M 572.43 278.12 571.98 278.82 571.73 278.8 571.72 279.01 573.56 280.67 574.79 281.03 574.89 282.24 574.94 283.26 574.75 283.34 574.76 283.57 575.04 283.92 575.47 284.23 575.71 284.21 577.15 283.66 577.28 283.56 577.74 283.55 579.73 283.96 579.93 284.04 580.05 284.17 579.99 284.48 579.49 284.52 578.7 284.52 578.36 284.75 578.31 284.84 578.45 285.08 578.48 285.31 577.63 286.5 577.28 286.72 577.16 286.67 576.83 286.74 576.57 286.87 576.23 287.28 576.11 287.54 576.1 287.93 576.21 288.67 576.28 288.77 576.09 289.02 575.55 289 575.35 288.71 574.9 287.99 574.57 286.76 574.58 286.58 574.36 285.22 574.01 283.5 573.96 283.38 573.51 283.21 572.98 283.07 572.57 283.14 572.44 283.33 571.94 283.61 571.35 283.71 570.75 283.59 570.71 283.4 570.41 283.3 569.68 283.24 569.54 283.12 569.15 283.02 568.85 283.11 568 282.85 567.39 280.76 567.38 280.53 567.53 280.26 568 279.3 569.18 278.64 570.22 277.82 570.51 277.22 570.84 276.89 571.14 276.81 571.43 277.26 572.43 278.12 Z M 698.92 274.58 698.5 275.03 698.53 275.22 698.75 275.51 698.74 275.78 698.64 275.92 697.19 276.95 697.04 277.03 696.32 277.18 696.14 277.02 695.89 275.65 696.06 275.17 696.3 275.06 697.33 274.68 697.58 274.73 698.92 274.58 Z M 700.38 273.9 698.92 274.58 699.16 274.35 699.39 274.19 699.81 273.99 700.12 273.89 700.38 273.9 Z M 650.03 272.44 650.77 272.4 650.57 272.64 649.95 272.7 649.45 272.67 649.27 272.61 649.32 272.23 649.45 272.19 649.84 272.41 650.03 272.44 Z M 685.33 271.54 685.31 271.5 685.14 271.16 685.34 271.47 685.33 271.54 Z M 710.45 271.29 710.34 271.15 709.97 270.93 709.74 270.85 708.79 270.7 709.98 270.5 710.39 270.68 710.48 271.06 710.45 271.29 Z M 652.7 271.07 653.68 271.54 653.89 271.54 654.24 271.7 654.51 271.98 654.59 272.23 654.3 272.34 652.78 272.46 652.53 272.44 651.85 272.24 651.88 272.01 652.16 271.77 652.34 271.54 652.49 271.02 652.88 270.6 652.7 271.07 Z M 692.07 267.91 691.94 267.83 692.04 267.5 692.39 267.01 692.99 266.52 693.05 266.53 692.88 267.37 692.83 267.46 692.07 267.91 Z M 700.38 273.9 700.73 273.74 700.85 273.62 701.06 273.23 701.21 272.67 701.28 272.14 701.06 270.84 700.84 270.34 700.11 269.51 699.75 269.12 699.45 268.92 697.84 268.8 696.75 267.93 696.64 267.88 695.9 267.76 696.18 267.33 696.84 266.62 699.18 265.8 700.24 264.86 699.63 265.76 700.6 266.46 702.29 268.23 702.31 268.31 702.31 268.94 701.36 269.4 701.55 269.81 701.83 270.11 702.27 270.42 702.66 270.62 703.07 270.72 704.06 272.91 704.25 273.23 705.05 273.87 705.8 274.44 705.83 274.77 705.77 275.01 705.33 275.44 703.36 275.06 700.66 274.3 700.38 273.9 Z M 615.03 262.79 615.07 262.79 618.11 263.26 618.96 263.15 619.46 263.32 619.87 263.6 619.97 263.79 620.33 264.14 620.99 264.4 621.43 264.32 622.99 264.55 623.94 264.57 624.19 264.54 626.09 265.71 626.69 266.01 627.45 266.33 627.87 266.47 628.34 266.53 628.84 266.32 629.5 266.34 629.48 266.49 629.83 267.08 630.2 267.16 630.56 267.15 630.91 267.09 631.18 266.96 631.4 266.8 631.52 266.58 630.98 265.93 631.01 265.09 631.08 264.74 631.33 264.37 631.54 264.25 633.15 264.12 633.36 264.16 635.26 265.07 635.61 264.99 636.19 265.2 636.44 265.4 636.37 265.7 636.21 265.82 635.44 266.99 635.14 267.52 634.17 268.75 633.88 269.01 632.69 269.29 632.5 269.24 632.16 269.25 631.69 269.35 631.32 269.5 631.02 269.67 630.77 269.97 629.97 270.53 629.64 270.57 628.34 269.93 627.93 269.63 626.8 269.81 626.14 270.25 625.9 270.62 625.64 270.9 625.34 271.05 624.73 271 624.85 270.38 624.73 269.71 624.22 269.44 623.77 269.3 622.97 269.3 620.43 267.79 619.98 267.74 619.33 267.75 619.04 267.78 618.59 268.03 617.17 267.3 616.47 266.79 616.11 266.76 615.62 266.83 614.2 265.58 613.93 265.4 613.62 265.27 613.08 265.37 612.89 265.57 612.65 265.7 611.56 265.79 611.49 265.7 611.14 264.75 611.31 263.87 611.61 263.95 612 263.99 612.16 263.92 612.42 263.68 612.64 263.37 612.7 263.19 612.85 262.06 612.75 261.84 613.15 261.13 613.86 260.89 614.09 260.92 614.31 261.05 614.28 261.41 614.05 261.78 614.09 261.91 614.5 262.6 614.69 262.75 615.03 262.79 Z M 548.45 260.89 548.71 260.81 548.86 260.64 549.38 261.22 549.26 261.93 548.84 261.94 548.76 262.22 548.82 262.41 548.88 263.24 548.91 263.38 549.13 263.73 549.82 266.09 550.02 266.32 550.36 266.35 551.15 266.03 552.16 266.02 552.25 266.07 552.38 266.67 552.59 267.78 551.41 268.62 551.36 268.71 551.52 269.2 552 269.82 552.38 270.04 553.01 270.22 553.85 269.62 554.42 268.92 554.72 268.48 554.97 268.28 555.28 268.33 555.76 268.31 556.02 268.45 556.05 268.62 556.44 268.96 556.83 269.54 557.26 269.81 557.54 269.91 558 269.93 558.36 269.84 558.79 269.99 559.08 270.14 559.24 270.31 559.29 270.55 559.3 271.07 559.52 271.52 560.36 272.04 560.17 273.3 560.44 273.59 561.49 273.54 562.06 273.42 562.52 273.21 562.64 273.04 563.35 272.92 563.94 273 564.64 273.23 565.28 273.63 565.44 273.89 567.54 274.41 569.57 275.4 569.53 276.12 567.72 276.8 567.39 276.87 567.02 276.88 566.14 277 565.67 277.19 565.28 277.9 565.32 278.43 564.4 279.08 564 278.24 563.76 278.03 563.53 278 563.01 278.16 562.05 278.62 561.78 278.8 561.36 279.18 561.34 279.26 561.66 280.44 562.43 281.2 562.57 281.28 563.01 281.32 563.29 281.3 563.39 281.67 563.4 281.87 563.28 282.01 562.89 282.24 562.38 282.16 562.05 282.04 561.8 281.81 561.64 281.76 560.92 281.85 557.66 282.46 555.71 282.6 555.15 282.69 554.94 282.75 554.74 283 554.68 283.18 552.62 283.62 552.5 283.73 551.87 283.94 549.8 283.02 549.28 282.45 549.2 282.13 549.29 282.02 549.89 282.02 550.29 282.19 550.46 282.17 551.11 281.85 551.41 281.44 551.34 280.94 551.2 280.45 550.84 279.8 550.55 279.43 549.67 278.68 549.27 278.8 549.18 278.93 549.3 279.03 549.26 279.27 548.68 279.61 547.24 279.99 546.93 280.04 546.77 279.96 545.98 279.18 545.96 278.74 547.01 277.73 547.36 277.48 547.26 277.08 546.62 276.48 546.32 276.34 544.37 276.15 543.36 277.25 543.16 277.53 543.2 278.17 542.35 279.24 541.55 279.61 541.43 279.63 540.72 279.51 539.96 279.31 540 279.06 540.25 278.4 540.93 277.73 541.16 277.59 541.44 277.5 541.56 277.56 542.08 277.05 542.59 275.79 542.94 273.27 542.68 273.09 542.27 273.14 541.98 273.29 541.79 273.23 541.72 273.07 541.59 270.83 541.88 269.84 542.21 269.24 542.71 268.98 542.98 268.75 543.9 267.87 544.24 266.22 544.3 265.4 544.8 264.64 545.24 264.14 545.67 263.84 546.12 263.75 546.35 263.58 546.48 263.29 546.48 262.46 546.43 262.19 545.93 261.56 545.62 261.05 545.74 260.82 546.3 260.34 546.43 260.29 547.08 260.16 547.89 260.71 548.45 260.89 Z M 685.14 271.16 684.74 270.66 684.59 270.56 684.5 270.75 684.56 271.09 684.77 271.27 685.12 271.29 685.31 271.5 685.33 271.54 685.3 272 685.23 272.05 683.05 272.53 682.68 272.26 681.72 272.64 681.27 272.88 680.99 273.08 680.35 273.75 680.23 274.1 680.16 275.43 677.15 277.28 677.03 278.11 677.06 278.18 676.75 278.46 676.59 278.51 676.08 278.21 674.74 277.08 674.44 275.98 669.7 276.02 668.08 276.01 667.06 275.44 666.78 275.23 666.59 274.61 666.47 271.22 666.5 269.62 666.47 267.68 666.05 266.73 666.19 265.86 666.2 266.56 667.12 266.65 667.27 266.42 667.3 266.2 667.04 265.21 666.79 265.08 666.02 264.92 665.56 264.64 665.57 264.42 665.91 264.07 666.16 264.01 666.61 264.13 666.97 264.12 667.98 263.6 668.34 263.31 668.39 262.95 668.23 262.76 667.77 262.31 667.6 261.96 667.56 261.42 667.53 260.28 667.55 260.19 667.79 260.01 668.12 259.94 668.38 260.07 668.51 260.3 668.79 260.66 668.9 260.71 671.33 260.77 672.2 261.15 672.27 261.15 673.03 260.88 673.23 260.75 674.18 259.93 674.58 259.54 674.84 259.13 674.92 258.75 674.86 258.67 674.34 258.28 673.9 258.24 673.55 258 675.06 256.9 676.01 256.99 676.14 257.02 677.56 256.88 679.35 256.64 679.67 256.47 680.19 256.07 680.49 255.75 680.84 255.26 680.84 255.08 681.33 255.67 681.48 256.28 681.71 256.5 682.52 257.09 682.79 257.18 684.86 257.63 685.25 257.6 685.6 257.53 686.37 257.29 687.23 256.92 688.26 257.74 689.41 258.72 689.65 258.89 690.06 259 690.49 259.02 690.8 259.19 690.81 259.35 690.4 259.97 689.55 260.58 689.54 261.2 689.66 261.78 689.83 262.15 690.42 263.12 690.68 263.5 690.68 263.97 690.64 264.14 690.77 264.5 691.07 264.83 691.46 265.17 692.08 265.6 692.36 266.09 692.26 266.32 691.81 266.75 691.24 267.24 690.46 267.7 690.17 266.89 688.95 265.81 688.73 265.69 688.36 265.61 687.28 265.55 686.76 265.57 686.52 265.61 686.19 265.81 686.21 266 686.84 267.46 685.02 267.21 684.31 267.23 683.14 267.68 683 267.76 682.74 268.11 682.85 268.34 683.56 268.61 685.27 269.82 685.22 270 685.01 270.16 685.02 270.93 685.14 271.16 Z M 538.36 254.47 539.62 254.7 539.98 254.9 540.38 255.61 540.46 255.71 541.3 256.47 542.95 257.17 544.38 258.11 544.76 258.47 544.8 258.6 544.6 259.23 542.87 259.64 541.01 259.7 540.89 259.56 541.09 259.25 541.05 258.8 540.76 258.73 540.71 258.5 540.73 258.25 540.69 258.02 540.54 257.71 540.39 257.63 539.98 257.63 538.14 257.19 537.82 257.07 536.64 256.46 536.62 256.18 536.58 254.94 536.7 254.67 537.03 254.5 538.36 254.47 Z M 609.88 245.46 610.12 245.66 609.73 246.06 609.68 246.07 609.26 245.72 607.94 244.59 607.88 244.03 608.03 243.69 608.55 243.66 608.83 244.38 609.23 244.94 609.88 245.46 Z M 605.28 242.03 605.52 242.41 605.23 242.6 604.72 242.7 604.55 242.66 604.35 242.43 604.53 242.23 605.06 242.04 605.28 242.03 Z M 606.3 243.15 606.17 243.19 605.77 243.18 605.76 243.11 606.62 242.1 606.7 242.21 606.57 242.41 606.3 243.15 Z M 605.41 241.66 605.29 241.44 605.19 240.98 606.15 239.61 606.46 239.42 607.14 239.21 607.35 239.22 607.61 239.49 607.65 239.62 607.61 239.99 607.41 240.28 605.82 241.58 605.41 241.66 Z M 630.2 177.25 629.11 177.77 628.51 177.77 628.16 177.6 627.8 177.34 627.97 177.04 628.42 176.77 630.89 176.38 631.18 176.43 630.48 177.07 630.2 177.25 Z M 626.93 174.25 626.63 174.25 626.46 172.94 626.66 172.78 627.11 172.73 627.27 172.76 627.49 173.06 627.69 173.46 627.38 173.93 626.93 174.25 Z M 661.07 164.56 660.4 164.63 660.16 164.73 659.6 165.03 659.57 165.09 659.82 165.5 659.48 166.56 659.48 167.66 659.38 167.86 658.43 168.07 658.08 167.99 657.7 167.62 656.15 166.51 655.96 166.49 656.75 164.72 658.17 164.28 659.85 163.59 660.35 164.37 660.53 164.55 661.07 164.56 Z M 681.44 164.09 681.64 164.09 681.77 164.95 681.78 166.29 682.02 167.23 681.91 167.38 680.61 167.6 680.26 167.5 679.99 167.31 679.57 167.34 679.52 167.67 679.45 168.78 679.87 169.37 680.11 169.61 680.78 169.67 680.9 169.71 680.63 170.43 680.2 171.42 679.76 172.24 680.08 172.77 680.24 172.79 680.59 173.41 678.48 173.67 678.02 173.44 678.06 173.07 678.25 172.88 678.13 172.69 677.72 172.3 677.05 171.8 676.76 171.63 674.87 170.94 674.32 170.82 671.96 170.52 671.81 170.58 669.52 172.42 669.14 172.53 666.9 172.21 666.34 172.1 665.85 171.84 665.83 171.78 666.02 170.71 666.96 168.84 667.57 168.1 669.02 166.94 670.03 166.33 670.44 166.36 670.87 166.26 672.72 165.62 673.25 165.15 673.79 164.53 674.03 164.37 674.28 164.3 674.73 164.28 675.07 163.98 675.3 163.61 675.9 162.31 675.76 162.16 675.72 161.96 675.92 161.54 677.25 161.49 677.66 161.57 678.06 162.18 679.29 163.55 679.57 163.72 681.01 164.05 681.44 164.09 Z M 666.9 161.36 667.12 161.55 667.36 161.59 667.74 161.52 668.04 161.41 668.45 161.15 668.46 161.08 668.79 160.98 669.81 161.06 670.34 161.36 670.4 161.55 670.22 161.68 669.94 161.7 669.74 161.57 669.42 161.59 667.73 162.22 667.82 162.71 667.83 163.25 666.96 165.22 666.85 165.87 666.65 166.29 666.4 166.68 665.65 167.36 664.87 168.14 664.75 168.36 664.87 168.69 665.31 168.98 665.42 169.15 665.35 169.3 665 169.63 664.62 169.86 664.25 169.83 663.09 169.42 661.2 169.55 660.96 169.41 660.91 169.27 661.47 168.8 661.63 168.79 662.03 167.77 662.42 166.57 663.23 165.7 663.23 165.36 663.07 164.93 662.57 164.54 662.09 164.45 661.31 164.53 662.34 164.34 662.54 164.09 663.91 161.4 663.77 161.09 663.81 160.93 664.06 160.65 664.7 160.15 664.97 160.09 665.18 160.14 666.53 160.83 666.69 161.36 666.9 161.36 Z M 609.75 161.78 609.29 161.73 608.43 161.41 608.18 161.28 607.36 160.66 607.12 160.44 606.7 159.96 606.87 159.64 606.98 159.64 607.46 159.83 607.58 160 607.94 160.19 608.79 160.38 609.03 160.49 609.76 160.94 609.91 161.11 610.18 161.63 610.03 161.75 609.75 161.78 Z M 604.59 159.28 604.31 159.24 603.35 157.46 603.31 157.1 603.36 157.02 603.65 156.9 605.6 158.46 605.97 158.62 606.25 158.86 606.18 159.07 605.89 159.16 604.59 159.28 Z M 634.12 155.73 634.34 155.74 634.52 155.88 634.34 156.15 633.93 156.17 633.84 156.09 634 155.77 634.12 155.73 Z M 622.52 155.98 627.74 158.11 628.72 158.9 628.71 159.08 629.15 159.28 630.51 159.41 630.78 159.35 632.26 158.8 632.26 158.95 632.48 159.97 633.12 161.53 634.43 163.38 634.78 163.61 635.12 163.76 637.83 164.87 638.43 164.99 639.58 165.1 642.19 165.12 642.76 165.08 643.9 164.86 644.68 164.66 646.67 164.18 646.94 164.28 647.31 164.22 648.22 163.99 648.95 163.73 649.13 163.43 649.34 163.52 649.46 164.68 649.4 166.58 648.55 167.73 648.32 167.85 647.71 167.64 647.57 167.44 647.15 167.32 643.75 166.71 643.43 166.68 642.36 166.99 642.3 166.96 640.59 166.55 640.38 166.56 637.69 166.87 636.87 167.14 634.9 167.43 634.53 167.5 634.35 167.62 634.4 168.07 634.29 168.23 633.74 168.38 633.3 168.22 633.23 168.15 633.41 167.65 633.32 166.99 632.77 166.73 632.55 166.66 631.86 166.62 631.53 166.73 631.13 167 631.06 167.2 631.27 167.55 629.43 168.32 628.62 169.05 628.72 169.27 628.37 169.79 627.87 168.54 627.96 168.37 628.34 168.15 628.92 167.86 629.03 167.62 628.93 166.76 628.82 166.29 629.58 164.74 629.65 164.43 629.47 163.44 629.09 162.39 628.95 162.26 628.07 162.04 627.63 161.86 626.2 161.2 626.13 161.07 625.82 160.31 625.46 159.81 625.04 159.44 624.83 159.5 624.53 159.4 624.2 159.2 623.45 158.36 623.3 158.11 622.96 157.95 622.31 157.44 622.05 157.27 621.77 156.8 621.79 156.46 621.71 156.23 621.55 156.18 621.55 155.81 621.85 155.74 622.52 155.98 Z M 406.92 137.36 406.33 139.82 406.12 139.95 405.57 139.79 404.16 138.59 404.11 138.52 403.25 138.65 402.7 138.36 402.25 137.71 402 137.17 402.02 136.97 402.23 136.57 403.94 135.8 404.7 135.7 405.64 135.72 406.08 135.81 406.65 136.03 406.95 136.27 406.92 137.36 Z M 392.56 127.78 392.2 127.81 392.13 127.63 392.09 127.12 392.16 126.95 392.32 126.85 392.64 127.25 392.92 127.38 392.91 127.55 392.56 127.78 Z M 403.82 121.95 403.72 122 402.77 121.23 402.77 121.13 402.97 121.03 403.95 120.83 404.15 120.92 403.98 121.14 404.01 121.48 403.97 121.79 403.82 121.95 Z M 402.63 112.54 403.07 112.58 403.34 112.5 403.96 112.15 404.73 112.4 405.34 113.83 405.42 114.1 405.25 114.45 404.72 114.86 404.12 114.96 403.01 116.15 402.75 116.66 402.46 117.38 401.85 118.17 400.33 119.43 399.98 119.48 398.22 120.6 396.89 121.49 396.5 121.91 396.75 122.28 394.67 122.25 393.62 121.98 393.45 121.81 393.48 121.63 393.92 121.33 393.8 120.83 393.12 119.17 392.64 118.64 392.63 118.45 393.76 118.07 394.06 118.06 394.17 117.81 394.15 116.97 393.97 116.26 393.74 115.47 392.98 115.24 391.68 113.99 391.44 113.47 391.33 112.45 391.37 112.31 392.02 112.08 392.67 111.96 393.13 111.92 393.23 111.95 393.24 112.41 394.45 113.09 395.88 113.38 396.6 113.43 396.96 113.36 399.12 112.9 399.48 112.4 400.89 111.87 401.84 111.73 401.96 111.85 402.41 112.47 402.63 112.54 Z M 59.77 76.11 59.92 76.67 59.78 76.92 58.78 77.32 58.57 78.16 58.46 79.33 58.56 79.83 58.82 80.04 57.85 80.49 57.61 80.5 56.58 80.04 56.55 79.6 56.66 79.38 56.49 79.29 56.26 79.28 55.59 79.46 54.72 79.64 54.45 79.67 54.3 79.55 54.16 79.25 52.95 78.89 51.32 79.27 49.62 79.85 48.78 80.27 48.43 80.56 48.11 81.07 47.95 81.42 46.66 82.26 44.9 83.12 44.5 82.95 44.15 82.75 43.98 82.5 43.95 82.11 44.93 81.72 45.23 81.55 46.32 80.79 46.53 80.45 46.7 79.55 47.62 78.72 48.83 78.49 49.2 78.29 49.41 77.97 49.46 77.63 49.48 77.01 49.39 76.88 49.05 76.73 48.47 76.71 48.71 76.32 49.1 76.16 49.23 76.22 49.63 76.73 49.71 77.04 50.61 77.37 51.15 77.31 51.65 77.1 52.58 76.51 52.9 76.43 53.61 76.69 56.05 76.43 56.39 76.38 57.39 76.16 57.68 76.08 58.13 75.74 58.58 75.68 59.56 75.91 59.79 75.99 59.77 76.11 Z M 36.9 51.7 37.62 52.25 39.95 51.85 40.82 51.68 41.08 51.5 41.79 51.94 42.22 52.58 43.4 52.88 43.71 53.07 44.14 53.43 44.26 53.84 43.37 53.98 42.79 54.13 41.99 54.41 41.12 54.75 40.45 55.14 39.73 55.7 39.48 55.99 39.2 56.48 39.01 57 38.98 57.48 40.09 59.7 40.51 59.97 40.99 60.19 41.28 60.58 41.31 60.93 40.97 62.41 40.89 62.6 40.52 63.2 40.19 63.45 39.48 63.64 38.75 64.34 38.27 64.86 37.46 65.32 36.63 65.53 36.26 65.55 35.77 65.92 35.61 66.08 34.99 66.53 34.54 66.41 34.37 66.31 33.33 65.41 33.33 65.34 33.69 65.21 32.41 64.94 30.51 65.27 27.96 67.13 27.88 67.27 27.97 67.45 28.28 67.51 28.98 67.87 29.18 68.01 29.17 68.17 28.76 68.41 28.59 68.43 27.06 68.25 26.51 67.44 26.51 67.34 27.15 66.86 27.63 66.65 27.98 66.3 28.25 65.87 28.66 64.35 28.45 63.7 28.11 63.2 27.99 63.08 26.6 62.19 26.13 62.75 25.83 63.31 25.58 63.41 25.09 63.36 24.61 63.14 24.78 62.95 24.98 62.48 23.96 62.05 22.67 61.71 20.85 60.75 20.29 60.32 20.48 60.03 20.9 59.94 22.33 60.12 22.31 60.24 22.81 60.6 23.46 60.97 24.42 61.13 25.41 61.03 26.21 60.45 27.66 57.74 29.23 55.35 29.55 54.97 30.07 54.59 31.27 53.94 31.64 53.9 31.74 54.07 32.41 54.16 33.82 53.68 34.27 53.44 34.84 52.9 35.32 52.42 35.34 51.98 35.19 51.49 34.97 51.03 34.74 50.33 35.23 50.12 35.85 50.19 36.19 50.4 36.36 50.56 36.58 51.27 36.9 51.7 Z M 29.32 2.37 30.67 2.68 31.68 2.73 32.17 2.48 32.46 2.01 32.51 1.83 33.93 1.31 35.74 1.2 36.1 1.23 36.84 1.4 38.36 1.58 39.91 1.47 40.7 1.56 41.95 1.98 42.21 2.44 42.62 2.74 43.35 2.92 43.7 2.8 44.87 3.24 45.23 4.29 45.18 4.56 45.17 5.69 45.19 5.94 45.48 6.8 45.65 7.22 45.96 7.76 46.95 8.61 47.67 9.02 48.8 9.35 49.64 9 50.11 8.92 50.61 9.32 50.85 9.7 50.85 10.02 50.59 10.78 50.07 10.88 49.45 10.94 48.98 10.93 47.78 10.18 47.72 10.13 47.66 9.54 47.4 9.28 47.05 9.08 46.57 8.94 46.06 9.01 44.93 9.56 44.83 10.21 44.83 10.5 44.99 10.83 45.1 10.95 45.41 11 46.62 11.14 47.67 11.87 47.94 12.13 46.65 12.9 45.67 13.11 45.45 13.12 45.31 12.99 45.22 12.58 45.12 11.95 45 11.86 44.71 11.82 44.02 11.82 43.01 11.97 42.72 12.04 42.47 12.19 41.66 12.77 40.53 13.75 38.98 14.83 38.39 15.1 37.36 15.51 36.87 15.49 36.14 16.53 35.48 17.56 35.38 17.68 35.04 17.89 35.49 19.76 35.14 20.46 34.85 20.61 34.52 20.91 34.06 21.4 33.72 21.84 33.3 22.63 33.21 23.07 33.4 23.75 33.81 23.97 34.05 24.29 33.99 24.49 33.74 24.72 32.79 25.22 30.8 25.7 29.79 25.3 28.42 24.46 27.89 23.82 27.2 23.44 26.6 23.35 25.51 23.4 24.31 23.68 23.3 24.04 22.74 23.61 21.91 23.23 21.62 23.16 20.98 23.08 18.95 23.64 18.16 23.33 18.05 22.98 17.76 22.82 17.47 22.74 17.02 22.73 16.46 22.83 15.89 22.98 15.65 23.25 15.2 23.32 14.4 23.37 13.9 23.32 11.86 23.03 10.96 22.23 10.98 22.05 10.74 21.46 10.31 20.51 9.08 18.17 8.58 17.28 8.04 16.91 7.89 16.69 7.41 14.81 7.16 13.57 6.95 12.42 6.88 11.9 5.86 10.95 3.02 9.72 2.23 9.68 1.72 9.33 1.57 8.38 1.74 8.27 1.87 7.88 1.88 7.15 1 6.21 1.6 5.72 1.95 5.77 2.49 5.24 2.93 4.65 2.85 4.34 3.6 2.72 3.85 2.83 3.98 3.24 3.92 3.7 4.95 4.1 4.97 3.31 5.37 3.34 7.51 4.43 9.59 5.43 9.92 5.45 11.16 6.32 11.48 6.63 12.27 6.67 13.06 6.55 14.15 6.14 14.88 5.53 15.6 5 16.47 4.66 17.16 4.81 17.96 4.84 19.11 4.74 19.46 4.3 20.74 4.03 22.3 3.56 23.04 3.05 23.4 2.56 23.34 2.17 24.67 1.95 25.06 2.02 24.92 2.39 24.8 2.51 25.32 2.71 26.18 2.77 27.95 2.71 28.42 2.27 27.73 1.91 27.95 1.17 28.39 1 28.87 1 28.52 1.26 28.5 1.45 28.66 1.86 28.91 2.22 29.32 2.37 Z" fill-rule="evenodd" class="9" id="인천광역시 옹진군"/>
</g>
</svg>