<?xml version="1.0"?>
<svg xmlns="http://www.w3.org/2000/svg" version="1.2" baseProfile="tiny" width="800" height="869" viewBox="0 0 800 869" stroke-linecap="round" stroke-linejoin="round">
<g id="제주_2020">
<path d="M 4.64 677.93 2.53 678.04 1 676.53 1.16 675.96 5.11 674.66 8.14 674.16 8.49 674.22 9.38 674.8 9.81 675.19 10.42 675.85 10.54 676.38 10.43 676.52 7.16 677.72 5.67 677.86 4.64 677.93 Z M 82.99 579.39 83.36 579.4 83.87 579.72 84.74 579.99 84.97 580.19 85.43 580.46 86.13 581.36 86.06 581.66 86.13 582.58 86.04 583.13 86.06 583.31 85.84 583.98 85.54 584.5 84.85 585.33 83.82 585.22 83.65 585.29 83.29 585.68 83.2 585.99 82.19 586.31 81.26 586.28 80.76 586.4 80.52 586.61 80.49 587.01 79.66 586.99 79.49 586.95 78.93 586.52 78.87 586.31 77.54 585.79 76.91 585.38 76.92 584.3 77.06 583.63 77.28 583.47 77.58 583.45 77.67 583.11 77.08 582.26 76.7 582 76.66 581.49 77.15 579.76 77.43 579.53 77.68 579.62 77.87 579.82 78.25 579.86 79.93 579.59 81.53 579.06 82.08 579.09 82.31 579.27 82.99 579.39 Z M 78.78 573.86 78.94 573.8 79.09 573.45 78.96 573.03 78.77 572.94 78.63 572.67 78.67 572.31 78.92 571.68 79.05 571.56 79.52 571.5 80.18 571.72 80.55 571.93 80.76 572.46 80.74 572.6 79.86 574.73 79.37 575.43 79.2 575.99 78.33 577.06 78.02 577.01 77.29 576.44 77.2 576.15 77.3 575.81 77.41 575.11 77.4 574.91 77.21 574.61 76.72 574.11 76.57 573.72 77.34 571.6 77.51 571.04 77.86 570.8 78.41 570.68 78.76 570.83 78.74 571.1 78.55 571.85 78.45 571.97 77.97 572.16 77.85 572.34 77.8 573.06 77.88 573.24 78.78 573.86 Z M 730.81 480.09 731.58 479.82 731.09 480.2 730.81 480.09 Z M 731.47 472.72 731.32 472.62 730.36 470.98 730.48 470.57 731.39 470.44 731.58 470.7 732.24 470.96 732.56 471.13 732.82 471.36 732.96 471.62 732.74 472.12 732.45 472.4 731.47 472.72 Z M 789.27 476.15 789.24 476.63 789.02 477.11 788.53 477.9 788.2 477.97 787.42 477.93 787.2 477.81 786.08 477.98 785.95 478.03 785.37 479.13 784.91 480.21 784.85 480.6 784.85 481.26 785.05 481.71 785.66 482.44 785.97 482.54 786.34 482.53 791.29 481.49 793.18 480.35 793.36 479.9 794.19 479.23 794.68 479.12 797.5 479.65 797.89 479.83 798.99 480.59 799 480.91 798.57 481.33 797.88 481.19 795.71 480.87 792.98 481.16 792.75 481.29 791.92 481.95 791.83 482.16 791.85 483.29 792.53 484.53 793 485.14 793.28 485.39 793.7 485.56 794.82 488.24 795.69 491.86 796.07 491.88 797.04 492.13 797.35 492.29 797.76 496.1 797.74 496.14 795.77 498.12 795.11 498.23 794.71 497.85 794.35 497.35 793.87 497.34 793.46 497.57 793.27 497.94 793.81 499.79 794.22 500.85 794.34 501.08 794.29 502.14 794.1 502.97 793.71 503.7 792.27 504.74 790.98 505.2 790.69 505.19 790.02 504.96 789.89 504.68 787.16 502.16 786.66 501.86 786.14 501.79 785.71 501.88 785.11 502.11 784.13 502.87 783.9 503.28 778.34 501.99 775.85 501 775.04 501.55 774.66 501.54 772.65 500.91 772.13 500.66 770.84 499.82 770.61 499.61 770.66 499.31 771.04 498.73 771.48 498.4 771.61 498.4 771.6 496.31 770.63 493.24 769.18 491.39 768.87 490.65 768.51 488.46 768.83 488.08 770.71 486.37 770.54 484.37 770.79 483.77 771.6 482.44 771.93 482.08 773.4 481.89 775.38 480.8 778.15 477.78 778.25 477.54 778.12 476.93 777.95 476.62 777.67 476.53 777.31 476.64 777.16 476.8 777.3 477.14 777.02 477.49 776.76 477.46 774.9 475.36 774.87 475.24 775.14 473.43 775.32 472.81 775.47 472.54 775.9 472.21 777.94 470.86 781.6 469.81 783.01 471.21 784.91 473.65 786.86 475.26 787.32 475.28 789.24 476.13 789.27 476.15 Z M 386.65 467.69 386.22 467.46 386.3 467.13 386.45 467.04 386.82 467.06 387.17 467.2 387.89 467.2 388.78 467.12 400.05 462.89 400.28 463.21 399.73 463.22 392.65 465.91 388.34 467.53 386.65 467.69 Z M 375.05 473.84 377.15 472.06 379.01 469.38 383.49 462.89 383.74 462.84 383.94 462.96 383.83 463.23 382.63 464.72 380.44 467.85 377.64 471.88 377.67 472.01 377.34 472.2 375.05 473.84 Z M 730.81 480.09 730.26 480.33 728.44 481.64 728.14 482.17 727.96 482.89 728.01 483.44 728.2 484.1 728.72 485.42 728.8 485.46 732.84 484.87 734.22 484.6 735.25 484.3 738.38 485.48 740.62 487.14 741.25 487.68 741.48 487.95 741.8 488.68 742.02 491.67 741.99 492.51 740.23 495.65 738.19 499.14 738.13 499.58 738.44 500.91 739.24 502.62 740.02 503.49 740.06 503.95 739.33 505.3 738.42 505.99 737.28 506.75 736.32 507.07 736.09 507.03 734.92 506.37 734.33 505.99 734.07 505.71 733.65 505.83 733.19 506.08 732.55 506.59 732.28 506.86 731.75 507.56 731.32 508.37 731.05 509.45 730.95 510.13 730.96 511.61 727.4 511.19 726.66 511.85 726.38 511.98 725.39 512.21 724.5 512.39 723.34 512.21 722.34 512.45 719.16 513.45 718.35 513.88 715.11 513.6 714.22 513.4 713.44 514.05 712.06 515.6 711.69 516.43 711.28 516.87 707.43 518.27 707.1 518.31 704.95 518.32 704.36 518.24 703.92 518.34 702.71 518.92 701.29 521.36 697.92 523.63 694.05 525.23 693.43 525.25 692.17 525.46 689.66 526.08 688.69 526.44 688.34 526.69 687.62 527.29 687.66 527.76 685.5 530.11 685.04 530.27 682.82 530.86 681.51 531 677.77 531.26 677.44 531.37 672.02 533.34 668.52 534.89 668.14 535.09 665.03 536.94 662.74 538.5 661.25 539.42 658.06 539.85 657.35 539.89 655.99 541.76 654.44 545.55 654.15 546.1 653.69 546.14 649.49 546.06 646.98 546.85 642.94 547.91 640.65 548.18 639.45 548.38 638.53 548.69 637.24 549.15 636.64 549.44 635.21 550.33 634.62 551.53 634.51 551.97 633.17 552.64 632.14 552.96 631.81 552.94 631.14 552.79 629.91 552.45 629.42 552.27 629.05 551.96 627.99 551.57 627.17 551.37 626.41 551.26 625.98 551.22 624.69 551.21 621.84 551.25 621.14 551.73 620.29 553.01 620.03 553.61 619.04 554.89 616.93 557.46 615.97 557.9 611.62 559.24 610.66 560.28 609.35 561.65 609.07 561.92 604.31 565.55 603.82 565.9 602.85 566.48 600.76 567.63 596.44 570 595.57 570.4 592.51 571.16 590.51 571.59 586.6 572.01 583.92 572.22 576.53 571.56 575.17 571.23 573.87 570.71 571.72 569.52 570.41 568.74 569.57 568.22 568.71 567.56 567.21 565.34 567.03 565.49 564.48 566.53 561.4 567.64 558.06 568.77 553.22 569.99 551.09 570.02 549.04 570.01 546.7 569.96 545.3 569.98 541.07 571 538.92 571.57 537.94 571.92 536.38 572.54 533.67 573.89 531.7 574.98 526.71 577.43 524.76 578.28 522.78 579.76 519.94 581.96 513.67 586.38 507.15 590.69 506.8 590.82 506.1 590.84 505.64 590.68 504.68 590.17 504.14 589.78 502.2 588.98 499.72 588.96 498.51 589.18 497.85 589.68 497.11 590.55 495.52 591.34 494.17 591.52 493.73 591.46 493.22 591.62 492.85 592.05 491.84 594.31 491.73 595.83 491.45 596.02 490.71 596.28 487.19 596.81 484.51 596.94 482.52 596.89 480.65 597.02 474.59 598.14 473.43 597.87 472.87 597.55 472.64 596.92 469.93 597.72 468.96 598.16 468.32 598.5 467.18 599.29 465.66 600.51 464.7 602.3 464.6 603.03 464.6 603.46 464.5 604.22 464.29 605.47 462.54 606.15 461.86 605.77 460.74 605.35 459.77 605.64 458.34 606.72 457.27 607.25 456.47 607.36 453.84 607.52 452.58 607.52 451.84 607.48 449.82 607.76 446.98 608.17 445.4 608.76 438.85 611.74 438.12 612.1 436.8 613.09 435.68 613.66 430.02 615.77 427.56 615.93 423.05 616.33 420.73 616.7 418.56 617.12 416.47 617.79 416 618 413.6 618.24 410.66 618.37 408.73 618.38 406.53 618.27 403.32 617.68 401.49 616.91 399.75 617.89 399.26 618 398.03 617.78 397.76 617.67 396.55 616.77 395.74 616.41 393.66 617.48 386.86 621.29 386.31 621.78 384.93 622.34 383.19 622.66 380.15 624.7 378.77 625.68 377.47 626.46 375.21 626.61 372.88 627.13 372.45 627.9 371.38 627.14 369.93 626.65 368.62 627.12 367.03 627.87 362.96 628.92 357.79 628.4 354.72 628.58 353.68 629.54 352.37 630.85 351.43 631.39 350.42 631.51 349.82 631.07 349.01 630.71 346.64 630.18 345.07 629.94 343.15 629.72 342.36 630.03 338.26 632.25 335.51 633.87 334.83 634.43 333.23 634.43 331.92 634.27 331.81 634 331.78 633.5 331.43 632.62 331.01 632.17 328.79 630.44 328.34 630.11 327.98 629.96 327.42 629.89 326.96 629.94 326.57 630.05 323.14 631.36 321.62 632.1 319.13 632.48 316.02 631.1 312.1 629.83 310.97 629.58 309.33 629.71 305.72 630.82 301.81 631.04 298.28 630.9 297.2 630.77 296.32 630.56 294.02 630.3 291.64 630.65 288.11 631.84 285.57 632.73 284.59 633.37 283.61 634.32 283.35 634.75 283.33 635.48 283.37 636.08 283.72 636.8 284 637.67 284.15 638.76 283.96 640.45 283.57 641.47 283.43 641.78 282.82 642.43 280.11 644.04 279.67 644.16 279.28 644.08 279.08 644.52 278.39 646.64 279.13 647.75 278.34 647.65 275.43 647.32 270.38 647.09 264.7 646.2 261.73 646.41 258.76 646.66 257.62 646.85 256.52 646.79 254.63 645.4 253.44 645.66 251.5 645.91 250.75 645.52 250.5 645.33 249.74 644.48 248.42 644.29 244.34 644.3 243.16 644.79 242.09 645.01 239.71 645.41 238.2 644.51 236.94 644.15 236 643.95 234.42 644.01 233.35 643.36 229.71 642.59 229.11 642.54 224.58 642.2 223.99 642.32 222.52 643.35 220.85 643.91 219.49 645.3 219 646.57 218.1 647.28 217.62 647.5 216.44 647.73 214.52 647.71 213.41 647.61 208.06 647.38 207.1 647.67 205.76 647.96 204.36 648.08 201.52 648.17 199.14 647.93 198.03 647.65 196.62 646.99 194.94 646.23 191.57 645.34 190.22 645.36 189.66 645.61 186.51 649.36 185.82 650.35 181.03 654.58 179.68 655.82 177.11 658.66 175.1 660.91 174.44 661.74 173.21 662.49 172.68 662.66 172.21 662.72 171.67 662.56 171.28 662.25 170.72 661.52 170.06 661.15 169.13 660.94 162.84 661.49 162.19 662.08 161.4 662.52 160.45 662.84 159.83 662.69 157.21 661.68 155.56 662.88 155.07 663.57 154.97 663.92 151.65 665.66 147.97 666.22 146.97 669.01 145.62 672.99 144.71 676.18 144.17 677.24 142.01 678.65 139.32 680.51 139.2 681.94 138.34 683.18 137.59 683.62 136.61 683.69 134.61 684.07 134.21 684.26 132.87 685.02 132.19 685.51 131.92 686.08 131.94 686.73 131.82 687.35 131.51 687.69 130.12 688.37 128.91 688.79 126.22 689.59 119.93 690.9 116.21 691.65 106.55 694.18 106.26 694.27 103.13 696.5 100.24 698.56 100 698.65 98.55 698.61 96.59 702.49 96.46 702.97 96.37 703.55 97.53 710.5 98.19 713.37 97.85 713.33 96.62 712.71 92.99 710.45 92.47 710.09 92.14 709.78 88.52 706.09 84.22 702.32 83.89 702.1 83.07 701.78 79.47 700.51 78.1 700.14 77.22 699.97 76.44 699.73 69.66 696.68 66.52 695.15 61.9 693.76 58.72 692.15 54.82 690.84 48.1 689.05 47.51 688.93 47.21 689.88 47.14 690.27 47.15 690.82 47.39 691.25 47.21 693.43 43.13 695.04 41.61 695.58 35.94 696.75 33.54 696.19 32.94 696.19 30.56 696.63 27.81 698.12 27.36 698.41 26.79 699.32 26.77 699.69 27 700.15 27.88 700.52 28.26 700.75 28.31 701.28 28.15 701.54 25.77 703.76 25.09 704.07 24.95 703.92 22.87 702.63 22.58 702.49 21.34 702.16 20.94 702.17 18.89 700.24 17.54 696.21 17.58 695.11 17.66 694.36 18.56 692.51 19.19 691.66 19.73 691.19 20.96 690.63 23.38 689.4 23.83 688.46 23.85 688.31 23.83 687.16 23.35 686.6 22.54 685.56 22.39 685.32 20.09 681.35 20.03 680.99 20.19 679.6 22.17 675.24 23.7 671.91 24.75 671.49 24.76 671.21 23.17 664.84 22.86 664.54 22.66 664.5 21.11 664.65 19.57 664.33 19.37 664.16 19.12 663.67 19.01 659.71 19.11 659.09 19.54 658.49 20.11 658.22 21.84 657.56 22 657.39 22.04 657.09 21.68 656.68 20.94 656.02 19.91 655.9 18.42 654.84 18.18 654.46 20.26 652 20.65 651.65 21.49 651.48 22.27 651.24 22.79 650.86 23.4 650.02 23.73 649.38 23.73 649.11 23.42 648.74 23.17 648.66 22.37 647.83 22.39 647.21 23.21 645.99 23.98 645.92 24.87 646.54 24.9 646.64 24.55 647.03 24.85 647.25 26.27 647.17 27.09 646.96 27.52 646.77 28.23 646.25 28.2 645.98 27.98 645.69 27.78 645.55 27.3 645.36 25.8 644.88 25.23 645.18 25.35 645.54 25.72 645.67 25.64 646.03 25.26 645.97 24.93 645.59 24.9 645.41 25.01 644.99 25.64 644.82 25.7 644.62 25.76 644.01 25.19 644.05 25 643.85 25.12 643.6 25.76 643.33 27.26 643.24 27.72 643.53 27.62 643.74 27.35 643.65 27.35 643.51 26.92 643.45 26.08 643.53 25.86 643.87 25.77 644.38 25.81 644.68 25.99 644.92 28.91 645.82 29.57 645.84 30.45 645.7 30.93 645.5 31.03 645.4 31.3 644.53 32.72 643.84 33.65 643.61 35.72 642.77 36.78 639.41 37.3 636.64 37.95 632.3 38.76 631.02 39.52 631.03 42.66 630.72 43.1 630.05 43.58 629.15 45.58 627 51.31 623.55 51.52 623.47 53.3 623.3 54.79 623.81 54.95 624.5 55.21 624.71 55.51 624.63 55.99 624.35 59.99 621.51 60.72 620.87 60.84 619.98 60.73 619.66 60.52 618.61 60.53 618.38 61.06 617.72 62.02 617.05 62.71 616.66 64.79 615.8 67.58 614.89 68.02 615.12 68.5 614.02 69.88 612.14 69.52 609.92 69.31 609.79 69.22 608.35 70.34 606.97 71.05 606.29 71.3 606.12 71.5 606.2 71.51 606.47 71.98 606.59 72.66 606.55 73.77 605.81 73.99 605.58 76.14 602.87 77.56 600.72 78.94 601 79.27 601.04 84.55 601.37 86.86 601.5 87.71 601.47 88.68 601.15 89.45 600.47 89.71 600.12 89.7 599.83 89.55 599.3 89.21 599.22 89.24 599.66 89.13 599.73 88.59 599.66 88.37 599.21 88.61 597.74 89.39 596.79 90.46 595.76 90.82 595.63 92.8 596.2 93.02 596.59 93.32 596.57 93.94 596.38 95.5 595.59 95.56 595.53 96.04 594.07 96.01 593.78 95.77 593.27 95.84 593.12 96.27 592.65 96.45 592.56 101.55 590.71 102.67 590.57 103.25 590.26 103.6 589.99 103.88 589.6 104.2 588.82 104.21 587.53 103.84 587.09 103.22 587.2 102.24 587.28 102.23 587.01 103.24 585.87 104.55 586.06 105.29 584.5 104.92 583.34 105.42 582.43 105.85 582.04 108.2 582.06 108.51 582.27 107.75 583.14 108.96 583.51 109.6 583.54 111.06 582.61 111.57 582.26 111.66 582.1 111.6 581.85 110.83 580.93 110.39 580.56 110.23 580.61 108.63 582.17 108.33 581.96 107.19 579.1 106.99 578.89 106.76 578.31 106.19 576.09 106.16 575.89 106.52 575.83 106.51 576.09 106.92 577.73 107.04 578.03 108.97 578.86 109.03 578.83 112.55 575.43 113.46 574.98 114.71 575.13 115.17 575.31 115.37 574.07 114.78 570.1 113.98 569.11 113.53 568.79 112.01 569.17 111.82 569.31 111.46 569.84 111.13 570.55 110.99 570.98 110.91 571.61 110.93 572.18 111.04 572.75 111.18 573.13 111.51 573.84 110.82 574.51 110.65 574.6 105.55 574.79 106.66 574.45 109.34 574.44 110.55 574.41 110.98 574.06 111.17 573.79 111.16 573.55 110.47 571.16 110.31 571.04 110.16 570.68 110.16 570.18 111 568.93 111.61 568.73 111.58 567.89 111.93 567.48 112.79 566.96 112.98 566.92 113.32 567.14 114.39 568.91 114.6 569.17 115.02 569.38 115.88 569.41 117.03 568.26 117.03 568.17 116.63 565 114.94 559.94 114.32 558.14 114.77 557.38 115.96 555.6 116.08 555.51 116.76 555.52 116.85 555.6 116.9 556.07 116.85 556.27 121.56 556.31 125.61 557.3 128.56 552.67 131.21 550.36 131.98 550.4 134.4 550.16 135.73 549.78 135.92 549.35 135.68 548.8 135.73 548.39 135.82 548.31 136.7 547.92 137.52 547.89 139.51 548.68 140.13 548.98 140.95 549.64 141.61 549.67 143.89 549.14 144.85 548.89 145.65 547.74 146.12 547.15 148.34 545.61 149.04 545.4 149.34 546.29 151.13 545.66 153.46 544.02 157.56 540.07 161.49 533.35 161.55 533.09 161.44 531.73 161.33 531.35 160.84 531.26 159.99 530.98 159.45 530.64 159.33 530.43 158.88 528.18 158.94 527.68 159.16 527.39 162.92 524.42 163.42 524.04 163.82 523.88 164.5 523.82 166.85 524.22 167.45 524.8 169.87 525.98 170.06 526.03 170.96 526.02 171.21 525.92 171.28 525.73 171.25 523.58 171.17 521.93 171.35 521.6 175.2 520.4 175.56 520.4 179.92 521.77 179.85 521.94 177.32 521.19 172.72 522.84 173.83 524.96 171.6 526.54 171.38 527.16 171.57 527.96 171.66 528 172.07 527.78 172.05 527.41 172.3 527.02 172.94 526.82 174.71 526.81 177.03 526.43 178.4 525.06 181.39 524.18 181.75 524.11 182.14 524.17 182.49 524.33 182.91 525.01 182.93 525.78 183.1 526.04 183.9 526.52 184.37 526.67 185.2 526.79 188.14 526.53 189.04 525.72 189.56 525.08 189.69 524.85 189.78 524.07 189.86 523.72 190.42 523.03 191.88 522.39 196.1 520.73 198.18 520.45 198.24 520.48 200.75 520.86 200.93 520.85 201.4 520.5 201.49 520.36 201.79 519.44 201.79 519.11 201.68 518.85 201.88 518.24 202.23 517.54 202.83 516.5 203.3 516.08 206.04 514.98 207.65 514.43 208.78 514.25 209.04 514.24 209.72 514.38 210.8 514.69 210.98 514.85 211.7 515 212.82 515.18 216.48 515.6 217.12 515.63 217.82 515.58 220.28 514.06 220.88 513.53 226.33 509.92 227.49 510.11 228.19 510.18 228.61 510.06 228.92 509.88 229.85 509.13 230.15 508.54 230.23 508.09 230.14 507.87 230.23 507.65 230.71 507.04 231.17 506.57 231.7 506.22 234.02 505.05 237.41 504.59 238.93 504.84 239.38 504.96 239.5 505.24 240.41 507.74 240.36 508.21 240.64 508.71 240.93 509 242.44 510.04 246.53 510.77 246.81 510.86 247.35 510.86 248.38 510.8 248.97 510.26 248.92 509.91 249.08 509.59 250.2 508.67 251.27 508.26 251.68 508.29 252.66 508.81 253.16 509.16 253.16 509.29 253.6 509.34 254.84 509.14 255.08 509.04 255.5 508.48 256.21 507.21 255.89 506.37 255.78 506.25 256.36 505.44 257.57 504.48 258.33 504.24 261.9 504.3 263.79 504.6 266.04 504.39 267.87 503.68 267.24 503.3 267.05 503.04 267 502.1 268.75 500.81 271.18 499.57 271.84 499.27 273.76 498.7 274.68 498.55 274.75 498.76 274.12 498.8 273.38 499.2 272.92 499.51 272.93 499.89 273.12 500.03 274.78 500.69 278.64 500.34 285.15 498.88 286.75 498.54 286.96 498.47 289.04 497.47 290.21 496.7 291.16 495.93 293.17 496.54 295.36 496.94 295.54 497.32 295.78 497.49 297.15 497.42 297.58 497.31 298.07 497.07 298.91 496.25 299.59 495.32 300.05 494.09 298.33 492.99 297.67 492.38 297.83 492.11 299.26 490.59 299.39 490.52 301.52 490.77 302.06 491.36 303.09 491.34 303.7 491.25 305.57 490.72 305.92 490.48 306.07 489.95 308.47 491.78 308.97 488.7 311.46 486.51 314.26 485.79 319.39 485.48 320.64 485.79 322.82 485.98 323.45 485.8 328.06 484.13 328.22 483.84 328.13 483.64 328.3 482.64 329.93 478.66 330.33 477.98 331.56 477.06 333.41 476.18 334.12 476.03 334.33 476.19 334.82 476.27 335.52 476.2 337.36 475.71 337.91 475.42 338.43 474.65 339.23 474.67 340.85 474.94 342.98 475.39 343.36 475.81 344.02 476.69 344.11 477.47 344.25 477.63 344.84 477.95 348.44 478.5 352.5 478.98 357.36 479.34 358.05 479.54 359.69 478.31 359.59 477.48 359.62 477.16 359.79 476.71 360.2 476.31 360.54 476.13 361.2 476 361.61 476.03 362.53 476.21 365.8 476.66 370.28 477.25 372.13 478.04 374.72 477.99 376.21 477.47 376.33 476.8 375.55 475.93 374.2 474.55 374.51 474.29 375.83 475.63 376.06 475.76 378 475.72 378.73 475.22 381.06 473.74 384.46 472.79 385.27 472.75 385.58 471.83 385.36 468.41 384.13 466.91 384.02 466.54 384.15 466.32 386.22 467.46 386.28 467.67 386.65 467.69 387.13 467.95 388.52 471.19 388.94 471.32 395.47 471.47 395.51 472.24 395.46 472.83 392.16 473.91 391.62 473.96 391.05 473.81 389.15 473.68 391.21 474.94 392.19 474.92 397.19 474.44 397.38 474.37 400.39 472.99 400.89 472.64 401.91 470.73 402.92 468.99 403.48 468.3 405.79 469.11 405.74 470.89 405.85 471.01 406.9 471.48 408.56 470.31 410.62 468.75 412.1 469.85 412.41 469.98 414.6 470.4 414.78 470.19 415.47 468.33 415.71 467.88 416.09 467.7 417.98 467.68 419.29 467.86 420.04 468.35 419.86 468.4 419.24 467.98 417.84 467.97 417.53 468.58 417.85 469.26 420.75 470.68 425.81 470.3 426.01 470.21 426.76 469.72 427.39 469.25 429.89 466.85 430.85 462.8 437.71 458.53 438.08 458.47 438.46 458.82 439.06 459.65 439.43 459.41 439.91 459.3 440.8 459.26 442.07 459.96 443.26 461.06 444.24 460.75 445.99 460.52 447.38 460.36 448.23 460.35 451.78 460.37 453.95 458.27 461.03 458.08 465.23 459.89 465.5 459.89 465.99 459.68 467.26 458.64 468.91 458.76 469.35 458.84 471.51 459.76 473.51 460.08 473.64 460.05 474.53 459.56 475.54 455.86 475.32 455.31 475.05 455.15 473.69 455.09 473.63 455.29 473.4 455.24 473 454.34 473.63 451.92 473.86 451.31 474.11 451.14 477.44 451.18 477.96 450.81 478.17 450.59 478.88 449.06 478.74 447.98 479.48 446.51 479.83 446.11 481.02 445.06 483.29 441.22 484.33 442.01 487.24 443.58 487.5 443.57 487.51 443.01 487.62 442.82 487.88 442.84 488.36 443.47 487.51 444.95 486.17 447.13 486.2 447.26 486.62 447.57 487.93 447.82 488.44 447.84 489.13 447.77 489.55 447.64 490.44 446.87 490.82 446.02 490.78 444.35 491.17 443.94 491.58 444.22 494.11 446.32 496.88 449.17 499.11 451.14 499.23 451.17 499.59 450.86 500.02 450.31 500.06 449.64 500.21 450.56 500.63 451.57 501.67 452.78 501.89 452.97 503.06 453.51 503.4 453.58 504.91 453.55 507.64 452.9 510.98 451.82 511.47 451.63 511.91 451.33 511.82 451.07 511.46 450.4 511.39 449.88 511.94 448.04 512.18 447.4 512.87 446.1 513.99 444.81 514.51 444.55 515.34 444.25 515.68 444.23 517.6 444.32 518.14 444.64 518.85 445.86 519.76 447.05 520.85 448.2 521.22 448.38 526.05 448.17 526.44 448.11 527.15 447.89 533.03 445.09 534.46 444.04 534.56 444 535.89 443.74 536.86 443.74 537.26 443.92 537.87 443.96 541.43 443.67 542.03 443.5 543.94 442.72 549.68 442.14 550.51 443.07 552.16 443.22 552.49 443.14 554.54 441.1 554.44 440.68 555.11 439.24 555.33 438.98 558.8 439.13 559.6 439.21 561.39 438.95 561.57 438.88 565.32 436.66 565.34 436.3 565.43 436.42 566.42 437.07 568.33 437.99 571.14 438.92 572.3 441.1 572.98 441.87 573.3 442.07 574 442.11 574.2 442.06 576.38 441.03 579.28 440.97 579.31 441.27 579.51 441.36 579.96 441.34 580.39 441.2 580.35 440.87 580.1 440.19 579.72 439.5 579.05 439.12 578.64 439.04 578.28 439.06 577.72 439.18 577.36 439.36 577.51 439.92 576.73 439.96 574.44 439.38 574.47 438.97 575.36 437.2 576.79 437.93 577.16 438.52 579.61 439.08 580.01 439.14 582.15 439.26 582.29 439.24 586.99 438.24 587.49 437.65 587.82 437.46 588.75 437.64 590.39 439.11 590.02 439.26 590.04 439.49 590.41 439.7 591.68 439.92 592.55 439.75 595.76 438.42 596.14 438.15 596.51 437.27 596.81 434.46 596.49 432.85 596.29 431.88 596.41 431.69 596.74 431.62 599.57 431.27 601.51 431.66 602.66 431.93 602.93 432.1 602.93 432.33 602.72 432.74 602.12 432.52 601.68 432.52 601.5 432.73 601.84 432.88 602.98 432.94 604.4 432.8 605.58 432.13 605.76 431.56 606.71 431.72 608.57 432.24 609.22 433.11 609.45 433.97 609 435.19 608.47 435.94 609.2 435.91 609.66 435.77 610.74 434.78 612.48 431.85 612.74 431.17 612.88 432.48 614.75 433.12 616.14 432.53 617.2 432.28 617.58 433.63 617.71 434.47 620.28 435.2 622.75 435.6 626.55 437.29 628.33 439.02 627.86 439.26 627.76 439.82 627.84 440.07 629.29 440.98 629.77 441.23 630.55 441.46 631.13 441.55 633.16 441.22 637.88 440.27 641.34 439.27 646.2 437.06 646.39 436.72 646.33 436.16 646.21 435.94 645.92 435.7 650.72 436.66 655.22 437.83 656.86 438.23 657.49 437.68 659.38 437.59 659.46 437.9 658.53 440.26 657.58 442.39 658.71 443.19 659.25 443.52 660.29 444.04 660.41 444.07 661.11 444.84 661.38 445.7 661.38 446.11 660.9 446.92 660.44 447.56 659.78 448.16 659.17 448.59 659.04 448.92 660.39 451.2 660.23 451.86 660.42 453.16 660.51 453.32 663.23 454.83 666.02 455.55 667.94 456.89 668.67 458.07 672.01 462.35 672.43 462.55 673.26 462.66 673.37 462.64 674.9 461.99 680.34 462.86 682.6 463.74 683.95 465.56 685.73 467.67 689.35 470.23 691.47 470.69 691.9 470.77 692.83 470.8 694.48 470.48 695.19 470.03 696.66 468.22 696.71 467.93 696.55 467.32 696.25 467.21 695.97 467.46 695.68 466.99 696.72 466.45 701.58 465.23 702.33 465.43 702.47 465.95 707.32 466.15 711.08 466.13 711.29 466.2 711.91 466.61 712.18 467.62 712.2 468.63 712.5 468.78 713.47 469.05 714.69 468.57 716.71 468.11 718.32 467.94 722.2 468.9 723.8 470.31 725.24 471.31 725.56 471.49 729.68 473.45 733 474.2 734.78 474.89 734.61 475.87 734.23 475.85 733.22 475.97 732.77 476.08 731.44 476.47 730.45 477.12 730.19 477.43 729.9 478.58 729.9 478.77 730.13 479.49 730.25 479.66 730.81 480.09 Z M 157.88 107.3 157.69 107.34 156.21 106.92 155.24 106.42 154.85 106.01 154.83 105.84 155.08 105.36 155.37 105.21 155.58 105.36 156.43 105.73 156.91 105.98 157.98 106.87 157.88 107.3 Z M 194.25 107.04 193.64 106.96 192.88 106.69 192.81 106.56 192.69 105.24 192.79 104.09 192.85 103.87 193.37 103.58 193.85 103.54 194.26 103.72 194.74 104.21 194.77 104.48 194.63 104.72 194.77 106.1 194.48 106.85 194.25 107.04 Z M 171.99 94.58 176.35 95.23 176.52 95.22 176.84 95.44 177.5 96.53 177.57 96.81 177.2 98.21 177.09 98.31 175.91 98.99 175.64 99.08 175.38 99.54 175.53 99.67 176.04 100.65 175.98 100.8 175.47 100.89 174.26 100.88 174.02 100.78 173.51 99.4 173.52 99.21 174.26 98.31 173.64 97.35 173.24 97.12 171.89 95.79 171.4 94.83 171.59 94.58 171.99 94.58 Z M 476.18 89.15 477.13 89.08 477.8 88.82 478.69 88.76 480.39 88.81 481.01 89.17 481.11 89.35 481.08 90.14 480.77 90.52 480.46 90.77 480.12 90.93 476.53 91.81 475.18 90.75 474.76 90.19 474.26 89.32 474.18 88.99 474.61 88.52 475.03 88.42 475.54 88.93 475.79 89.08 476.18 89.15 Z M 162.34 72.28 161.77 72.26 161.04 71.8 161.17 70.78 161.31 70.5 161.77 70.31 163.05 70.41 163.37 70.51 163.6 70.7 163.8 71.36 163.51 71.68 162.74 72.2 162.34 72.28 Z M 191.46 57.88 190.4 58.04 189.74 57.94 188.75 58.49 188.46 58.73 188.39 58.99 188.43 59.33 189.11 60.24 190.16 61.07 191.73 61.5 192.08 61.62 192.51 62.33 192.21 64.05 191.98 64.7 191.86 64.88 191.52 65.08 191.08 65.19 187.2 65.39 182.62 67 180.07 67.23 178.86 66.27 177.75 66.44 175.05 70.33 174.86 70.72 174.67 71.57 174.65 72.21 175.46 75.35 175.73 75.76 176.03 75.98 176.38 76 176.77 75.8 178.7 75.77 180.31 76.47 180.82 77.06 181.16 77.69 181.15 79.96 181.08 80.13 180.75 80.34 179.59 80.66 179.41 80.68 173.37 80.93 173.16 80.92 172.13 80.72 171.84 80.56 171.32 79.89 170.85 78.73 170.95 78.57 171.53 78.11 170.94 76.97 170.7 76.61 170.75 76 170.3 75.39 170.13 75.23 169.59 75.05 167.99 73.54 167.74 72.83 167.8 72.55 167.46 71.65 167.27 70.78 167.46 70.22 167.04 69.64 166.74 69.39 165.78 69.01 165.13 68.81 164.82 68.62 161.87 66.43 161.58 66.15 161.51 65.77 161.85 65.69 161.87 66.11 162.1 66.29 163.03 66.18 163.3 65.87 163.27 65.43 163.03 65.21 162.02 64.52 161.72 64.4 158.75 63.55 157.56 63.34 156.4 63.27 155.76 62.92 154.51 61.6 154.47 61.43 155.04 58.94 155.27 58.57 155.77 58.26 156.43 57.97 156.93 58.04 157.55 58.28 157.77 58.41 157.9 58.64 158.24 58.85 160.64 59.21 161.78 59.29 162.03 59.2 164.25 57.96 164.4 57.8 164.4 57.57 164.22 57.36 163.86 57.15 164.4 56.83 164.66 56.79 165.58 56.96 167.01 57.29 167.97 57.66 171.42 59.04 172.34 59.26 175.84 60.01 176.28 60.06 177.22 59.91 177.63 59.75 181.31 58.12 181.88 57.68 182.29 57.28 182.66 56.81 182.67 56.61 183.07 55.74 186.02 55.11 187.26 54.88 188.23 55.25 191.94 56.47 192.41 57.18 191.46 57.88 Z M 231.18 44.68 231.1 44.76 230.38 45.11 229.88 45.05 229.6 44.71 228.63 45.62 228.97 46.44 229.02 46.81 228.94 47.05 227.91 47.58 227.79 47.68 226.71 48.1 226.41 47.96 226.19 47.69 226.22 46.45 226.53 45.77 226.76 45.44 227.22 45.17 228.13 44.7 228.98 43.65 229.24 43.67 230.76 44.23 231.24 44.53 231.18 44.68 Z M 134.08 41.3 134.29 41.49 134.84 41.46 135.18 41.5 135.64 41.76 136.38 43.63 136.14 44.3 136.24 44.49 137.03 44.7 144.2 46.15 146.43 46.37 148.28 47.22 150.87 48.74 151.52 49.3 152.28 50.62 152 50.8 149.3 49.94 148.81 49.45 149.11 49.31 148.84 48.65 147.94 48.36 146.26 50.49 148.04 51.56 149.12 51.69 149.99 51.42 150.72 51.59 151.54 51.85 151.79 52 152.91 52.79 153.35 53.2 153.61 53.7 153.25 54.18 152.95 54.46 152.73 54.4 152.29 54.44 152.02 54.76 152.01 55.24 152.09 55.41 152.79 56.25 154.12 57.22 154.28 57.45 154.14 57.72 153.65 58.14 153.43 58.26 153.14 58.56 153.31 58.94 153.12 59.17 152.03 59.69 150.69 59.77 149.65 59.6 148.79 59.28 146.85 57.68 143.26 55.89 138.51 51.56 137.52 50.44 140.29 49.79 140.95 49.57 141.04 49.31 140.99 49.07 140.34 48.7 137.97 47.72 137.7 48.01 137.21 48.17 136.27 48.02 135.91 47.79 135.15 46.65 133.51 42.89 133.42 42.32 133.56 41.7 133.65 41.51 133.92 41.29 134.08 41.3 Z M 159.3 39.19 159.17 39.18 157.73 38.66 157.19 38.23 157.14 37.94 157.27 37.47 157.88 37.3 158.15 37.4 160.02 37.65 160.43 37.91 160.51 38.28 159.92 39.12 159.3 39.19 Z M 200.85 29.89 201.47 30.03 202.5 29.82 203.24 30.72 202.06 31.63 201.69 31.84 200.91 32.02 200.33 31.95 195.61 31.09 195.57 31.01 195.31 29.87 195.99 28.16 196.4 27.8 196.95 27.78 199.1 29.17 200.85 29.89 Z M 145.69 30.67 144.81 30.54 144.62 30.39 144.68 29.86 144.93 28.97 145.21 28.44 146.27 27.81 147.08 27.76 147.44 27.9 147.69 28.16 147.95 29.01 147.91 29.32 147.38 30.04 147.21 30.16 145.69 30.67 Z M 168.4 23.83 169.37 23.78 170.44 23.83 172.26 24.03 173.56 24.44 174.06 24.71 174.9 25.99 175.18 26.69 175.04 27.14 174.87 27.45 174.64 27.68 173.84 27.97 173.6 27.94 171.17 26.83 170.33 26.16 168.03 23.96 168.02 23.74 168.4 23.83 Z M 104.65 23.81 105.3 24.04 106.29 25.53 105.46 27.06 105.38 27.14 103.74 27.52 99.66 25.83 99.43 25.61 99.47 25.46 100.36 24.49 102.44 23.14 103.1 22.86 103.78 22.86 104.45 23.26 104.58 23.4 104.65 23.81 Z M 239.53 17.66 239.63 17.74 240.04 17.69 241.48 17.86 241.67 17.95 241.88 18.76 241.58 19.15 240.64 19.47 240.35 19.43 239.89 19.22 239.4 18.57 239.44 17.68 239.53 17.66 Z M 188.58 2.58 192.21 3.01 192.74 2.97 193.09 2.79 194.49 3.14 197.69 4.94 199.06 5.73 200.51 6.1 201.08 6.2 202.24 6.84 202.54 7.27 202.61 7.56 202.49 7.74 201.73 8.25 200.72 8.76 198.09 9.41 196.66 8.95 196.47 8.66 195.68 7.88 193.06 6.19 192.19 5.81 189.08 5.19 186.67 5.04 184.62 5.04 183.97 4.86 180.8 3.68 180.08 3.24 180.03 2.93 180.64 2.46 183.62 1.17 184.61 1 185.08 1.13 185.63 1.14 187.04 1.56 187.44 1.77 187.52 1.9 188.58 2.58 Z" fill-rule="evenodd" class="0" id="제주특별자치도 제주시"/>
<path d="M 120.6 856.51 121.32 856.61 121.56 856.73 122.1 857.48 122.3 858.47 122.1 859.09 122.21 860.76 122.35 861.33 122.75 862.61 122.94 863.37 122.99 863.98 122.87 864.86 121.89 867.15 121.76 867.4 121.41 867.85 121.17 867.98 120.45 868 120.22 867.87 119.68 867.77 119.53 867.8 119.01 867.39 117.94 864.92 117.63 863.76 117.55 862.57 118.16 861.34 118.72 860.65 118.97 860.03 119.03 859.65 119.28 858.96 119.19 858.61 119.46 858.32 119.72 858.36 120.22 857.5 120.09 857.11 120.54 856.93 120.6 856.51 Z M 123.16 806.71 122.69 807.73 124.07 807.23 125.62 807.17 125.96 807.24 127.26 807.93 130.84 811.87 131.06 812.3 131.59 813.49 131.85 814.26 131.99 814.95 131.73 815.14 130.69 815.16 130.05 814.95 125.2 816.88 124.8 817.09 124.68 817.41 125.35 817.5 126.52 817.79 124.85 820.33 124.34 820.63 122.9 821.31 121.99 821.32 121.94 821.19 122.64 820.77 122.81 820.54 122.82 820.29 122.62 819.71 121.8 818.31 120.5 816.14 120.08 815.77 119.91 815.7 117.82 815.14 116.95 815 115.55 814.41 115.31 813.93 115.4 813.6 117.03 811.48 122.01 807.43 123.16 806.71 Z M 165.3 772.98 166.03 773.54 166.48 773.51 166.66 773.85 166.51 774.49 165.01 775.24 164.84 775.18 164.14 774.22 164.03 773.91 164.04 772.6 164.26 772.53 164.91 772.74 165.3 772.98 Z M 359.48 764.01 360.05 764.18 361.76 765.46 362.23 765.9 362.37 766.45 362.4 767.11 361.7 768.16 360.23 768.27 359.61 768.28 359.08 768.2 358.27 767.53 358.15 767.35 357.81 766.21 357.77 765.88 357.91 765.62 359.08 764.1 359.24 763.98 359.48 764.01 Z M 494.38 761.19 492.5 761.78 491.08 761.21 490.54 760.81 490.41 760.33 490.94 758.43 491.18 758.3 494.37 757.49 494.7 757.43 495.23 757.55 497.11 758.52 497.24 758.72 497.25 758.96 497.03 759.45 494.38 761.19 Z M 408.94 759.37 408.05 759.39 406.06 759.24 405.96 759.19 404.96 758.52 404.77 758.19 404.72 757.8 404.92 757.35 405.36 757.03 405.59 756.94 406.58 756.91 408.39 757.05 409.05 757.29 409.86 757.76 410.14 758.1 410.17 758.32 410.08 758.85 409.83 759.24 408.94 759.37 Z M 440.25 753.16 440.53 753.16 442.74 754.83 442.89 755.23 442.91 755.57 442.8 755.93 442.64 756.05 440.01 756.55 437.53 756.26 436.88 755.89 436.63 754.52 436.82 753.84 437.21 753.48 438.28 752.8 438.87 752.65 439.35 752.75 440.14 753.04 440.25 753.16 Z M 25.09 704.07 25.77 703.76 28.15 701.54 28.31 701.28 28.26 700.75 27.88 700.52 27 700.15 26.77 699.69 26.79 699.32 27.36 698.41 27.81 698.12 30.56 696.63 32.94 696.19 33.54 696.19 35.94 696.75 41.61 695.58 43.13 695.04 47.21 693.43 47.39 691.25 47.15 690.82 47.14 690.27 47.21 689.88 47.51 688.93 48.1 689.05 54.82 690.84 58.72 692.15 61.9 693.76 66.52 695.15 69.66 696.68 76.44 699.73 77.22 699.97 78.1 700.14 79.47 700.51 83.07 701.78 83.89 702.1 84.22 702.32 88.52 706.09 92.14 709.78 92.47 710.09 92.99 710.45 96.62 712.71 97.85 713.33 98.19 713.37 97.53 710.5 96.37 703.55 96.46 702.97 96.59 702.49 98.55 698.61 100 698.65 100.24 698.56 103.13 696.5 106.26 694.27 106.55 694.18 116.21 691.65 119.93 690.9 126.22 689.59 128.91 688.79 130.12 688.37 131.51 687.69 131.82 687.35 131.94 686.73 131.92 686.08 132.19 685.51 132.87 685.02 134.21 684.26 134.61 684.07 136.61 683.69 137.59 683.62 138.34 683.18 139.2 681.94 139.32 680.51 142.01 678.65 144.17 677.24 144.71 676.18 145.62 672.99 146.97 669.01 147.97 666.22 151.65 665.66 154.97 663.92 155.07 663.57 155.56 662.88 157.21 661.68 159.83 662.69 160.45 662.84 161.4 662.52 162.19 662.08 162.84 661.49 169.13 660.94 170.06 661.15 170.72 661.52 171.28 662.25 171.67 662.56 172.21 662.72 172.68 662.66 173.21 662.49 174.44 661.74 175.1 660.91 177.11 658.66 179.68 655.82 181.03 654.58 185.82 650.35 186.51 649.36 189.66 645.61 190.22 645.36 191.57 645.34 194.94 646.23 196.62 646.99 198.03 647.65 199.14 647.93 201.52 648.17 204.36 648.08 205.76 647.96 207.1 647.67 208.06 647.38 213.41 647.61 214.52 647.71 216.44 647.73 217.62 647.5 218.1 647.28 219 646.57 219.49 645.3 220.85 643.91 222.52 643.35 223.99 642.32 224.58 642.2 229.11 642.54 229.71 642.59 233.35 643.36 234.42 644.01 236 643.95 236.94 644.15 238.2 644.51 239.71 645.41 242.09 645.01 243.16 644.79 244.34 644.3 248.42 644.29 249.74 644.48 250.5 645.33 250.75 645.52 251.5 645.91 253.44 645.66 254.63 645.4 256.52 646.79 257.62 646.85 258.76 646.66 261.73 646.41 264.7 646.2 270.38 647.09 275.43 647.32 278.34 647.65 279.13 647.75 278.39 646.64 279.08 644.52 279.28 644.08 279.67 644.16 280.11 644.04 282.82 642.43 283.43 641.78 283.57 641.47 283.96 640.45 284.15 638.76 284 637.67 283.72 636.8 283.37 636.08 283.33 635.48 283.35 634.75 283.61 634.32 284.59 633.37 285.57 632.73 288.11 631.84 291.64 630.65 294.02 630.3 296.32 630.56 297.2 630.77 298.28 630.9 301.81 631.04 305.72 630.82 309.33 629.71 310.97 629.58 312.1 629.83 316.02 631.1 319.13 632.48 321.62 632.1 323.14 631.36 326.57 630.05 326.96 629.94 327.42 629.89 327.98 629.96 328.34 630.11 328.79 630.44 331.01 632.17 331.43 632.62 331.78 633.5 331.81 634 331.92 634.27 333.23 634.43 334.83 634.43 335.51 633.87 338.26 632.25 342.36 630.03 343.15 629.72 345.07 629.94 346.64 630.18 349.01 630.71 349.82 631.07 350.42 631.51 351.43 631.39 352.37 630.85 353.68 629.54 354.72 628.58 357.79 628.4 362.96 628.92 367.03 627.87 368.62 627.12 369.93 626.65 371.38 627.14 372.45 627.9 372.88 627.13 375.21 626.61 377.47 626.46 378.77 625.68 380.15 624.7 383.19 622.66 384.93 622.34 386.31 621.78 386.86 621.29 393.66 617.48 395.74 616.41 396.55 616.77 397.76 617.67 398.03 617.78 399.26 618 399.75 617.89 401.49 616.91 403.32 617.68 406.53 618.27 408.73 618.38 410.66 618.37 413.6 618.24 416 618 416.47 617.79 418.56 617.12 420.73 616.7 423.05 616.33 427.56 615.93 430.02 615.77 435.68 613.66 436.8 613.09 438.12 612.1 438.85 611.74 445.4 608.76 446.98 608.17 449.82 607.76 451.84 607.48 452.58 607.52 453.84 607.52 456.47 607.36 457.27 607.25 458.34 606.72 459.77 605.64 460.74 605.35 461.86 605.77 462.54 606.15 464.29 605.47 464.5 604.22 464.6 603.46 464.6 603.03 464.7 602.3 465.66 600.51 467.18 599.29 468.32 598.5 468.96 598.16 469.93 597.72 472.64 596.92 472.87 597.55 473.43 597.87 474.59 598.14 480.65 597.02 482.52 596.89 484.51 596.94 487.19 596.81 490.71 596.28 491.45 596.02 491.73 595.83 491.84 594.31 492.85 592.05 493.22 591.62 493.73 591.46 494.17 591.52 495.52 591.34 497.11 590.55 497.85 589.68 498.51 589.18 499.72 588.96 502.2 588.98 504.14 589.78 504.68 590.17 505.64 590.68 506.1 590.84 506.8 590.82 507.15 590.69 513.67 586.38 519.94 581.96 522.78 579.76 524.76 578.28 526.71 577.43 531.7 574.98 533.67 573.89 536.38 572.54 537.94 571.92 538.92 571.57 541.07 571 545.3 569.98 546.7 569.96 549.04 570.01 551.09 570.02 553.22 569.99 558.06 568.77 561.4 567.64 564.48 566.53 567.03 565.49 567.21 565.34 568.71 567.56 569.57 568.22 570.41 568.74 571.72 569.52 573.87 570.71 575.17 571.23 576.53 571.56 583.92 572.22 586.6 572.01 590.51 571.59 592.51 571.16 595.57 570.4 596.44 570 600.76 567.63 602.85 566.48 603.82 565.9 604.31 565.55 609.07 561.92 609.35 561.65 610.66 560.28 611.62 559.24 615.97 557.9 616.93 557.46 619.04 554.89 620.03 553.61 620.29 553.01 621.14 551.73 621.84 551.25 624.69 551.21 625.98 551.22 626.41 551.26 627.17 551.37 627.99 551.57 629.05 551.96 629.42 552.27 629.91 552.45 631.14 552.79 631.81 552.94 632.14 552.96 633.17 552.64 634.51 551.97 634.62 551.53 635.21 550.33 636.64 549.44 637.24 549.15 638.53 548.69 639.45 548.38 640.65 548.18 642.94 547.91 646.98 546.85 649.49 546.06 653.69 546.14 654.15 546.1 654.44 545.55 655.99 541.76 657.35 539.89 658.06 539.85 661.25 539.42 662.74 538.5 665.03 536.94 668.14 535.09 668.52 534.89 672.02 533.34 677.44 531.37 677.77 531.26 681.51 531 682.82 530.86 685.04 530.27 685.5 530.11 687.66 527.76 687.62 527.29 688.34 526.69 688.69 526.44 689.66 526.08 692.17 525.46 693.43 525.25 694.05 525.23 697.92 523.63 701.29 521.36 702.71 518.92 703.92 518.34 704.36 518.24 704.95 518.32 707.1 518.31 707.43 518.27 711.28 516.87 711.69 516.43 712.06 515.6 713.44 514.05 714.22 513.4 715.11 513.6 718.35 513.88 719.16 513.45 722.34 512.45 723.34 512.21 724.5 512.39 725.39 512.21 726.38 511.98 726.66 511.85 727.4 511.19 730.96 511.61 731 512.33 731.57 513.07 732.71 514.4 733.06 514.65 733.87 514.94 736.97 515.64 737.29 515.45 738.6 514.95 740.29 514.57 742.26 514.44 742.74 514.61 742.77 514.9 742.5 515.81 741.72 516.05 741.38 516 741.28 515.86 741.99 515.44 742.48 514.84 742.46 514.7 742.12 514.62 740.33 514.64 738.65 515.01 738.86 516.23 739.23 517.5 740.29 519.9 740.79 520.45 741.26 520.85 741.69 521.1 748.74 524.21 749.12 524.22 749.39 524.12 751.34 522.93 753.03 521.71 753.22 522.9 753.06 524.69 751.7 525.51 750.06 527.79 749.15 528.76 749.24 529.16 749.53 529.24 750.06 528.95 750.42 529.01 750.55 529.17 750.77 529.69 750.85 530.2 750.36 530.84 749.78 533.75 750.84 536.07 751.09 536.81 751.51 537.59 752.17 537.57 755.74 535.8 756.27 535.41 756.76 534.86 759.62 529.54 759.79 528.84 759.55 528.31 759.33 528.02 758.99 527.71 758.48 527.36 758 527.19 757.38 527.04 757.07 527.08 755.95 526.24 756.7 523.77 757.72 521.79 756.62 520.84 756.92 520.28 763.06 520.22 763.28 515.89 763.32 515.52 763.75 515.53 763.81 515.7 763.93 518.86 763.92 520 763.63 520.88 763.42 521.33 763.61 524.21 764.24 529.03 764.37 529.34 764.85 529.54 765.17 529.39 766.6 530.81 766.78 531.41 767.14 531.73 768.68 532.06 769.66 532.21 770.45 532.22 771.05 532.43 772.78 533.69 773.82 536.27 773.65 536.96 772.13 537.69 771.45 537.91 770.84 537.98 769.91 537.93 769.14 537.78 768.43 537.54 766.32 536.46 765.19 535.66 763.84 534.34 762.6 532.82 762.43 532.54 762.24 532.53 761.17 532.75 760.3 533.09 759.55 533.45 758.1 534.42 757.85 534.65 757.25 535.56 756.58 536.72 756.89 536.66 757.2 536.34 757.84 536.11 758.09 536.75 758.14 537.18 753.68 541.3 752.23 542.4 751.31 542.9 751.04 543.13 750.92 543.35 750.72 544 750.14 548.44 750.07 549.16 750.15 549.64 750.31 550.1 750.6 550.46 750.53 551.73 750.47 551.96 750.51 552.64 750.6 552.94 753.38 556.81 753.55 556.96 755.41 558.18 758.05 559.02 758.97 558.98 759.49 558.88 762 560.4 763.88 562.09 764.28 562.49 764.33 562.74 764.24 563 763.16 563.74 762.69 563.58 762.29 563.7 762.13 563.84 760.92 565.51 759.92 566.71 759.81 566.88 759.06 568.35 759.29 568.83 759.03 569.34 757.4 569.31 751.41 565.63 752.54 563.44 753.01 563.52 753.55 563.05 753.71 562.37 753.67 561.82 753.59 561.56 752.33 558.3 752.14 558.07 751.63 557.8 750.8 557.5 750.18 557.32 749.42 557.19 748.51 557.14 746.88 557.45 745.88 557.77 744.91 558.19 744.59 558.44 743.87 559.64 743.91 559.91 744.5 560.92 744.5 561.22 745.06 563.07 746.25 564.63 746.43 564.82 744.31 566.32 742.85 567.98 742.75 568.24 743.07 568.88 743.17 570.95 743.07 571.17 741.88 571.69 741.13 572.4 740.08 574.02 739.96 576.09 739.38 580.13 738.81 581.73 737.15 584.88 736.73 585.21 734.71 586.41 733.62 586.55 733.04 587.05 732.36 588.03 731.76 589.21 731.8 589.37 732.21 589.77 733.31 590.27 736.15 592.8 736.24 593.14 736.11 596.85 735.35 599.25 734.81 599.9 733.73 600.47 726.76 602.63 726.25 602.61 725.39 602.45 724.13 602.51 723.37 602.61 722.23 602.86 720.15 604.24 719.31 604.94 718.85 605.5 717.81 606.04 714.76 606.65 713.24 606.92 711.66 608.52 711.7 609.07 711.59 610.42 711.4 610.93 708.46 613.76 707.03 614.77 706.5 615.01 705.49 615.95 705.22 616.41 705.13 616.73 704.26 617.18 703.13 618.11 702.91 618.06 702.7 617.86 702.35 617.76 701.72 617.71 701.51 617.84 700.9 618.96 700.99 619.04 701.87 619.12 702.21 618.84 702.84 618.72 703.62 619.02 703.74 619.18 703.6 621.68 703.48 621.78 702.6 622.9 702.31 623.23 702.31 623.44 702.53 623.67 701.93 624.11 700.68 624.53 698.99 625.13 698.05 625.61 697.76 625.93 697.71 626.89 697.85 627.23 698.63 626.96 699.33 627.27 699.65 627.48 699.94 627.87 699.68 628.47 699.51 628.56 699.22 628.36 698.99 628.38 698.25 628.65 698.19 628.88 698.39 629.42 698.5 630.76 698.67 630.97 699.35 632.15 699.09 633.85 698.9 634.94 698.7 635.35 698.24 636.04 697.63 636.68 694.42 640.59 693.67 641.39 693.52 641.48 692.13 641.7 690.88 641.87 690.48 642.15 689.63 643.97 689.67 645.47 689.85 647.01 689.52 647.12 688.1 646.02 687.72 646.27 687.18 648.15 687.68 648.68 687.62 650.09 687.29 650.72 686.66 650.7 686.01 650.59 684.45 650.85 683.16 651.49 682.31 652.16 682.32 652.29 682.04 652.92 681.71 653.08 681.56 653.03 680.99 652.56 680.61 651.98 679.33 652.64 675.47 655.61 675.24 655.77 674.82 657.37 674.61 658.33 674.43 659.77 674.43 659.95 674.66 660.39 675.98 662.79 676.75 662.92 678.22 662.67 680.06 662.69 680.44 662.74 680.63 662.86 680.89 663.3 680.87 663.41 680.14 664.36 679.32 664.83 678.97 664.96 679.42 668.12 679.41 668.51 678.57 668.73 678.38 668.37 678.09 668.12 677.85 668.05 677.53 668.07 674.93 669.01 674.73 669.24 674.31 670.05 669.63 674.61 669.51 675.36 668.81 676.45 668.14 676.93 667.81 676.95 667.65 676.74 667.07 677.77 667.31 677.94 667.46 678.18 667.28 678.79 666.22 678.87 665.35 678.83 663.75 679.44 663.18 679.75 661.79 681.01 659.69 681.39 654.5 682.2 653.77 682.05 652.89 681.69 652.44 681.22 652.45 680.93 651.38 680.1 648.66 679.96 648.12 680.12 644.62 682.1 643.74 682.71 644.21 683.41 644.21 683.65 643.95 684.04 643.74 684.21 641.02 685.51 640.32 685.59 639.59 685.48 639.28 685.13 637.99 683.43 638 682.95 638.28 682 636.63 682.91 635.99 683.15 635.8 683.79 635.7 684.28 633.69 684.66 631.34 684.61 628.66 683.69 625.24 684.59 624.94 684.7 624.33 684.46 622.59 683.63 621.39 683.03 618.69 681.64 616.76 681.82 612.3 680.73 611.56 680.82 610.96 681.06 610.4 681.42 610.22 681.63 609.97 682.12 608.39 684.43 607.42 685.83 606.65 686.62 606.33 686.91 605.5 687.11 604.52 687.23 602.67 687.79 600.34 688.78 599.15 692.16 598.69 694.78 598.86 695.17 595.54 695.31 594.15 695.95 592.08 698.3 591.43 699.15 587.36 701.23 585.24 701.77 584.46 703.97 583.34 705.96 580.64 707.73 580.19 708 577.76 708.83 577.45 708.86 574.93 709.06 574.16 708.71 573.45 708.24 572.93 707.32 570.79 705.45 570.37 705.27 568.74 705.05 568.24 705.13 568.08 705.29 566.72 708 562.1 707.13 561.47 707.23 559.06 707.98 558.85 708.19 558.91 708.47 558.12 710.01 557.02 710.47 555.51 709.65 550.87 710.02 549.44 710.3 548.34 711.33 546.72 711.91 544.77 712.44 543.01 712.5 541.8 712.76 538.89 713.87 538.33 714.12 537.69 714.5 536.01 715.45 528.48 716.38 522.87 716.8 520.53 716.66 519.42 715.87 518.3 715.49 515.85 715.59 515.4 715.83 515.34 716.22 515.65 717.17 515.51 717.96 515.01 719.09 514.45 719.02 512.59 717.9 511.91 716.95 508.66 715.64 508.08 715.45 506.84 715.3 502.75 716.06 500.77 713.56 500.62 712.71 500.41 712.46 499.97 712.28 499.15 712.19 497.76 712.19 497.14 712.28 496.33 712.49 496.12 712.64 496.02 712.98 496.1 713.19 496.88 713.51 498.78 717.33 495.99 717.7 492.84 717.71 488.2 717.77 487.94 717.63 487.11 717.61 486.63 717.69 483 719.25 480.99 720.13 480.63 720.47 480.28 722.38 480.33 722.77 481.19 722.58 482.25 724.01 482.31 724.22 482.16 724.51 481.04 725.94 480.89 726.07 480.04 726.26 479.4 726.36 478.69 726.65 478.41 726.87 478.44 726.98 479.19 727.65 479.38 728.29 479.34 728.42 478.95 728.75 476.66 729.05 475.23 728.97 473.31 729.84 472.82 730.56 472.66 730.97 472.64 731.22 472.11 731.65 471.97 731.97 471.06 732.15 470.6 732.03 469.99 731.26 469.44 731.19 468.07 731.31 467.66 731.61 467.57 731.79 468.1 733.09 467.5 733.92 467.21 734.2 466.72 734.43 465.67 734.5 464.38 734.36 463.87 734.36 463.49 734.51 462.02 735.01 459.93 735.63 459.34 735.77 459.22 735.98 458.72 740.14 458.72 740.54 458.92 741.09 459.48 741.19 459.5 741.84 459.43 742.03 459.14 742.46 458.4 743.23 457.88 743.63 457.45 743.83 454.02 745.19 453.79 745.22 452.51 745.2 451.26 745.39 450.47 745.58 446.51 746.8 445.24 746.39 444.95 746.39 444.69 746.48 443.4 747.12 442.14 748.56 440.19 750.41 439.11 750.52 434.62 748.36 432.03 746.68 432.21 744.82 431.93 744.16 426.63 741.67 425.86 741.52 425.42 741.52 425.26 741.95 424.94 742.43 424.11 742.9 423.53 742.95 422.02 742.36 420.6 741.28 419.09 740.48 418.91 740.45 418.1 740.46 413.97 740.94 413.18 741.01 412.01 741.29 411.47 741.51 410.49 742.08 410.27 742.25 408.78 745.16 409.46 745.88 410.71 747.03 412.29 748.58 412.53 748.93 412.47 749.44 412.35 749.65 409.31 752.04 409.11 752.17 408.83 752.15 408.62 751.87 409.01 751.23 411.61 749.24 408.93 746.86 408.9 746.85 407.19 747.41 406.35 747.09 403.41 745.2 402.65 744.43 402.56 744.02 402.72 743.4 402.75 742.26 402.66 742.25 402.09 742.77 401.43 743.54 401.07 744.16 400.97 746.31 401.05 746.45 401.94 747.49 404.59 746.76 405.16 747.49 405.86 748.81 405.88 750.18 403.54 750.06 401.26 748.65 400.99 748.22 401.46 747.9 400.45 746.76 399.73 746.03 399.22 745.95 398.24 746.13 397.42 746.39 397.02 746.33 396.42 746.12 394.27 744.91 393.58 744.26 393.04 743.92 392.63 743.9 392.38 743.97 392.01 744.27 390.54 745.76 387.85 745.61 387.24 745.28 386.8 745.84 386 746.41 385.76 746.32 385.68 746.01 385.23 745.19 384.88 744.92 383.32 743.81 382.77 743.6 381.72 743.63 381.31 743.73 378.63 744.98 375.95 745.94 373.43 745.67 371.07 745.34 364.52 744.23 364.11 744.24 363.76 744.57 363.81 745.08 363.53 746.5 362.18 747.89 361.74 748.2 361.07 748.23 358.85 748.8 357.31 750.54 356.79 751.98 356.4 752.2 354.98 753.4 354.53 753.92 354.54 754.06 354.12 754.36 352.33 755 350.66 755.02 349.67 754.96 349.38 754.87 348.99 753.89 347.97 754.6 342.66 755.55 342.05 755.23 341.71 754.79 341.71 754.35 342.04 753.99 341.66 753.23 341.37 752.94 340.99 752.73 340.55 752.66 335.7 752.33 335.62 752.35 335.36 753.4 333.8 753.56 331.07 754.39 330.25 754.69 327.84 756.45 322.69 757.15 321.33 758.35 322.69 760.7 322.64 760.85 320.41 761.37 317.91 761.51 317.8 761.49 316.36 760.75 315.1 759.12 314.5 758.23 312.17 756.22 310.06 754.98 306.96 753.53 308.1 751.78 308.28 751.57 308.37 751.05 308.1 749.58 307.8 748.51 307.42 747.55 306.24 746.25 305.61 745.74 305.39 745.71 304.63 745.75 303.44 745.09 303.18 744.77 302.69 743.98 302.6 744.43 302.42 744.71 302.05 745.02 301.54 745.05 300.93 744.88 300.67 744.52 299.91 744.08 297.78 743.66 297.46 743.69 295.96 744 295.41 744.25 295.09 744.61 295.11 744.77 294.82 745.18 294.32 745.52 293.54 745.89 288.59 747.82 288.18 747.85 285.44 747.15 285.49 746.25 285.16 746.07 284.82 746.05 284.44 746.11 281.53 748.62 280.62 749.99 275.93 749.76 273.74 749.29 270.94 748.03 270.02 747.16 269.95 746.8 269.27 745.66 267.3 743.63 265.28 741.73 265.21 741.63 260.26 740.71 259.69 740.66 257.78 740.55 257.49 740.56 256.02 740.73 255.39 740.92 253 742.06 246.28 744.81 242.89 747.21 242.61 747.25 241.09 747.32 239.01 747.93 234.75 750.38 230.96 751.36 230.64 751.08 229.55 750.83 229.17 750.82 228.17 750.91 227.87 751 224.6 751.16 224.12 751.3 222.02 753.01 221.63 753.69 221.59 754.32 221.67 755.02 219.22 755.37 218.17 755.16 217.54 754.89 217.48 754.69 218.01 754.71 217.74 754.27 217.13 753.44 216.76 753.27 216.15 753.46 215.79 753.78 215.64 754.19 215.6 754.57 215.84 755.18 216.08 755.3 215.73 755.74 215.58 755.75 214.6 755.24 214.09 754.88 212.49 753.1 211.74 751.1 211.35 749.77 211.24 748.98 211.53 748.02 210.85 747.88 209.75 748.63 209.46 748.76 209.47 749.57 209.79 749.93 210.29 750.23 210.3 750.32 209.56 750.66 207.91 750.5 207.26 750.26 207.36 749.9 207.71 749.65 205.25 748.84 203.19 749.58 200.5 750.2 199.56 750.36 199.27 750.33 198.37 749.87 198.02 749.51 196.77 748.81 196.19 748.67 194.03 748.63 194.01 748.97 193.43 749.77 193.14 749.92 190.83 750 190.65 749.98 188.78 749.47 183.82 750.97 179.65 752.99 178.2 753.05 178.22 752.46 179.49 752.45 185.61 750.11 184.3 746.15 184.08 745.76 183.51 745.39 181.83 744.52 180.98 744.21 178.18 744.35 176.61 744.75 171.39 746.3 170.51 746.7 169.09 747.43 167.53 748.4 167.15 748.68 166.8 749.26 165.88 751.9 163.53 752.36 162.86 752.57 162.34 752.94 161.03 754.78 160.93 754.98 160.97 755.36 161.15 755.64 161.07 756.28 160.9 756.78 160.57 757.6 159.77 758.23 157.68 758.64 157.47 758.6 157.39 758.36 157.72 757.74 158.48 757.5 158.7 757.54 159.04 757.44 159.72 757.15 159.77 756.9 159.37 756.77 158.18 756.47 157.33 756.71 153.82 758.05 153.04 758.41 152.77 758.65 149.94 761.44 149.65 761.64 149.45 761.89 149.12 762.48 147.89 765.21 148.16 766.56 146.85 768.46 146.67 770.41 146.47 770.88 145.87 771.65 145.17 772.07 144.9 772.11 144.69 771.98 144.46 772.28 144.23 772.88 143.07 776.59 142.64 777.18 142.17 778.16 142.09 778.55 142.15 779.48 142.25 779.78 142.47 780.06 142.99 780.31 143.28 780.31 144.78 780.94 145.01 781.36 146.54 785.53 146.57 785.94 146.48 786.43 146.2 786.8 143.26 788.02 142.82 788.15 141.84 788.29 141.52 788.25 139.97 787.67 139.36 787.34 138.58 786.79 138.21 786.26 137.49 784.38 137.48 783.71 137.4 783.25 136.93 783.12 129.47 784.42 127.98 785.08 127.8 785.28 127.89 785.5 128.22 785.82 128.97 786.29 129.45 786.46 129.49 786.62 129.32 787.03 128.61 787.72 124.67 789.34 123.44 789.28 123.03 789.2 118.61 787.66 117.1 786.97 114.48 784.58 113.95 783.82 114.02 783.15 114.79 782.31 116.43 782.13 116.86 781.37 116.78 780.88 117.41 778.61 117.39 778.34 116.85 776.66 116.06 774.54 115.18 773.7 114.76 773.36 114.4 773.16 113.98 773.1 113.07 773.11 109.15 773.55 108.75 774.18 108.79 774.33 109.66 776.17 109.84 776.33 110.9 776.8 111.97 776.8 112.14 776.68 112.62 776.7 112.6 777.12 110.9 777.15 109.58 776.51 109.35 776.07 108.27 773.77 105.33 770.13 105.02 769.69 103.97 765.63 104.44 764.76 103.73 764.14 103.32 764.15 103.08 764.33 101.24 766.51 98.9 764.75 98.46 764.39 96.75 763.55 95.94 763.4 94.69 762.94 94.14 762.19 94.07 761.66 94.05 761.2 94.1 760.69 93.92 759.91 93.34 758.53 91.91 757.5 91.06 756.94 89.74 755.52 89.84 754.66 88.71 752.05 87.71 750.18 87.02 749.68 86.84 749.61 83.86 749.04 83.32 748.97 83.05 749.08 82.72 749.1 81.1 748 80.2 745.88 76.55 744.41 76.45 744.28 74.32 742.56 73.8 742.3 70.33 742.14 70.01 742.19 68.74 742.64 64.9 742.2 57.63 739.79 49.71 734.63 49.49 734.33 49.56 733.74 49.31 733 48.67 732.31 47.48 731.44 42.46 728.91 38.13 726.1 37.17 725.06 36.7 724.1 36.48 723.52 36.44 721.89 35.94 720.26 34.87 718.18 33.78 717.24 30.74 714.95 28.49 713.5 25.36 711.4 25.18 710.56 25.21 709.84 25.58 708.05 25.4 705.65 25.09 704.07 Z" fill-rule="evenodd" class="1" id="제주특별자치도 서귀포시"/>
</g>
</svg>