<?xml version="1.0"?>
<svg xmlns="http://www.w3.org/2000/svg" version="1.2" baseProfile="tiny" width="800" height="725" viewBox="0 0 800 725" stroke-linecap="round" stroke-linejoin="round">
<g id="충청북도_2020">
<path d="M 378.31 54.85 381.42 55.92 383.16 56.16 385.83 55.78 387.78 56.96 390.54 56.54 394.58 56.82 399.92 59.4 401.05 59.5 402.66 60.26 402.6 61.02 403.53 62.96 404.31 63.46 404.58 66.16 403.86 67.82 404.2 68.62 407.65 68.84 409.5 71.61 410.39 73.99 410.94 74.77 412.89 74.56 413.56 76.09 412.53 77.37 412.47 78.81 413.03 79.28 412.93 81.06 412.16 82.32 412.57 85.65 413.58 86.5 416.05 86.62 418.49 87.1 420.56 88.1 420.78 89.47 421.91 92.61 423.28 93.76 426.65 93.71 427.71 93.13 428.31 90.05 428.03 88.43 428.82 86.76 430.06 86.35 431.42 84.61 432.58 82.48 435.2 83.85 440.15 84.69 442.13 85.87 444.03 85.62 446.05 83.97 447.78 84.11 447.93 85.17 449.12 87.79 447.43 90.08 451.79 94.59 455.5 94.24 456.8 94.32 457.7 95.2 455.59 97.8 455.21 98.98 456.22 100.56 458.89 100.83 461.1 100.75 464.93 101.95 465.71 102.79 466.91 103.12 470.47 106.76 469.18 108.44 468.62 109.82 469.99 112 470.78 112.76 470.6 114.01 468.92 116.77 469.63 118.3 467.87 122.79 469.03 123.25 470.03 125.11 469.45 126.49 469.43 128.29 471.18 130.08 472.53 132.69 471.61 134.75 473.47 137.36 471.87 137.69 470.66 139.28 471.74 139.7 472.5 140.94 471.11 144.6 468 145.78 465.4 147.75 465.36 149.66 466.44 150.41 466.78 153.01 469.34 153.29 469.99 153.83 470.29 156.44 470.75 156.81 473.26 156.98 473.76 159.27 473.91 161.23 471.18 170.42 471.75 173.34 471.62 177.38 471.25 179.34 470.24 181.21 468.42 180.92 464.59 179.88 459.75 176.98 458.39 175.27 455.83 174 454.66 174.01 449.25 176.25 449.04 176.59 445.68 177.31 446.05 180.09 445.49 181.24 445.68 185.07 446.58 186.55 447.96 187.57 450.7 188.83 451.85 188.99 454.77 190.24 455.71 191.57 456.25 195.53 457.27 197.32 462.28 200.17 463.2 201.21 462.93 202.52 461.43 202.24 459.46 203.44 460.54 205.99 459.57 207.8 459.48 212.47 458.48 213.49 455.92 215.37 455.29 216.17 456.21 216.84 456.11 217.59 453.18 219.03 451.79 221.29 451.57 222.6 450.57 225.04 447.43 226.02 446.76 228.66 446.8 230.06 445.7 231.47 443.41 232.23 441.67 235 442.39 236.91 446.55 238.76 452.66 241.03 454.74 241.53 455.14 244.01 456.13 244.73 457.55 244.52 459.86 241.63 460.93 240.65 467.3 238.51 469.75 238.2 471.56 237.03 474.05 238.4 474.35 240.22 475.36 242.34 475.97 246.43 477.63 247.48 483.17 249.16 485.23 249.43 486.53 249.25 491.87 247.28 494.41 247.23 496.37 248.03 498.49 247.9 498.72 250.43 496.35 252.34 493.29 253.01 490.01 253.96 489.71 254.46 486.51 254.74 484.72 254.56 484.55 256.5 483.82 259.09 483.76 260.87 483.13 262.69 482.41 263.48 480.15 263.28 475.62 264.83 474.94 265.27 475.25 268.8 473.26 268.88 469.65 267.34 469.66 265.63 470.54 264.49 468.97 262.97 465.78 260.56 462.67 258.48 460.09 257.2 458.26 256.81 455.38 257.42 452.73 255.88 451.49 256.09 450.32 255.51 449.43 254.47 448.43 254.03 445.52 254.98 443.66 254.51 442.13 252.65 438.56 252.23 437.57 252.48 434.97 251.85 434.38 252.56 434.85 253.61 433.89 256.84 434.77 258.03 434.39 259.32 433.28 260.97 431.57 262.13 427.75 262.99 425.06 261.76 422.41 260.87 419.75 259.42 416.73 259.58 414.28 258.2 412.5 257.58 410.83 257.66 411.23 256.56 410.51 253.34 407.12 253.17 405.02 252.15 404.56 250.65 406.72 246.89 407.79 245.96 406.16 242.51 404.94 241.87 402.61 238.23 401.84 237.37 403.27 232.49 399.82 231.4 398.21 229.14 395.91 227.23 394.84 226.93 391.99 225 390.01 224.94 389.41 224.29 389.4 223.06 392.01 218.76 393.14 217.77 392.77 216.9 389.69 215.81 387.76 215.94 384.08 215.86 381.67 216.1 379.99 216.96 377.13 218.82 374.27 219.82 373.18 219.87 371.26 217.85 370.99 217.22 368.86 216.74 367.77 216.93 365.13 215.91 364.88 212.65 363.09 210.98 360.7 213 358.32 213.9 353.19 214.53 352.32 211.32 346.92 211.46 344.41 210.6 342.16 211.1 340.11 209.08 338.88 206.05 336.98 204.71 334.6 203.68 331.77 203.54 327.76 201.6 327.16 200.66 329.47 198.81 328.23 197.4 330.09 193.47 329.99 192.83 328.17 191.49 325.81 191.31 325.15 190.75 323.5 188.38 324.26 186.95 324.16 185.79 320.26 185.25 320.03 184.44 317.56 183.7 316.78 184.86 313.38 185.27 310.53 185.94 309.21 184.78 309.3 183.24 308.88 182.25 304.96 181.33 302.12 182.27 301.23 185.29 300.2 186.48 298.12 187.33 295.99 187.03 294.01 188.68 290.93 189.56 290.04 189.32 287.7 187.57 285.68 185.64 284.67 185.82 283.23 183.34 284.09 182.03 283.04 180.42 280.79 178.36 278.63 177.08 277.77 175.29 276.66 176.03 273.26 176.67 272.92 177.54 270.94 178.43 269.85 178.52 268.57 177.54 266.15 177.77 265.63 176.65 264.44 175.28 262.64 174.64 261.98 175.11 259.86 174.84 256.52 175.02 255.49 173.45 252.94 171.52 250.46 170.74 249.4 168.81 249.02 167.51 247.37 166.08 245.64 166 243.87 165.41 244.01 163.75 239.31 161.64 239.73 159.88 239.14 159.08 236.67 159.37 234.2 158.78 232.57 159.16 230.92 159.09 229.85 157.96 227.79 158.61 226.11 160.18 228.64 160.28 229.22 161.1 227.98 163.27 224.91 164.01 222.03 162.85 218.89 160.99 218.57 160.5 220.22 158.69 219.63 157.71 219.56 155.71 220.01 154.85 219.95 152.34 221.53 149.87 222.36 149.16 225.66 148.38 223.79 146.18 221.97 143.4 221.72 141.66 224.43 138.42 226.55 137.43 226.68 135.43 226.36 133.15 228.2 131.62 230.85 130.78 230.58 129.27 230.82 127.56 231.87 127.12 233.7 125.28 235.25 125.03 238.47 123.58 241.94 120.09 241.42 118.24 241.37 115.92 240.59 112.79 239.23 108.38 237.36 107.19 237.66 105.35 239.3 103.92 242.54 103.7 243.27 101.25 246.69 97.72 247.11 96.2 245.92 93.9 246 93.21 248.19 91.1 250.49 89.85 252.2 89.73 254.41 89.18 256.01 87.2 257.08 87.3 259.31 86.44 260.33 83.63 259.91 80.79 258.98 79.49 257.3 78.17 255.56 78.03 254.04 76.75 252.94 74.5 253.43 74.02 252.7 72.46 250.76 71.35 247.23 70.94 244.45 69.41 243.9 68.93 243.64 66.41 244.29 63.14 247.42 61.68 249.55 59.42 249.86 56.5 249.89 53.69 251 52.06 252.1 51.71 254.23 48.31 256.87 44.46 259.55 44.67 260.29 45.54 262.38 44.98 263.48 41.97 263.29 41.44 264.15 39.29 265.92 37.28 266.29 33.88 267.7 31.64 267.51 30.17 268.37 28.93 270.53 27.89 272.3 26.39 273.02 26.93 272.66 28.33 272.73 30.47 273.62 32.9 274.82 34.66 275.43 36.73 276.14 40.43 275.71 40.91 276.12 43.03 276.81 45.05 278.44 48.76 279.54 51.76 284.57 58.05 288.2 60.92 290.54 62.27 293.18 64.16 297.82 66.74 298.98 67.68 300.95 66.57 303.71 66.47 306.29 67.09 308.91 65.63 313.92 65.79 315.14 65.47 319.77 62.54 324.01 62.62 326.73 62.91 332.24 62.23 333.73 61.75 334.36 60.91 335.24 58.22 337.12 58.08 337.46 60.1 340.6 60.75 340.99 57.45 342.28 56.67 346.84 55.53 348.53 55.97 350.9 57.01 351.54 56.75 355.26 57.43 357.58 58.51 360.72 60.82 362.4 63.96 364 62.81 364.88 60.45 365.41 57.93 366.63 57.05 367.19 55.02 368.05 53.92 371.77 52.9 376.09 55.37 377.33 55.43 378.31 54.85 Z" class="0" id="충청북도 충주시"/>
<path d="M 594.03 73.03 596.28 75.73 597.16 76.45 596.92 80.11 597.42 82.82 598.37 83.87 599.85 84.45 600.19 85.96 599.88 87.15 598.77 87.66 597.21 92.68 595.39 93.72 594.09 93.39 591.49 93.99 589.57 92.34 587.52 91.6 586.85 89.68 584.62 87.69 583.69 88.15 582.11 86.62 582.64 84.82 582.01 83.69 579.36 82.99 576.07 85.01 575.05 88.34 573.47 88.54 571.83 90.39 569.69 92.02 569.7 92.73 571.58 93.37 572.69 95.39 572.51 96.54 573.15 98.5 575.58 99.85 577.37 99.98 575.43 101.63 573.14 102.85 570.14 102.85 569.03 103.29 566.56 105.63 566.5 106.73 565.57 107.31 564.14 106.26 562.6 106.65 559.86 108.18 559.2 109.57 559.22 111.94 558.35 112.93 556.29 113.23 553.23 114.38 551.72 114.72 551.37 116.15 549.71 118.34 547.37 119.37 547.95 120.85 549.22 122.13 548.02 124.29 548.6 126.75 546.94 129.19 549.2 129.94 551.17 130.98 550.96 132.69 551.54 135.1 553.27 136.68 558.74 136.24 559.33 136.33 562.47 138.65 563.62 141.18 565.36 143.56 566.61 144.73 568.3 145.45 569.52 147.67 570.41 150.8 569.48 152.03 569.93 153.35 570.94 154.76 570.07 159.75 571.42 163.28 571.8 166.7 572.72 169.64 574.77 173.26 575.01 174.11 571.6 177.08 572.72 177.98 574.41 178.56 573.85 180.19 572.42 180.32 570.82 181.42 569.38 183.39 566.65 184.28 564.48 183.01 563 184.62 564.45 186.14 564.27 186.93 562.79 187.57 561.84 187.48 558.28 189.18 558.01 191.1 558.22 192.98 558.3 199.27 559.03 200.92 561 201.74 562.42 204.5 563.58 204.96 563.84 206.4 562.39 211.07 562.41 214.15 564.42 215.6 566.53 217.77 562.01 221.11 561.74 223.48 561.26 224.96 560.42 225.56 559.91 229.16 557.1 230.47 557.57 232.75 556.86 234.44 557.07 235.48 557.95 236.73 559.46 237.81 558.48 240.62 554.48 240.61 550.8 239.83 548.83 238.89 546.67 238.33 544.28 238.08 543.25 240.53 543.46 243.04 544.55 244.22 545.42 246.71 545.32 249.05 546.19 251.77 546.51 254.9 547.05 256.32 546.41 259.7 545.26 260.14 541.16 259.72 539.13 259.18 533.34 257 530.21 257.49 528.19 257.28 522.64 254.83 520.38 254.11 516.92 254.68 515.34 254.75 513.81 254.16 511.11 254.16 508.84 253.44 507.92 250.92 506.54 249.89 504.67 249.43 503.25 247.59 498.49 247.9 496.37 248.03 494.41 247.23 491.87 247.28 486.53 249.25 485.23 249.43 483.17 249.16 477.63 247.48 475.97 246.43 475.36 242.34 474.35 240.22 474.05 238.4 471.56 237.03 469.75 238.2 467.3 238.51 460.93 240.65 459.86 241.63 457.55 244.52 456.13 244.73 455.14 244.01 454.74 241.53 452.66 241.03 446.55 238.76 442.39 236.91 441.67 235 443.41 232.23 445.7 231.47 446.8 230.06 446.76 228.66 447.43 226.02 450.57 225.04 451.57 222.6 451.79 221.29 453.18 219.03 456.11 217.59 456.21 216.84 455.29 216.17 455.92 215.37 458.48 213.49 459.48 212.47 459.57 207.8 460.54 205.99 459.46 203.44 461.43 202.24 462.93 202.52 463.2 201.21 462.28 200.17 457.27 197.32 456.25 195.53 455.71 191.57 454.77 190.24 451.85 188.99 450.7 188.83 447.96 187.57 446.58 186.55 445.68 185.07 445.49 181.24 446.05 180.09 445.68 177.31 449.04 176.59 449.25 176.25 454.66 174.01 455.83 174 458.39 175.27 459.75 176.98 464.59 179.88 468.42 180.92 470.24 181.21 471.25 179.34 471.62 177.38 471.75 173.34 471.18 170.42 473.91 161.23 473.76 159.27 473.26 156.98 470.75 156.81 470.29 156.44 469.99 153.83 469.34 153.29 466.78 153.01 466.44 150.41 465.36 149.66 465.4 147.75 468 145.78 471.11 144.6 472.5 140.94 471.74 139.7 470.66 139.28 471.87 137.69 473.47 137.36 471.61 134.75 472.53 132.69 471.18 130.08 469.43 128.29 469.45 126.49 470.03 125.11 469.03 123.25 467.87 122.79 469.63 118.3 468.92 116.77 470.6 114.01 470.78 112.76 469.99 112 468.62 109.82 469.18 108.44 470.47 106.76 466.91 103.12 465.71 102.79 464.93 101.95 461.1 100.75 458.89 100.83 456.22 100.56 455.21 98.98 455.59 97.8 457.7 95.2 456.8 94.32 455.5 94.24 451.79 94.59 447.43 90.08 449.12 87.79 447.93 85.17 447.78 84.11 446.05 83.97 444.03 85.62 442.13 85.87 440.15 84.69 435.2 83.85 432.58 82.48 431.42 84.61 430.06 86.35 428.82 86.76 428.03 88.43 428.31 90.05 427.71 93.13 426.65 93.71 423.28 93.76 421.91 92.61 420.78 89.47 420.56 88.1 418.49 87.1 416.05 86.62 413.58 86.5 412.57 85.65 412.16 82.32 412.93 81.06 413.03 79.28 412.47 78.81 412.53 77.37 413.56 76.09 412.89 74.56 410.94 74.77 410.39 73.99 409.5 71.61 407.65 68.84 404.2 68.62 403.86 67.82 404.58 66.16 404.31 63.46 403.53 62.96 402.6 61.02 402.66 60.26 401.05 59.5 399.92 59.4 394.58 56.82 390.54 56.54 387.78 56.96 385.83 55.78 383.16 56.16 381.42 55.92 378.31 54.85 378.88 52.38 379.85 51.73 381.43 49.48 382.54 48.89 381.95 45.07 382.76 43.39 383.84 42.48 384.07 41.36 383.04 40.43 381.69 37.62 380.98 34.19 381.88 30.79 380.19 28.07 378.89 24.77 378.76 23.15 376.07 22 375.56 20.32 378.48 16.51 381.14 15.03 385.59 11.21 389.25 11.31 390.27 10.57 390.52 9.21 393.6 7.04 396.48 5.95 400.48 5.25 403.48 2.53 409.38 1 410.95 1.86 412.6 1.11 414.29 1.72 415.42 2.64 417.69 3.76 418.35 3.34 420.45 3.01 422.31 3.96 425.65 4.6 427.32 5.82 428.33 7.18 430.65 7.64 432.17 9.09 432.59 13.63 433.27 17.26 434.38 19.97 436.52 20.29 439.13 21.02 439.68 22.61 440.42 23.52 441.95 24.05 443.51 25.54 443.58 26.31 442.42 27.45 440.22 28.58 437.48 33.08 438.15 34.34 439.73 35.99 439.72 38.4 440.69 39.83 442.61 41.07 444.85 41.23 446.71 40.15 448.31 40.86 449.92 40.89 451.08 40.12 455.14 38.47 457.02 38.65 462.79 38.05 464.12 38.86 466.88 38.02 470.7 36.57 472.22 35.19 474.38 35.25 475.98 34.89 480.93 33.14 484.13 31.52 485.74 30.35 486.11 28.59 487.24 27.27 487.83 25.28 487.56 24.32 488.02 23.08 489.71 21.59 491.99 20.22 491.43 19.32 491.49 17.83 493.28 15.23 494.27 14.78 496.17 15.26 498.44 17.6 501.31 17.46 503.4 18.25 503.56 20.73 505.47 22.17 508.51 22.81 509.49 24.72 510.72 25.76 512.67 25.38 514.66 25.91 516.16 27.12 517.88 26.02 519.42 24.51 520.85 24.39 521.39 23.79 521.08 20.38 521.93 19.54 522.46 17.88 521.71 16.85 521.99 15.93 524.18 14.35 527.84 12.64 529.28 11.4 532.96 8.75 535.03 8.31 537.12 7.44 537.69 6.43 541.53 6.52 542.95 8.28 545.5 8.11 545.58 10.57 548.79 11.47 549.64 12.69 551.13 15.74 552.22 15.8 553.3 17.1 553.53 18.59 555.91 19.2 556.99 18.98 558.48 17.86 560.43 18.35 561.24 19.09 562.97 19.27 564.91 18.05 566.54 17.68 569.98 21.6 570.63 22.52 571.68 25.33 572.78 26.65 575.58 28.7 576.67 30.25 579.26 29.13 584.19 29.08 585.74 28.64 588.14 26.1 591.28 25.62 594.34 25.51 595.8 25.04 599.6 24.92 603.14 21.68 604.5 21.84 607.18 23.61 610.69 25.1 612.43 25.44 613.87 26.58 612.69 28.08 611.68 31.32 611.68 34 610.3 36.42 602.76 36.72 602.45 37.72 602.66 40.13 601.08 42.19 599.44 42.97 598.47 42.35 596.53 42.61 595.4 43.86 592.46 44.54 592.71 47.34 593.88 51.29 592.6 51.35 589.01 52.17 587.93 51.5 584.66 50.84 584.04 50.28 581.03 51.64 578.02 54.37 577.39 57.07 575.47 57.32 574.38 57.81 575.78 60.31 577.94 61.4 578.7 62.61 578.91 64.47 579.51 65.23 583.36 68.23 586.12 67.83 589.55 69.75 590.75 70.07 592.51 71.96 592.74 73.01 594.03 73.03 Z" class="1" id="충청북도 제천시"/>
<path d="M 287.37 380.65 287.54 382.29 286.95 386.43 284.93 387.64 282.63 388.48 279.08 388.72 277.25 389.67 275.92 390.75 273.66 391.53 271.45 389.83 270.86 388.04 268.72 387.25 267.95 385.48 268.53 384.61 268.23 382.96 263.74 381.63 262.79 382.56 258.78 381.42 255.08 381.8 252.67 385.26 250.3 385.78 249.59 386.34 248.93 387.83 245.8 389.3 243.95 389.65 242.38 389.15 239.56 387.58 235.78 387.38 234.8 385.36 233.21 384.95 228.87 386.14 229.12 384.99 228.59 383.42 227.03 381.57 224.25 381.46 221.62 382.82 219.85 382.21 219.46 380.15 216.58 379.73 215.9 379.15 214.71 379.72 212.58 382.04 210.96 382.8 209.77 382.83 208.41 384.08 206.57 386.67 206.62 387.73 207.54 389.39 205.99 390.95 202.6 393.72 202.22 395.26 199.38 396 195.58 400.34 195.6 402.24 197.26 404.5 199.05 406.47 197.06 408.75 196.59 410.66 191.16 413.19 188.48 412.95 186.44 414.01 184.35 415.74 182.06 415.56 177.98 416.64 177.6 417.94 176.39 419.24 174.44 419.48 171.45 420.93 170.94 421.91 168.8 423.25 170.52 425.78 171.35 428.59 173.23 431.77 173.55 434.26 173.26 436.62 172.06 437.78 171.8 441.39 173.54 445.01 175.33 445.97 175.62 446.51 172.51 448.85 170.12 450.11 169.99 451.64 167.72 452.5 165.09 457.2 163.67 457.34 163.33 460 162.78 461.18 161.9 464.47 161.21 466.22 158.28 469.46 157.09 472.17 152.63 473.31 147.73 475.23 142.56 478.68 140.86 481.16 139.51 485.97 137.48 493.03 136.6 494.01 133.69 494.25 132 493.99 131.46 492.83 129.6 490.1 129.32 487.7 128.59 485.86 127.24 484.04 125.25 480.2 125.13 479.21 127.32 475.11 129.44 473.07 133.11 470.37 133.69 468.94 132.71 466.8 131.44 466.4 126.23 468.06 123.5 468.39 122.13 468.3 120.72 467.75 119.21 466.51 118.1 465.12 118.15 463.9 119.15 462.02 120.43 460.48 121.4 458.39 122.13 455.76 121.84 454.56 119.76 454.23 117.85 452.3 117.05 449.65 116.99 446.66 115.4 446.15 114.27 446.45 112.21 446.06 111.01 444.78 107.08 443.72 106.19 442.71 105.96 441.62 104.27 440.41 101.97 440.7 101.47 437.12 100.37 435.94 99.35 433.36 99.42 432.34 102.8 431.33 104.78 429.53 104.94 427.06 105.38 426.14 105.08 422.43 104.18 419.17 103.16 417.04 100.88 416.65 100.42 416.18 100.57 412.84 102.48 413.46 103.72 413.5 106.15 412.57 107.21 412.9 111.27 415.27 111.5 416.3 114.05 416.17 119.3 413.33 121.15 413.51 122.61 414.74 123.18 413.47 122.07 411.28 120.35 409.21 119.66 409.24 119.24 407.53 120.53 405.38 119.39 404.94 116.75 404.51 114.87 405.67 113.04 405.46 112.1 404.97 111.98 403.99 112.85 398.34 113.9 397.7 114.85 395.68 116.06 393.95 118.82 393.84 120.3 392.91 122.27 392.71 124.25 393.45 125.95 392.76 126.05 391.87 130.47 389.72 130.22 386.64 129.23 386.41 129.46 382.94 129.37 377.39 129.02 376.32 129.61 374.35 127.64 373.53 127.56 369.98 126.31 368.81 121.54 366.03 120.95 365.03 121 363.42 122.14 362.4 121.86 358.45 121.11 356.96 124.17 356.87 124.18 356.08 127.14 355.74 130.28 355.8 131.64 355.56 134.05 353.89 134.62 353.94 136.64 352.08 138.59 352.25 141.79 351.13 145.14 349.4 145.58 348.04 147.51 346.64 149.41 346.25 150.69 345.47 150.06 344.72 151.96 342.85 156.1 343.12 159.29 340.33 160.87 340.54 165.25 340.04 169.94 339.82 172.44 338.02 174.24 336.33 177.02 334.12 178.43 333.87 180.9 334.56 181.46 333.45 182.99 332.34 185.32 329.18 185.94 328.91 188.15 326.47 189.41 325.84 191.96 325.73 196.05 325.15 197.59 323.44 197.69 322.26 199.48 320.63 202.42 322.27 204.95 320.62 206.37 320.73 208.16 320.36 208.41 319.82 211.26 320.33 212.98 321.67 213.67 323.43 216.77 324.21 218.77 323.78 220.88 322.4 223.31 319.22 223.7 317.72 225.42 316.25 224.78 313.72 224.69 312.01 225.16 310.43 226.47 308.31 226.49 307.55 229.61 310.41 230.49 311.8 233.96 313.47 235.21 315.04 237.65 314.89 238.1 313.54 238.98 312.96 239.98 313.46 240.11 315.05 241.17 316.6 242.83 317.95 245.5 319 246.97 318.74 248.69 319.82 248.35 322.76 249.69 324.12 251.99 324.76 254.66 327.66 254.74 330.71 257.44 331.7 260.08 333.96 261.38 335.5 262.33 335.81 262.16 338 261.55 339.31 258.23 341.87 254.74 343.32 253.03 346.55 254.17 347.91 254.2 349.78 253.4 350.14 252.5 351.62 254.42 353.77 256.07 353.02 258.15 352.81 260.62 353.21 262.06 357.05 265.27 358.39 267.23 359.96 269.16 359.02 269.66 359.73 269.19 361.18 270.28 363.73 272.35 364.92 273.04 366.43 274.63 367.14 276.05 368.25 275.81 369.64 282.03 373.33 284.55 375.4 285.17 376.84 287.37 380.65 Z" class="2" id="충청북도 청주시 상당구"/>
<path d="M 119.76 454.23 117.25 454.72 115.11 455.48 113.79 456.34 111.85 458.29 110.09 461.58 109.94 464.03 109.4 466.43 106.98 468.67 104.86 469.84 102.87 470.43 100.46 470.47 97.7 469.26 94.82 466.66 93.9 466.26 89.02 466.01 87.43 466.42 82.55 467.21 77.43 467.21 74.32 466.5 73.07 464.83 72.92 463.13 73.92 462.65 73.72 459.94 74.29 457.06 75.52 454.59 75.52 452.02 74.86 449.41 70.86 445.79 73 444.85 78.57 443.77 79.37 442.29 77.68 440.9 77.51 439.1 78.36 436.68 78.35 435.33 75.98 434.06 75.51 431.2 71.74 429.05 71.88 428.61 73.97 427.27 78.09 427.24 77.98 425.21 76.37 422.77 76.01 419.34 74.17 417.06 73.22 416.75 71.84 417.66 68.66 417.77 64.05 417.07 63.58 416.51 63.76 414.6 63.36 413.22 60.65 412.09 61.06 410.48 60.21 408.74 58.93 407.42 57.89 407.55 57.19 406.34 59.48 405.63 60.33 404.5 59.79 403.88 59.84 401.61 62.59 398.35 64.61 396.46 65.4 396.16 65.92 393.89 67.08 391.69 68.63 390.98 71.97 388.46 73.49 386.13 73.7 385.27 75.69 384.28 77.31 382.38 79.84 380.12 81.6 379.08 82.7 381.06 83.95 381.59 84.46 383.42 84.4 384.94 87.2 384.3 88.96 383.17 92.73 383.76 93.06 382.81 92.43 381.33 92.95 379.54 94.06 379.13 94.92 376.33 96.21 375.84 99.08 373.44 99.11 371.38 98.12 369.42 102.06 367.79 102.14 366.16 102.64 365.15 103.9 364.05 105.7 363.7 105.96 360.93 108.89 360.13 110.02 360.81 111.9 361.06 111.93 359.84 113.09 359.85 113.1 358.32 116.01 358.1 120.57 356.01 121.11 356.96 121.86 358.45 122.14 362.4 121 363.42 120.95 365.03 121.54 366.03 126.31 368.81 127.56 369.98 127.64 373.53 129.61 374.35 129.02 376.32 129.37 377.39 129.46 382.94 129.23 386.41 130.22 386.64 130.47 389.72 126.05 391.87 125.95 392.76 124.25 393.45 122.27 392.71 120.3 392.91 118.82 393.84 116.06 393.95 114.85 395.68 113.9 397.7 112.85 398.34 111.98 403.99 112.1 404.97 113.04 405.46 114.87 405.67 116.75 404.51 119.39 404.94 120.53 405.38 119.24 407.53 119.66 409.24 120.35 409.21 122.07 411.28 123.18 413.47 122.61 414.74 121.15 413.51 119.3 413.33 114.05 416.17 111.5 416.3 111.27 415.27 107.21 412.9 106.15 412.57 103.72 413.5 102.48 413.46 100.57 412.84 100.42 416.18 100.88 416.65 103.16 417.04 104.18 419.17 105.08 422.43 105.38 426.14 104.94 427.06 104.78 429.53 102.8 431.33 99.42 432.34 99.35 433.36 100.37 435.94 101.47 437.12 101.97 440.7 104.27 440.41 105.96 441.62 106.19 442.71 107.08 443.72 111.01 444.78 112.21 446.06 114.27 446.45 115.4 446.15 116.99 446.66 117.05 449.65 117.85 452.3 119.76 454.23 Z" class="3" id="충청북도 청주시 서원구"/>
<path d="M 25.56 310.5 26.83 311.21 30.3 310.88 33.1 312.52 37.33 313.85 39.04 314.08 42.67 314 45.38 314.5 49.22 314.86 51.58 314.77 52.05 315.27 56.93 317.36 58.56 317.7 60.68 317.22 62.45 316.06 65.61 314.71 67.52 314.59 70.01 314.93 72.86 316.92 73.23 317.78 77.74 319.42 79.41 319.78 78.3 320.9 78.38 321.88 85.01 326.86 86.82 328.48 88.11 330.28 88.04 331.23 91.35 331.14 91.46 333.87 92.33 333.85 94.57 334.54 98.37 333.71 100.15 333.49 101.58 334.73 100.4 335.81 100.55 338.77 100.99 339.44 104.63 339.42 106.49 340.05 109.73 342.74 110.62 344.06 113.05 346.7 113.81 346.71 115 348.11 116.48 350.89 120.57 356.01 116.01 358.1 113.1 358.32 113.09 359.85 111.93 359.84 111.9 361.06 110.02 360.81 108.89 360.13 105.96 360.93 105.7 363.7 103.9 364.05 102.64 365.15 102.14 366.16 102.06 367.79 98.12 369.42 99.11 371.38 99.08 373.44 96.21 375.84 94.92 376.33 94.06 379.13 92.95 379.54 92.43 381.33 93.06 382.81 92.73 383.76 88.96 383.17 87.2 384.3 84.4 384.94 84.46 383.42 83.95 381.59 82.7 381.06 81.6 379.08 79.84 380.12 77.31 382.38 75.69 384.28 73.7 385.27 73.49 386.13 71.97 388.46 68.63 390.98 67.08 391.69 65.92 393.89 65.4 396.16 64.61 396.46 62.59 398.35 59.84 401.61 56.23 402.4 52.86 403.71 51.37 403.59 50.19 404.86 47.74 405.2 44.69 404.89 42.45 403.59 39.84 403.77 37.29 404.82 36.58 404.53 35.51 401.48 36.31 400.38 33.57 397.75 30.54 396.59 27.91 393.71 27.55 392.38 22.78 392.91 18.46 392.84 17.47 392.64 15.02 391.12 15.04 390.11 17.17 388.87 17.93 387.97 17.99 384.92 18.67 383.72 18.84 381.79 17.99 380.44 15.64 378.49 16.28 376.33 15.16 372.99 14.47 372.14 13.04 371.96 12.69 370.8 12.98 368.91 10.49 368.44 9.75 365.48 10.5 362.18 9.65 361.56 8.56 361.63 2.96 363.33 1 359.88 1.79 358.68 3.24 359.36 5.13 358.43 4.46 356.78 6.08 353.96 7.09 352.99 8.56 348.8 11.03 348.25 12.76 348.41 14.97 346.89 16.46 344.82 18.07 343.77 19.49 337.53 19.54 335.38 16.89 333.38 10.56 332.44 8.66 331.04 6.67 330.16 9.02 327.61 10.49 326.53 13 326.26 15.89 324.96 19.99 322.16 18.66 320.15 19.7 317.36 19.81 314.12 21.32 311.13 22.9 311.12 25.56 310.5 Z" class="4" id="충청북도 청주시 흥덕구"/>
<path d="M 199.48 320.63 197.69 322.26 197.59 323.44 196.05 325.15 191.96 325.73 189.41 325.84 188.15 326.47 185.94 328.91 185.32 329.18 182.99 332.34 181.46 333.45 180.9 334.56 178.43 333.87 177.02 334.12 174.24 336.33 172.44 338.02 169.94 339.82 165.25 340.04 160.87 340.54 159.29 340.33 156.1 343.12 151.96 342.85 150.06 344.72 150.69 345.47 149.41 346.25 147.51 346.64 145.58 348.04 145.14 349.4 141.79 351.13 138.59 352.25 136.64 352.08 134.62 353.94 134.05 353.89 131.64 355.56 130.28 355.8 127.14 355.74 124.18 356.08 124.17 356.87 121.11 356.96 120.57 356.01 116.48 350.89 115 348.11 113.81 346.71 113.05 346.7 110.62 344.06 109.73 342.74 106.49 340.05 104.63 339.42 100.99 339.44 100.55 338.77 100.4 335.81 101.58 334.73 100.15 333.49 98.37 333.71 94.57 334.54 92.33 333.85 91.46 333.87 91.35 331.14 88.04 331.23 88.11 330.28 86.82 328.48 85.01 326.86 78.38 321.88 78.3 320.9 79.41 319.78 77.74 319.42 73.23 317.78 72.86 316.92 70.01 314.93 67.52 314.59 65.61 314.71 62.45 316.06 60.68 317.22 58.56 317.7 56.93 317.36 52.05 315.27 51.58 314.77 49.22 314.86 45.38 314.5 42.67 314 39.04 314.08 37.33 313.85 33.1 312.52 30.3 310.88 26.83 311.21 25.56 310.5 28.13 307.14 29.89 305.41 31.53 304.9 34.46 306.9 36.51 307.92 37.85 307.7 39.78 305.35 40.15 304.24 39.28 302.86 36.87 300.83 36.84 299.85 36.03 298.71 34.49 297.83 34.63 296.71 35.73 294.4 40.59 293.79 43.21 294.01 46.31 293.23 47.21 292.47 47.95 291 49.23 289.8 52.62 289.34 55.8 290.27 57.05 291.34 61.07 290.67 63.01 290.91 64.42 290.34 65.2 290.55 66.55 293.56 69.99 295.26 69.95 296.05 70.8 297.14 74.21 298.16 75.68 298.25 76.35 295.79 78 294.66 79.7 293.87 79.64 292.45 80.53 291.63 81.89 292.1 84.53 291.49 85.54 291.51 87.29 290.86 88.73 291.53 87.62 292.5 87.71 293.9 88.83 295.47 93.81 295.05 95.19 294.03 96.95 294.68 97.71 296.29 101.45 296.58 102.65 296.28 101.57 292.83 102.04 290.68 102.65 289.55 104.69 288.41 106.99 286.78 108.16 284.39 108.91 284.18 113.94 285.02 115.88 284.12 120.17 281.78 119.85 281.15 121.55 280.73 124.02 281.19 126.06 281.94 129.42 278.53 133.98 278.83 136.16 280.42 137.07 282.98 136.52 284.6 135.5 285.58 136.48 286.17 140.9 285.08 148.77 284.07 150.14 283.73 151.7 282.85 159.9 281.16 163.19 279.87 166.52 279.33 168.67 278.38 170.1 281.1 170.16 282.46 173.3 284.49 174.61 285.85 175.74 286.44 176.95 286.08 178.65 287.21 179.86 289.02 182.59 289.72 182.35 291.72 181.65 292.79 183.47 294.13 183.76 297.33 186.76 299.05 188.09 299.29 189.74 298.5 191.59 298.59 192.6 299.75 193.89 303.46 195.2 304.49 195.08 306.23 194.63 307.42 195.69 308 197.46 310.39 198.18 313.51 199.87 315.17 200.05 316.38 199.48 320.63 Z" class="5" id="충청북도 청주시 청원구"/>
<path d="M 304.19 381.76 303.56 382.8 302.83 385.72 303.08 387.23 304.22 388.31 304.81 389.61 304.17 390.84 307.46 392.56 307.9 393.77 309.75 394.49 312.68 395.04 314.45 395.69 314.8 396.95 315.6 397.66 317.55 398.58 319.25 399.85 320.93 399.49 322.55 397.9 324.89 398.56 326.56 400.32 328.34 400.3 330.14 400.97 331.05 400.89 333.41 399.85 335.42 399.71 338.36 400.64 340.1 401.57 339.98 402.74 342.5 403.85 343.6 405.93 345.84 406.67 347.28 410.25 347.03 412.72 346.22 414.57 345.93 416.14 347.9 417.02 348.62 417.78 349.18 419.51 350.87 420.85 353.39 420.74 356.51 421.44 358.97 423.28 360.93 422.89 362.44 423.42 364.47 424.7 363.57 426.48 363.92 429.52 365.01 430.97 364.52 433.31 364.95 434.68 366.66 436.76 365.73 438.66 363.48 440.61 361.66 441.87 360.07 441.94 358.9 443.31 356.5 444.97 351.72 444.89 350.71 447.09 349.18 447.74 348.71 450.76 351.81 452.23 352.83 454.99 352.03 455.76 351.57 458.02 351.92 459.26 350.5 460.09 352.59 463.13 350.86 465.51 350.75 467.02 351.26 467.64 349.93 470.35 348.42 470.69 347.63 472.68 347.47 474.42 346.9 475.3 348.26 478.87 348.82 481.8 348.52 483.29 347.85 483.84 347.78 485.17 350.59 484.87 353.03 484.88 352.77 486.91 350.91 489.37 348.95 490.68 347.52 493.47 347.78 495.2 345.37 496.9 342.09 497.25 342.12 499.14 343.51 502.05 341.59 502.75 342.54 503.96 345.66 503.9 348.44 504.21 349.91 505.64 350.98 508.67 352.72 509.42 353.86 510.61 353.27 512.17 353.24 514 351.39 515.57 348.54 515.95 345.39 514.42 343.61 514.63 341.69 513.93 339.55 513.93 337.74 515.02 335.27 515.6 329.3 515.39 327.39 514.71 326.52 514.92 325.88 516.83 323.98 516.91 323.37 516.2 323.4 514.11 321.26 513.42 319.2 512.36 318.28 510.66 315.82 509.66 311.06 509.23 305.42 509.19 302.02 507.9 301.6 506.99 299.16 505.65 297.26 506.42 295.42 506.51 294.26 505.47 292.76 505.51 291.04 506.37 288.12 506.28 285.02 504.42 283.25 502.8 282.06 504.21 280.07 504.47 279.11 504.18 274.88 507.11 272.13 506.67 271.78 506.17 268.36 503.73 267.26 503.36 265.94 503.86 264.62 504.88 263.26 504.37 262.79 503.3 260.16 502.47 258.11 501.41 257.22 500.56 256.77 499.37 253.45 496.95 251.83 495.22 251.89 493.69 252.94 492.03 252.91 491.02 250.9 491.1 249.23 490.53 247.14 490.98 245.24 490.46 240.82 488.76 239.05 488.33 237.71 488.9 236.24 488.25 235.33 485.54 234.72 484.74 234.58 483.34 235.19 481.78 235.66 477.95 232.91 476.7 228.66 473.61 227.25 472.9 226.18 473.18 224.26 475.42 222.52 476.97 221.68 477.15 220.39 476.58 218.64 474.5 217.14 474.41 216.31 473 214.44 472.86 213.07 474.32 212.34 475.64 211.83 478.11 210.89 478.33 209.34 477.02 207.2 476.07 205.52 479.38 205.09 481.31 205.37 482.4 202.67 485.92 200.7 487.15 201.14 488.47 199.13 489 199.23 492.06 198.81 493.68 196.84 496.57 194.79 497.27 191.81 496.78 191.29 495.18 191.67 494.04 190.35 493.62 190.04 494.73 188.35 494.44 187.17 492.8 183.46 492.13 182.15 491.53 182.12 490.15 180.99 489 179.44 488.94 178.58 491.06 178.49 492.29 177.79 494.1 176.49 495.22 170.7 499.38 169.13 500.27 166.93 500.81 164.81 501 163.54 501.85 162.23 501.93 163.03 501.8 165.7 500.04 165.18 499.09 164.21 499.27 161.94 498.3 161.07 495.83 160.15 494.88 157.52 493.89 155.97 492 155.36 489.91 155.61 487.83 154.07 487.05 151.27 487.8 148.13 487.86 145.48 485.59 144.56 485.61 142.85 487.19 142.15 487.39 140.46 485.96 139.51 485.97 140.86 481.16 142.56 478.68 147.73 475.23 152.63 473.31 157.09 472.17 158.28 469.46 161.21 466.22 161.9 464.47 162.78 461.18 163.33 460 163.67 457.34 165.09 457.2 167.72 452.5 169.99 451.64 170.12 450.11 172.51 448.85 175.62 446.51 175.33 445.97 173.54 445.01 171.8 441.39 172.06 437.78 173.26 436.62 173.55 434.26 173.23 431.77 171.35 428.59 170.52 425.78 168.8 423.25 170.94 421.91 171.45 420.93 174.44 419.48 176.39 419.24 177.6 417.94 177.98 416.64 182.06 415.56 184.35 415.74 186.44 414.01 188.48 412.95 191.16 413.19 196.59 410.66 197.06 408.75 199.05 406.47 197.26 404.5 195.6 402.24 195.58 400.34 199.38 396 202.22 395.26 202.6 393.72 205.99 390.95 207.54 389.39 206.62 387.73 206.57 386.67 208.41 384.08 209.77 382.83 210.96 382.8 212.58 382.04 214.71 379.72 215.9 379.15 216.58 379.73 219.46 380.15 219.85 382.21 221.62 382.82 224.25 381.46 227.03 381.57 228.59 383.42 229.12 384.99 228.87 386.14 233.21 384.95 234.8 385.36 235.78 387.38 239.56 387.58 242.38 389.15 243.95 389.65 245.8 389.3 248.93 387.83 249.59 386.34 250.3 385.78 252.67 385.26 255.08 381.8 258.78 381.42 262.79 382.56 263.74 381.63 268.23 382.96 268.53 384.61 267.95 385.48 268.72 387.25 270.86 388.04 271.45 389.83 273.66 391.53 275.92 390.75 277.25 389.67 279.08 388.72 282.63 388.48 284.93 387.64 286.95 386.43 287.54 382.29 287.37 380.65 291.54 378.3 294.29 377.89 296.11 375.61 297.09 374.98 300.31 376.98 302.14 379.38 303.46 380.43 304.19 381.76 Z" class="6" id="충청북도 보은군"/>
<path d="M 351.39 515.57 353.58 516.05 354.48 517.06 354.58 518.72 355.24 520.13 357.38 521.51 357.98 522.41 357.73 524.21 354.72 525.29 354.38 526.6 354.42 528.54 352.22 530.88 349.75 530.53 347.75 530.86 345.74 531.8 346.01 532.98 345.52 534.09 343.19 536.39 340.73 536.68 340.06 537.49 337.94 538.88 335.54 539.84 334.76 541.52 334.75 543.61 334.28 545.28 333.39 546.03 331.6 546.52 331.26 547.49 328.55 547.95 325.53 549.64 325.39 550.55 323.02 550.61 319.57 551.18 318.15 552.57 318.49 553.3 316.87 553.73 316.1 551.55 315.02 551.18 312.87 552.23 309.88 551.92 308.04 554.13 306.18 554.88 304.82 558.02 302.34 559.2 302.05 562.14 298.54 562.35 297.96 563.4 293.23 563.17 290.17 561.82 287.29 563 287.21 564.27 284.28 566.33 282.95 568.57 282.95 570.4 283.37 571.07 282.81 573.42 282.09 574.08 279.44 575.64 277.51 574.8 271.55 573.9 270.28 573.21 267.91 572.82 265.06 570.74 263.98 570.81 259.64 574.75 257.56 574.83 255.19 575.23 254.06 576.76 255.58 578.42 252.76 578.35 250.88 578.69 249.74 579.52 248.1 579.79 246.74 581.71 246.14 583.79 244.73 585.72 243.72 585.81 243.23 586.7 242.83 589.81 242.08 592.82 238.53 595.25 237.22 598.2 235.76 600.14 231.14 602.16 229.53 601.45 227.41 601.28 225.77 601.46 223.91 599.7 221.64 598.02 220.16 599.82 218.48 600.46 218.25 603.56 219.41 604.67 219.4 605.95 217.85 608.11 217.18 610.93 217.88 612.98 219.65 615.59 220.57 619.65 220.27 621.54 218.9 623.31 218.08 623.59 218.46 624.96 221 627.68 221.02 628.24 219.24 631.31 217.91 632.05 215.51 631.64 214.51 631.2 211.32 628.51 208.23 626.42 204.81 627.83 201.65 626.08 197.63 624.69 195.58 624.79 193.87 623.36 189.34 623.96 187.75 623.83 186.81 621.74 185.01 619.56 184.71 617.75 186.57 615.58 187.78 614.53 188.88 612.1 188.46 609.52 187.53 607.52 187.97 606.45 187.79 604.9 183.93 602.49 183.47 600.9 181.97 600.4 180.27 597.5 179.56 596.89 177.22 596.02 174.49 596.48 171.84 595.6 169.94 596.5 169.19 597.97 168.12 598.95 166.8 598.25 162.62 599.86 158.78 600.36 157.38 600.25 157.24 598.56 157.82 598.05 160.01 592.76 159.54 592 154.53 590.79 153.08 590.23 151.44 587.59 152.44 585.54 149.98 585.53 147.59 586.96 144.92 588.08 141.61 591.47 139.64 591.14 136.6 592.47 132.45 593.16 130.65 592.83 126.79 593.03 127.16 591.23 126.64 589.3 124.96 588.36 123.91 585.21 125.35 583.38 125.29 581.79 123.16 580.69 123 579.52 124.32 576.07 125.07 574.62 125.7 572.16 129.23 569.08 130.24 567.87 130.4 567 129.72 565.35 126.85 559.93 125.99 559.01 126.23 557.44 127.37 556.47 128.88 556.72 129.47 556.12 129.84 554.32 130.5 553.74 128.21 550.23 129.84 547.51 128.76 545.5 131.08 544.98 132.81 542.17 132.27 541.07 131.63 537.93 132 536.01 131.41 535.12 131.87 533.78 133.32 533.33 135.78 531.94 135.7 531.01 137.07 529.98 138.43 529.63 142.33 527.82 144.08 525.51 144.49 524.34 143.85 523.45 144.77 521.98 145.3 520.26 145.06 518.79 146.16 517.57 146.51 516.38 146.11 514.24 145.79 510.27 145.98 506.37 150.76 502.71 153.8 500.64 156.1 500.75 156.38 501.27 159 500.89 160.21 500.98 162.23 501.93 163.54 501.85 164.81 501 166.93 500.81 169.13 500.27 170.7 499.38 176.49 495.22 177.79 494.1 178.49 492.29 178.58 491.06 179.44 488.94 180.99 489 182.12 490.15 182.15 491.53 183.46 492.13 187.17 492.8 188.35 494.44 190.04 494.73 190.35 493.62 191.67 494.04 191.29 495.18 191.81 496.78 194.79 497.27 196.84 496.57 198.81 493.68 199.23 492.06 199.13 489 201.14 488.47 200.7 487.15 202.67 485.92 205.37 482.4 205.09 481.31 205.52 479.38 207.2 476.07 209.34 477.02 210.89 478.33 211.83 478.11 212.34 475.64 213.07 474.32 214.44 472.86 216.31 473 217.14 474.41 218.64 474.5 220.39 476.58 221.68 477.15 222.52 476.97 224.26 475.42 226.18 473.18 227.25 472.9 228.66 473.61 232.91 476.7 235.66 477.95 235.19 481.78 234.58 483.34 234.72 484.74 235.33 485.54 236.24 488.25 237.71 488.9 239.05 488.33 240.82 488.76 245.24 490.46 247.14 490.98 249.23 490.53 250.9 491.1 252.91 491.02 252.94 492.03 251.89 493.69 251.83 495.22 253.45 496.95 256.77 499.37 257.22 500.56 258.11 501.41 260.16 502.47 262.79 503.3 263.26 504.37 264.62 504.88 265.94 503.86 267.26 503.36 268.36 503.73 271.78 506.17 272.13 506.67 274.88 507.11 279.11 504.18 280.07 504.47 282.06 504.21 283.25 502.8 285.02 504.42 288.12 506.28 291.04 506.37 292.76 505.51 294.26 505.47 295.42 506.51 297.26 506.42 299.16 505.65 301.6 506.99 302.02 507.9 305.42 509.19 311.06 509.23 315.82 509.66 318.28 510.66 319.2 512.36 321.26 513.42 323.4 514.11 323.37 516.2 323.98 516.91 325.88 516.83 326.52 514.92 327.39 514.71 329.3 515.39 335.27 515.6 337.74 515.02 339.55 513.93 341.69 513.93 343.61 514.63 345.39 514.42 348.54 515.95 351.39 515.57 Z" class="7" id="충청북도 옥천군"/>
<path d="M 187.75 623.83 189.34 623.96 193.87 623.36 195.58 624.79 197.63 624.69 201.65 626.08 204.81 627.83 208.23 626.42 211.32 628.51 214.51 631.2 215.51 631.64 217.91 632.05 219.24 631.31 221.02 628.24 221 627.68 218.46 624.96 218.08 623.59 218.9 623.31 220.27 621.54 220.57 619.65 219.65 615.59 217.88 612.98 217.18 610.93 217.85 608.11 219.4 605.95 219.41 604.67 218.25 603.56 218.48 600.46 220.16 599.82 221.64 598.02 223.91 599.7 225.77 601.46 227.41 601.28 229.53 601.45 231.14 602.16 235.76 600.14 237.22 598.2 238.53 595.25 242.08 592.82 242.83 589.81 243.23 586.7 243.72 585.81 244.73 585.72 246.14 583.79 246.74 581.71 248.1 579.79 249.74 579.52 250.88 578.69 252.76 578.35 255.58 578.42 254.06 576.76 255.19 575.23 257.56 574.83 259.64 574.75 263.98 570.81 265.06 570.74 267.91 572.82 270.28 573.21 271.55 573.9 277.51 574.8 279.44 575.64 282.09 574.08 282.81 573.42 283.37 571.07 282.95 570.4 282.95 568.57 284.28 566.33 287.21 564.27 287.29 563 290.17 561.82 293.23 563.17 297.96 563.4 298.54 562.35 302.05 562.14 302.34 559.2 304.82 558.02 306.18 554.88 308.04 554.13 309.88 551.92 312.87 552.23 315.02 551.18 316.1 551.55 316.87 553.73 318.49 553.3 318.15 552.57 319.57 551.18 323.02 550.61 325.39 550.55 325.53 549.64 328.55 547.95 331.26 547.49 329.11 551.23 329.16 552.27 331.25 554.49 332.23 556.59 331.62 558.89 331.53 560.69 332.19 562.04 333.58 563.53 334.21 566.61 333.77 567.95 335.28 572.16 340.35 570.34 343.38 570.79 345.91 570.62 349.38 571.08 352.98 572.26 354.84 568.52 356.16 565.04 358.47 561.72 362.15 558.44 365 556.27 366.31 557.85 366.74 561.27 366.28 562.12 367.17 564.87 369.73 566.78 374.65 568.72 376.63 569.36 377.62 569.04 380.97 569.79 382.63 571 382.99 572.95 385.04 574.98 387.87 576.34 390.51 576.04 390.81 576.6 391.08 581.7 391.61 582.19 394.71 581.86 397.94 584.67 399.28 584.84 400.63 584.19 402.54 585.85 403.96 585.81 406.31 584.33 408.46 583.38 408.68 582.71 407.53 580.65 408.08 579.88 410.13 578.12 411.72 578.59 415.54 578.28 417.79 575.92 419.77 575.51 421.31 576.5 425.84 573.45 427.28 573.25 429.83 574.77 430.08 575.42 432.07 576.01 436.24 575.66 436.64 577.13 440.27 579.35 444.01 580.69 446.31 581.17 448.49 582.24 447.55 584.81 444.38 584.87 443.65 585.85 441.71 589.83 438.37 591.84 439.73 594.12 443.84 598.41 444.5 600.73 443.65 602.18 445.52 604.87 448.62 605.69 450.2 605.83 450.13 607.55 449.65 608.83 450.49 611.57 453.66 613.84 454.31 614.58 451.29 614.7 447.37 617.22 443.44 618.44 440.42 615.01 439.02 614.12 436.51 612.04 434.98 611.19 430.79 610.01 426.69 609.62 424.73 610.8 421.06 611.03 420.32 610.72 417.99 612.61 417 615.03 414.78 615.3 411.81 614.76 408.29 616.15 409.38 617.41 407.92 619.5 407.21 621.77 406.73 622.18 408.78 624.55 410.21 627.16 411.8 628.39 410.81 631.2 411.15 632.53 415.14 635.27 415 636.32 415.51 638.91 418.03 639.73 419.41 640.89 418.83 641.58 415.68 643.24 413.77 645.58 414.06 646.97 414.75 647.56 413.66 649.36 414.57 654.13 414.34 655.46 413.41 656.8 411.8 657 409.96 658.37 407.15 659.96 405.36 660.39 403.73 660.38 401.78 662.59 401.67 663.73 400.85 665.63 401.18 667.39 402.45 668.85 403.04 670.55 401.69 672.92 400.67 673.87 400.52 675.65 397.67 676.26 396.95 678.79 397.46 681.19 398.32 681.42 398.82 682.95 398.9 686.32 398.35 690.28 396.53 690.93 394.71 692.07 393.18 693.55 393.33 694.11 391.98 696.44 384.09 701.46 382.45 701.61 380.54 702.41 377.91 700.69 374.98 699.71 372.78 699.62 369.88 701.81 368.5 702.08 366.59 704.01 365.08 705.9 364.61 708.4 362.76 708.89 359.64 709.28 356.4 710.88 354.25 710.27 353.44 712.33 353.45 714.81 351.79 716.44 349.89 717.51 349.58 718.03 344.34 717.3 342.36 716.18 341.95 714.93 340.2 712.84 337.34 711.99 335.68 708.4 333.21 708.05 330.11 709.04 329.39 709.69 322.68 710.65 316.54 713.8 316.05 714.3 311.07 715.31 308.25 716.03 305.68 715.66 303.47 716.58 301.69 718.69 299.73 720.19 299.19 721.26 297.88 722.68 295.56 721.57 293.45 721.62 290.72 722.17 287.56 723.63 285.38 724 282.77 723.36 281.45 721.85 283.4 718.58 282.79 716.48 281.72 716.24 278.3 717.14 277 716.19 275.89 714.82 274.5 713.86 273.11 714.36 271.73 716.41 269.95 716.16 268.41 713.41 267.27 712.34 265.34 712.3 262.5 712.68 261.59 712.29 258.19 712.61 257.13 711.11 254.3 710.27 249.17 711.13 247.2 709.86 246.17 708.17 245.02 707.25 244.18 704.46 244.77 701.86 244.18 697.49 241.7 697.42 240.7 694.73 238.69 695.01 235.96 697.3 232.2 699.35 229.54 701.29 230.73 702.96 230.7 706 231.26 706.94 229.13 708.67 226.43 709.33 224.4 708.93 223.54 708.1 222.67 703.88 221.2 700.93 220.64 698.66 219.8 698.03 217.53 697.45 217.16 694.8 214.92 692.33 212.11 691.44 210.93 690.77 208.91 688.38 209.06 687.01 208.18 683.88 206.36 682.45 205.18 680.87 202.61 678.47 199.88 678.12 199.1 676.8 199.15 674.5 198.9 670.24 200.09 668.95 200.16 667.92 198.55 666.37 196.83 666.35 195.31 663.72 194.93 662.3 192.29 662.51 188.49 659.42 184.77 655.61 182.98 653.17 183.81 651.44 183.93 650.16 183.54 647.93 185.32 643.95 186.2 642.54 188.32 641.08 190.05 638.25 189.78 637.58 189.94 633.01 188.29 630.25 186.97 629.94 185.06 628.18 186.13 626.87 185.99 626.06 187.75 623.83 Z" class="8" id="충청북도 영동군"/>
<path d="M 100.41 144.57 101.54 145.18 101.11 146.51 101.59 148.36 100.68 150.5 101.02 152.25 102.38 153.72 101.36 154.42 101.01 156.76 101.35 159.26 102.29 161.39 101.61 162.26 101.75 164.43 104.25 166.65 104.42 168.4 106.23 170.87 106.3 171.9 105.02 173.66 102.29 172.34 101.16 172.22 100.01 173.31 99.4 174.82 100.53 179.95 102.36 180.92 106.05 181.48 107.62 181 109.92 180.81 110.17 182.74 111.67 186.14 114.06 187.93 119 188.53 120.21 189.35 121.13 188.54 121.05 187.74 123.06 186.46 126.92 186.42 130.36 188.86 131.05 189.65 133.83 189.73 135.55 190.83 137.72 191.13 137.87 192.03 139.02 194.08 142.32 195.63 145.41 201.26 147.03 202.51 149.34 201.73 151.78 202.5 154.89 205.37 157.75 206.92 157.94 208.34 160.25 209.38 161.87 209.55 162.23 211.22 161.16 212.44 163.11 213.94 162.9 215.48 163.37 216.94 166.22 217.66 166.71 218.88 167.43 219.22 169.59 218.64 170 216.98 171.21 217.52 172.27 219.02 173.68 221.86 175.11 220.52 176.18 220.64 177.36 221.66 179.49 222.69 180.41 223.65 180.45 226.21 178.23 228.28 176.27 228.32 175.53 229.41 176.22 230.65 174.9 233.05 176.49 235.73 176.47 236.86 175.37 237.52 173.57 237.47 172.58 237.88 173.65 239.53 172.6 241.47 173.24 242.96 170.92 244.57 171.8 247.43 171.24 249.53 172.5 250.74 176.52 249.75 177.04 250.55 175.66 251.57 174.75 253.46 172.9 255.33 167.71 256.48 165.69 256.12 163.37 256.82 161.93 258.22 160.11 259.47 158.86 259.52 157.09 259.09 155.44 259.96 152.74 261.94 155.37 265 159.01 267.88 162.48 267.07 163.91 268.61 165.51 272.29 166.67 274.32 167.34 276.16 168.6 276.98 168.67 278.38 166.52 279.33 163.19 279.87 159.9 281.16 151.7 282.85 150.14 283.73 148.77 284.07 140.9 285.08 136.48 286.17 135.5 285.58 136.52 284.6 137.07 282.98 136.16 280.42 133.98 278.83 129.42 278.53 126.06 281.94 124.02 281.19 121.55 280.73 119.85 281.15 120.17 281.78 115.88 284.12 113.94 285.02 108.91 284.18 108.16 284.39 106.99 286.78 104.69 288.41 102.65 289.55 102.04 290.68 101.57 292.83 102.65 296.28 101.45 296.58 97.71 296.29 96.95 294.68 95.19 294.03 93.81 295.05 88.83 295.47 87.71 293.9 87.62 292.5 88.73 291.53 87.29 290.86 85.54 291.51 84.53 291.49 84.95 289.65 84.06 288.79 81.68 285.25 81.17 284.15 79.4 282.69 75.89 281.67 75.03 281.74 73.83 280.17 74.01 279.24 73 278.04 70.5 277.1 70.2 276.16 71.13 272.76 74.1 269.74 73.56 267.46 71.65 267.12 69.17 264.6 68.24 263.11 65.14 261.34 62.37 258.76 56.26 257.24 55.43 257.5 53.75 257.08 52.22 255.47 48.82 253.9 48.26 253.26 48.8 252.17 47.62 250.3 44.43 249.06 41.12 249.64 38.69 249.04 36.34 249.68 35.15 249.14 34.89 248.15 35.77 245.21 34.94 244.83 35.19 242.48 36.46 240.45 36.13 238.43 36.28 235.2 35.3 234.33 31.43 233.18 29.34 233.92 26.67 233 24.75 232.59 22.5 233.59 19.35 232.29 19.28 231.36 18.48 230.16 20.09 228.08 21.27 227.54 21.38 225.69 20.51 219.53 19.69 217.39 17.37 216.97 14.7 214.83 12.79 214.85 10.76 213.57 9.66 213.44 9.43 210.42 11.5 208.73 13.59 206.61 15.12 203.18 16 202.11 17.07 199.4 15.45 197.56 14.11 195.44 12.44 191.94 13.04 191.46 15.23 191.85 20.34 191.86 22.83 190.78 24.52 188.76 29.17 188.07 30.67 188.06 32.7 187.11 34.37 185.5 38.67 183.89 39.7 182.03 41.12 180.29 43.9 178.28 46.43 178.35 48.53 181.24 50.93 180.19 56.88 179.95 57.49 180.5 59.07 179.96 60.47 178.69 60.78 177.52 60.52 176.35 61.29 174.83 64.3 174.31 65.72 171.51 69.07 170.83 71.08 171.47 71.96 171.28 74 169.64 70.99 166.39 71.06 165.55 69.61 164.12 66.95 162.44 65.04 161.68 64.43 160.06 68.07 155.73 68.78 152.81 69.75 151.83 74.58 151.52 77.07 151.86 79.69 150.78 81.78 150.9 83.87 149.75 85.42 148.59 89.82 149.62 92.27 148.23 94.09 147.77 94.62 146.06 96.79 143.86 98.95 143.92 100.41 144.57 Z" class="9" id="충청북도 진천군"/>
<path d="M 455.38 257.42 455.4 259.04 454.48 260.11 453.99 261.63 454.64 262.86 452.93 263.39 452.71 264.41 453.58 267.85 452.91 271.19 451.91 271.75 450.72 273.4 450.06 275.28 449.05 276.66 447.45 277.12 448.23 279.34 446.94 281.67 447.01 283.72 445.17 285.25 442.7 289.54 439.8 292.94 439.78 297.35 441.52 298.77 445.59 301.35 450.44 303.65 452.3 306.44 453.25 307.3 454.93 307.45 456.2 309.35 460.46 312.05 462.62 316.4 463.2 318.05 461.85 320.48 459.82 320.13 455.07 319.75 451.28 320.45 449.85 320.45 447.97 319.49 446.08 317.74 442.35 316.29 440.22 314.95 438.93 313.76 435.9 313.73 433.17 312.23 432.28 311.2 432.37 310.43 429.64 307.43 427.57 307.77 426.46 308.49 424.81 310.18 424.57 311.59 422.16 314.94 420.65 314.86 419.55 314.32 416.08 314.5 415.06 314.87 413.41 314.77 409.49 313.17 405.46 309.75 404.65 307.81 403.7 306.83 401.67 306.47 399.67 305.58 398.16 303.37 396.94 303.57 396.08 304.3 394.35 311.26 392.88 312.99 391.57 313.42 391.38 316.82 391.82 317.62 391.77 320.28 390 321.34 387.92 320.95 382.51 321.19 381.01 323.84 381.4 326.36 381.36 328.19 379.82 330.26 378.45 330.57 376.16 329.52 372.24 328.43 370.42 329.21 366.2 328.93 362.2 328.95 359.5 328.21 355.95 329.88 352.53 333.21 352.57 334.57 350.72 335.02 348.98 334.77 348.14 335.42 349.86 336.71 351.45 337.3 353.14 336.88 355.27 337.09 358.21 335.14 359.99 335.89 363.51 335.91 368.01 336.85 370.57 337.9 373.31 343.6 376.49 343.44 379.15 342.96 380.19 343.07 380.35 344.33 381.72 345.53 381.76 347.34 381.37 348.37 381.39 350.83 382.8 352.03 385.71 352.37 385.49 354.67 385.66 356.29 383.76 357.34 382.94 359.13 382.65 362.03 383.9 363.82 382.09 366.29 381.57 368.33 382.11 371.13 381.82 372.09 380.14 372.82 377.6 373.43 377.01 374.01 376.94 375.56 377.68 381.34 376.93 381.8 374.62 382.32 373.9 380.98 373.95 377.93 371.12 375.88 369.65 374.08 369.48 373.22 368.05 370.1 368.01 369.1 367.21 367.99 364.81 367 361.99 367.53 357.53 366.28 356.44 364.83 356.03 362.87 356.82 361.54 356.64 359.52 354.3 358.15 352.81 355.99 352.24 352.87 351.46 350.04 349.36 350.25 347.93 351.03 347.64 352.69 345.59 355.55 344.95 356.95 342.99 359.02 341.9 359.36 341.63 361.11 340.6 362.33 337.87 362.97 335.81 362.78 333.42 362.88 332.17 363.25 334.38 364.84 334.4 366.06 332.8 368.5 333.94 371.61 334.74 372.32 337.37 372.77 338.87 375.12 337.06 376.08 334.99 375.28 333.94 375.36 332.46 376.52 328.42 378 326.89 377.53 325.49 376.48 323.71 375.66 322.42 375.65 321.02 376.72 317.23 375.25 317.41 376.34 315.56 378.11 311.97 378.67 309.9 379.61 308.82 380.85 306.21 381.89 304.19 381.76 303.46 380.43 302.14 379.38 300.31 376.98 297.09 374.98 296.11 375.61 294.29 377.89 291.54 378.3 287.37 380.65 285.17 376.84 284.55 375.4 282.03 373.33 275.81 369.64 276.05 368.25 274.63 367.14 273.04 366.43 272.35 364.92 270.28 363.73 269.19 361.18 269.66 359.73 269.16 359.02 267.23 359.96 265.27 358.39 262.06 357.05 260.62 353.21 258.15 352.81 256.07 353.02 254.42 353.77 252.5 351.62 253.4 350.14 254.2 349.78 254.17 347.91 253.03 346.55 254.74 343.32 258.23 341.87 261.55 339.31 262.16 338 262.33 335.81 261.38 335.5 260.08 333.96 257.44 331.7 254.74 330.71 254.66 327.66 251.99 324.76 249.69 324.12 248.35 322.76 248.69 319.82 246.97 318.74 245.5 319 242.83 317.95 241.17 316.6 240.11 315.05 239.98 313.46 238.98 312.96 238.1 313.54 237.65 314.89 235.21 315.04 233.96 313.47 230.49 311.8 229.61 310.41 226.49 307.55 225.07 306.12 223.7 306.34 222.03 306.05 220.58 305.01 218.73 305 218.08 306 213.06 306.52 211.51 305.83 211.66 302.82 209.97 300.98 210.29 298.61 209.59 297.71 209.69 294.73 207.87 294.07 205.91 292.25 202.81 289.7 203.9 286.74 204.76 285.65 205.72 282.89 205.04 280.63 203.43 280.29 201.16 279.35 200.95 278.42 201.22 273.97 203.86 273.13 204.95 270.87 207.64 270.56 208.97 270.67 211.38 269.08 213.4 266.5 212.35 264.93 209.68 263.8 208.81 262.7 209.63 260.46 209.36 259.47 206.54 257.51 206.47 253.8 206.8 251.37 207.45 249.23 208.79 246.76 209.93 245.43 211.46 243.07 211.8 241.64 210.73 240.3 210.85 239.69 211.19 238.07 213.45 234.58 215.25 233.05 219.47 231.61 222.26 231.76 224.68 232.24 228.67 233.96 230.56 235.41 232.43 236.1 234.22 237.37 234.74 236.4 235.67 236.16 237.18 234.76 239.25 232.19 239.62 230.67 239.11 229.97 238.88 227.19 239.94 225.97 241.14 225.42 242.34 222.44 242.46 221.23 243.57 220.48 245.62 220.24 248.07 221.57 251.55 222.88 252.03 221.45 255.47 221.22 255.98 221.98 258.46 221.98 260.26 221.6 261.7 220.47 264.69 221.37 267.5 220.55 268.82 221.3 272.28 222 273.41 221.66 274.69 222.7 274.86 223.75 276.37 224.39 279.8 224.21 281.26 223.92 283.29 221.97 284.7 222.48 285.73 223.55 287.62 222.76 288.12 221.93 290.45 221.74 295.42 220.29 297.95 220.14 298.58 218.99 298.88 217.3 298.2 215.98 297.59 212.1 298.93 210.73 300.35 210.29 300.63 209.26 300.08 207.89 297.22 206.88 296.31 205.7 297.07 205.3 300.28 204.94 299.94 206.27 300.93 206.84 303.11 207.18 303.7 206.59 304.06 203.8 301.79 199.49 301.09 199.12 299.44 199.26 298.99 199.81 297.37 199.73 295.87 198.68 295.1 196.02 294.3 194.89 296.48 194.65 298.35 193.34 298.71 192.29 298.12 187.33 300.2 186.48 301.23 185.29 302.12 182.27 304.96 181.33 308.88 182.25 309.3 183.24 309.21 184.78 310.53 185.94 313.38 185.27 316.78 184.86 317.56 183.7 320.03 184.44 320.26 185.25 324.16 185.79 324.26 186.95 323.5 188.38 325.15 190.75 325.81 191.31 328.17 191.49 329.99 192.83 330.09 193.47 328.23 197.4 329.47 198.81 327.16 200.66 327.76 201.6 331.77 203.54 334.6 203.68 336.98 204.71 338.88 206.05 340.11 209.08 342.16 211.1 344.41 210.6 346.92 211.46 352.32 211.32 353.19 214.53 358.32 213.9 360.7 213 363.09 210.98 364.88 212.65 365.13 215.91 367.77 216.93 368.86 216.74 370.99 217.22 371.26 217.85 373.18 219.87 374.27 219.82 377.13 218.82 379.99 216.96 381.67 216.1 384.08 215.86 387.76 215.94 389.69 215.81 392.77 216.9 393.14 217.77 392.01 218.76 389.4 223.06 389.41 224.29 390.01 224.94 391.99 225 394.84 226.93 395.91 227.23 398.21 229.14 399.82 231.4 403.27 232.49 401.84 237.37 402.61 238.23 404.94 241.87 406.16 242.51 407.79 245.96 406.72 246.89 404.56 250.65 405.02 252.15 407.12 253.17 410.51 253.34 411.23 256.56 410.83 257.66 412.5 257.58 414.28 258.2 416.73 259.58 419.75 259.42 422.41 260.87 425.06 261.76 427.75 262.99 431.57 262.13 433.28 260.97 434.39 259.32 434.77 258.03 433.89 256.84 434.85 253.61 434.38 252.56 434.97 251.85 437.57 252.48 438.56 252.23 442.13 252.65 443.66 254.51 445.52 254.98 448.43 254.03 449.43 254.47 450.32 255.51 451.49 256.09 452.73 255.88 455.38 257.42 Z" class="10" id="충청북도 괴산군"/>
<path d="M 244.45 69.41 247.23 70.94 250.76 71.35 252.7 72.46 253.43 74.02 252.94 74.5 254.04 76.75 255.56 78.03 257.3 78.17 258.98 79.49 259.91 80.79 260.33 83.63 259.31 86.44 257.08 87.3 256.01 87.2 254.41 89.18 252.2 89.73 250.49 89.85 248.19 91.1 246 93.21 245.92 93.9 247.11 96.2 246.69 97.72 243.27 101.25 242.54 103.7 239.3 103.92 237.66 105.35 237.36 107.19 239.23 108.38 240.59 112.79 241.37 115.92 241.42 118.24 241.94 120.09 238.47 123.58 235.25 125.03 233.7 125.28 231.87 127.12 230.82 127.56 230.58 129.27 230.85 130.78 228.2 131.62 226.36 133.15 226.68 135.43 226.55 137.43 224.43 138.42 221.72 141.66 221.97 143.4 223.79 146.18 225.66 148.38 222.36 149.16 221.53 149.87 219.95 152.34 220.01 154.85 219.56 155.71 219.63 157.71 220.22 158.69 218.57 160.5 218.89 160.99 222.03 162.85 224.91 164.01 227.98 163.27 229.22 161.1 228.64 160.28 226.11 160.18 227.79 158.61 229.85 157.96 230.92 159.09 232.57 159.16 234.2 158.78 236.67 159.37 239.14 159.08 239.73 159.88 239.31 161.64 244.01 163.75 243.87 165.41 245.64 166 247.37 166.08 249.02 167.51 249.4 168.81 250.46 170.74 252.94 171.52 255.49 173.45 256.52 175.02 259.86 174.84 261.98 175.11 262.64 174.64 264.44 175.28 265.63 176.65 266.15 177.77 268.57 177.54 269.85 178.52 270.94 178.43 272.92 177.54 273.26 176.67 276.66 176.03 277.77 175.29 278.63 177.08 280.79 178.36 283.04 180.42 284.09 182.03 283.23 183.34 284.67 185.82 285.68 185.64 287.7 187.57 290.04 189.32 290.93 189.56 294.01 188.68 295.99 187.03 298.12 187.33 298.71 192.29 298.35 193.34 296.48 194.65 294.3 194.89 295.1 196.02 295.87 198.68 297.37 199.73 298.99 199.81 299.44 199.26 301.09 199.12 301.79 199.49 304.06 203.8 303.7 206.59 303.11 207.18 300.93 206.84 299.94 206.27 300.28 204.94 297.07 205.3 296.31 205.7 297.22 206.88 300.08 207.89 300.63 209.26 300.35 210.29 298.93 210.73 297.59 212.1 298.2 215.98 298.88 217.3 298.58 218.99 297.95 220.14 295.42 220.29 290.45 221.74 288.12 221.93 287.62 222.76 285.73 223.55 284.7 222.48 283.29 221.97 281.26 223.92 279.8 224.21 276.37 224.39 274.86 223.75 274.69 222.7 273.41 221.66 272.28 222 268.82 221.3 267.5 220.55 264.69 221.37 261.7 220.47 260.26 221.6 258.46 221.98 255.98 221.98 255.47 221.22 252.03 221.45 251.55 222.88 248.07 221.57 245.62 220.24 243.57 220.48 242.46 221.23 242.34 222.44 241.14 225.42 239.94 225.97 238.88 227.19 239.11 229.97 239.62 230.67 239.25 232.19 237.18 234.76 235.67 236.16 234.74 236.4 234.22 237.37 232.43 236.1 230.56 235.41 228.67 233.96 224.68 232.24 222.26 231.76 219.47 231.61 215.25 233.05 213.45 234.58 211.19 238.07 210.85 239.69 209.51 239.55 206.82 241.19 204.38 242.25 204.15 243.55 202.86 246.27 201.16 245.6 198.1 247.26 197.01 246.22 196.78 241.53 195.75 239.2 196.69 237.11 198.04 236.22 199.22 233.44 198.71 232.89 197.04 233.05 192.98 236.05 190.94 236.83 187.07 237 184.81 233.91 181.57 233.71 180.82 232.35 179.55 232.07 178.34 232.36 176.61 233.44 176.18 234.75 176.49 235.73 174.9 233.05 176.22 230.65 175.53 229.41 176.27 228.32 178.23 228.28 180.45 226.21 180.41 223.65 179.49 222.69 177.36 221.66 176.18 220.64 175.11 220.52 173.68 221.86 172.27 219.02 171.21 217.52 170 216.98 169.59 218.64 167.43 219.22 166.71 218.88 166.22 217.66 163.37 216.94 162.9 215.48 163.11 213.94 161.16 212.44 162.23 211.22 161.87 209.55 160.25 209.38 157.94 208.34 157.75 206.92 154.89 205.37 151.78 202.5 149.34 201.73 147.03 202.51 145.41 201.26 142.32 195.63 139.02 194.08 137.87 192.03 137.72 191.13 135.55 190.83 133.83 189.73 131.05 189.65 130.36 188.86 126.92 186.42 123.06 186.46 121.05 187.74 121.13 188.54 120.21 189.35 119 188.53 114.06 187.93 111.67 186.14 110.17 182.74 109.92 180.81 107.62 181 106.05 181.48 102.36 180.92 100.53 179.95 99.4 174.82 100.01 173.31 101.16 172.22 102.29 172.34 105.02 173.66 106.3 171.9 106.23 170.87 104.42 168.4 104.25 166.65 101.75 164.43 101.61 162.26 102.29 161.39 101.35 159.26 101.01 156.76 101.36 154.42 102.38 153.72 101.02 152.25 100.68 150.5 101.59 148.36 101.11 146.51 101.54 145.18 100.41 144.57 101.29 143.27 101.13 141.29 102.64 139.69 104.25 138.56 106.95 139.01 107.75 136.35 107.39 134.96 106.08 133.46 107.69 130.21 107.73 128.76 106.27 127.55 106.5 125.57 108.6 123.71 112.76 121.67 112.23 120.43 112.66 119.85 114.8 119.67 116.79 120.14 121.48 119.78 123.25 119.1 125.62 120.81 127.23 121.57 129.15 122.97 130.56 123.28 133.82 122.96 136.25 122.22 136.9 120.21 138.35 118.19 140.66 117.23 141.87 117.49 144.06 118.61 147.28 118.91 148.86 118.51 150.11 118.86 150.33 119.85 151.27 120.74 154.85 121.45 159.26 123.94 161.27 124.7 164.1 126.95 167.15 125.29 169.83 123.43 171.39 122.85 170.11 120.96 170.45 118.91 168.63 116.52 169.32 114.78 171.92 111.5 173.82 109.96 174.87 108.47 176.31 107.17 179.25 107.1 181.41 107.72 182.36 108.32 184.23 108.47 186.31 108.03 187.75 108.49 189.54 109.76 190.79 111.11 191.46 109.96 191.95 106.7 189.71 104.54 188.82 101.09 186.63 99.64 191.11 100.08 191.53 100.56 193.34 100.73 196.01 100.26 198.41 98.73 200.34 98.55 203.62 96.75 207.53 94.91 208.81 93.61 209.48 90.74 208.87 88.65 209.95 85.59 210 84.36 208.28 81.17 209.67 75.34 210.99 69.13 210.79 68.49 208.59 66.61 205 62.86 205.5 60.79 207.5 61.51 212.09 62.48 215.23 63.33 216.97 63.51 219.45 64.99 221.19 66.51 221.41 67.32 223.84 69.71 225.3 70.13 227.36 69.97 229.8 71.92 232.43 71.82 235.85 72.18 237.3 71.9 239.41 72.53 240.46 72.25 244.45 69.41 Z" class="11" id="충청북도 음성군"/>
<path d="M 561.26 224.96 561.74 223.48 562.01 221.11 566.53 217.77 564.42 215.6 562.41 214.15 562.39 211.07 563.84 206.4 563.58 204.96 562.42 204.5 561 201.74 559.03 200.92 558.3 199.27 558.22 192.98 558.01 191.1 558.28 189.18 561.84 187.48 562.79 187.57 564.27 186.93 564.45 186.14 563 184.62 564.48 183.01 566.65 184.28 569.38 183.39 570.82 181.42 572.42 180.32 573.85 180.19 574.41 178.56 572.72 177.98 571.6 177.08 575.01 174.11 574.77 173.26 572.72 169.64 571.8 166.7 571.42 163.28 570.07 159.75 570.94 154.76 569.93 153.35 569.48 152.03 570.41 150.8 569.52 147.67 568.3 145.45 566.61 144.73 565.36 143.56 563.62 141.18 562.47 138.65 559.33 136.33 558.74 136.24 553.27 136.68 551.54 135.1 550.96 132.69 551.17 130.98 549.2 129.94 546.94 129.19 548.6 126.75 548.02 124.29 549.22 122.13 547.95 120.85 547.37 119.37 549.71 118.34 551.37 116.15 551.72 114.72 553.23 114.38 556.29 113.23 558.35 112.93 559.22 111.94 559.2 109.57 559.86 108.18 562.6 106.65 564.14 106.26 565.57 107.31 566.5 106.73 566.56 105.63 569.03 103.29 570.14 102.85 573.14 102.85 575.43 101.63 577.37 99.98 575.58 99.85 573.15 98.5 572.51 96.54 572.69 95.39 571.58 93.37 569.7 92.73 569.69 92.02 571.83 90.39 573.47 88.54 575.05 88.34 576.07 85.01 579.36 82.99 582.01 83.69 582.64 84.82 582.11 86.62 583.69 88.15 584.62 87.69 586.85 89.68 587.52 91.6 589.57 92.34 591.49 93.99 594.09 93.39 595.39 93.72 597.21 92.68 598.77 87.66 599.88 87.15 600.19 85.96 599.85 84.45 598.37 83.87 597.42 82.82 596.92 80.11 597.16 76.45 596.28 75.73 594.03 73.03 598.68 71.09 599.37 69.2 601.7 66.54 604.69 65.27 607.59 64.51 609.17 65.04 610.07 64.38 611.14 62.11 612.78 63.66 614.41 62.42 615.58 59.65 617.31 59.13 618.47 59.16 619.69 60.41 624.08 59.84 624.87 59.56 629.91 63.48 631.05 62.29 632.36 60.13 638.44 61.94 639.48 62.87 640.32 62.85 641.68 60.96 643.24 60.06 643.98 59.19 646.47 61.18 648.65 61.89 649.03 62.85 650.9 64.7 653.49 65.67 653.59 66.45 655.11 69.88 654.02 72.67 653.44 73.53 651.9 74.49 650.67 76.28 656.32 77.21 657.21 77.56 659.39 80.02 661.7 81.04 663.7 81.37 664.59 82.42 664.52 83.41 665.19 84.92 666.65 85.76 665.83 86.97 666.08 90.12 667.51 91.43 670.45 90.74 670.72 88.95 673.6 87.35 673.42 86.33 674.87 86.41 677.74 87.51 679.09 88.95 682.09 85.91 685.06 85.99 686.64 86.91 693.36 87.02 698.1 86.98 699.88 86.09 700.39 84.64 705.75 79.05 708.97 77.9 710 79.09 712.7 81.46 712.82 81.98 714.84 83.91 716.79 84.74 718.54 88.45 719.19 90.71 721.05 91.39 724.65 91.56 727.04 91.98 729.04 92.86 730.77 93.96 731.6 97.59 733.08 98.89 739.58 100.67 742.2 100.65 743.84 100.28 746.75 98.53 750.06 99.69 751.99 101.01 754.12 103.71 758.37 103.5 763.64 105.42 764.96 105.41 765.47 103.97 767.16 103.07 769.9 102.7 769.36 104.73 769.91 105.37 772.5 106.38 773.58 105.92 774.71 104.52 777.68 103.38 779.13 102.01 782.09 100.18 783.2 101.9 785.36 103.7 784.79 105.94 785.32 107.28 788.57 109.27 790.96 109.31 793.7 109.83 795.59 110.8 798.3 112.69 799 113.81 795.71 115.44 793.87 117.72 790.91 120.98 788.98 123.88 787.98 126.68 788.05 127.39 785.35 126.44 783.26 124.51 782.2 124.58 781.56 123.8 781.55 122.41 779.25 121.49 774.62 120.7 773.85 120.24 773.07 122.02 773.55 123.38 773.09 125.45 771.95 125.75 769.91 125.3 767.83 125.88 767.12 126.65 764.6 126.59 763.59 125.88 760.86 125.97 759.41 125.51 758.6 126.15 757.69 128.14 756.7 128.63 755.71 130.34 752.48 130.2 750.32 131.23 748.9 133.07 749.78 135.8 751.06 137.12 753.07 138.14 753.25 138.82 751.76 142.77 750.06 144.21 747.77 145.01 747.46 146.31 743.92 147.55 743.3 149.25 743.22 150.84 741.93 152.36 735.32 155.42 731.58 156.56 728.18 156.22 726.06 156.65 720.79 158.48 719.94 158.53 719.79 160.59 719.01 162.26 719.45 163.89 718.57 164.56 715.38 166.18 714.86 168.14 712.28 169.52 707.41 171.53 704.92 171.93 702.76 173.12 702.21 175.56 700.21 175.31 697.66 175.58 691.93 179.06 689.39 181.42 689.76 183.52 687.82 187.99 688.01 189.18 685.97 189.34 683.52 191.09 682.23 191.04 679.34 192.59 677.19 193.03 677.93 196.19 677.82 197.39 678.95 198.64 678.93 200.96 677.95 202.99 676.27 207.24 676.34 208.18 674.16 209.88 670.72 213.22 669.82 213.52 668.52 215.15 669.31 217.75 668.67 219.78 667.36 220.87 666.88 222.53 669.35 223.38 671.37 223.1 674.4 224.25 677.62 227.35 678.11 227.21 680.82 229.57 681.47 230.45 680.7 231.26 680.04 235.96 681.42 239.17 680.25 241.6 677.65 243.67 677.05 245.11 675.8 245.86 672.76 247.12 672.47 250.9 671.57 252.97 669.23 254.82 668.08 256.27 667.63 258.35 664.86 260.25 661.74 259.86 660.51 260.39 657.73 259.81 656.5 260.01 652.77 259.46 649.71 258.3 643.32 258.95 641.49 259.59 637.51 262.48 637.18 263.79 634.66 265.72 633.01 265.17 632.16 265.64 630.53 265.27 628.1 263.26 627.91 260.77 625.83 259.71 622.97 259.38 618.77 258.47 614.34 257.06 607.09 257.85 604.54 257.26 604.15 256.82 604.13 253.73 601.72 252.4 600.97 251.26 599.63 250.32 597.68 249.76 595.95 247.98 592.46 246.42 590.61 243.83 588.61 241.45 587.2 240.8 586.62 239.52 586.68 238.05 584.83 234.46 583.61 233.88 581.18 233.77 576.77 231.93 576.02 230.6 574.6 229.68 573.79 229.68 568.36 228.38 564.18 226.71 561.26 224.96 Z" class="12" id="충청북도 단양군"/>
<path d="M 210.85 239.69 210.73 240.3 211.8 241.64 211.46 243.07 209.93 245.43 208.79 246.76 207.45 249.23 206.8 251.37 206.47 253.8 206.54 257.51 209.36 259.47 209.63 260.46 208.81 262.7 209.68 263.8 212.35 264.93 213.4 266.5 211.38 269.08 208.97 270.67 207.64 270.56 204.95 270.87 203.86 273.13 201.22 273.97 200.95 278.42 201.16 279.35 203.43 280.29 205.04 280.63 205.72 282.89 204.76 285.65 203.9 286.74 202.81 289.7 205.91 292.25 207.87 294.07 209.69 294.73 209.59 297.71 210.29 298.61 209.97 300.98 211.66 302.82 211.51 305.83 213.06 306.52 218.08 306 218.73 305 220.58 305.01 222.03 306.05 223.7 306.34 225.07 306.12 226.49 307.55 226.47 308.31 225.16 310.43 224.69 312.01 224.78 313.72 225.42 316.25 223.7 317.72 223.31 319.22 220.88 322.4 218.77 323.78 216.77 324.21 213.67 323.43 212.98 321.67 211.26 320.33 208.41 319.82 208.16 320.36 206.37 320.73 204.95 320.62 202.42 322.27 199.48 320.63 200.05 316.38 199.87 315.17 198.18 313.51 197.46 310.39 195.69 308 194.63 307.42 195.08 306.23 195.2 304.49 193.89 303.46 192.6 299.75 191.59 298.59 189.74 298.5 188.09 299.29 186.76 299.05 183.76 297.33 183.47 294.13 181.65 292.79 182.35 291.72 182.59 289.72 179.86 289.02 178.65 287.21 176.95 286.08 175.74 286.44 174.61 285.85 173.3 284.49 170.16 282.46 170.1 281.1 168.67 278.38 168.6 276.98 167.34 276.16 166.67 274.32 165.51 272.29 163.91 268.61 162.48 267.07 159.01 267.88 155.37 265 152.74 261.94 155.44 259.96 157.09 259.09 158.86 259.52 160.11 259.47 161.93 258.22 163.37 256.82 165.69 256.12 167.71 256.48 172.9 255.33 174.75 253.46 175.66 251.57 177.04 250.55 176.52 249.75 172.5 250.74 171.24 249.53 171.8 247.43 170.92 244.57 173.24 242.96 172.6 241.47 173.65 239.53 172.58 237.88 173.57 237.47 175.37 237.52 176.47 236.86 176.49 235.73 176.18 234.75 176.61 233.44 178.34 232.36 179.55 232.07 180.82 232.35 181.57 233.71 184.81 233.91 187.07 237 190.94 236.83 192.98 236.05 197.04 233.05 198.71 232.89 199.22 233.44 198.04 236.22 196.69 237.11 195.75 239.2 196.78 241.53 197.01 246.22 198.1 247.26 201.16 245.6 202.86 246.27 204.15 243.55 204.38 242.25 206.82 241.19 209.51 239.55 210.85 239.69 Z" class="13" id="충청북도 증평군"/>
</g>
</svg>